<svg xmlns="http://www.w3.org/2000/svg" viewBox="0 0 1722.15 488.03"><g id="Capa_2" data-name="Capa 2"><g id="Capa_2-2" data-name="Capa 2"><path d="M52.11,349.32a42.93,42.93,0,0,1-17-3.19,33,33,0,0,1-12.59-9.4,42,42,0,0,1-7.8-15.42,78.47,78.47,0,0,1-2.66-21.62,79.32,79.32,0,0,1,3.37-23.4,45.78,45.78,0,0,1,12-19.5q8.69-8.51,24.47-13.65T92.53,238V205q0-11.7-2.49-19.49A20.13,20.13,0,0,0,81.54,174q-6-3.72-16.31-3.72-12.77,0-19,5.85a28.1,28.1,0,0,0-8.15,15.07,99.66,99.66,0,0,0-2,20.56v2.48H18.79a17.71,17.71,0,0,1-.35-3.54v-4.26q0-20.55,6.91-31.73T43.07,159a59.57,59.57,0,0,1,23.58-4.61q13.11,0,22.86,4.43t15.42,15.07q5.67,10.64,5.68,29.78V319.89c0,4.49.76,7.69,2.3,9.57a6.86,6.86,0,0,0,5.49,2.84h12.06V344c-2.61.95-5.5,1.95-8.69,3a31.56,31.56,0,0,1-10.1,1.6q-7.1,0-11.17-3.73A18.56,18.56,0,0,1,95,335a61,61,0,0,1-1.42-13.65H91.46a69.5,69.5,0,0,1-9.21,14.54,37.32,37.32,0,0,1-12.77,9.92A40,40,0,0,1,52.11,349.32ZM56,333a28.26,28.26,0,0,0,12.05-3,36.23,36.23,0,0,0,11.88-9.4q5.49-6.37,9-17t3.55-25.17V252.89q-25.18.36-38.47,6.38T36,275.4a52.81,52.81,0,0,0-4.78,22.87A58,58,0,0,0,34,317.59q2.84,8,8.33,11.7C46,331.77,50.57,333,56,333Z" transform="translate(-12.05)"/><path d="M191.08,349.32q-15.62,0-25.53-10.11t-14.71-31.9q-4.78-21.81-4.79-56.9,0-34.38,4.43-55.48t14.18-31q9.75-9.91,25.71-9.92a35.68,35.68,0,0,1,15.06,3,30.9,30.9,0,0,1,11.17,8.68A46.44,46.44,0,0,1,224,179.15h1.78V88.4h36.87V345.06H232.55l-2.83-23h-1.78a43.39,43.39,0,0,1-12.58,19.14Q206.32,349.32,191.08,349.32Zm13.47-33q8.14,0,12.58-6.21t6.56-18.08a169.16,169.16,0,0,0,2.13-29.24V243a179,179,0,0,0-1.42-24.29A79.71,79.71,0,0,0,220.5,202q-2.49-6.56-6.74-9.57a16.69,16.69,0,0,0-9.92-3,13.94,13.94,0,0,0-11.17,5.31q-4.44,5.33-6.56,17T184,242.61v20.21q0,18.44,1.95,30.31t6.55,17.55A14.79,14.79,0,0,0,204.55,316.35Z" transform="translate(-12.05)"/><path d="M327.56,349.32a46.63,46.63,0,0,1-17.73-3.19,33.06,33.06,0,0,1-13.11-9.58,42.05,42.05,0,0,1-8-15.95,82.41,82.41,0,0,1-2.66-22,75.46,75.46,0,0,1,4.08-25.34,51.46,51.46,0,0,1,13.12-20.21q9-8.69,24.46-13.47t37.75-4.79V209.64a35.61,35.61,0,0,0-2.12-13.11,18.26,18.26,0,0,0-6.39-8.34,17.37,17.37,0,0,0-10.28-3q-8.16,0-12.41,3.72a18.09,18.09,0,0,0-5.67,9.75,62.87,62.87,0,0,0-1.41,14.18v2.48H292.82a12.17,12.17,0,0,1-.36-3v-3.37q0-19.85,7.27-31.9a42.56,42.56,0,0,1,20-17.55Q332.53,154,349.18,154q15.6,0,27.66,5.13T395.62,177q6.74,12.76,6.74,36.16v93.23c0,3.79.71,6.68,2.13,8.69s3.66,3,6.73,3h8.87v25.17A62.87,62.87,0,0,1,408,347.37,58.45,58.45,0,0,1,394.56,349q-8.51,0-13.83-3.19a22.38,22.38,0,0,1-8.33-8.86,33.63,33.63,0,0,1-3.72-12.41h-1.77a57,57,0,0,1-8.86,12.41,39.73,39.73,0,0,1-12.76,9A42.88,42.88,0,0,1,327.56,349.32Zm14.18-31.2a14.9,14.9,0,0,0,8.69-2.84,30.91,30.91,0,0,0,7.62-8,39.73,39.73,0,0,0,5.49-12.76,67.88,67.88,0,0,0,1.95-16.84V257.85q-17.73,0-26.41,4.79t-11.87,12.59A45.39,45.39,0,0,0,324,292.6,42.79,42.79,0,0,0,326,306.42a18,18,0,0,0,5.85,8.69A15.76,15.76,0,0,0,341.74,318.12Z" transform="translate(-12.05)"/><path d="M434.62,345.06V158.24h31.55l2.48,23h1.42a50,50,0,0,1,9.57-15.6,35.38,35.38,0,0,1,12.94-8.86A43,43,0,0,1,508.35,154q13.11,0,21.27,5t12.06,15.6q3.89,10.63,3.9,26.94V345.06H508.35V211.77a53,53,0,0,0-.71-8.86,31,31,0,0,0-2.12-7.45,9.73,9.73,0,0,0-4.43-4.78,17.46,17.46,0,0,0-19.68,3.54q-5,5.15-7.62,15.42t-2.66,26.24V345.06Z" transform="translate(-12.05)"/><path d="M564,345.06v-17l62.75-139H568.62V158.24H672.49v15.95L609.74,313.51H675v31.55Z" transform="translate(-12.05)"/><path d="M726.37,349.32a46.54,46.54,0,0,1-17.72-3.19,33.1,33.1,0,0,1-13.12-9.58,42.2,42.2,0,0,1-8-15.95,82.41,82.41,0,0,1-2.66-22A75.46,75.46,0,0,1,689,273.28a51.57,51.57,0,0,1,13.12-20.21q9-8.69,24.46-13.47t37.75-4.79V209.64a35.61,35.61,0,0,0-2.12-13.11,18.26,18.26,0,0,0-6.39-8.34,17.37,17.37,0,0,0-10.28-3q-8.16,0-12.4,3.72a18,18,0,0,0-5.67,9.75A62.26,62.26,0,0,0,726,212.83v2.48H691.63a12.18,12.18,0,0,1-.35-3v-3.37q0-19.85,7.26-31.9a42.56,42.56,0,0,1,20-17.55Q731.34,154,748,154q15.59,0,27.65,5.13T794.44,177q6.72,12.76,6.73,36.16v93.23c0,3.79.71,6.68,2.13,8.69s3.66,3,6.74,3h8.86v25.17a62.87,62.87,0,0,1-12.06,4.08A58.45,58.45,0,0,1,793.37,349q-8.5,0-13.82-3.19a22.24,22.24,0,0,1-8.33-8.86,33.64,33.64,0,0,1-3.73-12.41h-1.77a56.71,56.71,0,0,1-8.86,12.41,39.73,39.73,0,0,1-12.76,9A42.88,42.88,0,0,1,726.37,349.32Zm14.18-31.2a14.9,14.9,0,0,0,8.69-2.84,30.91,30.91,0,0,0,7.62-8,39.73,39.73,0,0,0,5.49-12.76,67.88,67.88,0,0,0,1.95-16.84V257.85q-17.73,0-26.41,4.79T726,275.23a45.39,45.39,0,0,0-3.19,17.37,42.49,42.49,0,0,0,1.95,13.82,17.91,17.91,0,0,0,5.84,8.69A15.76,15.76,0,0,0,740.55,318.12Z" transform="translate(-12.05)"/><path d="M839.81,345.06V101.87H871l42.53,173c.48,2.13,1.07,5,1.78,8.51s1.36,7.15,1.95,10.81,1.24,7.15,2,10.46h1.06q1.07-4.61,2.13-10.1t2.13-10.82c.7-3.54,1.29-6.38,1.77-8.5l42.18-173.36h31.2V345.06H979.48V182q0-3.9.18-12.23t.18-17.9V134.13h-1.42q-.72,4.26-1.6,9.4c-.59,3.43-1.24,6.73-1.94,9.92a43.32,43.32,0,0,1-2.13,7.27L926.66,345.06H912.13l-45.73-184q-.72-2.49-1.95-7.45t-2.13-10.1q-.89-5.15-2-9.4H859v17.73q0,9.93.18,18.08t.18,12.05V345.06Z" transform="translate(-12.05)"/><path d="M1086.54,349.32q-17.37,0-29.07-9.4t-17.55-30.84q-5.84-21.45-5.85-57.25,0-36.17,5.85-57.61t17.55-30.66q11.7-9.23,29.07-9.22,17,0,28.89,9.22t17.91,30.66q6,21.45,6,57.61,0,35.8-6,57.25t-17.91,30.84Q1103.55,349.31,1086.54,349.32Zm0-16.31q12,0,19.68-7.8T1117,300q3.2-17.37,3.19-45v-6.38q0-28-3.19-45.2t-10.81-25q-7.63-7.8-19.68-7.8-11.7,0-19.32,7.8t-11,25q-3.37,17.19-3.37,45.2V255q0,27.64,3.37,45t11,25.17Q1074.84,333,1086.54,333ZM1078,135.55,1099,88.76H1117v1.41l-24.82,45.38Z" transform="translate(-12.05)"/><path d="M1203.17,349.32q-13.47,0-22.15-3.9a33.61,33.61,0,0,1-13.83-11,46.62,46.62,0,0,1-7.45-17.2,98.25,98.25,0,0,1-2.3-21.8,23.27,23.27,0,0,1,.35-4.07,20.53,20.53,0,0,0,.36-3.73h17.73a12.71,12.71,0,0,0-.71,4.08v4.08q0,12.4,3,20.74a27,27,0,0,0,8.86,12.76q5.85,4.44,15.07,4.43,10.64,0,17-4.61a25.53,25.53,0,0,0,9.22-13.12q2.84-8.5,2.84-20.91,0-12-4.43-19.32a35.34,35.34,0,0,0-11.53-11.7,117.77,117.77,0,0,0-15.24-8q-7.8-3.9-14.71-8.15a48.73,48.73,0,0,1-12.06-10.46,47.2,47.2,0,0,1-8.15-15.07q-3-8.85-3-21.62a58.62,58.62,0,0,1,3-19.32,42.24,42.24,0,0,1,8.69-14.89,34.77,34.77,0,0,1,13.82-9.22,52,52,0,0,1,18.08-3,57.14,57.14,0,0,1,18.79,2.84,30.63,30.63,0,0,1,13.29,8.68,37.47,37.47,0,0,1,7.63,14,66.22,66.22,0,0,1,2.48,19.15q0,2.48-.18,5.67c-.12,2.13-.3,4.37-.53,6.74h-17.37v-11.7q0-11.34-3-17.73a19.48,19.48,0,0,0-8.34-9.22,26,26,0,0,0-12.4-2.83q-7.8,0-12.77,2.66a21,21,0,0,0-7.79,6.91,26.39,26.39,0,0,0-3.9,9.93,65.17,65.17,0,0,0-1.07,12.05q0,11,3.9,17.72a31.9,31.9,0,0,0,10.46,11q6.56,4.26,14,8.16,7.1,3.18,14.18,7.26a63.77,63.77,0,0,1,13.3,10.29,47.11,47.11,0,0,1,10.1,15.77q3.9,9.57,3.9,24.11,0,13.81-3.37,23.93a42.61,42.61,0,0,1-9.57,16.48,41.32,41.32,0,0,1-14.89,9.75A53.15,53.15,0,0,1,1203.17,349.32Z" transform="translate(-12.05)"/><path d="M1299.59,349q-11,0-15.95-5t-6-14.36a188.46,188.46,0,0,1-1.07-21.09V174.9h-12V158.59h12l2.84-52.11h15.24v52.11h20.56V174.9h-20.56V316.7q0,8.87,1.77,12.59t6.74,3.72h12v11.7a49.87,49.87,0,0,1-5,2.12,33.71,33.71,0,0,1-5.67,1.6A27,27,0,0,1,1299.59,349Z" transform="translate(-12.05)"/><path d="M1384.32,349.32q-17.37,0-29.07-9.4t-17.55-30.84q-5.85-21.45-5.85-57.25,0-36.17,5.85-57.61t17.55-30.66q11.7-9.23,29.07-9.22,17,0,28.89,9.22t17.9,30.66q6,21.45,6,57.61,0,35.8-6,57.25t-17.9,30.84Q1401.33,349.31,1384.32,349.32Zm0-16.31q12,0,19.67-7.8T1414.8,300q3.2-17.37,3.2-45v-6.38q0-28-3.2-45.2t-10.81-25q-7.62-7.8-19.67-7.8-11.7,0-19.32,7.8t-11,25q-3.37,17.19-3.37,45.2V255q0,27.64,3.37,45t11,25.17Q1372.62,333,1384.32,333Z" transform="translate(-12.05)"/><path d="M1468.33,345.06V88.76h18.08v256.3Z" transform="translate(-12.05)"/><path d="M1572.55,349.32q-20.21,0-32.26-9.93t-17-31.55q-5-21.61-5-56,0-35.81,5.5-57.08t17.9-30.84q12.4-9.57,32.26-9.57,15.6,0,26.59,7.62t16.66,25.7q5.67,18.09,5.67,50.34v17.37H1537.1q0,26.6,2.84,43.78t10.46,25.71q7.61,8.5,21.44,8.5a28.49,28.49,0,0,0,12.59-2.83,27,27,0,0,0,10.1-8.69q4.26-5.85,6.92-15.6a99.2,99.2,0,0,0,3-23.22h18.08a129.43,129.43,0,0,1-4.08,28.54,59.61,59.61,0,0,1-9.92,20.74,42.42,42.42,0,0,1-15.6,12.76A47.29,47.29,0,0,1,1572.55,349.32ZM1537.1,240.48h67a263.55,263.55,0,0,0-1.59-31.19,98.49,98.49,0,0,0-4.79-21.8q-3.18-8.69-9.39-12.94t-15.42-4.26q-14.55,0-22.16,9.22t-10.81,25A167.28,167.28,0,0,0,1537.1,240.48Z" transform="translate(-12.05)"/><path d="M1687.05,349.32q-13.47,0-22.15-3.9a33.61,33.61,0,0,1-13.83-11,46.45,46.45,0,0,1-7.44-17.2,97.65,97.65,0,0,1-2.31-21.8,22.33,22.33,0,0,1,.36-4.07,21.42,21.42,0,0,0,.35-3.73h17.73a12.71,12.71,0,0,0-.71,4.08v4.08q0,12.4,3,20.74a27.05,27.05,0,0,0,8.86,12.76q5.85,4.44,15.07,4.43,10.63,0,17-4.61a25.57,25.57,0,0,0,9.21-13.12q2.83-8.5,2.84-20.91,0-12-4.43-19.32a35.41,35.41,0,0,0-11.52-11.7,117.26,117.26,0,0,0-15.25-8q-7.8-3.9-14.71-8.15a48.5,48.5,0,0,1-12.05-10.46,47,47,0,0,1-8.16-15.07q-3-8.85-3-21.62a58.62,58.62,0,0,1,3-19.32,42.39,42.39,0,0,1,8.69-14.89,34.8,34.8,0,0,1,13.83-9.22,52,52,0,0,1,18.08-3,57.12,57.12,0,0,1,18.78,2.84,30.72,30.72,0,0,1,13.3,8.68,37.59,37.59,0,0,1,7.62,14,66.22,66.22,0,0,1,2.48,19.15q0,2.48-.18,5.67c-.12,2.13-.3,4.37-.53,6.74h-17.37v-11.7q0-11.34-3-17.73a19.46,19.46,0,0,0-8.33-9.22,26,26,0,0,0-12.41-2.83q-7.8,0-12.76,2.66a21,21,0,0,0-7.8,6.91,26.39,26.39,0,0,0-3.9,9.93,65.19,65.19,0,0,0-1.06,12.05q0,11,3.89,17.72a32,32,0,0,0,10.46,11q6.55,4.26,14,8.16,7.1,3.18,14.18,7.26a63.77,63.77,0,0,1,13.3,10.29,47.11,47.11,0,0,1,10.1,15.77q3.9,9.57,3.9,24.11,0,13.81-3.37,23.93a42.49,42.49,0,0,1-9.57,16.48,41.32,41.32,0,0,1-14.89,9.75A53.15,53.15,0,0,1,1687.05,349.32Z" transform="translate(-12.05)"/><polygon points="470.02 61.99 402.81 33.65 335.61 61.99 268.41 33.65 201.2 61.99 127.98 31.1 140.03 2.54 201.2 28.35 268.41 0 335.61 28.35 402.81 0 470.02 28.35 537.22 0 604.42 28.35 671.63 0 738.84 28.35 800.02 2.54 812.07 31.1 738.84 61.99 671.63 33.65 604.42 61.99 537.22 33.65 470.02 61.99"/><rect x="134" y="457.03" width="672.05" height="31"/></g></g></svg>