<svg xmlns="http://www.w3.org/2000/svg" viewBox="0 0 808.94 853.48"><defs><style>.cls-1{fill:#e72858;}.cls-2{fill:#fdecf2;}</style></defs><g id="Capa_2" data-name="Capa 2"><g id="Capa_2-2" data-name="Capa 2"><rect class="cls-1" width="808.94" height="853.48"/><path class="cls-2" d="M229,523.81a42.84,42.84,0,0,1-17-3.19,32.82,32.82,0,0,1-12.58-9.39,42,42,0,0,1-7.8-15.42,85.81,85.81,0,0,1,.71-45,45.72,45.72,0,0,1,12.05-19.5q8.68-8.51,24.46-13.65t40.59-5.14v-33q0-11.7-2.48-19.5t-8.51-11.52q-6-3.72-16.3-3.72-12.76,0-19,5.85A28,28,0,0,0,215,365.71,98.91,98.91,0,0,0,213,386.27v2.48H195.66a17.74,17.74,0,0,1-.36-3.55V381q0-20.55,6.91-31.73t17.73-15.77a59.55,59.55,0,0,1,23.57-4.61q13.11,0,22.87,4.43t15.42,15.07q5.67,10.64,5.67,29.77V494.39q0,6.74,2.31,9.57a6.85,6.85,0,0,0,5.49,2.84h12.05v11.7c-2.6.94-5.49,2-8.68,3a31.84,31.84,0,0,1-10.1,1.59q-7.1,0-11.17-3.72a18.64,18.64,0,0,1-5.5-9.92,61.62,61.62,0,0,1-1.41-13.65h-2.13a68.8,68.8,0,0,1-9.22,14.53,37.19,37.19,0,0,1-12.76,9.93A40.05,40.05,0,0,1,229,523.81Zm3.9-16.3a28.14,28.14,0,0,0,12.05-3,36.19,36.19,0,0,0,11.88-9.39q5.49-6.37,9-17t3.54-25.17V427.39q-25.17.36-38.46,6.38T212.85,449.9a52.81,52.81,0,0,0-4.79,22.87q0,11.34,2.84,19.32t8.33,11.69Q224.72,507.52,232.88,507.51Z"/><path class="cls-2" d="M378.93,523.81q-22,0-35.27-9.74t-19.32-31.38q-6-21.62-6-56.36,0-36.16,6.38-57.61t20.21-30.84q13.83-9.39,35.8-9.4,19.86,0,32.62,8.16t19.14,27.82q6.39,19.68,6.38,54.42v15.24h-82.6A254.54,254.54,0,0,0,358,467.63q1.77,12.94,6.73,19.14t14.54,6.2a19,19,0,0,0,9.21-2.12,17.41,17.41,0,0,0,6.56-6.56,36.74,36.74,0,0,0,4.08-11.88,119,119,0,0,0,1.77-17.72h37.22a121,121,0,0,1-4.07,30.48q-3.72,13.13-11.17,21.63a46.11,46.11,0,0,1-18.61,12.76A70.78,70.78,0,0,1,378.93,523.81Zm-22.69-112h44q0-14.54-.88-24.28a73.15,73.15,0,0,0-3-16.13c-1.42-4.26-3.43-7.32-6-9.22s-6-2.83-10.28-2.83q-9.58,0-14.72,6.2t-7.09,17.72A175.23,175.23,0,0,0,356.24,411.79Z"/><path class="cls-2" d="M462.24,519.56V276.37h31.19l42.54,173c.47,2.13,1.07,5,1.78,8.51s1.35,7.15,2,10.81,1.24,7.15,1.94,10.46h1.07q1.06-4.61,2.13-10.11T547,458.23q1.06-5.31,1.78-8.51l42.18-173.35h31.2V519.56H601.91V356.49q0-3.9.18-12.23t.17-17.9V308.63h-1.41q-.72,4.26-1.6,9.39t-2,9.93a43.32,43.32,0,0,1-2.13,7.27L549.09,519.56H534.55l-45.73-184q-.7-2.47-1.95-7.44T484.75,318c-.6-3.42-1.24-6.55-1.95-9.39h-1.42v17.73q0,9.93.18,18.08t.17,12.05V519.56Z"/><rect class="cls-2" x="315.83" y="631.59" width="120.53" height="30.88"/><rect class="cls-2" x="315.83" y="190.05" width="120.53" height="30.88"/></g></g></svg>