<svg xmlns="http://www.w3.org/2000/svg" viewBox="0 0 1083.34 486.71"><g id="Capa_2" data-name="Capa 2"><g id="Capa_2-2" data-name="Capa 2"><path d="M50.34,348Q37.57,348,31,342.85T21.8,328.32a79,79,0,0,1-2.66-21.45V187.76H5V156.92H19.85l6.74-54.24H56v54.24H76.57v30.84H56V301.55c0,5.21.59,9,1.77,11.52s3.55,3.73,7.09,3.73h11.7v25.88q-4.6,1.41-9.39,2.66c-3.19.82-6.15,1.47-8.86,1.94A45.84,45.84,0,0,1,50.34,348Z" transform="translate(0)"/><path d="M151.73,348q-22,0-35.28-9.75T97.13,306.87q-6-21.62-6-56.36,0-36.16,6.38-57.61t20.2-30.84q13.83-9.39,35.81-9.4,19.84,0,32.61,8.16t19.15,27.82q6.38,19.68,6.38,54.42V258.3H129q0,20.57,1.77,33.51T137.55,311q4.95,6.21,14.53,6.2A19.08,19.08,0,0,0,161.3,315a17.55,17.55,0,0,0,6.56-6.56,36.6,36.6,0,0,0,4.07-11.88,118.88,118.88,0,0,0,1.78-17.72h37.22a121.41,121.41,0,0,1-4.08,30.48q-3.72,13.13-11.17,21.63a46,46,0,0,1-18.61,12.76A70.68,70.68,0,0,1,151.73,348ZM129,236h44q0-14.53-.89-24.28a73.21,73.21,0,0,0-3-16.13c-1.42-4.26-3.43-7.32-6-9.22s-6-2.84-10.28-2.84q-9.57,0-14.71,6.21T131,207.43A175.23,175.23,0,0,0,129,236Z" transform="translate(0)"/><path d="M271.19,348a46.43,46.43,0,0,1-17.73-3.19,33,33,0,0,1-13.11-9.57,42.05,42.05,0,0,1-8-16,82.41,82.41,0,0,1-2.66-22A75.51,75.51,0,0,1,233.79,272a51.49,51.49,0,0,1,13.12-20.2q9-8.69,24.46-13.47t37.75-4.79V208.32A35.44,35.44,0,0,0,307,195.2a18.14,18.14,0,0,0-6.38-8.33,17.37,17.37,0,0,0-10.28-3q-8.16,0-12.41,3.72a18.05,18.05,0,0,0-5.67,9.75,62.83,62.83,0,0,0-1.42,14.18V214H236.45a12.17,12.17,0,0,1-.36-3v-3.37q0-19.85,7.27-31.91a42.48,42.48,0,0,1,20-17.54q12.76-5.49,29.42-5.5,15.6,0,27.65,5.14t18.79,17.9Q346,188.47,346,211.86V305.1c0,3.78.71,6.68,2.13,8.68s3.66,3,6.73,3h8.86V342a62.54,62.54,0,0,1-12,4.07,57.92,57.92,0,0,1-13.47,1.6q-8.51,0-13.83-3.19a22.38,22.38,0,0,1-8.33-8.86,33.63,33.63,0,0,1-3.72-12.41h-1.77a57,57,0,0,1-8.86,12.41,39.82,39.82,0,0,1-12.77,9A42.8,42.8,0,0,1,271.19,348Zm14.18-31.19a14.87,14.87,0,0,0,8.68-2.84,31.1,31.1,0,0,0,7.63-8,39.69,39.69,0,0,0,5.49-12.77,67.88,67.88,0,0,0,1.95-16.84V256.53q-17.73,0-26.41,4.79T270.83,273.9a45.62,45.62,0,0,0-3.19,17.37,42.83,42.83,0,0,0,1.95,13.83,18,18,0,0,0,5.85,8.68A15.76,15.76,0,0,0,285.37,316.8Z" transform="translate(0)"/><path d="M412.63,348q-12.76,0-19.32-5.14t-9.22-14.53a79,79,0,0,1-2.65-21.45V187.76H367.26V156.92h14.89l6.73-54.24H418.3v54.24h20.57v30.84H418.3V301.55c0,5.21.59,9,1.78,11.52s3.54,3.73,7.09,3.73h11.7v25.88q-4.62,1.41-9.4,2.66c-3.19.82-6.15,1.47-8.86,1.94A45.84,45.84,0,0,1,412.63,348Z" transform="translate(0)"/><path d="M458.72,343.74V156.92h30.84L492,182.09h1.42a55.06,55.06,0,0,1,7.26-16.31A32.94,32.94,0,0,1,510.83,156a23.28,23.28,0,0,1,12.05-3.37,31.11,31.11,0,0,1,4.79.36,20,20,0,0,1,4.78,1.42v39.7H519.34A18.36,18.36,0,0,0,509.23,197a23.56,23.56,0,0,0-7.62,8.5,46.87,46.87,0,0,0-4.78,14.89,130.17,130.17,0,0,0-1.6,22V343.74Z" transform="translate(0)"/><path d="M598.75,348q-20.21,0-33.68-9.75t-20-31.37q-6.56-21.62-6.56-56.36,0-35.1,6.56-56.55t20-31.37q13.47-9.93,33.68-9.93,20.55,0,34,9.93T653,194q6.72,21.45,6.73,56.55,0,34.74-6.73,56.36t-20.21,31.37Q619.31,348,598.75,348Zm0-30.84q8.5,0,13.29-5.32t7.09-17.37q2.31-12,2.31-32.26V238.81q0-20.56-2.31-32.62T612,188.82q-4.78-5.31-13.29-5.32a17.25,17.25,0,0,0-12.94,5.32q-5.14,5.33-7.27,17.37t-2.12,32.62V262.2q0,20.22,2.12,32.26t7.27,17.37A17.21,17.21,0,0,0,598.75,317.15Z" transform="translate(0)"/><path d="M728.49,343.74l-56-243.19H693l37.58,170.16q1.41,6,3,13.65c1.07,5.09,2,10.1,2.84,15.07s1.6,9.21,2.3,12.76h1.42q.7-4.6,2.13-11.7t2.84-14.89q1.41-7.78,2.83-14.89l37.58-170.16h20.21l-56,243.19Z" transform="translate(0)"/><path d="M831.3,115.79V87.43h18.08v28.36Zm0,228V157.27h18.08V343.74Z" transform="translate(0)"/><path d="M908.22,343.74,869.58,157.27h18.79l23.75,119.47a63.5,63.5,0,0,1,1.24,9q.52,6.21,1.6,13.47c.71,4.85,1.29,9.39,1.77,13.65h1.77q.35-4.26.89-11.17t1.41-13.65c.59-4.48,1.12-8.27,1.6-11.34l23.4-119.47h18.08L926,343.74Z" transform="translate(0)"/><path d="M1030.52,348q-17.37,0-29.07-9.39t-17.54-30.84q-5.85-21.45-5.85-57.25,0-36.16,5.85-57.61t17.54-30.67q11.7-9.21,29.07-9.21,17,0,28.9,9.21t17.9,30.67q6,21.45,6,57.61,0,35.81-6,57.25t-17.9,30.84Q1047.54,348,1030.52,348Zm0-16.3q12.06,0,19.68-7.8T1061,298.72q3.2-17.37,3.19-45v-6.38q0-28-3.19-45.2t-10.81-25q-7.64-7.78-19.68-7.8-11.7,0-19.32,7.8t-11,25q-3.37,17.19-3.36,45.2v6.38q0,27.65,3.36,45t11,25.17Q1018.82,331.69,1030.52,331.69Z" transform="translate(0)"/><path d="M324.55,59.35c-82.48,0-124.4-7.33-164.94-14.41C118.56,37.77,79.79,31,0,31V0C82.48,0,124.4,7.32,164.94,14.4c41,7.17,79.81,14,159.61,14S443.1,21.57,484.15,14.4C524.69,7.32,566.61,0,649.09,0V31c-79.79,0-118.56,6.77-159.61,13.94C448.94,52,407,59.35,324.55,59.35Z" transform="translate(0)"/><rect y="455.71" width="649.09" height="31"/></g></g></svg>