<svg xmlns="http://www.w3.org/2000/svg" viewBox="0 0 1241.8 486.71"><g id="Capa_2" data-name="Capa 2"><g id="Capa_2-2" data-name="Capa 2"><path d="M50.34,348Q37.57,348,31,342.85T21.8,328.32a79,79,0,0,1-2.66-21.45V187.76H5V156.92H19.85l6.74-54.24H56v54.24H76.57v30.84H56V301.55c0,5.21.59,9,1.77,11.52s3.55,3.73,7.09,3.73h11.7v25.88q-4.6,1.41-9.39,2.66c-3.19.82-6.15,1.47-8.86,1.94A45.84,45.84,0,0,1,50.34,348Z" transform="translate(0)"/><path d="M151.73,348q-22,0-35.28-9.75T97.13,306.87q-6-21.62-6-56.36,0-36.16,6.38-57.61t20.2-30.84q13.83-9.39,35.81-9.4,19.84,0,32.61,8.16t19.15,27.82q6.38,19.68,6.38,54.42V258.3H129q0,20.57,1.77,33.51T137.55,311q4.95,6.21,14.53,6.2A19.08,19.08,0,0,0,161.3,315a17.55,17.55,0,0,0,6.56-6.56,36.6,36.6,0,0,0,4.07-11.88,118.88,118.88,0,0,0,1.78-17.72h37.22a121.41,121.41,0,0,1-4.08,30.48q-3.72,13.13-11.17,21.63a46,46,0,0,1-18.61,12.76A70.68,70.68,0,0,1,151.73,348ZM129,236h44q0-14.53-.89-24.28a73.21,73.21,0,0,0-3-16.13c-1.42-4.26-3.43-7.32-6-9.22s-6-2.84-10.28-2.84q-9.57,0-14.71,6.21T131,207.43A175.23,175.23,0,0,0,129,236Z" transform="translate(0)"/><path d="M271.19,348a46.43,46.43,0,0,1-17.73-3.19,33,33,0,0,1-13.11-9.57,42.05,42.05,0,0,1-8-16,82.41,82.41,0,0,1-2.66-22A75.51,75.51,0,0,1,233.79,272a51.49,51.49,0,0,1,13.12-20.2q9-8.69,24.46-13.47t37.75-4.79V208.32A35.44,35.44,0,0,0,307,195.2a18.14,18.14,0,0,0-6.38-8.33,17.37,17.37,0,0,0-10.28-3q-8.16,0-12.41,3.72a18.05,18.05,0,0,0-5.67,9.75,62.83,62.83,0,0,0-1.42,14.18V214H236.45a12.17,12.17,0,0,1-.36-3v-3.37q0-19.85,7.27-31.91a42.48,42.48,0,0,1,20-17.54q12.76-5.49,29.42-5.5,15.6,0,27.65,5.14t18.79,17.9Q346,188.47,346,211.86V305.1c0,3.78.71,6.68,2.13,8.68s3.66,3,6.73,3h8.86V342a62.54,62.54,0,0,1-12,4.07,57.92,57.92,0,0,1-13.47,1.6q-8.51,0-13.83-3.19a22.38,22.38,0,0,1-8.33-8.86,33.63,33.63,0,0,1-3.72-12.41h-1.77a57,57,0,0,1-8.86,12.41,39.82,39.82,0,0,1-12.77,9A42.8,42.8,0,0,1,271.19,348Zm14.18-31.19a14.87,14.87,0,0,0,8.68-2.84,31.1,31.1,0,0,0,7.63-8,39.69,39.69,0,0,0,5.49-12.77,67.88,67.88,0,0,0,1.95-16.84V256.53q-17.73,0-26.41,4.79T270.83,273.9a45.62,45.62,0,0,0-3.19,17.37,42.83,42.83,0,0,0,1.95,13.83,18,18,0,0,0,5.85,8.68A15.76,15.76,0,0,0,285.37,316.8Z" transform="translate(0)"/><path d="M412.63,348q-12.76,0-19.32-5.14t-9.22-14.53a79,79,0,0,1-2.65-21.45V187.76H367.26V156.92h14.89l6.73-54.24H418.3v54.24h20.57v30.84H418.3V301.55c0,5.21.59,9,1.78,11.52s3.54,3.73,7.09,3.73h11.7v25.88q-4.62,1.41-9.4,2.66c-3.19.82-6.15,1.47-8.86,1.94A45.84,45.84,0,0,1,412.63,348Z" transform="translate(0)"/><path d="M458.72,343.74V156.92h30.84L492,182.09h1.42a55.06,55.06,0,0,1,7.26-16.31A32.94,32.94,0,0,1,510.83,156a23.28,23.28,0,0,1,12.05-3.37,31.11,31.11,0,0,1,4.79.36,20,20,0,0,1,4.78,1.42v39.7H519.34A18.36,18.36,0,0,0,509.23,197a23.56,23.56,0,0,0-7.62,8.5,46.87,46.87,0,0,0-4.78,14.89,130.17,130.17,0,0,0-1.6,22V343.74Z" transform="translate(0)"/><path d="M598.75,348q-20.21,0-33.68-9.75t-20-31.37q-6.56-21.62-6.56-56.36,0-35.1,6.56-56.55t20-31.37q13.47-9.93,33.68-9.93,20.55,0,34,9.93T653,194q6.72,21.45,6.73,56.55,0,34.74-6.73,56.36t-20.21,31.37Q619.31,348,598.75,348Zm0-30.84q8.5,0,13.29-5.32t7.09-17.37q2.31-12,2.31-32.26V238.81q0-20.56-2.31-32.62T612,188.82q-4.78-5.31-13.29-5.32a17.25,17.25,0,0,0-12.94,5.32q-5.14,5.33-7.27,17.37t-2.12,32.62V262.2q0,20.22,2.12,32.26t7.27,17.37A17.21,17.21,0,0,0,598.75,317.15Z" transform="translate(0)"/><path d="M760.05,348q-25.89,0-42.37-13.82T693.4,292.51q-7.8-27.83-7.8-70.36,0-65.24,20.56-95.54T764,96.3q22.68,0,37.4,9.92t21.8,30q7.08,20,7.09,50.87H810.39q0-23-4.79-39.35t-15.24-24.82q-10.47-8.5-27.83-8.5t-30,10.63Q720,135.64,713.43,158.69t-6.56,59.91v9.22q0,36.15,6,58.49t17.9,33q11.87,10.64,29.25,10.63,16.65,0,27.82-7.8t17-23.75q5.85-15.94,5.85-40.76h19.14q0,31.2-8.15,51.22t-23.93,29.6Q782,348,760.05,348Z" transform="translate(0)"/><path d="M859.3,343.74V157.27h13.83l1.77,25.53h1.77q3.54-11.36,8.33-17.73a31.06,31.06,0,0,1,10.28-9.22A24.81,24.81,0,0,1,906.81,153h3.54a6.38,6.38,0,0,1,2.84.71v20.56H906.1a21.15,21.15,0,0,0-9.75,2.66,27.38,27.38,0,0,0-9.4,8.5A48.09,48.09,0,0,0,880,200.87q-2.65,9.58-2.66,24.11V343.74Z" transform="translate(0)"/><path d="M930.91,115.79V87.43H949v28.36Zm0,228V157.27H949V343.74Z" transform="translate(0)"/><path d="M1019.17,348q-13.47,0-22.15-3.9a33.58,33.58,0,0,1-13.83-11,46.45,46.45,0,0,1-7.44-17.2,97.65,97.65,0,0,1-2.31-21.8,22.44,22.44,0,0,1,.36-4.08,21.22,21.22,0,0,0,.35-3.72h17.73a12.71,12.71,0,0,0-.71,4.08v4.07q0,12.42,3,20.74A27,27,0,0,0,1003,328q5.85,4.44,15.07,4.44,10.64,0,17-4.61a25.62,25.62,0,0,0,9.21-13.12q2.84-8.51,2.84-20.92,0-12-4.43-19.32a35.28,35.28,0,0,0-11.52-11.69,114.85,114.85,0,0,0-15.25-8q-7.8-3.9-14.71-8.15a48.5,48.5,0,0,1-12-10.46,46.82,46.82,0,0,1-8.15-15.07q-3-8.85-3-21.62a58.36,58.36,0,0,1,3-19.32,42.22,42.22,0,0,1,8.68-14.89,34.7,34.7,0,0,1,13.83-9.22,52,52,0,0,1,18.08-3,57.09,57.09,0,0,1,18.78,2.83,30.83,30.83,0,0,1,13.3,8.69,37.59,37.59,0,0,1,7.62,14,66.2,66.2,0,0,1,2.48,19.14c0,1.66-.06,3.55-.17,5.68s-.3,4.37-.54,6.73h-17.37v-11.7q0-11.34-3-17.72a19.41,19.41,0,0,0-8.33-9.22,26,26,0,0,0-12.41-2.84q-7.8,0-12.76,2.66a21.2,21.2,0,0,0-7.8,6.92,26.28,26.28,0,0,0-3.9,9.92,65.38,65.38,0,0,0-1.06,12.06q0,11,3.9,17.72a32,32,0,0,0,10.45,11q6.55,4.26,14,8.15,7.08,3.19,14.18,7.27a64.26,64.26,0,0,1,13.29,10.28,47.26,47.26,0,0,1,10.1,15.78q3.9,9.57,3.9,24.1,0,13.83-3.36,23.93a42.54,42.54,0,0,1-9.58,16.49,41.41,41.41,0,0,1-14.88,9.75A53.25,53.25,0,0,1,1019.17,348Z" transform="translate(0)"/><path d="M1139.7,348q-17.37,0-29.07-9.39t-17.54-30.84q-5.85-21.45-5.85-57.25,0-36.16,5.85-57.61t17.54-30.67q11.7-9.21,29.07-9.21,17,0,28.9,9.21t17.9,30.67q6,21.45,6,57.61,0,35.81-6,57.25t-17.9,30.84Q1156.71,348,1139.7,348Zm0-16.3q12.06,0,19.68-7.8t10.81-25.17q3.19-17.37,3.19-45v-6.38q0-28-3.19-45.2t-10.81-25q-7.64-7.78-19.68-7.8-11.7,0-19.32,7.8t-11,25q-3.37,17.19-3.36,45.2v6.38q0,27.65,3.36,45t11,25.17Q1128,331.69,1139.7,331.69Z" transform="translate(0)"/><path d="M1223.72,343.74V87.43h18.08V343.74Z" transform="translate(0)"/><path d="M324.55,59.35c-82.48,0-124.4-7.33-164.94-14.41C118.56,37.77,79.79,31,0,31V0C82.48,0,124.4,7.32,164.94,14.4c41,7.17,79.81,14,159.61,14S443.1,21.57,484.15,14.4C524.69,7.32,566.61,0,649.09,0V31c-79.79,0-118.56,6.77-159.61,13.94C448.94,52,407,59.35,324.55,59.35Z" transform="translate(0)"/><rect y="455.71" width="649.09" height="31"/></g></g></svg>