<svg xmlns="http://www.w3.org/2000/svg" viewBox="0 0 807.9 486.71"><g id="Capa_2" data-name="Capa 2"><g id="Capa_2-2" data-name="Capa 2"><path d="M5.32,343.74V156.92H36.87l2.48,23.39h1.42a49.43,49.43,0,0,1,9.57-15.95,35.26,35.26,0,0,1,12.94-8.86,43,43,0,0,1,15.77-2.84q13.83,0,22.16,6.56t11.17,21.09h1.77a66.18,66.18,0,0,1,9.93-15.95,32.48,32.48,0,0,1,12.4-8.86,41.68,41.68,0,0,1,15.6-2.84q12.76,0,20.74,5t11.88,15.59q3.88,10.64,3.9,26.95V343.74H151.73V210.8a75.5,75.5,0,0,0-.53-9.22,23.18,23.18,0,0,0-2.13-7.44,10.92,10.92,0,0,0-4.43-4.79,15.22,15.22,0,0,0-7.45-1.59,16.14,16.14,0,0,0-12,5.14q-5,5.15-7.62,15.42t-2.66,26.23V343.74H78.7V210.8a75.5,75.5,0,0,0-.53-9.22A23.18,23.18,0,0,0,76,194.14a10.64,10.64,0,0,0-4.61-4.79,15.38,15.38,0,0,0-7.26-1.59,16.15,16.15,0,0,0-12.06,5.14q-5,5.15-7.62,15.42t-2.66,26.23V343.74Z"/><path d="M252.41,348q-18.45,0-27.48-11.52t-9-36V156.92h36.52V289.86a56.33,56.33,0,0,0,.7,9.21,26.29,26.29,0,0,0,2.31,7.45A10.62,10.62,0,0,0,260,311.3a15.24,15.24,0,0,0,7.26,1.6,16.67,16.67,0,0,0,12.23-5.14q5.14-5.14,7.63-15.6t2.48-26.06V156.92h37.22V343.74H295.3l-2.48-23H291.4a57.07,57.07,0,0,1-10.1,15.42,36.76,36.76,0,0,1-12.76,9A42.33,42.33,0,0,1,252.41,348Zm6.38-213.76,20.56-47.15h33.32V88.5l-30.49,45.73Z"/><path d="M400.94,348q-16.31,0-26.59-3.9a36.94,36.94,0,0,1-16.13-11.16,44,44,0,0,1-8.33-17.2,89.17,89.17,0,0,1-2.48-21.62c0-1.18.06-2.6.18-4.25s.29-3.31.53-5h33.32a31.23,31.23,0,0,0-.35,4.43v4.08a41.94,41.94,0,0,0,2,13.29,19.06,19.06,0,0,0,6.2,9.22q4.26,3.38,11,3.37,7.44,0,11.7-2.84a16.06,16.06,0,0,0,6.2-8.5,44.16,44.16,0,0,0,1.95-14.19q0-9.21-4.25-14.71a35.35,35.35,0,0,0-10.46-9q-6.21-3.54-13.65-7.09-7.1-3.18-14.53-7.44A60.54,60.54,0,0,1,363.72,245,46.34,46.34,0,0,1,354,229.24q-3.72-9.59-3.72-24.11,0-13.47,3.9-23.22a42.26,42.26,0,0,1,11.34-16.31,48.9,48.9,0,0,1,17-9.75,64.79,64.79,0,0,1,20.56-3.19,67.08,67.08,0,0,1,20.91,3,40.73,40.73,0,0,1,15.6,9,39.91,39.91,0,0,1,9.75,14.53,52.81,52.81,0,0,1,3.37,19.5q0,2.83-.18,6.2t-.53,6.21H419.38v-8.87c0-5-.78-9-2.31-12a15.38,15.38,0,0,0-6-6.74,18,18,0,0,0-9-2.12,18.4,18.4,0,0,0-7.26,1.42,13.75,13.75,0,0,0-5.68,4.43,17.65,17.65,0,0,0-3.19,6.73,37.88,37.88,0,0,0-.88,8.69c0,5.44,1.36,9.92,4.07,13.47a29.33,29.33,0,0,0,10.64,8.51q6.56,3.18,14,6.38a161.41,161.41,0,0,1,15.07,7.44,66.82,66.82,0,0,1,14,10.46,44.43,44.43,0,0,1,10.11,15.42q3.72,9.23,3.72,23.75,0,16-3.9,27.12a45.41,45.41,0,0,1-29.07,29.25A69.36,69.36,0,0,1,400.94,348Z"/><path d="M479.29,125V87.08H515.8V125Zm0,218.73V156.92H515.8V343.74Z"/><path d="M599.46,348q-21.63,0-34.39-10.45t-18.43-32.09Q541,283.84,541,250.51q0-35.1,6.39-56.73t19.49-31.37q13.11-9.75,33.68-9.75,15.24,0,25.88,4.43a38.51,38.51,0,0,1,17,13.48q6.38,9,9.39,23.57t3,34.74H619.31a175,175,0,0,0-1.6-26.41q-1.59-10.09-5.31-14.53t-11.88-4.44a16.31,16.31,0,0,0-11.7,4.79q-5,4.78-7.44,16.66t-2.48,33.86v24.1A227.84,227.84,0,0,0,580.31,289q1.43,12.22,6,20.21t13.47,8q7.8,0,12.05-4.08t6.21-14q1.93-9.92,1.95-27.29h35.8a147.62,147.62,0,0,1-3,31.19,74,74,0,0,1-9.39,23.93,43,43,0,0,1-17.2,15.6Q615.41,348,599.46,348Z"/><path d="M715.38,348a46.43,46.43,0,0,1-17.73-3.19,33,33,0,0,1-13.11-9.57,42.05,42.05,0,0,1-8-16,82.41,82.41,0,0,1-2.66-22A75.51,75.51,0,0,1,678,272a51.58,51.58,0,0,1,13.11-20.2q9-8.69,24.47-13.47t37.75-4.79V208.32a35.44,35.44,0,0,0-2.13-13.12,18.21,18.21,0,0,0-6.38-8.33,17.37,17.37,0,0,0-10.28-3q-8.16,0-12.41,3.72a18.05,18.05,0,0,0-5.67,9.75A62.26,62.26,0,0,0,715,211.51V214H680.64a12.17,12.17,0,0,1-.36-3v-3.37q0-19.85,7.27-31.91a42.48,42.48,0,0,1,20-17.54q12.76-5.49,29.42-5.5,15.6,0,27.65,5.14t18.79,17.9q6.73,12.77,6.74,36.16V305.1c0,3.78.71,6.68,2.13,8.68s3.66,3,6.73,3h8.86V342a62.54,62.54,0,0,1-12,4.07,57.92,57.92,0,0,1-13.47,1.6q-8.5,0-13.83-3.19a22.38,22.38,0,0,1-8.33-8.86,33.63,33.63,0,0,1-3.72-12.41h-1.77a57,57,0,0,1-8.86,12.41,39.82,39.82,0,0,1-12.77,9A42.8,42.8,0,0,1,715.38,348Zm14.18-31.19a14.87,14.87,0,0,0,8.68-2.84,31.1,31.1,0,0,0,7.63-8,39.91,39.91,0,0,0,5.49-12.77,67.88,67.88,0,0,0,1.95-16.84V256.53q-17.73,0-26.41,4.79T715,273.9a45.62,45.62,0,0,0-3.19,17.37,42.83,42.83,0,0,0,1.95,13.83,18,18,0,0,0,5.85,8.68A15.76,15.76,0,0,0,729.56,316.8Z"/><rect y="455.71" width="807.88" height="31"/><path d="M673.23,59.35c-36.8,0-56.21-8.18-73.34-15.39-16.52-7-30.78-13-61.31-13s-44.8,6-61.31,13c-17.13,7.21-36.55,15.39-73.34,15.39S347.72,51.17,330.59,44c-16.51-7-30.77-13-61.3-13S224.49,37,208,44c-17.13,7.21-36.55,15.39-73.34,15.39S78.44,51.17,61.31,44C44.79,37,30.53,31,0,31V0C36.79,0,56.21,8.18,73.34,15.39c16.51,7,30.77,13,61.3,13s44.79-6,61.31-13C213.08,8.18,232.5,0,269.29,0s56.2,8.18,73.33,15.39c16.52,7,30.78,13,61.31,13s44.79-6,61.31-13C482.37,8.18,501.79,0,538.58,0s56.21,8.18,73.34,15.39c16.51,7,30.77,13,61.31,13s44.79-6,61.31-13C751.67,8.18,771.08,0,807.88,0V31c-30.54,0-44.8,6-61.31,13C729.44,51.17,710,59.35,673.23,59.35Z"/></g></g></svg>