<svg xmlns="http://www.w3.org/2000/svg" viewBox="0 0 684.1 488.03"><g id="Capa_2" data-name="Capa 2"><g id="Capa_2-2" data-name="Capa 2"><path d="M51.05,349.32q-15.61,0-25.53-10.11t-14.71-31.9Q6,285.5,6,250.41,6,216,10.46,194.93t14.17-31Q34.38,154,50.34,154a35.68,35.68,0,0,1,15.06,3,30.9,30.9,0,0,1,11.17,8.68A46.69,46.69,0,0,1,84,179.15h1.77V88.4h36.87V345.06H92.52l-2.83-23H87.91a43.3,43.3,0,0,1-12.58,19.14Q66.29,349.32,51.05,349.32Zm13.47-33q8.15,0,12.58-6.21t6.56-18.08a169.16,169.16,0,0,0,2.13-29.24V243a179,179,0,0,0-1.42-24.29A79.71,79.71,0,0,0,80.47,202q-2.49-6.56-6.74-9.57a16.69,16.69,0,0,0-9.92-3,13.94,13.94,0,0,0-11.17,5.31q-4.44,5.33-6.56,17T44,242.61v20.21q0,18.44,1.95,30.31t6.55,17.55A14.79,14.79,0,0,0,64.52,316.35Z"/><path d="M187.53,349.32a46.63,46.63,0,0,1-17.73-3.19,33.06,33.06,0,0,1-13.11-9.58,42.05,42.05,0,0,1-8-15.95,82.41,82.41,0,0,1-2.66-22,75.41,75.41,0,0,1,4.08-25.34,51.46,51.46,0,0,1,13.12-20.21q9-8.69,24.46-13.47t37.75-4.79V209.64a35.61,35.61,0,0,0-2.12-13.11,18.25,18.25,0,0,0-6.38-8.34,17.42,17.42,0,0,0-10.29-3q-8.16,0-12.4,3.72a18.1,18.1,0,0,0-5.68,9.75,62.87,62.87,0,0,0-1.41,14.18v2.48H152.79a12.18,12.18,0,0,1-.35-3v-3.37q0-19.85,7.26-31.9a42.56,42.56,0,0,1,20-17.55Q192.5,154,209.15,154q15.6,0,27.66,5.14T255.6,177q6.72,12.76,6.73,36.16v93.23q0,5.67,2.13,8.69c1.41,2,3.66,3,6.73,3h8.87v25.17A62.87,62.87,0,0,1,268,347.37,58.45,58.45,0,0,1,254.53,349q-8.5,0-13.82-3.19a22.33,22.33,0,0,1-8.34-8.86,33.82,33.82,0,0,1-3.72-12.41h-1.77A56.71,56.71,0,0,1,218,336.91a39.88,39.88,0,0,1-12.76,9A42.88,42.88,0,0,1,187.53,349.32Zm14.18-31.2a14.9,14.9,0,0,0,8.69-2.84,30.91,30.91,0,0,0,7.62-8,39.73,39.73,0,0,0,5.49-12.76,67.88,67.88,0,0,0,2-16.84V257.85q-17.73,0-26.41,4.79t-11.87,12.59A45.39,45.39,0,0,0,184,292.6a42.53,42.53,0,0,0,1.95,13.82,17.9,17.9,0,0,0,5.85,8.69A15.71,15.71,0,0,0,201.71,318.12Z"/><path d="M294.59,345.06V158.24h31.55l2.48,23H330a49.92,49.92,0,0,1,9.57-15.6,35.38,35.38,0,0,1,12.94-8.86A43,43,0,0,1,368.32,154q13.11,0,21.27,5t12.06,15.6q3.89,10.63,3.9,26.94V345.06H368.32V211.77a54.09,54.09,0,0,0-.7-8.86,31.42,31.42,0,0,0-2.13-7.45,9.73,9.73,0,0,0-4.43-4.78,17.46,17.46,0,0,0-19.68,3.54q-5,5.15-7.62,15.42t-2.66,26.23V345.06Z"/><path d="M424,345.06v-17l62.75-139H428.59V158.24H532.46v15.95L469.71,313.51h65.23v31.55Z"/><path d="M586.34,349.32a46.54,46.54,0,0,1-17.72-3.19,33.1,33.1,0,0,1-13.12-9.58,42.34,42.34,0,0,1-8-15.95,82.43,82.43,0,0,1-2.65-22,75.41,75.41,0,0,1,4.07-25.34,51.57,51.57,0,0,1,13.12-20.21q9-8.69,24.46-13.47t37.75-4.79V209.64a35.61,35.61,0,0,0-2.12-13.11,18.25,18.25,0,0,0-6.38-8.34,17.42,17.42,0,0,0-10.29-3q-8.16,0-12.4,3.72a18,18,0,0,0-5.67,9.75A62.26,62.26,0,0,0,586,212.83v2.48H551.6a12.18,12.18,0,0,1-.35-3v-3.37q0-19.85,7.26-31.9a42.65,42.65,0,0,1,20-17.55Q591.3,154,608,154q15.59,0,27.65,5.14T654.41,177q6.72,12.76,6.73,36.16v93.23q0,5.67,2.13,8.69c1.42,2,3.66,3,6.74,3h8.86v25.17a62.87,62.87,0,0,1-12.06,4.08A58.45,58.45,0,0,1,653.34,349q-8.51,0-13.82-3.19a22.24,22.24,0,0,1-8.33-8.86,33.83,33.83,0,0,1-3.73-12.41h-1.77a56.71,56.71,0,0,1-8.86,12.41,39.77,39.77,0,0,1-12.76,9A42.88,42.88,0,0,1,586.34,349.32Zm14.18-31.2a14.9,14.9,0,0,0,8.69-2.84,30.91,30.91,0,0,0,7.62-8,39.73,39.73,0,0,0,5.49-12.76,67.88,67.88,0,0,0,1.95-16.84V257.85q-17.73,0-26.41,4.79T586,275.23a45.39,45.39,0,0,0-3.19,17.37,42.81,42.81,0,0,0,2,13.82,17.9,17.9,0,0,0,5.85,8.69A15.71,15.71,0,0,0,600.52,318.12Z"/><polygon points="342.04 61.99 274.84 33.65 207.63 61.99 140.43 33.65 73.23 61.99 0 31.1 12.05 2.54 73.23 28.35 140.43 0 207.63 28.35 274.84 0 342.04 28.35 409.24 0 476.45 28.35 543.65 0 610.86 28.35 672.05 2.54 684.1 31.1 610.86 61.99 543.65 33.65 476.45 61.99 409.24 33.65 342.04 61.99"/><rect x="6.02" y="457.03" width="672.05" height="31"/></g></g></svg>