<svg xmlns="http://www.w3.org/2000/svg" viewBox="0 0 2239.62 853.48"><defs><style>.cls-1,.cls-3{fill:#3fbbed;}.cls-1,.cls-2{opacity:0.26;}.cls-4{fill:none;stroke:#000;stroke-miterlimit:10;stroke-width:31px;}</style></defs><g id="Capa_2" data-name="Capa 2"><g id="Capa_2-2" data-name="Capa 2"><rect class="cls-1" x="188.92" y="188.98" width="1863.88" height="474.59"/><rect class="cls-1" width="2239.62" height="853.48"/><path d="M229,523.81a42.84,42.84,0,0,1-17-3.19,32.82,32.82,0,0,1-12.58-9.39,42,42,0,0,1-7.8-15.42,85.81,85.81,0,0,1,.71-45,45.72,45.72,0,0,1,12.05-19.5q8.68-8.51,24.46-13.65t40.59-5.14v-33q0-11.7-2.48-19.5t-8.51-11.52q-6-3.72-16.3-3.72-12.76,0-19,5.85A28,28,0,0,0,215,365.71,98.91,98.91,0,0,0,213,386.27v2.48H195.66a17.74,17.74,0,0,1-.36-3.55V381q0-20.55,6.91-31.73t17.73-15.77a59.55,59.55,0,0,1,23.57-4.61q13.13,0,22.87,4.43t15.42,15.07q5.67,10.64,5.67,29.77V494.39q0,6.74,2.31,9.57a6.85,6.85,0,0,0,5.49,2.84h12.05v11.7c-2.6.94-5.49,2-8.68,3a31.84,31.84,0,0,1-10.1,1.6q-7.1,0-11.17-3.73a18.68,18.68,0,0,1-5.5-9.92,61.62,61.62,0,0,1-1.41-13.65h-2.13a68.8,68.8,0,0,1-9.22,14.53,37.19,37.19,0,0,1-12.76,9.93A40.05,40.05,0,0,1,229,523.81Zm3.9-16.3a28.14,28.14,0,0,0,12.05-3,36.19,36.19,0,0,0,11.88-9.39q5.49-6.37,9-17t3.54-25.17V427.39q-25.17.36-38.46,6.38T212.85,449.9a52.81,52.81,0,0,0-4.79,22.87,58,58,0,0,0,2.84,19.32q2.83,8,8.33,11.7T232.88,507.51Z"/><path d="M362.63,523.81q-12.76,0-19.33-5.14t-9.21-14.53a78.58,78.58,0,0,1-2.66-21.45V363.58H317.25V332.74h14.89l6.73-54.24H368.3v54.24h20.56v30.84H368.3v113.8c0,5.2.58,9,1.77,11.52s3.54,3.72,7.09,3.72h11.7V518.5q-4.62,1.41-9.4,2.66t-8.86,2A46.78,46.78,0,0,1,362.63,523.81Z"/><path d="M464,523.81q-22,0-35.27-9.74t-19.32-31.38q-6-21.62-6-56.36,0-36.16,6.38-57.61T430,337.88q13.83-9.39,35.8-9.4,19.86,0,32.62,8.16t19.14,27.83q6.39,19.66,6.38,54.41v15.25h-82.6a254.48,254.48,0,0,0,1.78,33.5q1.77,12.94,6.73,19.14t14.54,6.2a19,19,0,0,0,9.21-2.12,17.41,17.41,0,0,0,6.56-6.56,36.66,36.66,0,0,0,4.08-11.88A119,119,0,0,0,486,454.69h37.22a121.44,121.44,0,0,1-4.07,30.48Q515.42,498.3,508,506.8a46.11,46.11,0,0,1-18.61,12.76A70.78,70.78,0,0,1,464,523.81Zm-22.69-112h44q0-14.54-.88-24.28a73.15,73.15,0,0,0-3-16.13c-1.42-4.26-3.43-7.32-6-9.22s-6-2.83-10.29-2.83q-9.57,0-14.71,6.2t-7.09,17.72A175.23,175.23,0,0,0,441.32,411.79Z"/><path d="M583.47,523.81a46.42,46.42,0,0,1-17.72-3.19,33,33,0,0,1-13.12-9.57,42.18,42.18,0,0,1-8-15.95,82,82,0,0,1-2.66-22,75.52,75.52,0,0,1,4.07-25.35,51.6,51.6,0,0,1,13.12-20.2q9-8.69,24.46-13.47t37.76-4.79V384.14A35.44,35.44,0,0,0,619.28,371a18.28,18.28,0,0,0-6.38-8.33,17.41,17.41,0,0,0-10.28-3q-8.16,0-12.41,3.72a18,18,0,0,0-5.67,9.75,62.26,62.26,0,0,0-1.42,14.18v2.48H548.73a12.67,12.67,0,0,1-.35-3v-3.37q0-19.85,7.27-31.9a42.47,42.47,0,0,1,20-17.55q12.76-5.49,29.43-5.5,15.6,0,27.65,5.14t18.79,17.91q6.74,12.75,6.73,36.16v93.23c0,3.78.71,6.68,2.13,8.68s3.66,3,6.74,3H676v25.17a63.46,63.46,0,0,1-12,4.08,58.58,58.58,0,0,1-13.47,1.59c-5.68,0-10.28-1.06-13.83-3.19a22.24,22.24,0,0,1-8.33-8.86A33.63,33.63,0,0,1,624.6,499h-1.78A56.38,56.38,0,0,1,614,511.41a39.77,39.77,0,0,1-12.76,9A42.82,42.82,0,0,1,583.47,523.81Zm14.18-31.19a14.9,14.9,0,0,0,8.69-2.84,31.07,31.07,0,0,0,7.62-8,39.92,39.92,0,0,0,5.5-12.77,68.28,68.28,0,0,0,1.95-16.83V432.35q-17.73,0-26.41,4.79t-11.88,12.58a45.46,45.46,0,0,0-3.19,17.37,42.83,42.83,0,0,0,2,13.83,17.89,17.89,0,0,0,5.85,8.68A15.67,15.67,0,0,0,597.65,492.62Z"/><path d="M724.92,523.81q-12.76,0-19.32-5.14t-9.22-14.53a79,79,0,0,1-2.66-21.45V363.58H679.54V332.74h14.89l6.74-54.24h29.42v54.24h20.56v30.84H730.59v113.8c0,5.2.59,9,1.77,11.52s3.55,3.72,7.09,3.72h11.7V518.5q-4.6,1.41-9.39,2.66t-8.87,2A46.69,46.69,0,0,1,724.92,523.81Z"/><path d="M771,519.56V332.74h30.84l2.49,25.17h1.41A54.81,54.81,0,0,1,813,341.6a32.92,32.92,0,0,1,10.1-9.75,23.29,23.29,0,0,1,12.06-3.37,31,31,0,0,1,4.78.36,20,20,0,0,1,4.79,1.42V370H831.62a18.33,18.33,0,0,0-10.1,2.84,23.39,23.39,0,0,0-7.62,8.5,46.85,46.85,0,0,0-4.79,14.89,131.32,131.32,0,0,0-1.59,22V519.56Z"/><path d="M911,523.81q-20.21,0-33.67-9.74t-20-31.38q-6.57-21.62-6.56-56.36,0-35.1,6.56-56.55t20-31.37q13.47-9.92,33.67-9.93,20.57,0,34,9.93t20.2,31.37Q972,391.25,972,426.33q0,34.74-6.74,56.36t-20.2,31.38Q931.59,523.8,911,523.81ZM911,493q8.52,0,13.3-5.31t7.09-17.38q2.3-12,2.3-32.26V414.63q0-20.56-2.3-32.62t-7.09-17.37q-4.79-5.31-13.3-5.31a17.26,17.26,0,0,0-12.94,5.31Q893,370,890.83,382t-2.13,32.62V438q0,20.22,2.13,32.26t7.26,17.38A17.26,17.26,0,0,0,911,493Z"/><path d="M1003.2,519.56V276.37h31.2l42.54,173c.47,2.13,1.06,5,1.77,8.51s1.36,7.15,2,10.81,1.24,7.15,1.95,10.46h1.06q1.07-4.61,2.13-10.11t2.13-10.81q1.07-5.31,1.77-8.51l42.19-173.35h31.19V519.56h-20.2V356.49q0-3.9.17-12.23t.18-17.9V308.63h-1.42q-.7,4.26-1.59,9.4t-2,9.92a43.32,43.32,0,0,1-2.13,7.27l-46.08,184.34h-14.54l-45.73-184c-.48-1.65-1.12-4.13-2-7.44s-1.54-6.68-2.13-10.1-1.24-6.56-2-9.4h-1.41v17.73q0,9.93.17,18.08t.18,12.05V519.56Z"/><path d="M1249.94,523.81q-17.39,0-29.07-9.39t-17.55-30.84q-5.85-21.45-5.85-57.25,0-36.16,5.85-57.61t17.55-30.67q11.7-9.21,29.07-9.21,17,0,28.89,9.21t17.9,30.67q6,21.45,6,57.61,0,35.81-6,57.25t-17.9,30.84Q1267,523.81,1249.94,523.81Zm0-16.3q12,0,19.67-7.8t10.81-25.17q3.19-17.37,3.19-45v-6.38q0-28-3.19-45.2t-10.81-25q-7.62-7.79-19.67-7.8-11.7,0-19.32,7.8t-11,25q-3.37,17.19-3.37,45.2v6.38q0,27.64,3.37,45t11,25.17Q1238.23,507.51,1249.94,507.51Zm-8.51-197.46,20.91-46.8h18.08v1.42l-24.81,45.38Z"/><path d="M1366.57,523.81q-13.48,0-22.16-3.89a33.74,33.74,0,0,1-13.83-11,46.45,46.45,0,0,1-7.44-17.2,97.65,97.65,0,0,1-2.31-21.8,22.52,22.52,0,0,1,.36-4.08,21.22,21.22,0,0,0,.35-3.72h17.73a12.71,12.71,0,0,0-.71,4.08v4.07q0,12.42,3,20.74a27,27,0,0,0,8.87,12.77q5.85,4.43,15.06,4.43,10.63,0,17-4.61a25.69,25.69,0,0,0,9.22-13.12q2.82-8.5,2.83-20.91,0-12.06-4.43-19.32a35.22,35.22,0,0,0-11.52-11.7,116.54,116.54,0,0,0-15.24-8q-7.82-3.9-14.72-8.15A48.5,48.5,0,0,1,1336.61,412a46.82,46.82,0,0,1-8.15-15.07q-3-8.85-3-21.62a58.62,58.62,0,0,1,3-19.32,42.22,42.22,0,0,1,8.68-14.89,34.8,34.8,0,0,1,13.83-9.22,52,52,0,0,1,18.08-3,57.42,57.42,0,0,1,18.79,2.83,30.86,30.86,0,0,1,13.29,8.69,37.59,37.59,0,0,1,7.62,14,66.22,66.22,0,0,1,2.48,19.15c0,1.65-.06,3.54-.17,5.67s-.3,4.37-.54,6.73h-17.37v-11.7q0-11.34-3-17.72a19.41,19.41,0,0,0-8.33-9.22,26,26,0,0,0-12.41-2.83q-7.8,0-12.76,2.65a21.2,21.2,0,0,0-7.8,6.92,26.51,26.51,0,0,0-3.9,9.92,65.38,65.38,0,0,0-1.06,12.06q0,11,3.9,17.72a32,32,0,0,0,10.45,11q6.55,4.26,14,8.15,7.08,3.19,14.18,7.27a64.26,64.26,0,0,1,13.29,10.28,47.26,47.26,0,0,1,10.1,15.78q3.9,9.57,3.9,24.1,0,13.83-3.36,23.93a42.54,42.54,0,0,1-9.58,16.49,41.41,41.41,0,0,1-14.88,9.75A53.19,53.19,0,0,1,1366.57,523.81Z"/><path d="M1463,523.46q-11,0-16-5t-6-14.36a188.62,188.62,0,0,1-1.06-21.09V349.4h-12.06V333.09H1440l2.83-52.11H1458v52.11h20.57V349.4H1458V491.2q0,8.87,1.78,12.59t6.73,3.72h12.06v11.7a52.62,52.62,0,0,1-5,2.12,34.41,34.41,0,0,1-5.67,1.6A27.72,27.72,0,0,1,1463,523.46Z"/><path d="M1547.71,523.81q-17.37,0-29.07-9.39t-17.55-30.84q-5.83-21.45-5.84-57.25,0-36.16,5.84-57.61t17.55-30.67q11.7-9.21,29.07-9.21,17,0,28.89,9.21t17.91,30.67q6,21.45,6,57.61,0,35.81-6,57.25t-17.91,30.84Q1564.72,523.81,1547.71,523.81Zm0-16.3q12,0,19.68-7.8t10.81-25.17q3.19-17.37,3.19-45v-6.38q0-28-3.19-45.2t-10.81-25q-7.64-7.79-19.68-7.8-11.7,0-19.32,7.8t-11,25q-3.37,17.19-3.37,45.2v6.38q0,27.64,3.37,45t11,25.17Q1536,507.51,1547.71,507.51Z"/><path d="M1631.73,519.56V263.25h18.08V519.56Z"/><path d="M1736,523.81q-20.21,0-32.26-9.92t-17-31.55q-5-21.61-5-56,0-35.81,5.49-57.08t17.9-30.84q12.42-9.57,32.26-9.57,15.6,0,26.59,7.62t16.66,25.7q5.67,18.07,5.68,50.34v17.37H1700.5q0,26.6,2.83,43.78t10.46,25.7q7.62,8.52,21.45,8.51a28.48,28.48,0,0,0,12.58-2.83,27.14,27.14,0,0,0,10.11-8.69q4.24-5.85,6.91-15.6a99.2,99.2,0,0,0,3-23.22h18.08a128.84,128.84,0,0,1-4.08,28.54,59.35,59.35,0,0,1-9.92,20.74,42.44,42.44,0,0,1-15.6,12.76A47.25,47.25,0,0,1,1736,523.81ZM1700.5,415h67a261.22,261.22,0,0,0-1.6-31.19,99.34,99.34,0,0,0-4.78-21.81q-3.19-8.67-9.4-12.94t-15.42-4.25q-14.54,0-22.16,9.22t-10.81,25A168,168,0,0,0,1700.5,415Z"/><path d="M1850.45,523.81q-13.48,0-22.16-3.89a33.74,33.74,0,0,1-13.83-11,46.61,46.61,0,0,1-7.44-17.2,97.65,97.65,0,0,1-2.31-21.8,22.52,22.52,0,0,1,.36-4.08,21.22,21.22,0,0,0,.35-3.72h17.73a12.71,12.71,0,0,0-.71,4.08v4.07q0,12.42,3,20.74a27,27,0,0,0,8.87,12.77q5.85,4.43,15.06,4.43,10.63,0,17-4.61a25.69,25.69,0,0,0,9.22-13.12q2.84-8.5,2.83-20.91,0-12.06-4.43-19.32a35.22,35.22,0,0,0-11.52-11.7,116.54,116.54,0,0,0-15.24-8q-7.82-3.9-14.72-8.15a48.5,48.5,0,0,1-12-10.46,46.82,46.82,0,0,1-8.15-15.07q-3-8.85-3-21.62a58.62,58.62,0,0,1,3-19.32,42.22,42.22,0,0,1,8.68-14.89,34.8,34.8,0,0,1,13.83-9.22,52,52,0,0,1,18.08-3,57.42,57.42,0,0,1,18.79,2.83,30.86,30.86,0,0,1,13.29,8.69,37.45,37.45,0,0,1,7.62,14,66.22,66.22,0,0,1,2.48,19.15c0,1.65-.06,3.54-.17,5.67s-.3,4.37-.54,6.73H1877v-11.7q0-11.34-3-17.72a19.41,19.41,0,0,0-8.33-9.22,26,26,0,0,0-12.41-2.83q-7.8,0-12.76,2.65a21.2,21.2,0,0,0-7.8,6.92,26.51,26.51,0,0,0-3.9,9.92,65.38,65.38,0,0,0-1.06,12.06q0,11,3.9,17.72a32,32,0,0,0,10.46,11q6.56,4.26,14,8.15,7.08,3.19,14.18,7.27a64.26,64.26,0,0,1,13.29,10.28,47.43,47.43,0,0,1,10.11,15.78q3.88,9.57,3.89,24.1,0,13.83-3.36,23.93a42.65,42.65,0,0,1-9.57,16.49,41.54,41.54,0,0,1-14.89,9.75A53.19,53.19,0,0,1,1850.45,523.81Z"/><g class="cls-2"><path class="cls-3" d="M1078.35,189l40.06-96.78-37.23-90h40.42l21.62,61h1.42l20.91-61h38.65L1167,92.55,1207,189h-40.77l-24.1-67.36h-1.42L1116.63,189Z"/></g><g class="cls-2"><path class="cls-3" d="M1078.35,850.39l40.06-96.78-37.23-90h40.42l21.62,61h1.42l20.91-61h38.65L1167,754,1207,850.39h-40.77L1142.16,783h-1.42l-24.11,67.35Z"/></g><g class="cls-2"><path class="cls-3" d="M187.39,490.62,90.61,450.56l-90,37.22V447.37l61-21.63v-1.42l-61-20.91V364.77L91,402l96.43-40.06V402.7L120,426.8v1.42l67.36,24.11Z"/></g><g class="cls-2"><path class="cls-3" d="M2239.62,490.62l-96.78-40.06-90,37.22V447.37l61-21.63v-1.42l-61-20.91V364.77L2143.2,402l96.42-40.06V402.7l-67.35,24.1v1.42l67.35,24.11Z"/></g><path class="cls-4" d="M322.92,191.32c162.27,0,162.27,28.35,324.54,28.35S809.74,191.32,972,191.32"/><line class="cls-4" x1="322.92" y1="647.03" x2="972.01" y2="647.03"/></g></g></svg>