<svg xmlns="http://www.w3.org/2000/svg" viewBox="0 0 1857.21 486.71"><g id="Capa_2" data-name="Capa 2"><g id="Capa_2-2" data-name="Capa 2"><path d="M52.11,348a42.75,42.75,0,0,1-17-3.19,32.77,32.77,0,0,1-12.59-9.39A42,42,0,0,1,14.71,320a85.81,85.81,0,0,1,.71-45,45.72,45.72,0,0,1,12-19.5q8.69-8.5,24.46-13.65t40.6-5.14v-33q0-11.7-2.49-19.5t-8.5-11.52Q75.5,169,65.23,169q-12.77,0-19,5.85a28,28,0,0,0-8.15,15.07,99.59,99.59,0,0,0-2,20.56v2.48H18.79a17.74,17.74,0,0,1-.36-3.55v-4.25q0-20.55,6.92-31.73t17.72-15.77A59.57,59.57,0,0,1,66.65,153q13.11,0,22.86,4.43t15.42,15.06q5.67,10.65,5.68,29.78V318.57c0,4.49.76,7.68,2.3,9.57A6.86,6.86,0,0,0,118.4,331h12.06v11.7c-2.61.94-5.5,1.95-8.69,3a31.84,31.84,0,0,1-10.1,1.6q-7.1,0-11.17-3.73A18.6,18.6,0,0,1,95,333.64,61.07,61.07,0,0,1,93.59,320H91.46a68.8,68.8,0,0,1-9.22,14.53,37.1,37.1,0,0,1-12.76,9.93A40.05,40.05,0,0,1,52.11,348Zm3.9-16.3a28.28,28.28,0,0,0,12.05-3,36.19,36.19,0,0,0,11.88-9.39q5.49-6.37,9-17t3.55-25.17V251.57q-25.18.36-38.47,6.38T36,274.08A52.81,52.81,0,0,0,31.2,297,58,58,0,0,0,34,316.27q2.84,8,8.33,11.69T56,331.69Z" transform="translate(-12.05)"/><path d="M151.37,343.74V156.92h31.55l2.48,23.39h1.42a49.43,49.43,0,0,1,9.57-15.95,35.26,35.26,0,0,1,12.94-8.86,43,43,0,0,1,15.78-2.84q13.81,0,22.15,6.56t11.17,21.09h1.77a66.18,66.18,0,0,1,9.93-15.95,32.52,32.52,0,0,1,12.41-8.86,41.59,41.59,0,0,1,15.59-2.84q12.76,0,20.74,5t11.88,15.59q3.9,10.64,3.9,26.95V343.74H297.78V210.8a75.5,75.5,0,0,0-.53-9.22,22.93,22.93,0,0,0-2.13-7.44,10.92,10.92,0,0,0-4.43-4.79,15.21,15.21,0,0,0-7.44-1.59,16.17,16.17,0,0,0-12.06,5.14q-5,5.15-7.62,15.42t-2.66,26.23V343.74H224.75V210.8a75.5,75.5,0,0,0-.53-9.22,22.68,22.68,0,0,0-2.13-7.44,10.64,10.64,0,0,0-4.61-4.79,15.38,15.38,0,0,0-7.26-1.59,16.17,16.17,0,0,0-12.06,5.14q-5,5.15-7.62,15.42t-2.66,26.23V343.74Z" transform="translate(-12.05)"/><path d="M398.46,348Q380,348,371,336.47t-9-36V156.92h36.52V289.86a55.2,55.2,0,0,0,.71,9.21,26.29,26.29,0,0,0,2.3,7.45,10.67,10.67,0,0,0,4.61,4.78,15.28,15.28,0,0,0,7.27,1.6,16.71,16.71,0,0,0,12.23-5.14q5.13-5.14,7.62-15.6t2.48-26.06V156.92H472.9V343.74H441.35l-2.48-23h-1.42a56.84,56.84,0,0,1-10.1,15.42,36.67,36.67,0,0,1-12.76,9A42.33,42.33,0,0,1,398.46,348Zm6.38-213.76L425.4,87.08h33.32V88.5l-30.48,45.73Z" transform="translate(-12.05)"/><path d="M547,348q-16.31,0-26.58-3.9a36.88,36.88,0,0,1-16.13-11.16,44,44,0,0,1-8.33-17.2,88.66,88.66,0,0,1-2.49-21.62c0-1.18.06-2.6.18-4.25s.29-3.31.53-5H527.5a31.37,31.37,0,0,0-.36,4.43v4.08a41.94,41.94,0,0,0,2,13.29,19.13,19.13,0,0,0,6.2,9.22q4.26,3.38,11,3.37,7.44,0,11.69-2.84a16.13,16.13,0,0,0,6.21-8.5,44.44,44.44,0,0,0,1.95-14.19q0-9.21-4.26-14.71a35.19,35.19,0,0,0-10.45-9q-6.21-3.54-13.65-7.09-7.1-3.18-14.54-7.44A60.77,60.77,0,0,1,509.77,245,46.34,46.34,0,0,1,500,229.24q-3.72-9.59-3.72-24.11,0-13.47,3.9-23.22a42.37,42.37,0,0,1,11.34-16.31,49,49,0,0,1,17-9.75,64.79,64.79,0,0,1,20.56-3.19,67.19,67.19,0,0,1,20.92,3,40.77,40.77,0,0,1,15.59,9,39.91,39.91,0,0,1,9.75,14.53,52.61,52.61,0,0,1,3.37,19.5q0,2.83-.18,6.2c-.12,2.25-.29,4.32-.53,6.21H565.43v-8.87q0-7.44-2.31-12a15.42,15.42,0,0,0-6-6.74,18,18,0,0,0-9-2.12,18.41,18.41,0,0,0-7.27,1.42,13.66,13.66,0,0,0-5.67,4.43,17.5,17.5,0,0,0-3.19,6.73,37.29,37.29,0,0,0-.89,8.69c0,5.44,1.36,9.92,4.08,13.47a29.29,29.29,0,0,0,10.63,8.51q6.56,3.18,14,6.38a161.26,161.26,0,0,1,15.06,7.44,66.82,66.82,0,0,1,14,10.46,44.29,44.29,0,0,1,10.11,15.42q3.72,9.23,3.72,23.75,0,16-3.9,27.12a45.36,45.36,0,0,1-29.07,29.25A69.36,69.36,0,0,1,547,348Z" transform="translate(-12.05)"/><path d="M625.34,125V87.08h36.51V125Zm0,218.73V156.92h36.51V343.74Z" transform="translate(-12.05)"/><path d="M745.51,348q-21.63,0-34.39-10.45t-18.43-32.09Q687,283.84,687,250.51q0-35.1,6.38-56.72t19.49-31.38q13.13-9.75,33.68-9.75,15.24,0,25.88,4.43a38.51,38.51,0,0,1,17,13.48q6.38,9,9.39,23.57t3,34.74H765.36a176.52,176.52,0,0,0-1.59-26.41q-1.6-10.09-5.32-14.53t-11.88-4.44a16.27,16.27,0,0,0-11.69,4.79q-5,4.78-7.45,16.66T725,238.81v24.1A225.51,225.51,0,0,0,726.37,289q1.41,12.22,6,20.21t13.47,8q7.8,0,12.06-4.07t6.2-14q1.95-9.92,2-27.29h35.81a146.93,146.93,0,0,1-3,31.19,74,74,0,0,1-9.39,23.93,43,43,0,0,1-17.19,15.6Q761.45,348,745.51,348Z" transform="translate(-12.05)"/><path d="M861.43,348a46.35,46.35,0,0,1-17.72-3.19,32.91,32.91,0,0,1-13.12-9.57,42.05,42.05,0,0,1-8-16,82.41,82.41,0,0,1-2.66-22A75.51,75.51,0,0,1,824,272a51.49,51.49,0,0,1,13.12-20.2q9-8.69,24.46-13.47t37.75-4.79V208.32a35.66,35.66,0,0,0-2.12-13.12,18.28,18.28,0,0,0-6.38-8.33,17.42,17.42,0,0,0-10.29-3q-8.16,0-12.4,3.72a18.06,18.06,0,0,0-5.68,9.75,62.87,62.87,0,0,0-1.41,14.18V214H826.69a12.18,12.18,0,0,1-.35-3v-3.37q0-19.85,7.26-31.9a42.45,42.45,0,0,1,20-17.55q12.76-5.49,29.42-5.5,15.6,0,27.66,5.14t18.79,17.91q6.72,12.75,6.73,36.16V305.1c0,3.78.71,6.68,2.13,8.68s3.66,3,6.73,3H954V342A62.88,62.88,0,0,1,941.9,346a57.92,57.92,0,0,1-13.47,1.6q-8.5,0-13.82-3.19a22.24,22.24,0,0,1-8.33-8.86,33.64,33.64,0,0,1-3.73-12.41h-1.77a56.71,56.71,0,0,1-8.86,12.41,39.88,39.88,0,0,1-12.76,9A42.88,42.88,0,0,1,861.43,348Zm14.18-31.19A14.9,14.9,0,0,0,884.3,314a31.24,31.24,0,0,0,7.62-8,39.69,39.69,0,0,0,5.49-12.77,67.88,67.88,0,0,0,2-16.84V256.53q-17.73,0-26.41,4.79T861.08,273.9a45.43,45.43,0,0,0-3.19,17.37,42.56,42.56,0,0,0,2,13.83,17.82,17.82,0,0,0,5.85,8.68A15.71,15.71,0,0,0,875.61,316.8Z" transform="translate(-12.05)"/><path d="M974.87,343.74V100.55h31.2l42.54,173c.47,2.13,1.06,5,1.77,8.51s1.36,7.15,1.95,10.81,1.24,7.15,2,10.46h1.06q1.07-4.6,2.13-10.11t2.13-10.81q1.05-5.31,1.77-8.51l42.18-173.35h31.2V343.74h-20.21V180.67q0-3.9.18-12.23t.18-17.9V132.81h-1.42q-.72,4.26-1.6,9.4t-1.94,9.92a43.32,43.32,0,0,1-2.13,7.27l-46.09,184.34h-14.53l-45.73-184q-.72-2.48-2-7.44t-2.13-10.1q-.89-5.15-2-9.4H994v17.73q0,9.93.18,18.08t.18,12V343.74Z" transform="translate(-12.05)"/><path d="M1221.6,348q-17.37,0-29.07-9.39T1175,307.76q-5.84-21.45-5.85-57.25,0-36.16,5.85-57.61t17.55-30.67q11.7-9.21,29.07-9.21,17,0,28.89,9.21t17.91,30.67q6,21.45,6,57.61,0,35.81-6,57.25t-17.91,30.84Q1238.61,348,1221.6,348Zm0-16.3q12,0,19.68-7.8t10.81-25.17q3.2-17.37,3.19-45v-6.38q0-28-3.19-45.2t-10.81-25q-7.63-7.78-19.68-7.8-11.7,0-19.32,7.8t-11,25q-3.37,17.19-3.37,45.2v6.38q0,27.65,3.37,45t11,25.17Q1209.9,331.69,1221.6,331.69Zm-8.51-197.46L1234,87.43h18.08v1.42l-24.82,45.38Z" transform="translate(-12.05)"/><path d="M1338.23,348q-13.47,0-22.15-3.9a33.51,33.51,0,0,1-13.83-11,46.62,46.62,0,0,1-7.45-17.2,98.25,98.25,0,0,1-2.3-21.8,22.44,22.44,0,0,1,.36-4.08,21.22,21.22,0,0,0,.35-3.72h17.73a12.71,12.71,0,0,0-.71,4.08v4.07q0,12.42,3,20.74A26.89,26.89,0,0,0,1322.1,328q5.85,4.44,15.07,4.44,10.63,0,17-4.61a25.57,25.57,0,0,0,9.22-13.12q2.83-8.51,2.84-20.92,0-12-4.43-19.32a35.28,35.28,0,0,0-11.52-11.69,116.1,116.1,0,0,0-15.25-8q-7.8-3.9-14.71-8.15a48.5,48.5,0,0,1-12-10.46,47,47,0,0,1-8.16-15.07q-3-8.85-3-21.62a58.62,58.62,0,0,1,3-19.32,42.39,42.39,0,0,1,8.69-14.89,34.77,34.77,0,0,1,13.82-9.22,52,52,0,0,1,18.08-3,57.15,57.15,0,0,1,18.79,2.83,30.74,30.74,0,0,1,13.29,8.69,37.47,37.47,0,0,1,7.63,14,66.2,66.2,0,0,1,2.48,19.14c0,1.66-.06,3.55-.18,5.68s-.3,4.37-.53,6.73h-17.37v-11.7q0-11.34-3-17.72a19.43,19.43,0,0,0-8.34-9.22,26,26,0,0,0-12.4-2.83q-7.8,0-12.77,2.65a21.09,21.09,0,0,0-7.79,6.92,26.28,26.28,0,0,0-3.9,9.92,65.36,65.36,0,0,0-1.07,12.06q0,11,3.9,17.72a32.16,32.16,0,0,0,10.46,11q6.55,4.26,14,8.15,7.1,3.19,14.18,7.27a64.05,64.05,0,0,1,13.3,10.28,47.26,47.26,0,0,1,10.1,15.78q3.9,9.57,3.9,24.1,0,13.83-3.37,23.93a42.65,42.65,0,0,1-9.57,16.49,41.45,41.45,0,0,1-14.89,9.75A53.15,53.15,0,0,1,1338.23,348Z" transform="translate(-12.05)"/><path d="M1434.65,347.64q-11,0-16-5t-6-14.36a188.62,188.62,0,0,1-1.06-21.09V173.58h-12V157.27h12l2.84-52.11h15.24v52.11h20.56v16.31h-20.56v141.8q0,8.87,1.77,12.58t6.74,3.73h12v11.7q-2.13,1-5,2.12a34.68,34.68,0,0,1-5.67,1.6A27.92,27.92,0,0,1,1434.65,347.64Z" transform="translate(-12.05)"/><path d="M1519.38,348q-17.37,0-29.07-9.39t-17.55-30.84q-5.85-21.45-5.85-57.25,0-36.16,5.85-57.61t17.55-30.67Q1502,153,1519.38,153q17,0,28.89,9.21t17.9,30.67q6,21.45,6,57.61,0,35.81-6,57.25t-17.9,30.84Q1536.39,348,1519.38,348Zm0-16.3q12,0,19.67-7.8t10.82-25.17q3.18-17.37,3.19-45v-6.38q0-28-3.19-45.2t-10.82-25q-7.62-7.78-19.67-7.8-11.7,0-19.32,7.8t-11,25q-3.37,17.19-3.37,45.2v6.38q0,27.65,3.37,45t11,25.17Q1507.68,331.69,1519.38,331.69Z" transform="translate(-12.05)"/><path d="M1603.39,343.74V87.43h18.08V343.74Z" transform="translate(-12.05)"/><path d="M1707.61,348q-20.2,0-32.26-9.92t-17-31.55q-5-21.63-5-56,0-35.81,5.5-57.08t17.9-30.84Q1689.18,153,1709,153q15.6,0,26.59,7.62t16.66,25.7q5.67,18.07,5.67,50.34v17.37h-85.79q0,26.59,2.84,43.78t10.46,25.7q7.62,8.52,21.44,8.51a28.49,28.49,0,0,0,12.59-2.83,27,27,0,0,0,10.1-8.69q4.26-5.85,6.92-15.6a99.28,99.28,0,0,0,3-23.22h18.08a129.43,129.43,0,0,1-4.08,28.54A59.7,59.7,0,0,1,1743.6,331a42.52,42.52,0,0,1-15.6,12.76A47.29,47.29,0,0,1,1707.61,348Zm-35.45-108.83h67a263.85,263.85,0,0,0-1.59-31.2,98.62,98.62,0,0,0-4.79-21.8q-3.18-8.68-9.39-12.94T1708,169q-14.55,0-22.16,9.22t-10.81,25A167.28,167.28,0,0,0,1672.16,239.16Z" transform="translate(-12.05)"/><path d="M1822.11,348q-13.47,0-22.15-3.9a33.51,33.51,0,0,1-13.83-11,46.45,46.45,0,0,1-7.44-17.2,97.65,97.65,0,0,1-2.31-21.8,22.44,22.44,0,0,1,.36-4.08,21.22,21.22,0,0,0,.35-3.72h17.73a12.71,12.71,0,0,0-.71,4.08v4.07q0,12.42,3,20.74A26.89,26.89,0,0,0,1806,328q5.85,4.44,15.07,4.44,10.64,0,17-4.61a25.57,25.57,0,0,0,9.22-13.12q2.84-8.51,2.84-20.92,0-12-4.43-19.32a35.28,35.28,0,0,0-11.52-11.69,114.85,114.85,0,0,0-15.25-8q-7.8-3.9-14.71-8.15a48.5,48.5,0,0,1-12-10.46,47,47,0,0,1-8.16-15.07q-3-8.85-3-21.62a58.62,58.62,0,0,1,3-19.32,42.39,42.39,0,0,1,8.69-14.89,34.77,34.77,0,0,1,13.82-9.22,52,52,0,0,1,18.08-3,57.15,57.15,0,0,1,18.79,2.83,30.83,30.83,0,0,1,13.3,8.69,37.59,37.59,0,0,1,7.62,14,66.2,66.2,0,0,1,2.48,19.14c0,1.66-.06,3.55-.18,5.68s-.3,4.37-.53,6.73H1848.7v-11.7q0-11.34-3-17.72a19.41,19.41,0,0,0-8.33-9.22,26,26,0,0,0-12.41-2.83q-7.8,0-12.76,2.65a21.2,21.2,0,0,0-7.8,6.92,26.28,26.28,0,0,0-3.9,9.92,65.36,65.36,0,0,0-1.07,12.06q0,11,3.9,17.72a32.16,32.16,0,0,0,10.46,11q6.56,4.26,14,8.15,7.08,3.19,14.17,7.27a64.05,64.05,0,0,1,13.3,10.28,47.26,47.26,0,0,1,10.1,15.78q3.9,9.57,3.9,24.1,0,13.83-3.37,23.93a42.53,42.53,0,0,1-9.57,16.49,41.45,41.45,0,0,1-14.89,9.75A53.15,53.15,0,0,1,1822.11,348Z" transform="translate(-12.05)"/><rect x="134" y="455.71" width="807.88" height="31"/><path d="M819.28,59.35c-36.79,0-56.21-8.18-73.34-15.39-16.52-7-30.78-13-61.31-13s-44.79,6-61.31,13C606.19,51.17,586.78,59.35,550,59.35S493.78,51.17,476.65,44c-16.52-7-30.78-13-61.31-13S370.55,37,354,44c-17.13,7.21-36.54,15.39-73.34,15.39S224.49,51.17,207.36,44c-16.52-7-30.78-13-61.31-13V0c36.79,0,56.21,8.18,73.34,15.39,16.51,7,30.77,13,61.3,13s44.8-6,61.31-13C359.13,8.18,378.55,0,415.34,0s56.21,8.18,73.34,15.39c16.51,7,30.77,13,61.3,13s44.8-6,61.31-13C628.42,8.18,647.84,0,684.63,0S740.84,8.18,758,15.39c16.51,7,30.78,13,61.31,13s44.8-6,61.31-13C897.72,8.18,917.14,0,953.93,0V31c-30.53,0-44.8,6-61.31,13C875.49,51.17,856.07,59.35,819.28,59.35Z" transform="translate(-12.05)"/></g></g></svg>