<svg xmlns="http://www.w3.org/2000/svg" viewBox="0 0 433.2 472.42"><g id="Capa_2" data-name="Capa 2"><g id="Capa_2-2" data-name="Capa 2"><path d="M52.11,333.76a42.75,42.75,0,0,1-17-3.19,33,33,0,0,1-12.59-9.39,42.12,42.12,0,0,1-7.8-15.42,85.85,85.85,0,0,1,.71-45,45.74,45.74,0,0,1,12-19.49q8.69-8.52,24.46-13.65t40.6-5.14v-33q0-11.7-2.49-19.5t-8.5-11.52q-6-3.72-16.31-3.72-12.77,0-19,5.85a28.08,28.08,0,0,0-8.15,15.06,99.66,99.66,0,0,0-2,20.56v2.49H18.79a17.74,17.74,0,0,1-.36-3.55V190.9q0-20.57,6.92-31.73t17.72-15.78a59.57,59.57,0,0,1,23.58-4.61q13.11,0,22.86,4.44t15.42,15.06q5.67,10.64,5.68,29.78V304.34c0,4.49.76,7.68,2.3,9.57a6.89,6.89,0,0,0,5.49,2.84h12.06v11.69c-2.61.95-5.5,1.95-8.69,3a31.84,31.84,0,0,1-10.1,1.59q-7.1,0-11.17-3.72A18.59,18.59,0,0,1,95,319.4a60.91,60.91,0,0,1-1.42-13.64H91.46a69.43,69.43,0,0,1-9.21,14.53,37.35,37.35,0,0,1-12.77,9.93A40,40,0,0,1,52.11,333.76ZM56,317.45a28.26,28.26,0,0,0,12.05-3,36.19,36.19,0,0,0,11.88-9.39q5.49-6.39,9-17t3.55-25.17V237.34q-25.18.34-38.47,6.38T36,259.85a52.73,52.73,0,0,0-4.78,22.86Q31.2,294.06,34,302t8.33,11.7Q47.85,317.45,56,317.45Z" transform="translate(-12.05)"/><path d="M202.06,333.76q-22,0-35.27-9.75t-19.32-31.37q-6-21.61-6-56.37,0-36.15,6.39-57.6T168,147.82q13.83-9.39,35.81-9.39,19.85,0,32.61,8.15t19.14,27.83Q262,194.09,262,228.83v15.24h-82.6q0,20.57,1.77,33.5t6.73,19.15q5,6.19,14.54,6.2a19,19,0,0,0,9.22-2.13,17.45,17.45,0,0,0,6.55-6.56,36.44,36.44,0,0,0,4.08-11.87A117.69,117.69,0,0,0,224,264.63h37.23a121.43,121.43,0,0,1-4.08,30.49q-3.72,13.13-11.17,21.63a46,46,0,0,1-18.61,12.76A71,71,0,0,1,202.06,333.76Zm-22.68-112h44q0-14.53-.88-24.29a73.44,73.44,0,0,0-3-16.13q-2.13-6.37-6-9.21t-10.28-2.84q-9.57,0-14.71,6.21t-7.09,17.72A173.94,173.94,0,0,0,179.38,221.74Z" transform="translate(-12.05)"/><path d="M285.37,329.51V86.32h31.2l42.54,173c.47,2.12,1.06,5,1.77,8.5s1.36,7.16,1.95,10.82,1.24,7.15,1.95,10.45h1.06q1.07-4.6,2.13-10.1t2.13-10.81c.7-3.55,1.29-6.38,1.77-8.51L414.05,86.32h31.2V329.51H425V166.44q0-3.9.18-12.23t.18-17.91V118.58H424c-.48,2.83-1,6-1.6,9.39s-1.24,6.74-1.95,9.93a42.53,42.53,0,0,1-2.12,7.27L372.22,329.51H357.69L312,145.52q-.72-2.47-1.95-7.44T307.88,128c-.59-3.42-1.24-6.56-1.95-9.39h-1.42V136.3q0,9.93.18,18.08t.18,12.06V329.51Z" transform="translate(-12.05)"/><rect x="126.91" y="441.54" width="120.53" height="30.88"/><rect x="126.91" width="120.53" height="30.88"/></g></g></svg>