<svg xmlns="http://www.w3.org/2000/svg" viewBox="0 0 2239.62 853.48"><defs><style>.cls-1,.cls-3{fill:#3fbbed;}.cls-1,.cls-2{opacity:0.26;}.cls-4{fill:none;stroke:#000;stroke-miterlimit:10;stroke-width:31px;}</style></defs><g id="Capa_2" data-name="Capa 2"><g id="Capa_2-2" data-name="Capa 2"><rect class="cls-1" x="188.92" y="188.98" width="1863.88" height="474.59"/><rect class="cls-1" width="2239.62" height="853.48"/><path d="M229,523.81a42.84,42.84,0,0,1-17-3.19,32.82,32.82,0,0,1-12.58-9.39,42,42,0,0,1-7.8-15.42,85.81,85.81,0,0,1,.71-45,45.72,45.72,0,0,1,12.05-19.5q8.68-8.51,24.46-13.65t40.59-5.14v-33q0-11.7-2.48-19.5t-8.51-11.52q-6-3.72-16.3-3.72-12.76,0-19,5.85A28,28,0,0,0,215,365.71,98.91,98.91,0,0,0,213,386.27v2.48H195.66a17.74,17.74,0,0,1-.36-3.55V381q0-20.55,6.91-31.73t17.73-15.77a59.55,59.55,0,0,1,23.57-4.61q13.13,0,22.87,4.43t15.42,15.07q5.67,10.64,5.67,29.77V494.39q0,6.74,2.31,9.57a6.85,6.85,0,0,0,5.49,2.84h12.05v11.7c-2.6.94-5.49,2-8.68,3a31.84,31.84,0,0,1-10.1,1.6q-7.1,0-11.17-3.73a18.68,18.68,0,0,1-5.5-9.92,61.62,61.62,0,0,1-1.41-13.65h-2.13a68.8,68.8,0,0,1-9.22,14.53,37.19,37.19,0,0,1-12.76,9.93A40.05,40.05,0,0,1,229,523.81Zm3.9-16.3a28.14,28.14,0,0,0,12.05-3,36.19,36.19,0,0,0,11.88-9.39q5.49-6.37,9-17t3.54-25.17V427.39q-25.17.36-38.46,6.38T212.85,449.9a52.81,52.81,0,0,0-4.79,22.87,58,58,0,0,0,2.84,19.32q2.83,8,8.33,11.7T232.88,507.51Z"/><path d="M367.94,523.81q-15.6,0-25.52-10.1t-14.71-31.9q-4.79-21.81-4.79-56.9,0-34.38,4.43-55.48t14.18-31q9.75-9.92,25.7-9.93a35.72,35.72,0,0,1,15.07,3,30.88,30.88,0,0,1,11.17,8.68,46.44,46.44,0,0,1,7.44,13.47h1.77V262.9h36.87V519.56H409.42l-2.84-23h-1.77a43.39,43.39,0,0,1-12.58,19.14Q383.18,523.81,367.94,523.81Zm13.47-33q8.16,0,12.59-6.21t6.56-18.08a170.28,170.28,0,0,0,2.12-29.24V417.46a179,179,0,0,0-1.41-24.28,79.4,79.4,0,0,0-3.9-16.66q-2.49-6.56-6.74-9.57a16.73,16.73,0,0,0-9.93-3,13.93,13.93,0,0,0-11.16,5.32q-4.44,5.33-6.56,17t-2.13,30.84v20.21q0,18.44,1.95,30.31t6.56,17.54A14.76,14.76,0,0,0,381.41,490.85Z"/><path d="M504.43,523.81a46.43,46.43,0,0,1-17.73-3.19,33,33,0,0,1-13.11-9.57,42.05,42.05,0,0,1-8-15.95,82.41,82.41,0,0,1-2.66-22A75.51,75.51,0,0,1,467,447.77a51.58,51.58,0,0,1,13.11-20.2q9-8.69,24.46-13.47t37.76-4.79V384.14A35.44,35.44,0,0,0,540.23,371a18.21,18.21,0,0,0-6.38-8.33,17.39,17.39,0,0,0-10.28-3q-8.16,0-12.41,3.72a18.05,18.05,0,0,0-5.67,9.75,62.26,62.26,0,0,0-1.42,14.18v2.48H469.69a12.17,12.17,0,0,1-.36-3v-3.37q0-19.85,7.27-31.9a42.45,42.45,0,0,1,20-17.55q12.76-5.49,29.42-5.5,15.6,0,27.65,5.14t18.79,17.91q6.74,12.75,6.74,36.16v93.23c0,3.78.71,6.68,2.12,8.68s3.67,3,6.74,3H597v25.17a63.22,63.22,0,0,1-12.05,4.08,58.51,58.51,0,0,1-13.47,1.59q-8.5,0-13.83-3.19a22.38,22.38,0,0,1-8.33-8.86A33.63,33.63,0,0,1,545.55,499h-1.77a56.75,56.75,0,0,1-8.87,12.41,39.77,39.77,0,0,1-12.76,9A42.8,42.8,0,0,1,504.43,523.81Zm14.18-31.19a14.87,14.87,0,0,0,8.68-2.84,30.91,30.91,0,0,0,7.62-8,39.7,39.7,0,0,0,5.5-12.77,67.8,67.8,0,0,0,2-16.83V432.35q-17.73,0-26.41,4.79t-11.88,12.58a45.65,45.65,0,0,0-3.19,17.37,42.83,42.83,0,0,0,1.95,13.83,18,18,0,0,0,5.85,8.68A15.7,15.7,0,0,0,518.61,492.62Z"/><path d="M611.48,519.56V332.74H643l2.49,23h1.41a49.93,49.93,0,0,1,9.58-15.6,35.23,35.23,0,0,1,12.93-8.86,43.09,43.09,0,0,1,15.78-2.84q13.11,0,21.27,5t12,15.59q3.9,10.63,3.9,26.95V519.56H685.22V386.27a54.29,54.29,0,0,0-.71-8.87,31,31,0,0,0-2.13-7.44,9.71,9.71,0,0,0-4.43-4.79,17.47,17.47,0,0,0-19.67,3.55q-5,5.14-7.62,15.42T648,410.37V519.56Z"/><path d="M740.88,519.56v-17l62.74-139H745.48V332.74H849.35v15.95L786.61,488h65.23v31.55Z"/><path d="M903.24,523.81a46.43,46.43,0,0,1-17.73-3.19,33,33,0,0,1-13.11-9.57,42.05,42.05,0,0,1-8-15.95,82.41,82.41,0,0,1-2.66-22,75.51,75.51,0,0,1,4.08-25.35A51.58,51.58,0,0,1,879,427.57q9-8.69,24.47-13.47t37.75-4.79V384.14A35.44,35.44,0,0,0,939,371a18.14,18.14,0,0,0-6.38-8.33,17.37,17.37,0,0,0-10.28-3q-8.16,0-12.41,3.72a18.05,18.05,0,0,0-5.67,9.75,62.26,62.26,0,0,0-1.42,14.18v2.48H868.5a12.17,12.17,0,0,1-.36-3v-3.37q0-19.85,7.27-31.9a42.45,42.45,0,0,1,20-17.55q12.76-5.49,29.42-5.5,15.6,0,27.65,5.14t18.79,17.91Q978,364.28,978,387.69v93.23c0,3.78.71,6.68,2.13,8.68s3.66,3,6.73,3h8.86v25.17a63.22,63.22,0,0,1-12,4.08,58.45,58.45,0,0,1-13.47,1.59q-8.5,0-13.83-3.19a22.38,22.38,0,0,1-8.33-8.86A33.63,33.63,0,0,1,944.36,499h-1.77a57,57,0,0,1-8.86,12.41,39.82,39.82,0,0,1-12.77,9A42.8,42.8,0,0,1,903.24,523.81Zm14.18-31.19a14.87,14.87,0,0,0,8.68-2.84,31.1,31.1,0,0,0,7.63-8A39.69,39.69,0,0,0,939.22,469a67.8,67.8,0,0,0,1.95-16.83V432.35q-17.73,0-26.41,4.79t-11.88,12.58a45.65,45.65,0,0,0-3.19,17.37,42.83,42.83,0,0,0,1.95,13.83,18,18,0,0,0,5.85,8.68A15.7,15.7,0,0,0,917.42,492.62Z"/><path d="M1016.68,519.56V276.37h31.19l42.54,173c.47,2.13,1.07,5,1.77,8.51s1.36,7.15,2,10.81,1.25,7.15,1.95,10.46h1.07q1.06-4.61,2.13-10.11t2.12-10.81q1.06-5.31,1.77-8.51l42.19-173.35h31.2V519.56h-20.21V356.49q0-3.9.18-12.23t.17-17.9V308.63h-1.41q-.72,4.26-1.6,9.4t-2,9.92a43.32,43.32,0,0,1-2.13,7.27l-46.08,184.34H1089l-45.73-184q-.71-2.47-2-7.44t-2.12-10.1c-.6-3.43-1.24-6.56-2-9.4h-1.42v17.73q0,9.93.18,18.08t.17,12.05V519.56Z"/><path d="M1263.41,523.81q-17.37,0-29.07-9.39t-17.55-30.84q-5.85-21.45-5.85-57.25,0-36.16,5.85-57.61t17.55-30.67q11.7-9.21,29.07-9.21,17,0,28.89,9.21t17.9,30.67q6,21.45,6,57.61,0,35.81-6,57.25t-17.9,30.84Q1280.42,523.81,1263.41,523.81Zm0-16.3q12,0,19.67-7.8t10.82-25.17q3.18-17.37,3.19-45v-6.38q0-28-3.19-45.2t-10.82-25q-7.62-7.79-19.67-7.8-11.7,0-19.32,7.8t-11,25q-3.37,17.19-3.37,45.2v6.38q0,27.64,3.37,45t11,25.17Q1251.71,507.51,1263.41,507.51Zm-8.51-197.46,20.92-46.8h18.08v1.42l-24.82,45.38Z"/><path d="M1380,523.81q-13.49,0-22.16-3.89a33.65,33.65,0,0,1-13.82-11,46.62,46.62,0,0,1-7.45-17.2,97.66,97.66,0,0,1-2.3-21.8,22.53,22.53,0,0,1,.35-4.08,21.26,21.26,0,0,0,.36-3.72h17.72a12.71,12.71,0,0,0-.71,4.08v4.07q0,12.42,3,20.74a27,27,0,0,0,8.86,12.77q5.85,4.43,15.06,4.43,10.63,0,17-4.61a25.69,25.69,0,0,0,9.22-13.12q2.83-8.5,2.83-20.91,0-12.06-4.43-19.32a35.13,35.13,0,0,0-11.52-11.7,116.54,116.54,0,0,0-15.24-8q-7.8-3.9-14.71-8.15A48.73,48.73,0,0,1,1350.08,412a46.82,46.82,0,0,1-8.15-15.07q-3-8.85-3-21.62a58.62,58.62,0,0,1,3-19.32,42.22,42.22,0,0,1,8.68-14.89,34.8,34.8,0,0,1,13.83-9.22,52,52,0,0,1,18.08-3,57.42,57.42,0,0,1,18.79,2.83,30.86,30.86,0,0,1,13.29,8.69,37.31,37.31,0,0,1,7.62,14,66.2,66.2,0,0,1,2.49,19.15c0,1.65-.07,3.54-.18,5.67s-.3,4.37-.53,6.73h-17.37v-11.7q0-11.34-3-17.72a19.37,19.37,0,0,0-8.33-9.22,26,26,0,0,0-12.41-2.83q-7.8,0-12.76,2.65a21.2,21.2,0,0,0-7.8,6.92,26.51,26.51,0,0,0-3.9,9.92,65.38,65.38,0,0,0-1.06,12.06q0,11,3.9,17.72a32,32,0,0,0,10.46,11q6.55,4.26,14,8.15,7.08,3.19,14.18,7.27a63.74,63.74,0,0,1,13.29,10.28,47.28,47.28,0,0,1,10.11,15.78q3.89,9.57,3.9,24.1,0,13.83-3.37,23.93a42.65,42.65,0,0,1-9.57,16.49,41.45,41.45,0,0,1-14.89,9.75A53.19,53.19,0,0,1,1380,523.81Z"/><path d="M1476.46,523.46q-11,0-16-5t-6-14.36a188.62,188.62,0,0,1-1.06-21.09V349.4h-12.06V333.09h12.06l2.83-52.11h15.25v52.11h20.56V349.4H1471.5V491.2c0,5.91.58,10.1,1.77,12.59s3.42,3.72,6.74,3.72h12v11.7a53.49,53.49,0,0,1-5,2.12,34.79,34.79,0,0,1-5.68,1.6A27.72,27.72,0,0,1,1476.46,523.46Z"/><path d="M1561.18,523.81q-17.37,0-29.06-9.39t-17.55-30.84q-5.85-21.45-5.85-57.25,0-36.16,5.85-57.61t17.55-30.67q11.7-9.21,29.06-9.21,17,0,28.9,9.21t17.9,30.67q6,21.45,6,57.61,0,35.81-6,57.25t-17.9,30.84Q1578.2,523.81,1561.18,523.81Zm0-16.3q12.06,0,19.68-7.8t10.81-25.17q3.19-17.37,3.19-45v-6.38q0-28-3.19-45.2t-10.81-25q-7.63-7.79-19.68-7.8-11.68,0-19.32,7.8t-11,25q-3.37,17.19-3.37,45.2v6.38q0,27.64,3.37,45t11,25.17Q1549.48,507.51,1561.18,507.51Z"/><path d="M1645.2,519.56V263.25h18.08V519.56Z"/><path d="M1749.42,523.81q-20.2,0-32.26-9.92t-17-31.55q-5-21.61-5-56,0-35.81,5.49-57.08t17.91-30.84q12.4-9.57,32.26-9.57,15.59,0,26.58,7.62t16.67,25.7q5.65,18.07,5.67,50.34v17.37H1714q0,26.6,2.83,43.78t10.46,25.7q7.62,8.52,21.45,8.51A28.49,28.49,0,0,0,1761.3,505a27.19,27.19,0,0,0,10.1-8.69q4.24-5.85,6.91-15.6a98.68,98.68,0,0,0,3-23.22h18.08a129.47,129.47,0,0,1-4.07,28.54,59.53,59.53,0,0,1-9.93,20.74,42.36,42.36,0,0,1-15.6,12.76A47.21,47.21,0,0,1,1749.42,523.81ZM1714,415h67a263.55,263.55,0,0,0-1.59-31.19,99.3,99.3,0,0,0-4.79-21.81q-3.19-8.67-9.4-12.94t-15.42-4.25q-14.54,0-22.15,9.22t-10.82,25A168,168,0,0,0,1714,415Z"/><path d="M1863.92,523.81q-13.47,0-22.16-3.89a33.65,33.65,0,0,1-13.82-11,46.62,46.62,0,0,1-7.45-17.2,97.66,97.66,0,0,1-2.3-21.8,22.53,22.53,0,0,1,.35-4.08,20.34,20.34,0,0,0,.36-3.72h17.72a13,13,0,0,0-.71,4.08v4.07q0,12.42,3,20.74a27,27,0,0,0,8.86,12.77q5.85,4.43,15.07,4.43,10.64,0,17-4.61a25.57,25.57,0,0,0,9.22-13.12q2.84-8.5,2.84-20.91,0-12.06-4.44-19.32a35,35,0,0,0-11.52-11.7,116.54,116.54,0,0,0-15.24-8q-7.8-3.9-14.71-8.15A48.73,48.73,0,0,1,1834,412a47.2,47.2,0,0,1-8.15-15.07q-3-8.85-3-21.62a58.62,58.62,0,0,1,3-19.32,42.24,42.24,0,0,1,8.69-14.89,34.7,34.7,0,0,1,13.82-9.22,52,52,0,0,1,18.08-3,57.42,57.42,0,0,1,18.79,2.83,30.86,30.86,0,0,1,13.29,8.69,37.47,37.47,0,0,1,7.63,14,66.22,66.22,0,0,1,2.48,19.15q0,2.48-.18,5.67c-.12,2.12-.3,4.37-.53,6.73h-17.37v-11.7q0-11.34-3-17.72a19.37,19.37,0,0,0-8.33-9.22,26,26,0,0,0-12.4-2.83q-7.82,0-12.77,2.65a21.2,21.2,0,0,0-7.8,6.92,26.33,26.33,0,0,0-3.89,9.92,65.36,65.36,0,0,0-1.07,12.06q0,11,3.9,17.72a32,32,0,0,0,10.46,11q6.56,4.26,14,8.15,7.1,3.19,14.18,7.27a64.05,64.05,0,0,1,13.3,10.28,47.26,47.26,0,0,1,10.1,15.78q3.9,9.57,3.9,24.1,0,13.83-3.37,23.93a42.65,42.65,0,0,1-9.57,16.49,41.45,41.45,0,0,1-14.89,9.75A53.15,53.15,0,0,1,1863.92,523.81Z"/><g class="cls-2"><path class="cls-3" d="M1078.35,189l40.06-96.78-37.23-90h40.42l21.62,61h1.42l20.91-61h38.65L1167,92.55,1207,189h-40.77l-24.1-67.36h-1.42L1116.63,189Z"/></g><g class="cls-2"><path class="cls-3" d="M1078.35,850.39l40.06-96.78-37.23-90h40.42l21.62,61h1.42l20.91-61h38.65L1167,754,1207,850.39h-40.77L1142.16,783h-1.42l-24.11,67.35Z"/></g><polyline class="cls-4" points="322.92 191.32 390.12 219.67 457.33 191.32 524.53 219.67 591.73 191.32 658.94 219.67 726.14 191.32 793.34 219.67 860.55 191.32 927.76 219.67 994.97 191.32"/><line class="cls-4" x1="322.92" y1="647.03" x2="994.97" y2="647.03"/></g></g></svg>