<svg xmlns="http://www.w3.org/2000/svg" viewBox="0 0 2239.62 853.48"><defs><style>.cls-1,.cls-3{fill:#3fbbed;}.cls-1,.cls-2{opacity:0.26;}</style></defs><g id="Capa_2" data-name="Capa 2"><g id="Capa_2-2" data-name="Capa 2"><rect class="cls-1" x="188.92" y="188.98" width="1863.88" height="474.59"/><rect class="cls-1" width="2239.62" height="853.48"/><path d="M229,523.81a42.84,42.84,0,0,1-17-3.19,32.82,32.82,0,0,1-12.58-9.39,42,42,0,0,1-7.8-15.42,85.81,85.81,0,0,1,.71-45,45.72,45.72,0,0,1,12.05-19.5q8.68-8.51,24.46-13.65t40.59-5.14v-33q0-11.7-2.48-19.5t-8.51-11.52q-6-3.72-16.3-3.72-12.76,0-19,5.85A28,28,0,0,0,215,365.71,98.91,98.91,0,0,0,213,386.27v2.48H195.66a17.74,17.74,0,0,1-.36-3.55V381q0-20.55,6.91-31.73t17.73-15.77a59.55,59.55,0,0,1,23.57-4.61q13.13,0,22.87,4.43t15.42,15.06q5.67,10.65,5.67,29.78V494.39q0,6.74,2.31,9.57a6.85,6.85,0,0,0,5.49,2.84h12.05v11.7c-2.6.94-5.49,2-8.68,3a31.84,31.84,0,0,1-10.1,1.6q-7.1,0-11.17-3.73a18.68,18.68,0,0,1-5.5-9.92,61.62,61.62,0,0,1-1.41-13.65h-2.13a68.8,68.8,0,0,1-9.22,14.53,37.19,37.19,0,0,1-12.76,9.93A40.05,40.05,0,0,1,229,523.81Zm3.9-16.3a28.28,28.28,0,0,0,12.05-3,36.19,36.19,0,0,0,11.88-9.39q5.49-6.37,9-17t3.54-25.17V427.39q-25.17.36-38.46,6.38T212.85,449.9a52.81,52.81,0,0,0-4.79,22.87,58,58,0,0,0,2.84,19.32q2.83,8,8.33,11.7T232.88,507.51Z"/><path d="M383.54,523.81q-22,0-35.27-9.74T329,482.69q-6-21.62-6-56.36,0-36.16,6.38-57.61t20.21-30.84q13.83-9.39,35.8-9.4,19.86,0,32.62,8.16t19.14,27.82q6.38,19.68,6.38,54.42v15.24h-82.6a254.54,254.54,0,0,0,1.78,33.51q1.75,12.94,6.73,19.14t14.53,6.2a19.05,19.05,0,0,0,9.22-2.12,17.41,17.41,0,0,0,6.56-6.56,36.83,36.83,0,0,0,4.08-11.88,119,119,0,0,0,1.77-17.72h37.22a121.44,121.44,0,0,1-4.07,30.48q-3.74,13.13-11.17,21.63a46.11,46.11,0,0,1-18.61,12.76A70.78,70.78,0,0,1,383.54,523.81Zm-22.69-112h44q0-14.54-.89-24.28a72.63,72.63,0,0,0-3-16.13c-1.42-4.26-3.43-7.32-6-9.22s-6-2.83-10.28-2.83q-9.57,0-14.71,6.2t-7.09,17.72A175.23,175.23,0,0,0,360.85,411.79Z"/><path d="M512.22,523.81q-16.31,0-26.59-3.9a36.94,36.94,0,0,1-16.13-11.16,44,44,0,0,1-8.33-17.2,89.17,89.17,0,0,1-2.48-21.62c0-1.18.06-2.6.18-4.25s.29-3.31.53-5h33.32a31.23,31.23,0,0,0-.35,4.43v4.08a41.89,41.89,0,0,0,1.95,13.29,19.06,19.06,0,0,0,6.2,9.22q4.26,3.38,11,3.37,7.44,0,11.7-2.84a16.06,16.06,0,0,0,6.2-8.5,44.14,44.14,0,0,0,2-14.18q0-9.22-4.25-14.72a35.35,35.35,0,0,0-10.46-9q-6.21-3.54-13.65-7.09-7.1-3.18-14.53-7.44A60.54,60.54,0,0,1,475,420.83a46.34,46.34,0,0,1-9.75-15.77q-3.72-9.58-3.72-24.11,0-13.47,3.9-23.22a42.26,42.26,0,0,1,11.34-16.31,48.9,48.9,0,0,1,17-9.75,64.79,64.79,0,0,1,20.56-3.19,67.08,67.08,0,0,1,20.91,3,40.73,40.73,0,0,1,15.6,9,39.91,39.91,0,0,1,9.75,14.53,52.81,52.81,0,0,1,3.37,19.5q0,2.83-.18,6.2t-.53,6.21H530.66v-8.87c0-5-.78-9-2.31-12.05a15.3,15.3,0,0,0-6-6.73,17.91,17.91,0,0,0-9-2.13,18.4,18.4,0,0,0-7.26,1.42,13.75,13.75,0,0,0-5.68,4.43,17.65,17.65,0,0,0-3.19,6.73,37.88,37.88,0,0,0-.88,8.69c0,5.44,1.36,9.92,4.07,13.47A29.33,29.33,0,0,0,511,400.45q6.56,3.18,14,6.38a161.41,161.41,0,0,1,15.07,7.44,66.82,66.82,0,0,1,14,10.46,44.43,44.43,0,0,1,10.11,15.42q3.72,9.23,3.72,23.75,0,16-3.9,27.12a45.41,45.41,0,0,1-29.07,29.25A69.36,69.36,0,0,1,512.22,523.81Z"/><path d="M643.74,523.81q-21.63,0-34.39-10.45t-18.43-32.09q-5.67-21.61-5.67-54.94,0-35.1,6.38-56.72t19.5-31.38q13.11-9.75,33.67-9.75,15.24,0,25.88,4.43a38.46,38.46,0,0,1,17,13.48q6.38,9,9.39,23.57t3,34.74H663.59A176.52,176.52,0,0,0,662,378.29q-1.61-10.1-5.32-14.53t-11.88-4.43a16.26,16.26,0,0,0-11.69,4.78q-5,4.78-7.45,16.66t-2.48,33.86v24.1a225.51,225.51,0,0,0,1.42,26.06Q626,477,630.63,485t13.47,8q7.78,0,12-4.07t6.2-14q1.95-9.92,1.95-27.29h35.81a146.86,146.86,0,0,1-3,31.19,74,74,0,0,1-9.39,23.93,42.93,42.93,0,0,1-17.19,15.6Q659.7,523.81,643.74,523.81Z"/><path d="M779.87,523.81q-22,0-35.27-9.74t-19.32-31.38q-6-21.62-6-56.36,0-36.16,6.38-57.61t20.21-30.84q13.81-9.39,35.8-9.4,19.86,0,32.62,8.16t19.14,27.82q6.38,19.68,6.38,54.42v15.24h-82.6A256.55,256.55,0,0,0,759,467.63q1.77,12.94,6.74,19.14t14.53,6.2a19.05,19.05,0,0,0,9.22-2.12,17.41,17.41,0,0,0,6.56-6.56,36.83,36.83,0,0,0,4.08-11.88,119,119,0,0,0,1.77-17.72h37.22A121.44,121.44,0,0,1,835,485.17q-3.74,13.13-11.17,21.63a46.11,46.11,0,0,1-18.61,12.76A70.78,70.78,0,0,1,779.87,523.81Zm-22.69-112h44q0-14.54-.89-24.28a72.63,72.63,0,0,0-3-16.13c-1.42-4.26-3.43-7.32-6-9.22s-6-2.83-10.28-2.83q-9.57,0-14.71,6.2t-7.09,17.72A175.23,175.23,0,0,0,757.18,411.79Z"/><path d="M864.24,519.56V332.74h31.55l2.48,23h1.42a49.74,49.74,0,0,1,9.57-15.6,35.26,35.26,0,0,1,12.94-8.86A43,43,0,0,1,938,328.48q13.11,0,21.27,5T971.3,349q3.88,10.63,3.9,26.95V519.56H938V386.27a54.29,54.29,0,0,0-.71-8.87,31,31,0,0,0-2.12-7.44,9.8,9.8,0,0,0-4.43-4.79,16.31,16.31,0,0,0-7.63-1.59A16.14,16.14,0,0,0,911,368.72q-5,5.14-7.62,15.42t-2.66,26.23V519.56Z"/><path d="M1038.65,523.81a46.43,46.43,0,0,1-17.73-3.19,33,33,0,0,1-13.11-9.57,42.05,42.05,0,0,1-8-15.95,82.41,82.41,0,0,1-2.66-22,75.51,75.51,0,0,1,4.08-25.35,51.49,51.49,0,0,1,13.12-20.2q9-8.69,24.46-13.47t37.75-4.79V384.14a35.66,35.66,0,0,0-2.12-13.12,18.23,18.23,0,0,0-6.39-8.33,17.37,17.37,0,0,0-10.28-3q-8.16,0-12.4,3.72a18.06,18.06,0,0,0-5.68,9.75,62.87,62.87,0,0,0-1.41,14.18v2.48h-34.39a12.17,12.17,0,0,1-.36-3v-3.37q0-19.85,7.27-31.9a42.45,42.45,0,0,1,20-17.55q12.76-5.49,29.42-5.5,15.6,0,27.66,5.14t18.78,17.91q6.74,12.75,6.74,36.16v93.23c0,3.78.71,6.68,2.13,8.68s3.66,3,6.73,3h8.87v25.17a63.57,63.57,0,0,1-12.06,4.08,58.45,58.45,0,0,1-13.47,1.59q-8.51,0-13.82-3.19a22.24,22.24,0,0,1-8.33-8.86,33.46,33.46,0,0,1-3.73-12.41H1078a57,57,0,0,1-8.86,12.41,39.88,39.88,0,0,1-12.76,9A42.88,42.88,0,0,1,1038.65,523.81Zm14.18-31.19a14.9,14.9,0,0,0,8.69-2.84,31.24,31.24,0,0,0,7.62-8,39.69,39.69,0,0,0,5.49-12.77,67.88,67.88,0,0,0,1.95-16.84V432.35q-17.73,0-26.41,4.79t-11.87,12.58a45.43,45.43,0,0,0-3.19,17.37,42.85,42.85,0,0,0,1.94,13.83,18,18,0,0,0,5.85,8.68A15.7,15.7,0,0,0,1052.83,492.62Z"/><path d="M1157.41,519.56V276.37h31.19l42.54,173c.47,2.13,1.07,5,1.78,8.51s1.35,7.15,1.95,10.81,1.24,7.15,1.94,10.46h1.07q1.06-4.61,2.13-10.11t2.12-10.81q1.06-5.31,1.78-8.51l42.18-173.35h31.2V519.56h-20.21V356.49q0-3.9.18-12.23t.17-17.9V308.63H1296q-.72,4.26-1.6,9.4t-2,9.92a43.32,43.32,0,0,1-2.13,7.27l-46.08,184.34h-14.54l-45.73-184q-.71-2.47-2-7.44t-2.12-10.1c-.6-3.43-1.24-6.56-2-9.4h-1.42v17.73q0,9.93.18,18.08t.17,12.05V519.56Z"/><path d="M1404.14,523.81q-17.37,0-29.07-9.39t-17.55-30.84q-5.85-21.45-5.85-57.25,0-36.16,5.85-57.61t17.55-30.67q11.7-9.21,29.07-9.21,17,0,28.89,9.21t17.9,30.67q6,21.45,6,57.61,0,35.81-6,57.25T1433,514.42Q1421.15,523.81,1404.14,523.81Zm0-16.3q12,0,19.67-7.8t10.82-25.17q3.18-17.37,3.19-45v-6.38q0-28-3.19-45.2t-10.82-25q-7.62-7.79-19.67-7.8-11.7,0-19.32,7.8t-11,25q-3.37,17.19-3.37,45.2v6.38q0,27.64,3.37,45t11,25.17Q1392.44,507.51,1404.14,507.51Zm-8.51-197.46,20.92-46.8h18.08v1.42l-24.82,45.38Z"/><path d="M1520.77,523.81q-13.49,0-22.16-3.9a33.55,33.55,0,0,1-13.82-11,46.62,46.62,0,0,1-7.45-17.2,97.66,97.66,0,0,1-2.3-21.8,22.53,22.53,0,0,1,.35-4.08,21.26,21.26,0,0,0,.36-3.72h17.72a13,13,0,0,0-.71,4.08v4.07q0,12.42,3,20.74a27,27,0,0,0,8.86,12.77q5.85,4.43,15.07,4.43,10.63,0,17-4.61a25.69,25.69,0,0,0,9.22-13.12q2.83-8.5,2.83-20.91,0-12.06-4.43-19.33a35.19,35.19,0,0,0-11.52-11.69,116.54,116.54,0,0,0-15.24-8q-7.8-3.9-14.71-8.15A48.73,48.73,0,0,1,1490.81,412a46.82,46.82,0,0,1-8.15-15.07q-3-8.85-3-21.62a58.62,58.62,0,0,1,3-19.32,42.22,42.22,0,0,1,8.68-14.89,34.8,34.8,0,0,1,13.83-9.22,52,52,0,0,1,18.08-3,57.42,57.42,0,0,1,18.79,2.83,30.86,30.86,0,0,1,13.29,8.69,37.31,37.31,0,0,1,7.62,14,66.18,66.18,0,0,1,2.49,19.14c0,1.66-.06,3.55-.18,5.68s-.3,4.37-.53,6.73h-17.37v-11.7q0-11.34-3-17.72a19.37,19.37,0,0,0-8.33-9.22,26,26,0,0,0-12.41-2.83q-7.8,0-12.76,2.65A21.2,21.2,0,0,0,1503,354a26.51,26.51,0,0,0-3.9,9.92,65.38,65.38,0,0,0-1.06,12.06q0,11,3.9,17.72a32,32,0,0,0,10.46,11q6.55,4.26,14,8.15,7.1,3.19,14.18,7.27a63.74,63.74,0,0,1,13.29,10.28A47.28,47.28,0,0,1,1564,446.18q3.9,9.57,3.9,24.1,0,13.83-3.37,23.93A42.65,42.65,0,0,1,1555,510.7a41.45,41.45,0,0,1-14.89,9.75A53.15,53.15,0,0,1,1520.77,523.81Z"/><path d="M1617.19,523.46q-11,0-16-5t-6-14.36a188.62,188.62,0,0,1-1.06-21.09V349.4h-12.06V333.09h12.06L1597,281h15.25v52.11h20.56V349.4h-20.56V491.2c0,5.91.58,10.1,1.77,12.59s3.42,3.72,6.74,3.72h12v11.7c-1.42.7-3.08,1.41-5,2.12a34.79,34.79,0,0,1-5.68,1.6A27.72,27.72,0,0,1,1617.19,523.46Z"/><path d="M1701.92,523.81q-17.39,0-29.07-9.39t-17.55-30.84q-5.85-21.45-5.85-57.25,0-36.16,5.85-57.61t17.55-30.67q11.7-9.21,29.07-9.21,17,0,28.89,9.21t17.9,30.67q6,21.45,6,57.61,0,35.81-6,57.25t-17.9,30.84Q1718.93,523.81,1701.92,523.81Zm0-16.3q12,0,19.67-7.8t10.81-25.17q3.19-17.37,3.19-45v-6.38q0-28-3.19-45.2t-10.81-25q-7.62-7.79-19.67-7.8-11.7,0-19.33,7.8t-11,25q-3.37,17.19-3.37,45.2v6.38q0,27.64,3.37,45t11,25.17Q1690.21,507.51,1701.92,507.51Z"/><path d="M1785.93,519.56V263.25H1804V519.56Z"/><path d="M1890.15,523.81q-20.2,0-32.26-9.92t-17-31.55q-5-21.63-5-56,0-35.81,5.5-57.08t17.9-30.84q12.4-9.57,32.26-9.57,15.59,0,26.59,7.62t16.66,25.7q5.65,18.07,5.67,50.34v17.37H1854.7q0,26.6,2.84,43.78t10.45,25.7q7.62,8.52,21.45,8.51A28.49,28.49,0,0,0,1902,505a27.19,27.19,0,0,0,10.1-8.69q4.24-5.85,6.91-15.6a98.68,98.68,0,0,0,3-23.22h18.08a129.47,129.47,0,0,1-4.07,28.54,59.53,59.53,0,0,1-9.93,20.74,42.36,42.36,0,0,1-15.6,12.76A47.21,47.21,0,0,1,1890.15,523.81ZM1854.7,415h67a263.55,263.55,0,0,0-1.59-31.19,99.16,99.16,0,0,0-4.79-21.81q-3.19-8.67-9.4-12.94t-15.42-4.25q-14.54,0-22.15,9.22t-10.81,25A167.28,167.28,0,0,0,1854.7,415Z"/><path d="M2004.65,523.81q-13.47,0-22.16-3.9a33.55,33.55,0,0,1-13.82-11,46.62,46.62,0,0,1-7.45-17.2,97.66,97.66,0,0,1-2.3-21.8,22.53,22.53,0,0,1,.35-4.08,20.34,20.34,0,0,0,.36-3.72h17.72a13,13,0,0,0-.71,4.08v4.07q0,12.42,3,20.74a27,27,0,0,0,8.86,12.77q5.85,4.43,15.07,4.43,10.64,0,17-4.61a25.63,25.63,0,0,0,9.22-13.12q2.84-8.5,2.84-20.91,0-12.06-4.44-19.33a35.09,35.09,0,0,0-11.52-11.69,116.54,116.54,0,0,0-15.24-8q-7.8-3.9-14.71-8.15A48.73,48.73,0,0,1,1974.69,412a47,47,0,0,1-8.15-15.07q-3-8.85-3-21.62a58.62,58.62,0,0,1,3-19.32,42.24,42.24,0,0,1,8.69-14.89,34.7,34.7,0,0,1,13.82-9.22,52,52,0,0,1,18.08-3,57.42,57.42,0,0,1,18.79,2.83,30.86,30.86,0,0,1,13.29,8.69,37.47,37.47,0,0,1,7.63,14,66.2,66.2,0,0,1,2.48,19.14c0,1.66-.06,3.55-.18,5.68s-.3,4.37-.53,6.73h-17.37v-11.7q0-11.34-3-17.72a19.37,19.37,0,0,0-8.33-9.22,26,26,0,0,0-12.4-2.83q-7.82,0-12.77,2.65a21.2,21.2,0,0,0-7.8,6.92,26.51,26.51,0,0,0-3.9,9.92A66.26,66.26,0,0,0,1982,376q0,11,3.9,17.72a32,32,0,0,0,10.46,11q6.56,4.26,14,8.15,7.1,3.19,14.18,7.27a64.05,64.05,0,0,1,13.3,10.28,47.26,47.26,0,0,1,10.1,15.78q3.9,9.57,3.9,24.1,0,13.83-3.37,23.93a42.65,42.65,0,0,1-9.57,16.49,41.45,41.45,0,0,1-14.89,9.75A53.15,53.15,0,0,1,2004.65,523.81Z"/><rect x="322.92" y="631.59" width="804.45" height="30.88"/><rect x="322.92" y="190.05" width="804.45" height="30.88"/><g class="cls-2"><path class="cls-3" d="M1078.35,189l40.06-96.78-37.23-90h40.42l21.62,61h1.42l20.91-61h38.65L1167,92.55,1207,189h-40.77l-24.1-67.36h-1.42L1116.63,189Z"/></g><g class="cls-2"><path class="cls-3" d="M1078.35,850.39l40.06-96.78-37.23-90h40.42l21.62,61h1.42l20.91-61h38.65L1167,754,1207,850.39h-40.77L1142.16,783h-1.42l-24.11,67.35Z"/></g><g class="cls-2"><path class="cls-3" d="M187.39,490.62,90.61,450.56l-90,37.22V447.37l61-21.63v-1.42l-61-20.91V364.77L91,402l96.43-40.06V402.7L120,426.8v1.42l67.36,24.11Z"/></g><g class="cls-2"><path class="cls-3" d="M2239.62,490.62l-96.78-40.06-90,37.22V447.37l61-21.63v-1.42l-61-20.91V364.77L2143.2,402l96.42-40.06V402.7l-67.35,24.1v1.42l67.35,24.11Z"/></g></g></g></svg>