<svg xmlns="http://www.w3.org/2000/svg" viewBox="0 0 1784.14 853.48"><defs><style>.cls-1{fill:#30b29a;}.cls-2{fill:#dfeee1;}</style></defs><g id="Capa_2" data-name="Capa 2"><g id="Capa_2-2" data-name="Capa 2"><rect class="cls-1" width="1784.14" height="853.48"/><path class="cls-2" d="M248.6,528.38q-12.75,0-19.32-5.14t-9.21-14.54a78.58,78.58,0,0,1-2.66-21.45V368.14H203.23V337.3h14.89l6.73-54.24h29.43V337.3h20.56v30.84H254.28v113.8c0,5.2.58,9,1.77,11.52s3.54,3.72,7.09,3.72h11.7v25.88q-4.62,1.43-9.4,2.66c-3.19.82-6.15,1.47-8.86,1.95A46.84,46.84,0,0,1,248.6,528.38Z"/><path class="cls-2" d="M350,528.38q-22,0-35.27-9.75T295.4,487.25q-6-21.62-6-56.36,0-36.17,6.38-57.61T316,342.44q13.83-9.39,35.8-9.39,19.86,0,32.62,8.15T403.52,369q6.38,19.67,6.38,54.41v15.25H327.3a256.38,256.38,0,0,0,1.77,33.5q1.77,12.94,6.74,19.14t14.53,6.2a18.94,18.94,0,0,0,9.22-2.12,17.41,17.41,0,0,0,6.56-6.56A36.66,36.66,0,0,0,370.2,477,118.86,118.86,0,0,0,372,459.25h37.22a121.59,121.59,0,0,1-4.07,30.49q-3.74,13.11-11.17,21.62a46,46,0,0,1-18.61,12.76A70.78,70.78,0,0,1,350,528.38Zm-22.69-112h44q0-14.52-.88-24.28a73.15,73.15,0,0,0-3-16.13q-2.13-6.37-6-9.22t-10.28-2.83q-9.57,0-14.71,6.2t-7.09,17.73A175,175,0,0,0,327.3,416.35Z"/><path class="cls-2" d="M469.45,528.38a46.54,46.54,0,0,1-17.72-3.19,33.17,33.17,0,0,1-13.12-9.58,42.34,42.34,0,0,1-8-15.95,82.43,82.43,0,0,1-2.65-22,75.46,75.46,0,0,1,4.07-25.34,51.57,51.57,0,0,1,13.12-20.21q9-8.69,24.46-13.47t37.75-4.79V388.7a35.4,35.4,0,0,0-2.12-13.11,18.31,18.31,0,0,0-6.38-8.34,17.41,17.41,0,0,0-10.28-3q-8.16,0-12.41,3.72a18,18,0,0,0-5.67,9.75,62.26,62.26,0,0,0-1.42,14.18v2.48H434.71a12.18,12.18,0,0,1-.35-3V388q0-19.85,7.27-31.9a42.58,42.58,0,0,1,20-17.55q12.77-5.49,29.43-5.49,15.59,0,27.65,5.14t18.79,17.9q6.72,12.77,6.73,36.16v93.23c0,3.79.71,6.68,2.13,8.69s3.66,3,6.74,3H562v25.17a63,63,0,0,1-12.05,4.08A58.58,58.58,0,0,1,536.46,528q-8.52,0-13.83-3.19A22.24,22.24,0,0,1,514.3,516a33.63,33.63,0,0,1-3.72-12.41H508.8A56.38,56.38,0,0,1,499.94,516a39.62,39.62,0,0,1-12.76,9A42.88,42.88,0,0,1,469.45,528.38Zm14.18-31.2a14.9,14.9,0,0,0,8.69-2.84,30.75,30.75,0,0,0,7.62-8,40,40,0,0,0,5.5-12.76,68.37,68.37,0,0,0,1.94-16.84V436.91q-17.73,0-26.41,4.79T469.1,454.29a45.39,45.39,0,0,0-3.19,17.37,42.77,42.77,0,0,0,1.95,13.82,17.86,17.86,0,0,0,5.85,8.69A15.71,15.71,0,0,0,483.63,497.18Z"/><path class="cls-2" d="M610.9,528.38q-12.76,0-19.32-5.14t-9.22-14.54a79,79,0,0,1-2.66-21.45V368.14H565.52V337.3h14.89l6.73-54.24h29.43V337.3h20.56v30.84H616.57v113.8q0,7.8,1.77,11.52c1.18,2.48,3.55,3.72,7.09,3.72h11.7v25.88q-4.61,1.43-9.39,2.66c-3.2.82-6.15,1.47-8.87,1.95A46.81,46.81,0,0,1,610.9,528.38Z"/><path class="cls-2" d="M657,524.12V337.3h30.84l2.48,25.17h1.42A55,55,0,0,1,699,346.16a32.92,32.92,0,0,1,10.1-9.75,23.27,23.27,0,0,1,12.06-3.36,32.29,32.29,0,0,1,4.78.35,20,20,0,0,1,4.79,1.42v39.7H717.6a18.33,18.33,0,0,0-10.1,2.84,23.34,23.34,0,0,0-7.62,8.51,46.68,46.68,0,0,0-4.79,14.89,131.09,131.09,0,0,0-1.6,22V524.12Z"/><path class="cls-2" d="M797,528.38q-20.21,0-33.68-9.75t-20-31.38q-6.56-21.62-6.55-56.36,0-35.1,6.55-56.55t20-31.37q13.47-9.92,33.68-9.92,20.57,0,34,9.92t20.21,31.37Q858,395.8,858,430.89q0,34.74-6.74,56.36T831,518.63Q817.57,528.38,797,528.38Zm0-30.85q8.52,0,13.3-5.31t7.09-17.37q2.29-12.06,2.3-32.26v-23.4q0-20.55-2.3-32.62t-7.09-17.37q-4.78-5.31-13.3-5.31a17.26,17.26,0,0,0-12.94,5.31q-5.15,5.32-7.26,17.37t-2.13,32.62v23.4q0,20.21,2.13,32.26t7.26,17.37A17.26,17.26,0,0,0,797,497.53Z"/><path class="cls-2" d="M889.18,524.12V280.93h57.08q23.38,0,37,6.92t19.5,19.85q5.85,12.94,5.85,29.95a81.57,81.57,0,0,1-4.26,27.3,57.3,57.3,0,0,1-11.34,19.85,46.22,46.22,0,0,1-16.31,11.7v1.42a50.81,50.81,0,0,1,18.62,9.57q8.31,6.74,13.29,18.61t5,31q0,22-6.56,36.87a45,45,0,0,1-21.62,22.51q-15.07,7.63-40.59,7.62Zm20.21-133.29h36.87q16.29,0,25.17-6.74A36.29,36.29,0,0,0,984,366.37a75.93,75.93,0,0,0,3.72-24.46q0-21.63-9.75-32.09t-31-10.45H909.39Zm0,114.86h36.87q26.93,0,36.69-11.52t9.75-36q0-16.31-3.55-27.13a28.87,28.87,0,0,0-13.29-16.48q-9.76-5.67-27.48-5.67h-39Z"/><path class="cls-2" d="M1088.76,528.38q-17.37,0-29.07-9.4t-17.55-30.84q-5.85-21.45-5.85-57.25,0-36.17,5.85-57.61t17.55-30.66q11.7-9.22,29.07-9.22,17,0,28.89,9.22t17.91,30.66q6,21.45,6,57.61,0,35.81-6,57.25T1117.65,519Q1105.77,528.37,1088.76,528.38Zm0-16.31q12,0,19.68-7.8t10.81-25.17q3.2-17.37,3.19-45V427.7q0-28-3.19-45.2t-10.81-25q-7.64-7.8-19.68-7.8-11.7,0-19.32,7.8t-11,25q-3.37,17.19-3.37,45.2v6.38q0,27.65,3.37,45t11,25.17Q1077.06,512.07,1088.76,512.07Z"/><path class="cls-2" d="M1205.39,528.38q-13.47,0-22.16-3.9a33.65,33.65,0,0,1-13.82-11,46.62,46.62,0,0,1-7.45-17.2,97.66,97.66,0,0,1-2.3-21.8,23.27,23.27,0,0,1,.35-4.07,20.53,20.53,0,0,0,.36-3.73h17.72a13,13,0,0,0-.71,4.08v4.08q0,12.4,3,20.74a26.93,26.93,0,0,0,8.86,12.76q5.85,4.44,15.07,4.43,10.64,0,17-4.61a25.53,25.53,0,0,0,9.22-13.12q2.84-8.51,2.84-20.91,0-12-4.44-19.32a35.22,35.22,0,0,0-11.52-11.7,117.77,117.77,0,0,0-15.24-8q-7.8-3.9-14.71-8.15a48.5,48.5,0,0,1-12-10.46,47,47,0,0,1-8.16-15.07q-3-8.85-3-21.62a58.62,58.62,0,0,1,3-19.32,42.24,42.24,0,0,1,8.69-14.89,34.7,34.7,0,0,1,13.82-9.22,52,52,0,0,1,18.08-3,57.14,57.14,0,0,1,18.79,2.84,30.72,30.72,0,0,1,13.3,8.68,37.59,37.59,0,0,1,7.62,14,66.22,66.22,0,0,1,2.48,19.15q0,2.48-.18,5.67c-.12,2.13-.3,4.37-.53,6.74H1232v-11.7q0-11.34-3-17.73a19.36,19.36,0,0,0-8.33-9.22,26,26,0,0,0-12.4-2.83q-7.8,0-12.77,2.66a21,21,0,0,0-7.79,6.91,26.22,26.22,0,0,0-3.9,9.93,65.17,65.17,0,0,0-1.07,12.05q0,11,3.9,17.72a31.9,31.9,0,0,0,10.46,11q6.56,4.26,14,8.16,7.1,3.18,14.18,7.26a63.77,63.77,0,0,1,13.3,10.29,47.11,47.11,0,0,1,10.1,15.77q3.9,9.57,3.9,24.11,0,13.81-3.37,23.93a42.61,42.61,0,0,1-9.57,16.48,41.32,41.32,0,0,1-14.89,9.75A53.15,53.15,0,0,1,1205.39,528.38Z"/><path class="cls-2" d="M1352.86,586.16V503.21h-1.77a47.91,47.91,0,0,1-8,14.18,30.06,30.06,0,0,1-10.81,8.33,34,34,0,0,1-13.83,2.66q-15.24,0-25.34-9.57t-14.89-31q-4.79-21.45-4.79-56.9,0-37.23,5.14-58.49t15.07-30.14q9.91-8.85,24.46-8.86t23.75,8.86a39.46,39.46,0,0,1,11.7,20.56h1.77l2.13-25.17h13.47V586.16Zm-32.61-74.44a22.93,22.93,0,0,0,14-4.61q6.2-4.61,10.28-14.36t6.2-24.46a247.6,247.6,0,0,0,2.13-34.92v-5.32q0-24.81-3.19-42.18t-9.92-26.77a21.5,21.5,0,0,0-18.44-9.39,20.67,20.67,0,0,0-17.19,8.5q-6.57,8.52-9.22,25.88t-2.66,44v5.67q0,27.66,3,44.85t9.21,25.17Q1310.67,511.72,1320.25,511.72Z"/><path class="cls-2" d="M1441.48,528.38q-15.6,0-25.34-9.75t-9.75-36v-145h18.08V479.1a87.78,87.78,0,0,0,.88,12.76,32.8,32.8,0,0,0,3.19,10.46,17.52,17.52,0,0,0,6.21,6.91q3.9,2.49,11,2.49,9.21,0,17-6.74T1475,484.06q4.44-14.18,4.44-35.45v-111h18.08V524.12h-13.83L1481.9,499h-1.42a54,54,0,0,1-10.46,17.2,37.31,37.31,0,0,1-13.47,9.39A41.14,41.14,0,0,1,1441.48,528.38Z"/><path class="cls-2" d="M1583.29,528.38q-20.22,0-32.26-9.93t-17-31.55q-5-21.61-5-56,0-35.81,5.5-57.08t17.9-30.84q12.4-9.57,32.26-9.57,15.6,0,26.59,7.62t16.66,25.7q5.67,18.09,5.68,50.34v17.37h-85.8q0,26.6,2.84,43.78t10.46,25.71q7.62,8.5,21.45,8.5a28.48,28.48,0,0,0,12.58-2.83,27,27,0,0,0,10.1-8.69q4.26-5.85,6.92-15.6a99.2,99.2,0,0,0,3-23.22h18.08a129.43,129.43,0,0,1-4.08,28.54,59.44,59.44,0,0,1-9.92,20.74,42.34,42.34,0,0,1-15.6,12.76A47.25,47.25,0,0,1,1583.29,528.38Zm-35.46-108.84h67a263.34,263.34,0,0,0-1.6-31.19,99.11,99.11,0,0,0-4.78-21.8q-3.2-8.69-9.4-12.94t-15.42-4.26q-14.54,0-22.16,9.22t-10.81,25A167.92,167.92,0,0,0,1547.83,419.54Z"/><path class="cls-2" d="M522.81,239.73c-82.48,0-124.4-7.32-164.94-14.41-41-7.17-79.81-13.94-159.61-13.94v-31c82.48,0,124.4,7.33,164.94,14.41C404.25,202,443,208.73,522.81,208.73s118.56-6.77,159.6-13.94c40.54-7.08,82.46-14.41,164.94-14.41v31c-79.79,0-118.56,6.77-159.6,13.94C647.21,232.41,605.29,239.73,522.81,239.73Z"/><rect class="cls-2" x="198.26" y="636.09" width="649.09" height="31"/></g></g></svg>