<svg xmlns="http://www.w3.org/2000/svg" viewBox="0 0 1784.14 853.48"><defs><style>.cls-1{fill:#fff;}.cls-2{fill:#f1861d;}</style></defs><g id="Capa_2" data-name="Capa 2"><g id="Capa_2-2" data-name="Capa 2"><rect class="cls-1" width="1784.14" height="853.48"/><path class="cls-2" d="M240.58,526.47q-12.75,0-19.32-5.15t-9.21-14.53a78.58,78.58,0,0,1-2.66-21.45V366.23H195.21V335.39H210.1l6.73-54.24h29.43v54.24h20.56v30.84H246.26V480c0,5.2.58,9,1.77,11.52s3.54,3.72,7.09,3.72h11.7v25.88q-4.62,1.43-9.4,2.66c-3.19.82-6.15,1.47-8.86,2A46.84,46.84,0,0,1,240.58,526.47Z"/><path class="cls-2" d="M342,526.47q-22,0-35.27-9.75t-19.32-31.38q-6-21.61-6-56.36,0-36.17,6.38-57.61t20.21-30.84q13.83-9.39,35.8-9.4,19.86,0,32.62,8.16t19.14,27.83q6.38,19.67,6.38,54.41v15.25h-82.6a256.48,256.48,0,0,0,1.77,33.5q1.77,12.95,6.74,19.14t14.53,6.2a19.05,19.05,0,0,0,9.22-2.12,17.41,17.41,0,0,0,6.56-6.56,36.66,36.66,0,0,0,4.08-11.88A119,119,0,0,0,364,457.34h37.22a121.44,121.44,0,0,1-4.07,30.48q-3.74,13.13-11.17,21.63a46,46,0,0,1-18.61,12.76A70.78,70.78,0,0,1,342,526.47Zm-22.69-112h44q0-14.54-.89-24.28a72.63,72.63,0,0,0-3-16.13q-2.13-6.37-6-9.22T343,362q-9.57,0-14.71,6.2t-7.09,17.72A175.23,175.23,0,0,0,319.28,414.44Z"/><path class="cls-2" d="M461.43,526.47a46.54,46.54,0,0,1-17.72-3.19,33.17,33.17,0,0,1-13.12-9.58,42.18,42.18,0,0,1-8-16,82,82,0,0,1-2.66-22A75.52,75.52,0,0,1,424,450.42a51.6,51.6,0,0,1,13.12-20.2q9-8.69,24.46-13.47T499.37,412V386.79a35.48,35.48,0,0,0-2.13-13.12,18.28,18.28,0,0,0-6.38-8.33,17.41,17.41,0,0,0-10.28-3q-8.16,0-12.41,3.72a18,18,0,0,0-5.67,9.75A62.26,62.26,0,0,0,461.08,390v2.48H426.69a12.18,12.18,0,0,1-.35-3v-3.37q0-19.84,7.26-31.9a42.65,42.65,0,0,1,20-17.55q12.76-5.49,29.43-5.5,15.6,0,27.65,5.14t18.79,17.91q6.72,12.76,6.73,36.16v93.23q0,5.67,2.13,8.69c1.42,2,3.66,3,6.74,3H554v25.17a63,63,0,0,1-12.05,4.08,58.6,58.6,0,0,1-13.48,1.59q-8.5,0-13.82-3.19a22.24,22.24,0,0,1-8.33-8.86,33.63,33.63,0,0,1-3.72-12.41h-1.78a56.38,56.38,0,0,1-8.86,12.41,39.77,39.77,0,0,1-12.76,9A42.82,42.82,0,0,1,461.43,526.47Zm14.18-31.2a14.9,14.9,0,0,0,8.69-2.84,30.91,30.91,0,0,0,7.62-8,39.92,39.92,0,0,0,5.5-12.77,68.28,68.28,0,0,0,1.95-16.83V435q-17.73,0-26.41,4.79t-11.88,12.58a45.46,45.46,0,0,0-3.19,17.37,42.83,42.83,0,0,0,1.95,13.83,17.9,17.9,0,0,0,5.85,8.69A15.73,15.73,0,0,0,475.61,495.27Z"/><path class="cls-2" d="M602.88,526.47q-12.76,0-19.32-5.15t-9.22-14.53a79,79,0,0,1-2.66-21.45V366.23H557.5V335.39h14.89l6.74-54.24h29.42v54.24h20.56v30.84H608.55V480q0,7.8,1.77,11.52c1.18,2.48,3.55,3.72,7.09,3.72h11.7v25.88q-4.61,1.43-9.39,2.66t-8.87,2A46.81,46.81,0,0,1,602.88,526.47Z"/><path class="cls-2" d="M649,522.21V335.39H679.8l2.48,25.17h1.42A54.81,54.81,0,0,1,691,344.25a32.92,32.92,0,0,1,10.1-9.75,23.29,23.29,0,0,1,12.06-3.37,32.27,32.27,0,0,1,4.78.36,20,20,0,0,1,4.79,1.42v39.7H709.58a18.33,18.33,0,0,0-10.1,2.84,23.39,23.39,0,0,0-7.62,8.5,46.85,46.85,0,0,0-4.79,14.89,131.3,131.3,0,0,0-1.6,22V522.21Z"/><path class="cls-2" d="M789,526.47q-20.21,0-33.68-9.75t-20-31.38q-6.57-21.61-6.56-56.36,0-35.1,6.56-56.55t20-31.37q13.47-9.92,33.68-9.93,20.57,0,34,9.93t20.2,31.37Q850,393.9,850,429q0,34.74-6.74,56.36T823,516.72Q809.55,526.46,789,526.47Zm0-30.85q8.52,0,13.3-5.31t7.09-17.37q2.29-12.06,2.3-32.26v-23.4q0-20.56-2.3-32.62t-7.09-17.37Q797.51,362,789,362a17.26,17.26,0,0,0-12.94,5.31q-5.14,5.32-7.26,17.37t-2.13,32.62v23.4q0,20.2,2.13,32.26t7.26,17.37A17.26,17.26,0,0,0,789,495.62Z"/><path class="cls-2" d="M946.39,526.47q-25.89,0-42.36-13.83T879.74,471q-7.8-27.83-7.8-70.37,0-65.24,20.56-95.54t57.79-30.31q22.68,0,37.4,9.92t21.8,30q7.1,20,7.09,50.87H996.73q0-23-4.79-39.35T976.7,301.36q-10.46-8.52-27.83-8.51t-30,10.63q-12.6,10.63-19.15,33.68t-6.56,59.91v9.22q0,36.16,6,58.49t17.9,33q11.88,10.63,29.25,10.64,16.67,0,27.83-7.8t17-23.76q5.85-15.94,5.85-40.76h19.15q0,31.2-8.16,51.22t-23.93,29.6Q968.38,526.47,946.39,526.47Z"/><path class="cls-2" d="M1045.65,522.21V335.74h13.82l1.78,25.53H1063q3.54-11.34,8.33-17.73a31,31,0,0,1,10.28-9.22,24.9,24.9,0,0,1,11.52-2.83h3.55a6.3,6.3,0,0,1,2.83.71v20.56h-7.09a21.34,21.34,0,0,0-9.75,2.66,27.3,27.3,0,0,0-9.39,8.51q-4.26,5.83-6.91,15.42t-2.66,24.1V522.21Z"/><path class="cls-2" d="M1117.25,294.27V265.9h18.08v28.37Zm0,227.94V335.74h18.08V522.21Z"/><path class="cls-2" d="M1205.52,526.47q-13.47,0-22.16-3.9a33.65,33.65,0,0,1-13.82-11,46.62,46.62,0,0,1-7.45-17.2,97.66,97.66,0,0,1-2.3-21.8,22.53,22.53,0,0,1,.35-4.08,20.34,20.34,0,0,0,.36-3.72h17.72a13,13,0,0,0-.71,4.08v4.08q0,12.4,3,20.73a27,27,0,0,0,8.86,12.77q5.85,4.43,15.07,4.43,10.63,0,17-4.61a25.57,25.57,0,0,0,9.22-13.12q2.83-8.5,2.84-20.91,0-12.06-4.44-19.32a35.22,35.22,0,0,0-11.52-11.7,117.77,117.77,0,0,0-15.24-8q-7.8-3.9-14.71-8.15a48.73,48.73,0,0,1-12.06-10.46,47,47,0,0,1-8.15-15.07q-3-8.85-3-21.62a58.62,58.62,0,0,1,3-19.32,42.24,42.24,0,0,1,8.69-14.89,34.7,34.7,0,0,1,13.82-9.22,52,52,0,0,1,18.08-3,57.42,57.42,0,0,1,18.79,2.83,30.86,30.86,0,0,1,13.29,8.69,37.47,37.47,0,0,1,7.63,14,66.22,66.22,0,0,1,2.48,19.15q0,2.47-.18,5.67c-.12,2.12-.3,4.37-.53,6.73h-17.37v-11.7q0-11.34-3-17.72a19.41,19.41,0,0,0-8.33-9.22,26,26,0,0,0-12.4-2.83q-7.81,0-12.77,2.66a21.09,21.09,0,0,0-7.8,6.91,26.51,26.51,0,0,0-3.9,9.92,66.26,66.26,0,0,0-1.06,12.06q0,11,3.9,17.72a31.9,31.9,0,0,0,10.46,11q6.55,4.26,14,8.16,7.1,3.18,14.18,7.26a64.05,64.05,0,0,1,13.3,10.28,47.26,47.26,0,0,1,10.1,15.78q3.9,9.57,3.9,24.11,0,13.81-3.37,23.92a42.58,42.58,0,0,1-9.57,16.49,41.45,41.45,0,0,1-14.89,9.75A53.15,53.15,0,0,1,1205.52,526.47Z"/><path class="cls-2" d="M1326.05,526.47q-17.38,0-29.07-9.4t-17.55-30.84q-5.85-21.45-5.85-57.25,0-36.17,5.85-57.61T1297,340.71q11.7-9.22,29.07-9.22,17,0,28.89,9.22t17.9,30.66q6,21.45,6,57.61,0,35.81-6,57.25t-17.9,30.84Q1343.06,526.46,1326.05,526.47Zm0-16.31q12,0,19.67-7.8t10.81-25.17q3.2-17.37,3.19-45v-6.38q0-28-3.19-45.2t-10.81-25q-7.62-7.79-19.67-7.79-11.7,0-19.32,7.79t-11,25q-3.37,17.19-3.37,45.2v6.38q0,27.65,3.37,45t11,25.17Q1314.35,510.16,1326.05,510.16Z"/><path class="cls-2" d="M1410.06,522.21V265.9h18.08V522.21Z"/><path class="cls-2" d="M514.79,237.82c-82.48,0-124.4-7.32-164.94-14.41-41-7.17-79.81-13.94-159.61-13.94v-31c82.48,0,124.4,7.32,164.94,14.41,41.05,7.17,79.82,13.94,159.61,13.94s118.56-6.77,159.6-13.94c40.54-7.09,82.46-14.41,164.94-14.41v31c-79.79,0-118.56,6.77-159.6,13.94C639.19,230.5,597.27,237.82,514.79,237.82Z"/><rect class="cls-2" x="190.24" y="634.18" width="649.09" height="31"/></g></g></svg>