<svg xmlns="http://www.w3.org/2000/svg" viewBox="0 0 1784.14 853.48"><defs><style>.cls-1{fill:#c71770;}.cls-2{fill:#e3e8f6;}</style></defs><g id="Capa_2" data-name="Capa 2"><g id="Capa_2-2" data-name="Capa 2"><rect class="cls-1" width="1784.14" height="853.48"/><path class="cls-2" d="M601.07,529.46q-15.6,0-25.52-10.1t-14.72-31.91q-4.79-21.79-4.78-56.9,0-34.38,4.43-55.48t14.18-31q9.75-9.93,25.7-9.93a35.91,35.91,0,0,1,15.07,3,30.79,30.79,0,0,1,11.16,8.69A46.2,46.2,0,0,1,634,359.3h1.77V268.55h36.87V525.21H642.55l-2.84-23.05h-1.77a43.5,43.5,0,0,1-12.59,19.15Q616.32,529.46,601.07,529.46Zm13.47-33q8.16,0,12.59-6.2t6.55-18.08A169.36,169.36,0,0,0,635.81,443V423.11a178.71,178.71,0,0,0-1.42-24.28,78.42,78.42,0,0,0-3.9-16.67q-2.47-6.56-6.73-9.57a16.81,16.81,0,0,0-9.93-3,13.93,13.93,0,0,0-11.17,5.32q-4.42,5.31-6.55,17T594,422.76V443q0,18.44,1.95,30.31t6.56,17.55A14.78,14.78,0,0,0,614.54,496.49Z"/><path class="cls-2" d="M737.56,529.46a46.43,46.43,0,0,1-17.73-3.19,33.24,33.24,0,0,1-13.12-9.57,42.18,42.18,0,0,1-8-16,82.05,82.05,0,0,1-2.66-22,75.47,75.47,0,0,1,4.07-25.35,51.64,51.64,0,0,1,13.12-20.21q9-8.68,24.46-13.47T775.49,415V389.79a35.41,35.41,0,0,0-2.13-13.12,18.16,18.16,0,0,0-6.38-8.33,17.34,17.34,0,0,0-10.28-3q-8.16,0-12.41,3.72a18,18,0,0,0-5.67,9.75A62.2,62.2,0,0,0,737.2,393v2.48H702.81a12.18,12.18,0,0,1-.35-3v-3.37q0-19.86,7.27-31.91a42.58,42.58,0,0,1,20-17.55q12.76-5.49,29.43-5.49,15.6,0,27.65,5.14t18.79,17.9q6.74,12.76,6.73,36.16v93.24c0,3.78.71,6.68,2.13,8.68s3.66,3,6.74,3h8.86v25.17A62.09,62.09,0,0,1,818,527.51a58,58,0,0,1-13.47,1.6c-5.68,0-10.28-1.07-13.83-3.19a22.2,22.2,0,0,1-8.33-8.87,33.52,33.52,0,0,1-3.72-12.4H776.9a56.08,56.08,0,0,1-8.86,12.4,39.47,39.47,0,0,1-12.76,9A42.64,42.64,0,0,1,737.56,529.46Zm14.18-31.2a15,15,0,0,0,8.68-2.83,31,31,0,0,0,7.62-8,39.54,39.54,0,0,0,5.5-12.76,68.36,68.36,0,0,0,2-16.84V438q-17.73,0-26.41,4.78T737.2,455.37A45.43,45.43,0,0,0,734,472.74a42.83,42.83,0,0,0,2,13.83,17.89,17.89,0,0,0,5.85,8.68A15.74,15.74,0,0,0,751.74,498.26Z"/><path class="cls-2" d="M844.61,525.21V338.38h31.55l2.48,23.05h1.42a50,50,0,0,1,9.57-15.6A35.22,35.22,0,0,1,902.57,337a43,43,0,0,1,15.78-2.84q13.11,0,21.27,5t12,15.6q3.9,10.63,3.9,26.94V525.21H918.35V391.91a54.17,54.17,0,0,0-.71-8.86,31.2,31.2,0,0,0-2.13-7.44,9.67,9.67,0,0,0-4.43-4.79,17.49,17.49,0,0,0-19.68,3.55q-5,5.13-7.62,15.42T881.13,416V525.21Z"/><path class="cls-2" d="M974,525.21v-17l62.75-139H978.61V338.38h103.87v16l-62.74,139.32H1085v31.55Z"/><path class="cls-2" d="M1136.37,529.46a46.43,46.43,0,0,1-17.73-3.19,33.24,33.24,0,0,1-13.12-9.57,42.18,42.18,0,0,1-8-16,82.46,82.46,0,0,1-2.66-22,75.47,75.47,0,0,1,4.08-25.35,51.61,51.61,0,0,1,13.11-20.21q9-8.68,24.46-13.47T1174.3,415V389.79a35.41,35.41,0,0,0-2.13-13.12,18.16,18.16,0,0,0-6.38-8.33,17.32,17.32,0,0,0-10.28-3q-8.16,0-12.41,3.72a18.05,18.05,0,0,0-5.67,9.75A62.2,62.2,0,0,0,1136,393v2.48h-34.38a12.17,12.17,0,0,1-.36-3v-3.37q0-19.86,7.27-31.91a42.56,42.56,0,0,1,20-17.55q12.75-5.49,29.42-5.49,15.6,0,27.65,5.14t18.79,17.9q6.73,12.76,6.74,36.16v93.24c0,3.78.71,6.68,2.12,8.68s3.67,3,6.74,3h8.86v25.17a62.09,62.09,0,0,1-12.05,4.08,58,58,0,0,1-13.47,1.6q-8.5,0-13.83-3.19a22.34,22.34,0,0,1-8.33-8.87,33.52,33.52,0,0,1-3.72-12.4h-1.77a56.46,56.46,0,0,1-8.87,12.4,39.47,39.47,0,0,1-12.76,9A42.64,42.64,0,0,1,1136.37,529.46Zm14.18-31.2a14.93,14.93,0,0,0,8.68-2.83,30.8,30.8,0,0,0,7.62-8,39.54,39.54,0,0,0,5.5-12.76,67.88,67.88,0,0,0,2-16.84V438q-17.73,0-26.41,4.78T1136,455.37a45.62,45.62,0,0,0-3.19,17.37,42.83,42.83,0,0,0,2,13.83,18,18,0,0,0,5.85,8.68A15.74,15.74,0,0,0,1150.55,498.26Z"/><polygon class="cls-2" points="892.07 242.13 824.86 213.79 757.66 242.13 690.46 213.79 623.25 242.13 550.02 211.25 562.07 182.69 623.25 208.49 690.46 180.15 757.66 208.49 824.86 180.15 892.07 208.49 959.27 180.15 1026.47 208.49 1093.68 180.15 1160.89 208.49 1222.07 182.69 1234.12 211.25 1160.89 242.13 1093.68 213.79 1026.47 242.13 959.27 213.79 892.07 242.13"/><rect class="cls-2" x="556.05" y="637.18" width="672.05" height="31"/></g></g></svg>