<svg xmlns="http://www.w3.org/2000/svg" viewBox="0 0 1784.14 853.48"><defs><style>.cls-1{fill:#fff;}.cls-2{fill:#c71770;}</style></defs><g id="Capa_2" data-name="Capa 2"><g id="Capa_2-2" data-name="Capa 2"><rect class="cls-1" width="1784.14" height="853.48"/><path class="cls-2" d="M241.29,529.46q-15.6,0-25.52-10.1t-14.72-31.91q-4.78-21.79-4.78-56.9,0-34.38,4.43-55.48t14.18-31q9.75-9.93,25.7-9.93a35.91,35.91,0,0,1,15.07,3,30.79,30.79,0,0,1,11.16,8.69,46.2,46.2,0,0,1,7.45,13.47H276V268.55H312.9V525.21H282.77l-2.84-23.05h-1.77a43.5,43.5,0,0,1-12.59,19.15Q256.54,529.46,241.29,529.46Zm13.47-33q8.16,0,12.59-6.2t6.55-18.08A169.36,169.36,0,0,0,276,443V423.11a178.71,178.71,0,0,0-1.42-24.28,78.42,78.42,0,0,0-3.9-16.67q-2.47-6.56-6.73-9.57a16.81,16.81,0,0,0-9.93-3,13.93,13.93,0,0,0-11.17,5.32q-4.42,5.31-6.55,17t-2.13,30.85V443q0,18.44,2,30.31t6.56,17.55A14.78,14.78,0,0,0,254.76,496.49Z"/><path class="cls-2" d="M377.78,529.46a46.43,46.43,0,0,1-17.73-3.19,33.24,33.24,0,0,1-13.12-9.57,42.18,42.18,0,0,1-8-16,82.05,82.05,0,0,1-2.66-22,75.22,75.22,0,0,1,4.08-25.35,51.5,51.5,0,0,1,13.11-20.21q9-8.68,24.46-13.47T415.71,415V389.79a35.41,35.41,0,0,0-2.13-13.12,18.16,18.16,0,0,0-6.38-8.33,17.34,17.34,0,0,0-10.28-3q-8.16,0-12.41,3.72a18,18,0,0,0-5.67,9.75A62.2,62.2,0,0,0,377.42,393v2.48H343a12.18,12.18,0,0,1-.35-3v-3.37q0-19.86,7.27-31.91a42.58,42.58,0,0,1,20-17.55q12.76-5.49,29.43-5.49,15.6,0,27.65,5.14t18.79,17.9q6.74,12.76,6.73,36.16v93.24c0,3.78.71,6.68,2.13,8.68s3.66,3,6.74,3h8.86v25.17a62.09,62.09,0,0,1-12.05,4.08,58,58,0,0,1-13.47,1.6c-5.68,0-10.28-1.07-13.83-3.19a22.27,22.27,0,0,1-8.33-8.87,33.52,33.52,0,0,1-3.72-12.4h-1.77a56.46,56.46,0,0,1-8.87,12.4,39.47,39.47,0,0,1-12.76,9A42.64,42.64,0,0,1,377.78,529.46ZM392,498.26a15,15,0,0,0,8.68-2.83,31,31,0,0,0,7.62-8,39.54,39.54,0,0,0,5.5-12.76,68.36,68.36,0,0,0,1.95-16.84V438q-17.73,0-26.41,4.78t-11.88,12.59a45.43,45.43,0,0,0-3.19,17.37,42.83,42.83,0,0,0,1.95,13.83,17.89,17.89,0,0,0,5.85,8.68A15.74,15.74,0,0,0,392,498.26Z"/><path class="cls-2" d="M484.83,525.21V338.38h31.55l2.48,23.05h1.42a50,50,0,0,1,9.57-15.6A35.22,35.22,0,0,1,542.79,337a43,43,0,0,1,15.78-2.84q13.11,0,21.27,5t12,15.6q3.9,10.63,3.9,26.94V525.21H558.57V391.91a54.17,54.17,0,0,0-.71-8.86,31.2,31.2,0,0,0-2.13-7.44,9.67,9.67,0,0,0-4.43-4.79,17.47,17.47,0,0,0-19.67,3.55c-3.32,3.42-5.85,8.56-7.63,15.42s-2.65,15.59-2.65,26.23V525.21Z"/><path class="cls-2" d="M614.22,525.21v-17l62.75-139H618.83V338.38H722.7v16L660,493.66h65.22v31.55Z"/><path class="cls-2" d="M776.59,529.46a46.43,46.43,0,0,1-17.73-3.19,33.24,33.24,0,0,1-13.12-9.57,42.18,42.18,0,0,1-8-16,82.46,82.46,0,0,1-2.66-22,75.47,75.47,0,0,1,4.08-25.35,51.61,51.61,0,0,1,13.11-20.21q9-8.68,24.46-13.47T814.52,415V389.79a35.41,35.41,0,0,0-2.13-13.12,18.16,18.16,0,0,0-6.38-8.33,17.32,17.32,0,0,0-10.28-3q-8.16,0-12.41,3.72a18.05,18.05,0,0,0-5.67,9.75A62.2,62.2,0,0,0,776.23,393v2.48H741.85a12.17,12.17,0,0,1-.36-3v-3.37q0-19.86,7.27-31.91a42.56,42.56,0,0,1,20-17.55q12.75-5.49,29.42-5.49,15.6,0,27.65,5.14t18.79,17.9q6.74,12.76,6.74,36.16v93.24c0,3.78.71,6.68,2.12,8.68s3.67,3,6.74,3h8.86v25.17a62.09,62.09,0,0,1-12.05,4.08,58,58,0,0,1-13.47,1.6q-8.51,0-13.83-3.19a22.34,22.34,0,0,1-8.33-8.87,33.52,33.52,0,0,1-3.72-12.4h-1.77a56.46,56.46,0,0,1-8.87,12.4,39.47,39.47,0,0,1-12.76,9A42.64,42.64,0,0,1,776.59,529.46Zm14.18-31.2a14.93,14.93,0,0,0,8.68-2.83,30.8,30.8,0,0,0,7.62-8,39.54,39.54,0,0,0,5.5-12.76,67.88,67.88,0,0,0,1.95-16.84V438q-17.73,0-26.41,4.78t-11.88,12.59A45.62,45.62,0,0,0,773,472.74a42.83,42.83,0,0,0,2,13.83,18,18,0,0,0,5.85,8.68A15.74,15.74,0,0,0,790.77,498.26Z"/><polygon class="cls-2" points="532.28 242.13 465.08 213.79 397.88 242.13 330.68 213.79 263.47 242.13 190.24 211.25 202.29 182.69 263.47 208.49 330.68 180.15 397.88 208.49 465.08 180.15 532.28 208.49 599.49 180.15 666.69 208.49 733.9 180.15 801.11 208.49 862.29 182.69 874.34 211.25 801.11 242.13 733.9 213.79 666.69 242.13 599.49 213.79 532.28 242.13"/><rect class="cls-2" x="196.27" y="637.18" width="672.05" height="31"/></g></g></svg>