<svg xmlns="http://www.w3.org/2000/svg" viewBox="0 0 1784.14 853.48"><defs><style>.cls-1{fill:#fff;}.cls-2{fill:#4aa8df;}</style></defs><g id="Capa_2" data-name="Capa 2"><g id="Capa_2-2" data-name="Capa 2"><rect class="cls-1" width="1784.14" height="853.48"/><path class="cls-2" d="M195.56,527.12V340.3h31.55l2.48,23.4H231a49.37,49.37,0,0,1,9.57-16,35.47,35.47,0,0,1,12.94-8.86A43,43,0,0,1,269.3,336q13.83,0,22.15,6.56t11.17,21.1h1.77a66.06,66.06,0,0,1,9.93-16,32.7,32.7,0,0,1,12.41-8.86,41.6,41.6,0,0,1,15.6-2.84q12.75,0,20.73,5t11.88,15.6q3.9,10.63,3.9,26.94V527.12H342V394.18a75.33,75.33,0,0,0-.53-9.21,22.67,22.67,0,0,0-2.13-7.45,10.84,10.84,0,0,0-4.43-4.78,15,15,0,0,0-7.44-1.6,16.17,16.17,0,0,0-12.06,5.14q-5,5.14-7.62,15.42t-2.66,26.23V527.12H268.94V394.18a73.39,73.39,0,0,0-.53-9.21,22.67,22.67,0,0,0-2.13-7.45,10.6,10.6,0,0,0-4.6-4.78,15.28,15.28,0,0,0-7.27-1.6,16.13,16.13,0,0,0-12,5.14c-3.32,3.43-5.85,8.57-7.63,15.42s-2.65,15.6-2.65,26.23V527.12Z"/><path class="cls-2" d="M442.65,531.38q-18.43,0-27.47-11.53t-9-36V340.3h36.51V473.24a55.41,55.41,0,0,0,.71,9.22,26.32,26.32,0,0,0,2.3,7.44,10.62,10.62,0,0,0,4.61,4.78,15.28,15.28,0,0,0,7.27,1.6,16.71,16.71,0,0,0,12.23-5.14q5.13-5.13,7.62-15.6t2.48-26.05V340.3H517.1V527.12H485.54l-2.48-23h-1.42a56.84,56.84,0,0,1-10.1,15.42,36.67,36.67,0,0,1-12.76,9A42.32,42.32,0,0,1,442.65,531.38ZM449,317.61l20.56-47.15h33.33v1.42l-30.49,45.73Z"/><path class="cls-2" d="M591.18,531.38q-16.3,0-26.58-3.9t-16.13-11.17a43.92,43.92,0,0,1-8.33-17.19,88.81,88.81,0,0,1-2.49-21.63c0-1.18.06-2.6.18-4.25s.3-3.31.53-5h33.33a31.39,31.39,0,0,0-.36,4.44v4.07a42,42,0,0,0,1.95,13.3,19,19,0,0,0,6.21,9.21q4.25,3.38,11,3.37,7.44,0,11.69-2.83a16.1,16.1,0,0,0,6.21-8.51,44.42,44.42,0,0,0,2-14.18q0-9.22-4.26-14.72a35,35,0,0,0-10.45-9q-6.21-3.54-13.65-7.1-7.1-3.18-14.54-7.44A60.77,60.77,0,0,1,554,428.39a46.34,46.34,0,0,1-9.75-15.77q-3.72-9.57-3.72-24.11,0-13.47,3.9-23.22A42.37,42.37,0,0,1,555.73,349a48.81,48.81,0,0,1,17-9.74,64.51,64.51,0,0,1,20.56-3.2,67.19,67.19,0,0,1,20.92,3,40.88,40.88,0,0,1,15.6,9,39.89,39.89,0,0,1,9.74,14.53,52.61,52.61,0,0,1,3.37,19.5q0,2.83-.17,6.2c-.13,2.25-.3,4.32-.54,6.21H609.62v-8.87q0-7.44-2.31-12.05a15.34,15.34,0,0,0-6-6.73,17.94,17.94,0,0,0-9-2.13,18.59,18.59,0,0,0-7.27,1.42,13.74,13.74,0,0,0-5.67,4.43,17.65,17.65,0,0,0-3.19,6.73,37.9,37.9,0,0,0-.89,8.69q0,8.16,4.08,13.47A29.19,29.19,0,0,0,589.94,408q6.55,3.19,14,6.38A163.78,163.78,0,0,1,619,421.83a67.13,67.13,0,0,1,14,10.46,44.41,44.41,0,0,1,10.1,15.42q3.72,9.23,3.72,23.75,0,16-3.9,27.12a45.36,45.36,0,0,1-29.07,29.25A69.32,69.32,0,0,1,591.18,531.38Z"/><path class="cls-2" d="M669.53,308.39V270.46H706v37.93Zm0,218.73V340.3H706V527.12Z"/><path class="cls-2" d="M789.7,531.38q-21.63,0-34.39-10.46t-18.43-32.08q-5.67-21.63-5.67-54.95,0-35.1,6.38-56.72t19.5-31.38q13.11-9.74,33.67-9.75,15.24,0,25.88,4.44a38.37,38.37,0,0,1,17,13.47q6.38,9,9.39,23.57t3,34.74H809.55A176.61,176.61,0,0,0,808,385.85q-1.61-10.1-5.32-14.53t-11.88-4.43a16.26,16.26,0,0,0-11.69,4.78q-5,4.79-7.45,16.66t-2.48,33.86v24.1a225.51,225.51,0,0,0,1.42,26.06q1.41,12.22,6,20.21t13.48,8q7.79,0,12.05-4.07t6.2-14q2-9.93,2-27.3h35.81a146.86,146.86,0,0,1-3,31.19,74,74,0,0,1-9.39,23.93,42.93,42.93,0,0,1-17.19,15.6Q805.64,531.37,789.7,531.38Z"/><path class="cls-2" d="M905.62,531.38a46.54,46.54,0,0,1-17.72-3.19,33.17,33.17,0,0,1-13.12-9.58,42.34,42.34,0,0,1-8-15.95,82.41,82.41,0,0,1-2.66-22,75.51,75.51,0,0,1,4.08-25.35,51.6,51.6,0,0,1,13.12-20.2q9-8.69,24.46-13.47t37.75-4.79V391.7a35.49,35.49,0,0,0-2.12-13.12,18.28,18.28,0,0,0-6.38-8.33,17.41,17.41,0,0,0-10.28-3q-8.16,0-12.41,3.72a18,18,0,0,0-5.67,9.75,62.26,62.26,0,0,0-1.42,14.18v2.48H870.88a12.18,12.18,0,0,1-.35-3V391q0-19.85,7.26-31.9a42.6,42.6,0,0,1,20-17.55q12.76-5.49,29.43-5.5,15.59,0,27.65,5.14t18.79,17.91q6.72,12.77,6.73,36.16v93.23q0,5.67,2.13,8.69c1.42,2,3.66,3,6.74,3h8.86v25.17a62.87,62.87,0,0,1-12.06,4.08A58.45,58.45,0,0,1,972.62,531q-8.5,0-13.82-3.19a22.24,22.24,0,0,1-8.33-8.86,33.83,33.83,0,0,1-3.73-12.41H945A56.71,56.71,0,0,1,936.11,519a39.88,39.88,0,0,1-12.76,9A42.88,42.88,0,0,1,905.62,531.38Zm14.18-31.2a14.9,14.9,0,0,0,8.69-2.84,30.91,30.91,0,0,0,7.62-8,39.73,39.73,0,0,0,5.49-12.76,67.88,67.88,0,0,0,1.95-16.84V439.91q-17.73,0-26.41,4.79t-11.87,12.59a45.39,45.39,0,0,0-3.19,17.37A42.81,42.81,0,0,0,904,488.48a17.9,17.9,0,0,0,5.85,8.69A15.71,15.71,0,0,0,919.8,500.18Z"/><rect class="cls-2" x="190.24" y="639.09" width="807.88" height="31"/><path class="cls-2" d="M863.47,242.73c-36.79,0-56.21-8.18-73.34-15.39-16.51-7-30.78-13-61.31-13s-44.79,6-61.31,13c-17.13,7.21-36.54,15.39-73.33,15.39s-56.21-8.18-73.34-15.39c-16.52-7-30.78-13-61.31-13s-44.79,6-61.31,13c-17.13,7.21-36.54,15.39-73.33,15.39s-56.21-8.18-73.34-15.39c-16.51-7-30.78-13-61.31-13v-31c36.8,0,56.21,8.18,73.34,15.39,16.51,6.95,30.78,13,61.31,13s44.79-6,61.3-13c17.13-7.21,36.55-15.39,73.34-15.39s56.21,8.18,73.34,15.39c16.51,6.95,30.77,13,61.31,13s44.79-6,61.3-13c17.13-7.21,36.55-15.39,73.34-15.39s56.21,8.18,73.34,15.39c16.51,6.95,30.78,13,61.31,13s44.8-6,61.31-13c17.13-7.21,36.55-15.39,73.34-15.39v31c-30.53,0-44.79,6-61.31,13C919.68,234.55,900.26,242.73,863.47,242.73Z"/></g></g></svg>