<svg xmlns="http://www.w3.org/2000/svg" viewBox="0 0 1784.14 853.48"><defs><style>.cls-1{fill:#4aa8df;}.cls-2{fill:#d1ebf5;}</style></defs><g id="Capa_2" data-name="Capa 2"><g id="Capa_2-2" data-name="Capa 2"><rect class="cls-1" width="1784.14" height="853.48"/><path class="cls-2" d="M493.44,527.12V340.3H525l2.48,23.4h1.42a49.37,49.37,0,0,1,9.57-16,35.38,35.38,0,0,1,12.94-8.86A43,43,0,0,1,567.17,336q13.83,0,22.16,6.56t11.17,21.1h1.77a66.06,66.06,0,0,1,9.93-16,32.59,32.59,0,0,1,12.4-8.86A41.68,41.68,0,0,1,640.2,336q12.76,0,20.74,5t11.88,15.6q3.88,10.63,3.9,26.94V527.12H639.85V394.18a75.33,75.33,0,0,0-.53-9.21,23.16,23.16,0,0,0-2.13-7.45,10.84,10.84,0,0,0-4.43-4.78,15.11,15.11,0,0,0-7.45-1.6,16.14,16.14,0,0,0-12,5.14q-5,5.14-7.62,15.42T603,417.93V527.12H566.82V394.18a75.33,75.33,0,0,0-.53-9.21,23.16,23.16,0,0,0-2.13-7.45,10.57,10.57,0,0,0-4.61-4.78,15.26,15.26,0,0,0-7.26-1.6,16.17,16.17,0,0,0-12.06,5.14q-5,5.14-7.62,15.42T530,417.93V527.12Z"/><path class="cls-2" d="M740.53,531.38q-18.45,0-27.48-11.53t-9-36V340.3h36.52V473.24a56.55,56.55,0,0,0,.7,9.22,26.32,26.32,0,0,0,2.31,7.44,10.57,10.57,0,0,0,4.61,4.78,15.24,15.24,0,0,0,7.26,1.6,16.67,16.67,0,0,0,12.23-5.14q5.15-5.13,7.63-15.6t2.48-26.05V340.3H815V527.12H783.42l-2.48-23h-1.42a57.07,57.07,0,0,1-10.1,15.42,36.76,36.76,0,0,1-12.76,9A42.32,42.32,0,0,1,740.53,531.38Zm6.38-213.77,20.56-47.15h33.32v1.42L770.3,317.61Z"/><path class="cls-2" d="M889.06,531.38q-16.3,0-26.59-3.9t-16.13-11.17A43.92,43.92,0,0,1,838,499.12a89.31,89.31,0,0,1-2.48-21.63c0-1.18.06-2.6.18-4.25s.29-3.31.53-5h33.32a31.25,31.25,0,0,0-.35,4.44v4.07a42,42,0,0,0,1.95,13.3,19,19,0,0,0,6.2,9.21q4.26,3.38,11,3.37,7.44,0,11.7-2.83a16.09,16.09,0,0,0,6.2-8.51,44.14,44.14,0,0,0,2-14.18q0-9.22-4.25-14.72a35.18,35.18,0,0,0-10.46-9q-6.21-3.54-13.65-7.1-7.1-3.18-14.53-7.44a60.54,60.54,0,0,1-13.47-10.46,46.34,46.34,0,0,1-9.75-15.77q-3.72-9.57-3.72-24.11,0-13.47,3.9-23.22A42.26,42.26,0,0,1,853.61,349a48.72,48.72,0,0,1,17-9.74,64.51,64.51,0,0,1,20.56-3.2,67.08,67.08,0,0,1,20.91,3,40.73,40.73,0,0,1,15.6,9,39.91,39.91,0,0,1,9.75,14.53,52.81,52.81,0,0,1,3.37,19.5q0,2.83-.18,6.2t-.53,6.21H907.5v-8.87c0-5-.78-9-2.31-12.05a15.3,15.3,0,0,0-6-6.73,17.91,17.91,0,0,0-9-2.13,18.58,18.58,0,0,0-7.26,1.42,13.83,13.83,0,0,0-5.68,4.43,17.65,17.65,0,0,0-3.19,6.73,37.94,37.94,0,0,0-.88,8.69q0,8.16,4.07,13.47A29.22,29.22,0,0,0,887.82,408q6.55,3.19,14,6.38a162.67,162.67,0,0,1,15.07,7.44,66.82,66.82,0,0,1,14,10.46A44.43,44.43,0,0,1,941,447.71q3.72,9.23,3.72,23.75,0,16-3.9,27.12a45.41,45.41,0,0,1-29.07,29.25A69.36,69.36,0,0,1,889.06,531.38Z"/><path class="cls-2" d="M967.41,308.39V270.46h36.51v37.93Zm0,218.73V340.3h36.51V527.12Z"/><path class="cls-2" d="M1087.58,531.38q-21.63,0-34.39-10.46t-18.43-32.08q-5.68-21.63-5.68-54.95,0-35.1,6.39-56.72T1055,345.79q13.11-9.74,33.68-9.75,15.24,0,25.88,4.44a38.42,38.42,0,0,1,17,13.47q6.38,9,9.39,23.57t3,34.74h-36.51a175.08,175.08,0,0,0-1.6-26.41q-1.59-10.1-5.31-14.53t-11.88-4.43a16.3,16.3,0,0,0-11.7,4.78q-5,4.79-7.44,16.66T1067,422.19v24.1a227.84,227.84,0,0,0,1.41,26.06q1.42,12.22,6,20.21t13.47,8q7.8,0,12-4.07t6.21-14q1.93-9.93,2-27.3h35.8a147.56,147.56,0,0,1-3,31.19,74,74,0,0,1-9.39,23.93,43,43,0,0,1-17.2,15.6Q1103.53,531.37,1087.58,531.38Z"/><path class="cls-2" d="M1203.5,531.38a46.63,46.63,0,0,1-17.73-3.19,33.06,33.06,0,0,1-13.11-9.58,42.05,42.05,0,0,1-8-15.95,82.41,82.41,0,0,1-2.66-22,75.51,75.51,0,0,1,4.08-25.35,51.58,51.58,0,0,1,13.11-20.2q9-8.69,24.47-13.47t37.75-4.79V391.7a35.48,35.48,0,0,0-2.13-13.12,18.14,18.14,0,0,0-6.38-8.33,17.37,17.37,0,0,0-10.28-3q-8.16,0-12.41,3.72a18.09,18.09,0,0,0-5.67,9.75,62.26,62.26,0,0,0-1.42,14.18v2.48h-34.38a12.17,12.17,0,0,1-.36-3V391q0-19.85,7.27-31.9a42.56,42.56,0,0,1,20-17.55q12.77-5.49,29.42-5.5,15.6,0,27.65,5.14t18.79,17.91q6.74,12.77,6.74,36.16v93.23q0,5.67,2.13,8.69c1.41,2,3.66,3,6.73,3H1296v25.17a62.53,62.53,0,0,1-12,4.08A58.45,58.45,0,0,1,1270.5,531q-8.51,0-13.83-3.19a22.38,22.38,0,0,1-8.33-8.86,33.63,33.63,0,0,1-3.72-12.41h-1.77A57,57,0,0,1,1234,519a39.82,39.82,0,0,1-12.77,9A42.8,42.8,0,0,1,1203.5,531.38Zm14.18-31.2a14.87,14.87,0,0,0,8.68-2.84,30.77,30.77,0,0,0,7.63-8,39.73,39.73,0,0,0,5.49-12.76,67.88,67.88,0,0,0,2-16.84V439.91q-17.73,0-26.41,4.79t-11.88,12.59a45.58,45.58,0,0,0-3.19,17.37,42.81,42.81,0,0,0,2,13.82,18,18,0,0,0,5.85,8.69A15.76,15.76,0,0,0,1217.68,500.18Z"/><rect class="cls-2" x="488.12" y="639.09" width="807.88" height="31"/><path class="cls-2" d="M1161.35,242.73c-36.8,0-56.21-8.18-73.34-15.39-16.52-7-30.78-13-61.31-13s-44.8,6-61.31,13c-17.13,7.21-36.55,15.39-73.34,15.39s-56.21-8.18-73.34-15.39c-16.51-7-30.77-13-61.3-13s-44.8,6-61.31,13c-17.13,7.21-36.55,15.39-73.34,15.39s-56.2-8.18-73.33-15.39c-16.52-7-30.78-13-61.31-13v-31c36.79,0,56.21,8.18,73.34,15.39,16.51,6.95,30.77,13,61.3,13s44.79-6,61.31-13c17.13-7.21,36.55-15.39,73.34-15.39s56.2,8.18,73.33,15.39c16.52,6.95,30.78,13,61.31,13s44.79-6,61.31-13c17.13-7.21,36.55-15.39,73.34-15.39s56.21,8.18,73.34,15.39c16.51,6.95,30.77,13,61.31,13s44.79-6,61.31-13c17.13-7.21,36.54-15.39,73.34-15.39v31c-30.54,0-44.8,6-61.31,13C1217.56,234.55,1198.14,242.73,1161.35,242.73Z"/></g></g></svg>