<svg xmlns="http://www.w3.org/2000/svg" viewBox="0 0 1784.14 853.48"><defs><style>.cls-1{fill:#fff;}.cls-2{fill:#e68dbb;}</style></defs><g id="Capa_2" data-name="Capa 2"><g id="Capa_2-2" data-name="Capa 2"><rect class="cls-1" width="1784.14" height="853.48"/><path class="cls-2" d="M240.58,528.38q-12.75,0-19.32-5.14t-9.21-14.54a78.58,78.58,0,0,1-2.66-21.45V368.14H195.21V337.3H210.1l6.73-54.24h29.43V337.3h20.56v30.84H246.26v113.8c0,5.2.58,9,1.77,11.52s3.54,3.72,7.09,3.72h11.7v25.88q-4.62,1.43-9.4,2.66c-3.19.82-6.15,1.47-8.86,1.95A46.84,46.84,0,0,1,240.58,528.38Z"/><path class="cls-2" d="M342,528.38q-22,0-35.27-9.75t-19.32-31.38q-6-21.62-6-56.36,0-36.17,6.38-57.61t20.21-30.84q13.83-9.39,35.8-9.4,19.86,0,32.62,8.16T395.5,369q6.38,19.67,6.38,54.41v15.25h-82.6a256.38,256.38,0,0,0,1.77,33.5q1.77,12.94,6.74,19.14t14.53,6.2a18.94,18.94,0,0,0,9.22-2.12,17.41,17.41,0,0,0,6.56-6.56A36.66,36.66,0,0,0,362.18,477,118.86,118.86,0,0,0,364,459.25h37.22a121.59,121.59,0,0,1-4.07,30.49q-3.74,13.11-11.17,21.62a46,46,0,0,1-18.61,12.76A70.78,70.78,0,0,1,342,528.38Zm-22.69-112h44q0-14.52-.89-24.28a72.63,72.63,0,0,0-3-16.13q-2.13-6.37-6-9.22T343,363.89q-9.57,0-14.71,6.2t-7.09,17.73A175,175,0,0,0,319.28,416.35Z"/><path class="cls-2" d="M461.43,528.38a46.54,46.54,0,0,1-17.72-3.19,33.17,33.17,0,0,1-13.12-9.58,42.18,42.18,0,0,1-8-15.95,82,82,0,0,1-2.66-22A75.52,75.52,0,0,1,424,452.33a51.6,51.6,0,0,1,13.12-20.2q9-8.69,24.46-13.47t37.76-4.79V388.7a35.48,35.48,0,0,0-2.13-13.12,18.28,18.28,0,0,0-6.38-8.33,17.41,17.41,0,0,0-10.28-3q-8.16,0-12.41,3.72a18,18,0,0,0-5.67,9.75,62.26,62.26,0,0,0-1.42,14.18v2.48H426.69a12.18,12.18,0,0,1-.35-3V388q0-19.85,7.26-31.9a42.65,42.65,0,0,1,20-17.55Q466.4,333,483.06,333q15.6,0,27.65,5.14t18.79,17.91q6.72,12.77,6.73,36.16v93.23q0,5.67,2.13,8.69c1.42,2,3.66,3,6.74,3H554v25.17a63,63,0,0,1-12.05,4.08A58.6,58.6,0,0,1,528.43,528q-8.5,0-13.82-3.19a22.24,22.24,0,0,1-8.33-8.86,33.63,33.63,0,0,1-3.72-12.41h-1.78A56.38,56.38,0,0,1,491.92,516a39.77,39.77,0,0,1-12.76,9A42.82,42.82,0,0,1,461.43,528.38Zm14.18-31.2a14.9,14.9,0,0,0,8.69-2.84,30.75,30.75,0,0,0,7.62-8,40,40,0,0,0,5.5-12.76,68.36,68.36,0,0,0,1.95-16.84V436.91q-17.73,0-26.41,4.79t-11.88,12.59a45.39,45.39,0,0,0-3.19,17.37,42.81,42.81,0,0,0,1.95,13.82,17.9,17.9,0,0,0,5.85,8.69A15.73,15.73,0,0,0,475.61,497.18Z"/><path class="cls-2" d="M602.88,528.38q-12.76,0-19.32-5.14t-9.22-14.54a79,79,0,0,1-2.66-21.45V368.14H557.5V337.3h14.89l6.74-54.24h29.42V337.3h20.56v30.84H608.55v113.8q0,7.8,1.77,11.52c1.18,2.48,3.55,3.72,7.09,3.72h11.7v25.88q-4.61,1.43-9.39,2.66t-8.87,1.95A46.81,46.81,0,0,1,602.88,528.38Z"/><path class="cls-2" d="M649,524.12V337.3H679.8l2.48,25.17h1.42A54.92,54.92,0,0,1,691,346.16a32.92,32.92,0,0,1,10.1-9.75A23.29,23.29,0,0,1,713.13,333a32.27,32.27,0,0,1,4.78.36,20,20,0,0,1,4.79,1.42v39.7H709.58a18.33,18.33,0,0,0-10.1,2.84,23.34,23.34,0,0,0-7.62,8.51,46.7,46.7,0,0,0-4.79,14.88,131.3,131.3,0,0,0-1.6,22V524.12Z"/><path class="cls-2" d="M789,528.38q-20.21,0-33.68-9.75t-20-31.38q-6.57-21.62-6.56-56.36,0-35.1,6.56-56.55t20-31.37Q768.78,333.06,789,333q20.57,0,34,9.93t20.2,31.37Q850,395.8,850,430.89q0,34.74-6.74,56.36T823,518.63Q809.55,528.38,789,528.38Zm0-30.85q8.52,0,13.3-5.31t7.09-17.37q2.29-12.06,2.3-32.26v-23.4q0-20.55-2.3-32.62t-7.09-17.37q-4.78-5.31-13.3-5.31a17.26,17.26,0,0,0-12.94,5.31q-5.14,5.32-7.26,17.37t-2.13,32.62v23.4q0,20.21,2.13,32.26t7.26,17.37A17.26,17.26,0,0,0,789,497.53Z"/><path class="cls-2" d="M918.74,524.12l-56-243.19h20.56l37.58,170.16c.94,4,2,8.57,3,13.65s2,10.11,2.83,15.07,1.6,9.22,2.31,12.76h1.42q.7-4.6,2.12-11.7T935.4,466q1.41-7.78,2.84-14.89l37.57-170.16H996L940,524.12Z"/><path class="cls-2" d="M1021.54,296.18V267.82h18.08v28.36Zm0,227.94V337.65h18.08V524.12Z"/><path class="cls-2" d="M1098.46,524.12l-38.64-186.47h18.79l23.75,119.47a62.27,62.27,0,0,1,1.24,9q.54,6.21,1.6,13.47t1.77,13.65h1.78q.35-4.26.88-11.17c.36-4.61.83-9.15,1.42-13.65s1.12-8.26,1.59-11.34L1136,337.65h18.08l-37.93,186.47Z"/><path class="cls-2" d="M1220.77,528.38q-17.37,0-29.07-9.4t-17.55-30.84q-5.85-21.45-5.85-57.25,0-36.17,5.85-57.61t17.55-30.66q11.7-9.22,29.07-9.22,17,0,28.89,9.22t17.9,30.66q6,21.45,6,57.61,0,35.81-6,57.25T1249.66,519Q1237.78,528.37,1220.77,528.38Zm0-16.31q12,0,19.67-7.8t10.81-25.17q3.2-17.37,3.2-45V427.7q0-28-3.2-45.2t-10.81-25q-7.62-7.78-19.67-7.79-11.7,0-19.32,7.79t-11,25q-3.37,17.19-3.37,45.2v6.38q0,27.65,3.37,45t11,25.17Q1209.07,512.07,1220.77,512.07Z"/><path class="cls-2" d="M514.79,239.73c-82.48,0-124.4-7.32-164.94-14.41-41-7.17-79.81-13.94-159.61-13.94v-31c82.48,0,124.4,7.33,164.94,14.41C396.23,202,435,208.73,514.79,208.73s118.56-6.77,159.6-13.94c40.54-7.08,82.46-14.41,164.94-14.41v31c-79.79,0-118.56,6.77-159.6,13.94C639.19,232.41,597.27,239.73,514.79,239.73Z"/><rect class="cls-2" x="190.24" y="636.09" width="649.09" height="31"/></g></g></svg>