<svg xmlns="http://www.w3.org/2000/svg" viewBox="0 0 1784.14 853.48"><defs><style>.cls-1{fill:#e68dbb;}.cls-2{fill:#fdf1f7;}</style></defs><g id="Capa_2" data-name="Capa 2"><g id="Capa_2-2" data-name="Capa 2"><rect class="cls-1" width="1784.14" height="853.48"/><path class="cls-2" d="M394.89,528.38q-12.76,0-19.32-5.14t-9.22-14.54a79,79,0,0,1-2.65-21.45V368.14H349.51V337.3H364.4l6.74-54.24h29.42V337.3h20.57v30.84H400.56v113.8q0,7.8,1.78,11.52t7.09,3.72h11.7v25.88q-4.62,1.43-9.4,2.66c-3.19.82-6.15,1.47-8.86,1.95A46.84,46.84,0,0,1,394.89,528.38Z"/><path class="cls-2" d="M496.28,528.38q-22,0-35.28-9.75t-19.32-31.38q-6-21.62-6-56.36,0-36.17,6.38-57.61t20.21-30.84q13.81-9.39,35.8-9.4,19.84,0,32.62,8.16T549.81,369q6.38,19.67,6.38,54.41v15.25h-82.6a256.38,256.38,0,0,0,1.77,33.5q1.77,12.94,6.74,19.14t14.53,6.2a18.94,18.94,0,0,0,9.22-2.12,17.48,17.48,0,0,0,6.56-6.56A36.43,36.43,0,0,0,516.48,477a117.43,117.43,0,0,0,1.78-17.72h37.22a121.56,121.56,0,0,1-4.08,30.49q-3.72,13.11-11.16,21.62a46.08,46.08,0,0,1-18.61,12.76A70.78,70.78,0,0,1,496.28,528.38Zm-22.69-112h44q0-14.52-.89-24.28a72.63,72.63,0,0,0-3-16.13q-2.13-6.37-6-9.22t-10.28-2.83q-9.57,0-14.71,6.2t-7.09,17.73A175,175,0,0,0,473.59,416.35Z"/><path class="cls-2" d="M615.74,528.38A46.54,46.54,0,0,1,598,525.19a33,33,0,0,1-13.12-9.58,42.2,42.2,0,0,1-8-15.95,82.41,82.41,0,0,1-2.66-22,75.51,75.51,0,0,1,4.08-25.35,51.49,51.49,0,0,1,13.12-20.2q9-8.69,24.46-13.47t37.75-4.79V388.7a35.7,35.7,0,0,0-2.12-13.12,18.28,18.28,0,0,0-6.38-8.33,17.42,17.42,0,0,0-10.29-3q-8.16,0-12.4,3.72a18.1,18.1,0,0,0-5.68,9.75,62.87,62.87,0,0,0-1.41,14.18v2.48H581a12.18,12.18,0,0,1-.35-3V388q0-19.85,7.26-31.9a42.56,42.56,0,0,1,20-17.55q12.76-5.49,29.43-5.5Q653,333,665,338.18t18.79,17.91q6.72,12.77,6.73,36.16v93.23q0,5.67,2.13,8.69t6.73,3h8.87v25.17a62.87,62.87,0,0,1-12.06,4.08A58.45,58.45,0,0,1,682.74,528q-8.5,0-13.82-3.19a22.24,22.24,0,0,1-8.33-8.86,33.64,33.64,0,0,1-3.73-12.41h-1.77A56.71,56.71,0,0,1,646.23,516a39.88,39.88,0,0,1-12.76,9A42.88,42.88,0,0,1,615.74,528.38Zm14.18-31.2a14.9,14.9,0,0,0,8.69-2.84,30.91,30.91,0,0,0,7.62-8,39.73,39.73,0,0,0,5.49-12.76,67.88,67.88,0,0,0,1.95-16.84V436.91q-17.73,0-26.41,4.79t-11.87,12.59a45.39,45.39,0,0,0-3.19,17.37,42.53,42.53,0,0,0,1.95,13.82,17.9,17.9,0,0,0,5.85,8.69A15.71,15.71,0,0,0,629.92,497.18Z"/><path class="cls-2" d="M757.18,528.38q-12.75,0-19.32-5.14t-9.21-14.54A78.58,78.58,0,0,1,726,487.25V368.14H711.81V337.3H726.7l6.73-54.24h29.43V337.3h20.56v30.84H762.86v113.8c0,5.2.58,9,1.77,11.52s3.54,3.72,7.09,3.72h11.7v25.88q-4.62,1.43-9.4,2.66t-8.86,1.95A46.84,46.84,0,0,1,757.18,528.38Z"/><path class="cls-2" d="M803.27,524.12V337.3h30.84l2.48,25.17H838a54.92,54.92,0,0,1,7.27-16.31,32.92,32.92,0,0,1,10.1-9.75,23.28,23.28,0,0,1,12-3.37,32.41,32.41,0,0,1,4.79.36,20,20,0,0,1,4.78,1.42v39.7H863.89a18.33,18.33,0,0,0-10.1,2.84,23.45,23.45,0,0,0-7.63,8.51,47,47,0,0,0-4.78,14.88,130.25,130.25,0,0,0-1.6,22V524.12Z"/><path class="cls-2" d="M943.3,528.38q-20.2,0-33.68-9.75t-20-31.38Q883,465.64,883,430.89q0-35.1,6.56-56.55t20-31.37q13.47-9.92,33.68-9.93,20.55,0,34,9.93t20.21,31.37q6.74,21.46,6.73,56.55,0,34.74-6.73,56.36t-20.21,31.38Q963.86,528.38,943.3,528.38Zm0-30.85q8.51,0,13.29-5.31t7.09-17.37Q966,462.79,966,442.59v-23.4q0-20.55-2.31-32.62t-7.09-17.37q-4.79-5.31-13.29-5.31a17.24,17.24,0,0,0-12.94,5.31q-5.15,5.32-7.27,17.37T921,419.19v23.4q0,20.21,2.12,32.26t7.27,17.37A17.24,17.24,0,0,0,943.3,497.53Z"/><path class="cls-2" d="M1073.05,524.12l-56-243.19h20.57l37.57,170.16c.94,4,1.95,8.57,3,13.65s2,10.11,2.83,15.07,1.6,9.22,2.31,12.76h1.42q.7-4.6,2.12-11.7t2.84-14.89q1.41-7.78,2.83-14.89l37.58-170.16h20.21l-56,243.19Z"/><path class="cls-2" d="M1175.85,296.18V267.82h18.08v28.36Zm0,227.94V337.65h18.08V524.12Z"/><path class="cls-2" d="M1252.77,524.12l-38.64-186.47h18.79l23.75,119.47a63.72,63.72,0,0,1,1.24,9q.54,6.21,1.6,13.47c.71,4.85,1.29,9.4,1.77,13.65h1.77q.36-4.26.89-11.17c.35-4.61.82-9.15,1.42-13.65s1.12-8.26,1.59-11.34l23.4-119.47h18.08L1270.5,524.12Z"/><path class="cls-2" d="M1375.08,528.38q-17.38,0-29.07-9.4t-17.55-30.84q-5.85-21.45-5.85-57.25,0-36.17,5.85-57.61T1346,342.62q11.7-9.22,29.07-9.22,17,0,28.89,9.22t17.9,30.66q6,21.45,6,57.61,0,35.81-6,57.25T1404,519Q1392.09,528.37,1375.08,528.38Zm0-16.31q12,0,19.67-7.8t10.81-25.17q3.2-17.37,3.19-45V427.7q0-28-3.19-45.2t-10.81-25q-7.62-7.78-19.67-7.79-11.7,0-19.33,7.79t-11,25q-3.37,17.19-3.37,45.2v6.38q0,27.65,3.37,45t11,25.17Q1363.37,512.07,1375.08,512.07Z"/><path class="cls-2" d="M669.1,239.73c-82.48,0-124.4-7.32-164.94-14.41-41.05-7.17-79.81-13.94-159.61-13.94v-31c82.48,0,124.4,7.33,164.94,14.41,41,7.17,79.81,13.94,159.61,13.94S787.66,202,828.7,194.79c40.54-7.08,82.46-14.41,164.94-14.41v31c-79.79,0-118.56,6.77-159.6,13.94C793.5,232.41,751.58,239.73,669.1,239.73Z"/><rect class="cls-2" x="344.55" y="636.09" width="649.09" height="31"/></g></g></svg>