<svg xmlns="http://www.w3.org/2000/svg" viewBox="0 0 1435.36 486.71"><g id="Capa_2" data-name="Capa 2"><g id="Capa_2-2" data-name="Capa 2"><path d="M50.34,348Q37.57,348,31,342.85T21.8,328.32a79,79,0,0,1-2.66-21.45V187.76H5V156.92H19.85l6.74-54.24H56v54.24H76.57v30.84H56V301.55c0,5.21.59,9,1.77,11.52s3.55,3.73,7.09,3.73h11.7v25.88q-4.6,1.41-9.39,2.66c-3.19.82-6.15,1.47-8.86,1.94A45.84,45.84,0,0,1,50.34,348Z" transform="translate(0)"/><path d="M151.73,348q-22,0-35.28-9.75T97.13,306.87q-6-21.62-6-56.36,0-36.16,6.38-57.61t20.2-30.84q13.83-9.39,35.81-9.4,19.84,0,32.61,8.16t19.15,27.82q6.38,19.68,6.38,54.42V258.3H129q0,20.57,1.77,33.51T137.55,311q4.95,6.21,14.53,6.2A19.08,19.08,0,0,0,161.3,315a17.55,17.55,0,0,0,6.56-6.56,36.6,36.6,0,0,0,4.07-11.88,118.88,118.88,0,0,0,1.78-17.72h37.22a121.41,121.41,0,0,1-4.08,30.48q-3.72,13.13-11.17,21.63a46,46,0,0,1-18.61,12.76A70.68,70.68,0,0,1,151.73,348ZM129,236h44q0-14.53-.89-24.28a73.21,73.21,0,0,0-3-16.13c-1.42-4.26-3.43-7.32-6-9.22s-6-2.84-10.28-2.84q-9.57,0-14.71,6.21T131,207.43A175.23,175.23,0,0,0,129,236Z" transform="translate(0)"/><path d="M271.19,348a46.43,46.43,0,0,1-17.73-3.19,33,33,0,0,1-13.11-9.57,42.05,42.05,0,0,1-8-16,82.41,82.41,0,0,1-2.66-22A75.51,75.51,0,0,1,233.79,272a51.49,51.49,0,0,1,13.12-20.2q9-8.69,24.46-13.47t37.75-4.79V208.32A35.44,35.44,0,0,0,307,195.2a18.14,18.14,0,0,0-6.38-8.33,17.37,17.37,0,0,0-10.28-3q-8.16,0-12.41,3.72a18.05,18.05,0,0,0-5.67,9.75,62.83,62.83,0,0,0-1.42,14.18V214H236.45a12.17,12.17,0,0,1-.36-3v-3.37q0-19.85,7.27-31.91a42.48,42.48,0,0,1,20-17.54q12.76-5.49,29.42-5.5,15.6,0,27.65,5.14t18.79,17.9Q346,188.47,346,211.86V305.1c0,3.78.71,6.68,2.13,8.68s3.66,3,6.73,3h8.86V342a62.54,62.54,0,0,1-12,4.07,57.92,57.92,0,0,1-13.47,1.6q-8.51,0-13.83-3.19a22.38,22.38,0,0,1-8.33-8.86,33.63,33.63,0,0,1-3.72-12.41h-1.77a57,57,0,0,1-8.86,12.41,39.82,39.82,0,0,1-12.77,9A42.8,42.8,0,0,1,271.19,348Zm14.18-31.19a14.87,14.87,0,0,0,8.68-2.84,31.1,31.1,0,0,0,7.63-8,39.69,39.69,0,0,0,5.49-12.77,67.88,67.88,0,0,0,1.95-16.84V256.53q-17.73,0-26.41,4.79T270.83,273.9a45.62,45.62,0,0,0-3.19,17.37,42.83,42.83,0,0,0,1.95,13.83,18,18,0,0,0,5.85,8.68A15.76,15.76,0,0,0,285.37,316.8Z" transform="translate(0)"/><path d="M412.63,348q-12.76,0-19.32-5.14t-9.22-14.53a79,79,0,0,1-2.65-21.45V187.76H367.26V156.92h14.89l6.73-54.24H418.3v54.24h20.57v30.84H418.3V301.55c0,5.21.59,9,1.78,11.52s3.54,3.73,7.09,3.73h11.7v25.88q-4.62,1.41-9.4,2.66c-3.19.82-6.15,1.47-8.86,1.94A45.84,45.84,0,0,1,412.63,348Z" transform="translate(0)"/><path d="M458.72,343.74V156.92h30.84L492,182.09h1.42a55.06,55.06,0,0,1,7.26-16.31A32.94,32.94,0,0,1,510.83,156a23.28,23.28,0,0,1,12.05-3.37,31.11,31.11,0,0,1,4.79.36,20,20,0,0,1,4.78,1.42v39.7H519.34A18.36,18.36,0,0,0,509.23,197a23.56,23.56,0,0,0-7.62,8.5,46.87,46.87,0,0,0-4.78,14.89,130.17,130.17,0,0,0-1.6,22V343.74Z" transform="translate(0)"/><path d="M598.75,348q-20.21,0-33.68-9.75t-20-31.37q-6.56-21.62-6.56-56.36,0-35.1,6.56-56.55t20-31.37q13.47-9.93,33.68-9.93,20.55,0,34,9.93T653,194q6.72,21.45,6.73,56.55,0,34.74-6.73,56.36t-20.21,31.37Q619.31,348,598.75,348Zm0-30.84q8.5,0,13.29-5.32t7.09-17.37q2.31-12,2.31-32.26V238.81q0-20.56-2.31-32.62T612,188.82q-4.78-5.31-13.29-5.32a17.25,17.25,0,0,0-12.94,5.32q-5.14,5.33-7.27,17.37t-2.12,32.62V262.2q0,20.22,2.12,32.26t7.27,17.37A17.21,17.21,0,0,0,598.75,317.15Z" transform="translate(0)"/><path d="M690.92,343.74V100.55H748q23.4,0,37,6.91t19.5,19.86q5.84,12.94,5.84,30a81.58,81.58,0,0,1-4.25,27.3,57.71,57.71,0,0,1-11.34,19.85,46.31,46.31,0,0,1-16.31,11.7v1.42a50.76,50.76,0,0,1,18.61,9.57q8.32,6.73,13.29,18.61t5,31q0,22-6.56,36.87a45,45,0,0,1-21.63,22.51q-15.06,7.62-40.59,7.62Zm20.2-133.29H748q16.31,0,25.17-6.74A36.4,36.4,0,0,0,785.75,186a76,76,0,0,0,3.72-24.46q0-21.63-9.75-32.09T748.7,119H711.12Zm0,114.86H748q26.94,0,36.69-11.53t9.75-36q0-16.31-3.54-27.12a28.89,28.89,0,0,0-13.3-16.48q-9.75-5.67-27.47-5.67h-39Z" transform="translate(0)"/><path d="M890.5,348q-17.37,0-29.07-9.39t-17.55-30.84Q838,286.31,838,250.51q0-36.16,5.85-57.61t17.55-30.67Q873.13,153,890.5,153q17,0,28.89,9.21t17.9,30.67q6,21.45,6,57.61,0,35.81-6,57.25t-17.9,30.84Q907.51,348,890.5,348Zm0-16.3q12,0,19.67-7.8T921,298.72q3.19-17.37,3.19-45v-6.38q0-28-3.19-45.2t-10.81-25q-7.62-7.78-19.67-7.8-11.7,0-19.32,7.8t-11,25q-3.37,17.19-3.37,45.2v6.38q0,27.65,3.37,45t11,25.17Q878.8,331.69,890.5,331.69Z" transform="translate(0)"/><path d="M1007.13,348q-13.49,0-22.16-3.9a33.64,33.64,0,0,1-13.83-11,46.61,46.61,0,0,1-7.44-17.2,97.66,97.66,0,0,1-2.3-21.8,22.45,22.45,0,0,1,.35-4.08,21.22,21.22,0,0,0,.35-3.72h17.73a12.71,12.71,0,0,0-.71,4.08v4.07q0,12.42,3,20.74A27,27,0,0,0,991,328q5.85,4.44,15.06,4.44,10.63,0,17-4.61a25.69,25.69,0,0,0,9.22-13.12q2.84-8.51,2.83-20.92,0-12-4.43-19.32a35.28,35.28,0,0,0-11.52-11.69,115.34,115.34,0,0,0-15.24-8q-7.8-3.9-14.72-8.15a48.68,48.68,0,0,1-12.05-10.46A46.82,46.82,0,0,1,969,221.08q-3-8.85-3-21.62a58.62,58.62,0,0,1,3-19.32,42.22,42.22,0,0,1,8.68-14.89A34.7,34.7,0,0,1,991.53,156a52,52,0,0,1,18.08-3,57.15,57.15,0,0,1,18.79,2.83,30.86,30.86,0,0,1,13.29,8.69,37.45,37.45,0,0,1,7.62,14,66.2,66.2,0,0,1,2.48,19.14c0,1.66-.06,3.55-.17,5.68s-.3,4.37-.54,6.73h-17.37v-11.7q0-11.34-3-17.72a19.37,19.37,0,0,0-8.33-9.22,26,26,0,0,0-12.41-2.84q-7.8,0-12.76,2.66a21.2,21.2,0,0,0-7.8,6.92,26.44,26.44,0,0,0-3.9,9.92,65.38,65.38,0,0,0-1.06,12.06q0,11,3.9,17.72a32.07,32.07,0,0,0,10.46,11q6.56,4.26,14,8.15,7.08,3.19,14.18,7.27a64.26,64.26,0,0,1,13.29,10.28,47.28,47.28,0,0,1,10.11,15.78q3.88,9.57,3.9,24.1,0,13.83-3.37,23.93a42.65,42.65,0,0,1-9.57,16.49,41.45,41.45,0,0,1-14.89,9.75A53.19,53.19,0,0,1,1007.13,348Z" transform="translate(0)"/><path d="M1154.6,405.78v-83h-1.77a47.65,47.65,0,0,1-8,14.18,30.06,30.06,0,0,1-10.81,8.34,34,34,0,0,1-13.83,2.65q-15.24,0-25.35-9.57t-14.89-31q-4.79-21.43-4.78-56.89,0-37.23,5.14-58.5t15.07-30.13q9.91-8.87,24.46-8.86t23.75,8.86a39.53,39.53,0,0,1,11.7,20.56h1.77l2.13-25.17h13.47V405.78ZM1122,331.33a22.87,22.87,0,0,0,14-4.61q6.19-4.59,10.28-14.35t6.2-24.46A247.6,247.6,0,0,0,1154.6,253v-5.32q0-24.81-3.19-42.19t-9.93-26.76a21.48,21.48,0,0,0-18.43-9.4,20.7,20.7,0,0,0-17.2,8.51q-6.55,8.5-9.21,25.88t-2.66,44v5.67q0,27.66,3,44.85t9.22,25.17Q1112.4,331.33,1122,331.33Z" transform="translate(0)"/><path d="M1243.22,348q-15.6,0-25.35-9.75t-9.75-36v-145h18.08V298.72a87.84,87.84,0,0,0,.89,12.76,32.8,32.8,0,0,0,3.19,10.46,17.5,17.5,0,0,0,6.2,6.91q3.9,2.49,11,2.48,9.22,0,17-6.73t12.23-20.92q4.42-14.18,4.43-35.45v-111h18.08V343.74h-13.82l-1.78-25.17h-1.42a53.73,53.73,0,0,1-10.45,17.19,37.22,37.22,0,0,1-13.47,9.4A41.13,41.13,0,0,1,1243.22,348Z" transform="translate(0)"/><path d="M1385,348q-20.2,0-32.26-9.92t-17-31.55q-5-21.63-5-56,0-35.81,5.5-57.08t17.9-30.84q12.4-9.57,32.26-9.57,15.6,0,26.59,7.62t16.66,25.7q5.67,18.07,5.67,50.34v17.37h-85.79q0,26.59,2.84,43.78t10.45,25.7q7.62,8.52,21.45,8.51a28.49,28.49,0,0,0,12.59-2.83,27.11,27.11,0,0,0,10.1-8.69q4.26-5.85,6.91-15.6a98.71,98.71,0,0,0,3-23.22H1435a130.12,130.12,0,0,1-4.08,28.54A59.53,59.53,0,0,1,1421,331a42.36,42.36,0,0,1-15.6,12.76A47.21,47.21,0,0,1,1385,348Zm-35.45-108.83h67A263.85,263.85,0,0,0,1415,208a99.19,99.19,0,0,0-4.79-21.8q-3.2-8.68-9.39-12.94T1385.38,169q-14.55,0-22.16,9.22t-10.81,25A167.28,167.28,0,0,0,1349.57,239.16Z" transform="translate(0)"/><path d="M324.55,59.35c-82.48,0-124.4-7.33-164.94-14.41C118.56,37.77,79.79,31,0,31V0C82.48,0,124.4,7.32,164.94,14.4c41,7.17,79.81,14,159.61,14S443.1,21.57,484.15,14.4C524.69,7.32,566.61,0,649.09,0V31c-79.79,0-118.56,6.77-159.61,13.94C448.94,52,407,59.35,324.55,59.35Z" transform="translate(0)"/><rect y="455.71" width="649.09" height="31"/></g></g></svg>