<svg xmlns="http://www.w3.org/2000/svg" viewBox="0 0 2239.62 853.48"><defs><style>.cls-1{fill:#e72858;}.cls-2{fill:#f1d3db;}</style></defs><g id="Capa_2" data-name="Capa 2"><g id="Capa_2-2" data-name="Capa 2"><rect class="cls-1" width="2239.62" height="853.48"/><path class="cls-2" d="M229,523.78a42.84,42.84,0,0,1-17-3.19,33,33,0,0,1-12.58-9.39,42.09,42.09,0,0,1-7.8-15.43,78.42,78.42,0,0,1-2.66-21.62,79.32,79.32,0,0,1,3.37-23.4,45.74,45.74,0,0,1,12.05-19.49q8.68-8.52,24.46-13.65t40.59-5.14v-33q0-11.7-2.48-19.5t-8.51-11.52q-6-3.72-16.3-3.72-12.76,0-19,5.85A28,28,0,0,0,215,365.67,99,99,0,0,0,213,386.23v2.49H195.66a17.89,17.89,0,0,1-.36-3.55v-4.25q0-20.57,6.91-31.73t17.73-15.78a59.55,59.55,0,0,1,23.57-4.61q13.11,0,22.87,4.43T281.8,348.3q5.67,10.63,5.67,29.78V494.36q0,6.74,2.31,9.57a6.87,6.87,0,0,0,5.49,2.84h12.05v11.69c-2.6.95-5.49,1.95-8.68,3a31.84,31.84,0,0,1-10.1,1.59q-7.1,0-11.17-3.72a18.67,18.67,0,0,1-5.5-9.93,61.55,61.55,0,0,1-1.41-13.65h-2.13a68.87,68.87,0,0,1-9.22,14.54,37.31,37.31,0,0,1-12.76,9.93A40.05,40.05,0,0,1,229,523.78Zm3.9-16.31a28.26,28.26,0,0,0,12.05-3,36.19,36.19,0,0,0,11.88-9.39q5.49-6.39,9-17t3.54-25.17V427.36q-25.17.34-38.46,6.38t-18.08,16.13a52.74,52.74,0,0,0-4.79,22.86q0,11.36,2.84,19.32t8.33,11.7Q224.72,507.47,232.88,507.47Z"/><path class="cls-2" d="M383.54,523.78q-22,0-35.27-9.75T329,482.66q-6-21.62-6-56.37,0-36.15,6.38-57.61t20.21-30.84q13.83-9.39,35.8-9.39,19.86,0,32.62,8.15t19.14,27.83q6.38,19.68,6.38,54.42v15.24h-82.6a256.27,256.27,0,0,0,1.77,33.5q1.77,12.95,6.74,19.14t14.53,6.21a18.94,18.94,0,0,0,9.22-2.13,17.41,17.41,0,0,0,6.56-6.56,36.68,36.68,0,0,0,4.08-11.87,119.15,119.15,0,0,0,1.77-17.73h37.22a121.52,121.52,0,0,1-4.07,30.49q-3.74,13.13-11.17,21.63a46.11,46.11,0,0,1-18.61,12.76A71,71,0,0,1,383.54,523.78Zm-22.69-112h44q0-14.53-.89-24.29a72.86,72.86,0,0,0-3-16.13q-2.13-6.37-6-9.21t-10.28-2.84q-9.57,0-14.71,6.2t-7.09,17.73A175.06,175.06,0,0,0,360.85,411.76Z"/><path class="cls-2" d="M512.22,523.78q-16.31,0-26.59-3.9T469.5,508.71a43.92,43.92,0,0,1-8.33-17.19,89.17,89.17,0,0,1-2.48-21.62q0-1.77.18-4.26c.11-1.65.29-3.3.53-5h33.32a31.12,31.12,0,0,0-.35,4.43v4.08a41.94,41.94,0,0,0,1.95,13.29,19.11,19.11,0,0,0,6.2,9.22q4.26,3.38,11,3.37,7.44,0,11.7-2.84a16,16,0,0,0,6.2-8.51,44.14,44.14,0,0,0,2-14.18q0-9.21-4.25-14.71a35.35,35.35,0,0,0-10.46-9q-6.21-3.54-13.65-7.09-7.1-3.19-14.53-7.44A60.84,60.84,0,0,1,475,420.8,46.39,46.39,0,0,1,465.25,405q-3.72-9.57-3.72-24.1,0-13.47,3.9-23.22a42.19,42.19,0,0,1,11.34-16.31,48.9,48.9,0,0,1,17-9.75,64.51,64.51,0,0,1,20.56-3.19,67.39,67.39,0,0,1,20.91,3,40.86,40.86,0,0,1,15.6,9A39.87,39.87,0,0,1,560.61,355,52.76,52.76,0,0,1,564,374.53q0,2.85-.18,6.21c-.12,2.25-.3,4.31-.53,6.2H530.66v-8.86c0-5-.78-9-2.31-12.05a15.38,15.38,0,0,0-6-6.74,17.91,17.91,0,0,0-9-2.13,18.58,18.58,0,0,0-7.26,1.42,13.91,13.91,0,0,0-5.68,4.43,17.69,17.69,0,0,0-3.19,6.74,37.85,37.85,0,0,0-.88,8.68q0,8.16,4.07,13.48a29.2,29.2,0,0,0,10.64,8.5q6.56,3.19,14,6.38a161.55,161.55,0,0,1,15.07,7.45,66.47,66.47,0,0,1,14,10.46,44.34,44.34,0,0,1,10.11,15.42q3.72,9.22,3.72,23.75,0,15.94-3.9,27.12a45.47,45.47,0,0,1-29.07,29.25A69.36,69.36,0,0,1,512.22,523.78Z"/><path class="cls-2" d="M643.74,523.78q-21.63,0-34.39-10.46t-18.43-32.08q-5.67-21.62-5.67-54.95,0-35.1,6.38-56.72t19.5-31.37q13.11-9.75,33.67-9.75,15.24,0,25.88,4.43a38.51,38.51,0,0,1,17,13.47q6.38,9,9.39,23.58t3,34.74H663.59A176.42,176.42,0,0,0,662,378.26q-1.61-10.11-5.32-14.54t-11.88-4.43a16.27,16.27,0,0,0-11.69,4.79q-5,4.79-7.45,16.66t-2.48,33.85V438.7a225.63,225.63,0,0,0,1.42,26.06q1.41,12.23,6,20.2t13.48,8q7.78,0,12-4.08t6.2-14q1.95-9.92,1.95-27.3h35.81a147,147,0,0,1-3,31.2,74.07,74.07,0,0,1-9.39,23.93,43.07,43.07,0,0,1-17.19,15.6Q659.68,523.78,643.74,523.78Z"/><path class="cls-2" d="M779.87,523.78q-22,0-35.27-9.75t-19.32-31.37q-6-21.62-6-56.37,0-36.15,6.38-57.61t20.21-30.84q13.81-9.39,35.8-9.39,19.85,0,32.62,8.15t19.14,27.83q6.38,19.68,6.38,54.42v15.24h-82.6a256.27,256.27,0,0,0,1.77,33.5q1.77,12.95,6.74,19.14t14.53,6.21a18.94,18.94,0,0,0,9.22-2.13,17.41,17.41,0,0,0,6.56-6.56,36.68,36.68,0,0,0,4.08-11.87,119.15,119.15,0,0,0,1.77-17.73h37.22A121,121,0,0,1,835,485.14q-3.72,13.13-11.16,21.63a46.11,46.11,0,0,1-18.61,12.76A71,71,0,0,1,779.87,523.78Zm-22.69-112h44q0-14.53-.89-24.29a72.86,72.86,0,0,0-3-16.13q-2.13-6.37-6-9.21t-10.28-2.84q-9.57,0-14.71,6.2t-7.09,17.73A175.06,175.06,0,0,0,757.18,411.76Z"/><path class="cls-2" d="M864.24,519.53V332.7h31.55l2.48,23.05h1.42a49.62,49.62,0,0,1,9.57-15.6,35.14,35.14,0,0,1,12.94-8.86A43,43,0,0,1,938,328.45q13.11,0,21.27,5T971.3,349q3.88,10.64,3.9,26.94V519.53H938V386.23a54.17,54.17,0,0,0-.71-8.86,30.75,30.75,0,0,0-2.12-7.44,9.73,9.73,0,0,0-4.44-4.79A17.49,17.49,0,0,0,911,368.68q-5,5.15-7.62,15.43t-2.66,26.23V519.53Z"/><path class="cls-2" d="M1038.65,523.78a46.43,46.43,0,0,1-17.73-3.19,33.14,33.14,0,0,1-13.11-9.57,42.05,42.05,0,0,1-8-15.95,82.51,82.51,0,0,1-2.66-22,75.47,75.47,0,0,1,4.08-25.35,51.53,51.53,0,0,1,13.12-20.21q9-8.68,24.46-13.47t37.75-4.78V384.11a35.41,35.41,0,0,0-2.13-13.12,18.09,18.09,0,0,0-6.38-8.33,17.3,17.3,0,0,0-10.28-3q-8.16,0-12.4,3.72a18.06,18.06,0,0,0-5.68,9.75,62.81,62.81,0,0,0-1.41,14.18v2.48h-34.39a12.17,12.17,0,0,1-.36-3V383.4q0-19.86,7.27-31.91a42.56,42.56,0,0,1,20-17.55q12.76-5.49,29.42-5.49,15.6,0,27.66,5.14t18.78,17.9q6.74,12.76,6.74,36.16v93.24c0,3.78.71,6.68,2.13,8.68s3.66,3,6.73,3h8.87v25.17a62.19,62.19,0,0,1-12.06,4.08,58.46,58.46,0,0,1-13.47,1.6q-8.51,0-13.82-3.19a22.29,22.29,0,0,1-8.34-8.87,33.52,33.52,0,0,1-3.72-12.4H1078a56.74,56.74,0,0,1-8.86,12.4,39.51,39.51,0,0,1-12.77,9A42.64,42.64,0,0,1,1038.65,523.78Zm14.18-31.2a15,15,0,0,0,8.69-2.83,31.13,31.13,0,0,0,7.62-8,39.54,39.54,0,0,0,5.49-12.76,67.88,67.88,0,0,0,1.95-16.84V432.32q-17.73,0-26.41,4.78t-11.87,12.59a45.43,45.43,0,0,0-3.19,17.37,42.85,42.85,0,0,0,1.94,13.83,18,18,0,0,0,5.85,8.68A15.76,15.76,0,0,0,1052.83,492.58Z"/><path class="cls-2" d="M1157.41,519.53V276.34h31.19l42.54,173c.47,2.12,1.07,5,1.77,8.5s1.36,7.15,2,10.82,1.24,7.15,1.94,10.45h1.07q1.06-4.61,2.13-10.1t2.12-10.81c.71-3.55,1.3-6.38,1.78-8.51l42.18-173.35h31.2V519.53h-20.21V356.46q0-3.9.18-12.23t.17-17.91V308.6H1296c-.48,2.83-1,6-1.6,9.39s-1.24,6.74-2,9.93a43.15,43.15,0,0,1-2.13,7.26l-46.08,184.35h-14.54l-45.73-184q-.71-2.48-2-7.44T1179.92,318c-.6-3.42-1.24-6.56-2-9.39h-1.42v17.72q0,9.93.18,18.08t.17,12.06V519.53Z"/><path class="cls-2" d="M1404.14,523.78q-17.37,0-29.07-9.39t-17.55-30.85q-5.85-21.43-5.85-57.25,0-36.15,5.85-57.61T1375.07,338q11.7-9.21,29.07-9.22,17,0,28.89,9.22t17.9,30.66q6,21.46,6,57.61,0,35.82-6,57.25T1433,514.39Q1421.15,523.78,1404.14,523.78Zm0-16.31q12,0,19.67-7.8t10.82-25.17q3.18-17.36,3.19-45V423.1q0-28-3.19-45.2t-10.82-25q-7.62-7.8-19.67-7.8-11.7,0-19.32,7.8t-11,25q-3.37,17.21-3.37,45.2v6.38q0,27.66,3.37,45t11,25.17Q1392.44,507.49,1404.14,507.47ZM1395.63,310l20.92-46.8h18.08v1.42L1409.81,310Z"/><path class="cls-2" d="M1520.77,523.78q-13.49,0-22.16-3.9a33.65,33.65,0,0,1-13.82-11,46.57,46.57,0,0,1-7.45-17.19,97.72,97.72,0,0,1-2.3-21.8,22.45,22.45,0,0,1,.35-4.08,21.44,21.44,0,0,0,.36-3.72h17.72a12.7,12.7,0,0,0-.71,4.07v4.08q0,12.42,3,20.74a26.89,26.89,0,0,0,8.86,12.76q5.85,4.44,15.06,4.43,10.63,0,17-4.61a25.62,25.62,0,0,0,9.22-13.11q2.83-8.5,2.83-20.92,0-12-4.43-19.32a35.31,35.31,0,0,0-11.52-11.7,116.51,116.51,0,0,0-15.24-8q-7.8-3.9-14.71-8.16a48.52,48.52,0,0,1-12.06-10.46,46.76,46.76,0,0,1-8.15-15.06q-3-8.87-3-21.63a58.67,58.67,0,0,1,3-19.32,42.31,42.31,0,0,1,8.68-14.89,34.78,34.78,0,0,1,13.83-9.21,51.76,51.76,0,0,1,18.08-3,57.14,57.14,0,0,1,18.79,2.84,30.77,30.77,0,0,1,13.29,8.69,37.24,37.24,0,0,1,7.62,14,66.18,66.18,0,0,1,2.49,19.14c0,1.66-.07,3.55-.18,5.67s-.3,4.38-.53,6.74h-17.37v-11.7q0-11.34-3-17.72a19.32,19.32,0,0,0-8.33-9.22,26,26,0,0,0-12.41-2.84q-7.8,0-12.76,2.66A21.17,21.17,0,0,0,1503,354a26.56,26.56,0,0,0-3.9,9.93,65.27,65.27,0,0,0-1.06,12.05q0,11,3.9,17.73a32.07,32.07,0,0,0,10.46,11q6.55,4.24,14,8.15,7.08,3.19,14.18,7.27a63.74,63.74,0,0,1,13.29,10.28A47.23,47.23,0,0,1,1564,446.14q3.9,9.58,3.9,24.11,0,13.83-3.37,23.93a42.54,42.54,0,0,1-9.57,16.48,41.19,41.19,0,0,1-14.89,9.75A53,53,0,0,1,1520.77,523.78Z"/><path class="cls-2" d="M1617.19,523.43q-11,0-16-5t-6-14.35a188.81,188.81,0,0,1-1.06-21.1V349.36h-12.06v-16.3h12.06L1597,281h15.25v52.11h20.56v16.3h-20.56V491.17c0,5.91.58,10.1,1.77,12.58s3.42,3.72,6.74,3.72h12v11.7a53.36,53.36,0,0,1-5,2.13,33.77,33.77,0,0,1-5.68,1.59A26.93,26.93,0,0,1,1617.19,523.43Z"/><path class="cls-2" d="M1701.91,523.78q-17.37,0-29.06-9.39t-17.55-30.85q-5.85-21.43-5.85-57.25,0-36.15,5.85-57.61T1672.85,338q11.7-9.21,29.06-9.22,17,0,28.9,9.22t17.9,30.66q6,21.46,6,57.61,0,35.82-6,57.25t-17.9,30.85Q1718.93,523.78,1701.91,523.78Zm0-16.31q12.06,0,19.68-7.8t10.81-25.17q3.19-17.36,3.19-45V423.1q0-28-3.19-45.2t-10.81-25q-7.63-7.8-19.68-7.8-11.69,0-19.32,7.8t-11,25q-3.37,17.21-3.37,45.2v6.38q0,27.66,3.37,45t11,25.17Q1690.21,507.49,1701.91,507.47Z"/><path class="cls-2" d="M1785.93,519.53V263.22H1804V519.53Z"/><path class="cls-2" d="M1890.15,523.78q-20.2,0-32.26-9.93t-17-31.55q-5-21.62-5-56,0-35.81,5.5-57.07t17.9-30.84q12.4-9.58,32.26-9.58,15.59,0,26.59,7.63t16.66,25.7q5.65,18.08,5.67,50.34v17.37H1854.7q0,26.58,2.84,43.78t10.45,25.7q7.62,8.51,21.45,8.51A28.37,28.37,0,0,0,1902,505a27.16,27.16,0,0,0,10.1-8.68q4.24-5.85,6.91-15.6a98.82,98.82,0,0,0,3-23.22h18.08a129.65,129.65,0,0,1-4.07,28.54,59.62,59.62,0,0,1-9.93,20.74,42.36,42.36,0,0,1-15.6,12.76A47.36,47.36,0,0,1,1890.15,523.78ZM1854.7,415h67a263.73,263.73,0,0,0-1.59-31.2,99.06,99.06,0,0,0-4.79-21.8q-3.19-8.68-9.4-12.94t-15.42-4.25q-14.54,0-22.15,9.21t-10.81,25A167.23,167.23,0,0,0,1854.7,415Z"/><path class="cls-2" d="M2004.65,523.78q-13.49,0-22.16-3.9a33.65,33.65,0,0,1-13.82-11,46.57,46.57,0,0,1-7.45-17.19,97.72,97.72,0,0,1-2.3-21.8,22.45,22.45,0,0,1,.35-4.08,21.44,21.44,0,0,0,.36-3.72h17.72a13,13,0,0,0-.71,4.07v4.08q0,12.42,3,20.74a26.89,26.89,0,0,0,8.86,12.76q5.85,4.44,15.07,4.43,10.64,0,17-4.61a25.56,25.56,0,0,0,9.22-13.11q2.84-8.5,2.84-20.92,0-12-4.44-19.32a35.22,35.22,0,0,0-11.52-11.7,116.51,116.51,0,0,0-15.24-8q-7.8-3.9-14.71-8.16a48.52,48.52,0,0,1-12.06-10.46,46.76,46.76,0,0,1-8.15-15.06q-3-8.87-3-21.63a58.67,58.67,0,0,1,3-19.32,42.18,42.18,0,0,1,8.69-14.89,34.68,34.68,0,0,1,13.82-9.21,51.8,51.8,0,0,1,18.08-3,57.14,57.14,0,0,1,18.79,2.84,30.77,30.77,0,0,1,13.29,8.69,37.24,37.24,0,0,1,7.62,14,65.84,65.84,0,0,1,2.49,19.14q0,2.49-.18,5.67t-.53,6.74h-17.37v-11.7q0-11.34-3-17.72a19.32,19.32,0,0,0-8.33-9.22,26,26,0,0,0-12.4-2.84q-7.82,0-12.77,2.66a21.17,21.17,0,0,0-7.8,6.91,26.56,26.56,0,0,0-3.9,9.93A66.14,66.14,0,0,0,1982,376q0,11,3.9,17.73a32.07,32.07,0,0,0,10.46,11q6.56,4.24,14,8.15,7.1,3.19,14.18,7.27a63.74,63.74,0,0,1,13.29,10.28,47.23,47.23,0,0,1,10.11,15.77q3.9,9.58,3.9,24.11,0,13.83-3.37,23.93a42.54,42.54,0,0,1-9.57,16.48,41.19,41.19,0,0,1-14.89,9.75A52.94,52.94,0,0,1,2004.65,523.78Z"/><rect class="cls-2" x="322.92" y="631.56" width="804.45" height="30.88"/><rect class="cls-2" x="322.92" y="190.02" width="804.45" height="30.88"/></g></g></svg>