<svg xmlns="http://www.w3.org/2000/svg" viewBox="0 0 1862.88 472.42"><g id="Capa_2" data-name="Capa 2"><g id="Capa_2-2" data-name="Capa 2"><path d="M52.11,333.76a42.75,42.75,0,0,1-17-3.19,33,33,0,0,1-12.59-9.39,42.09,42.09,0,0,1-7.8-15.43,78.42,78.42,0,0,1-2.66-21.62,79.32,79.32,0,0,1,3.37-23.4,45.74,45.74,0,0,1,12-19.49q8.69-8.52,24.46-13.65t40.6-5.14v-33q0-11.7-2.49-19.5t-8.5-11.52q-6-3.72-16.31-3.72-12.77,0-19,5.85a28.08,28.08,0,0,0-8.15,15.06,99.66,99.66,0,0,0-2,20.56v2.49H18.79a17.89,17.89,0,0,1-.36-3.55V190.9q0-20.57,6.92-31.73t17.72-15.78a59.57,59.57,0,0,1,23.58-4.61q13.11,0,22.86,4.44t15.42,15.06q5.67,10.64,5.68,29.78V304.34c0,4.49.76,7.68,2.3,9.57a6.89,6.89,0,0,0,5.49,2.84h12.06v11.69c-2.61.95-5.5,1.95-8.69,3a31.84,31.84,0,0,1-10.1,1.59q-7.1,0-11.17-3.72A18.59,18.59,0,0,1,95,319.4a60.94,60.94,0,0,1-1.42-13.65H91.46a69.25,69.25,0,0,1-9.21,14.54,37.35,37.35,0,0,1-12.77,9.93A40,40,0,0,1,52.11,333.76ZM56,317.45a28.26,28.26,0,0,0,12.05-3,36.19,36.19,0,0,0,11.88-9.39q5.49-6.39,9-17t3.55-25.17V237.34q-25.18.36-38.47,6.38T36,259.85a52.73,52.73,0,0,0-4.78,22.86Q31.2,294.06,34,302t8.33,11.7Q47.85,317.45,56,317.45Z" transform="translate(-12.05)"/><path d="M206.67,333.76q-22,0-35.27-9.75t-19.32-31.37q-6-21.61-6-56.37,0-36.15,6.38-57.61t20.21-30.84q13.83-9.37,35.81-9.39,19.85,0,32.61,8.15t19.14,27.83q6.39,19.68,6.38,54.42v15.24H184q0,20.57,1.77,33.5t6.73,19.15q5,6.19,14.54,6.2a19,19,0,0,0,9.22-2.13,17.45,17.45,0,0,0,6.55-6.56,36.44,36.44,0,0,0,4.08-11.87,119,119,0,0,0,1.77-17.73h37.23a121.43,121.43,0,0,1-4.08,30.49q-3.72,13.13-11.17,21.63A46.11,46.11,0,0,1,232,329.51,71,71,0,0,1,206.67,333.76ZM184,221.74h43.95q0-14.53-.88-24.29a73.17,73.17,0,0,0-3-16.12q-2.11-6.39-6-9.22t-10.28-2.84q-9.57,0-14.72,6.21t-7.09,17.72A175.19,175.19,0,0,0,184,221.74Z" transform="translate(-12.05)"/><path d="M335.35,333.76q-16.31,0-26.58-3.9t-16.13-11.17a44.08,44.08,0,0,1-8.34-17.19,89.17,89.17,0,0,1-2.48-21.62q0-1.77.18-4.26c.12-1.65.29-3.3.53-5h33.33a31.26,31.26,0,0,0-.36,4.43v4.08a41.94,41.94,0,0,0,1.95,13.29,19.12,19.12,0,0,0,6.21,9.22q4.24,3.38,11,3.37,7.46,0,11.7-2.84a16.06,16.06,0,0,0,6.21-8.51,44.42,44.42,0,0,0,1.95-14.18q0-9.21-4.26-14.71a35.19,35.19,0,0,0-10.45-9q-6.21-3.54-13.65-7.09-7.09-3.19-14.54-7.44a61.07,61.07,0,0,1-13.47-10.46A46.39,46.39,0,0,1,288.38,215q-3.72-9.57-3.72-24.1,0-13.47,3.9-23.22a42.37,42.37,0,0,1,11.34-16.31,49,49,0,0,1,17-9.75,64.51,64.51,0,0,1,20.56-3.19,67.5,67.5,0,0,1,20.92,3,40.9,40.9,0,0,1,15.59,9A39.87,39.87,0,0,1,383.74,165a52.55,52.55,0,0,1,3.37,19.49q0,2.85-.18,6.21c-.12,2.25-.3,4.31-.53,6.2H353.79v-8.86q0-7.44-2.31-12.05a15.42,15.42,0,0,0-6-6.74,17.94,17.94,0,0,0-9-2.12,18.58,18.58,0,0,0-7.27,1.41,13.82,13.82,0,0,0-5.67,4.43,17.54,17.54,0,0,0-3.19,6.74,37.26,37.26,0,0,0-.89,8.68q0,8.16,4.08,13.48a29.17,29.17,0,0,0,10.63,8.5q6.56,3.2,14,6.38a161.41,161.41,0,0,1,15.06,7.45,66.82,66.82,0,0,1,14,10.46,44.29,44.29,0,0,1,10.11,15.42q3.72,9.22,3.72,23.75,0,16-3.9,27.12A45.42,45.42,0,0,1,358,330.22,69.36,69.36,0,0,1,335.35,333.76Z" transform="translate(-12.05)"/><path d="M466.87,333.76q-21.62,0-34.38-10.46t-18.44-32.08q-5.67-21.62-5.67-55,0-35.09,6.38-56.72t19.5-31.37q13.11-9.75,33.68-9.75,15.24,0,25.88,4.43a38.48,38.48,0,0,1,17,13.47q6.39,9,9.4,23.58t3,34.74H486.73a176.23,176.23,0,0,0-1.6-26.41q-1.59-10.11-5.32-14.54t-11.87-4.43a16.31,16.31,0,0,0-11.7,4.79q-5,4.78-7.45,16.66t-2.48,33.85v24.11a225.63,225.63,0,0,0,1.42,26.06q1.41,12.22,6,20.2t13.47,8c5.19,0,9.22-1.36,12-4.08s4.9-7.38,6.21-14,1.95-15.71,1.95-27.3h35.8a147.65,147.65,0,0,1-3,31.2,73.85,73.85,0,0,1-9.4,23.93,43,43,0,0,1-17.19,15.6Q482.83,333.76,466.87,333.76Z" transform="translate(-12.05)"/><path d="M603,333.76q-22,0-35.27-9.75t-19.32-31.37q-6-21.61-6-56.37,0-36.15,6.38-57.61T569,147.82q13.83-9.37,35.8-9.39,19.86,0,32.62,8.15t19.14,27.83q6.39,19.68,6.38,54.42v15.24h-82.6a254.27,254.27,0,0,0,1.78,33.5q1.77,12.94,6.73,19.15t14.54,6.2a18.93,18.93,0,0,0,9.21-2.13,17.41,17.41,0,0,0,6.56-6.56,36.68,36.68,0,0,0,4.08-11.87A119,119,0,0,0,625,264.63H662.2a121,121,0,0,1-4.07,30.49q-3.72,13.13-11.17,21.63a46.11,46.11,0,0,1-18.61,12.76A71,71,0,0,1,603,333.76Zm-22.69-112h44q0-14.53-.88-24.29a73.17,73.17,0,0,0-3-16.12c-1.41-4.26-3.43-7.33-6-9.22s-6-2.84-10.28-2.84q-9.59,0-14.72,6.21t-7.09,17.72A175.06,175.06,0,0,0,580.31,221.74Z" transform="translate(-12.05)"/><path d="M687.37,329.51V142.68h31.55l2.48,23h1.42a50,50,0,0,1,9.57-15.6,35.14,35.14,0,0,1,12.94-8.86,43,43,0,0,1,15.78-2.84q13.11,0,21.27,5t12,15.6q3.9,10.63,3.9,26.94V329.51H761.11V196.21a54.26,54.26,0,0,0-.71-8.86,31.2,31.2,0,0,0-2.13-7.44,9.76,9.76,0,0,0-4.43-4.79,17.51,17.51,0,0,0-19.68,3.54q-5,5.15-7.62,15.43t-2.66,26.23V329.51Z" transform="translate(-12.05)"/><path d="M861.78,333.76a46.35,46.35,0,0,1-17.72-3.19A33.24,33.24,0,0,1,830.94,321a42.34,42.34,0,0,1-8-15.95,82.53,82.53,0,0,1-2.65-22,75.47,75.47,0,0,1,4.07-25.35,51.64,51.64,0,0,1,13.12-20.21q9-8.67,24.46-13.47t37.75-4.78V194.09A35.42,35.42,0,0,0,897.59,181a18.22,18.22,0,0,0-6.38-8.33,17.34,17.34,0,0,0-10.28-3q-8.16,0-12.41,3.72a18,18,0,0,0-5.67,9.75,62.2,62.2,0,0,0-1.42,14.18v2.48H827a12.18,12.18,0,0,1-.35-3v-3.37q0-19.84,7.26-31.91a42.65,42.65,0,0,1,20-17.55q12.76-5.49,29.43-5.49,15.58,0,27.65,5.14t18.79,17.9q6.72,12.76,6.73,36.16v93.24c0,3.78.71,6.68,2.13,8.68s3.66,3,6.74,3h8.86v25.17a62.88,62.88,0,0,1-12.06,4.07,57.92,57.92,0,0,1-13.47,1.6q-8.5,0-13.82-3.19a22.2,22.2,0,0,1-8.33-8.87,33.52,33.52,0,0,1-3.72-12.4h-1.78a56.08,56.08,0,0,1-8.86,12.4,39.47,39.47,0,0,1-12.76,9A42.72,42.72,0,0,1,861.78,333.76ZM876,302.57a15,15,0,0,0,8.69-2.84,31,31,0,0,0,7.62-8A39.54,39.54,0,0,0,897.76,279a67.88,67.88,0,0,0,2-16.84V242.3q-17.73,0-26.41,4.78t-11.87,12.59A45.43,45.43,0,0,0,858.24,277a42.83,42.83,0,0,0,2,13.83,17.82,17.82,0,0,0,5.85,8.68A15.71,15.71,0,0,0,876,302.57Z" transform="translate(-12.05)"/><path d="M980.54,329.51V86.32h31.2l42.54,173c.47,2.12,1.06,5,1.77,8.5s1.36,7.16,2,10.82,1.24,7.15,2,10.45H1061q1.07-4.6,2.13-10.1t2.13-10.81c.7-3.55,1.29-6.38,1.77-8.51l42.18-173.35h31.2V329.51h-20.21V166.44q0-3.9.18-12.23t.18-17.91V118.58h-1.42c-.48,2.83-1,6-1.6,9.39s-1.24,6.74-2,9.93a42.37,42.37,0,0,1-2.12,7.26l-46.09,184.35h-14.53l-45.73-184q-.72-2.47-2-7.44T1003.05,128c-.59-3.42-1.24-6.56-1.95-9.39h-1.42V136.3q0,9.93.18,18.08t.18,12.06V329.51Z" transform="translate(-12.05)"/><path d="M1227.27,333.76q-17.37,0-29.07-9.39t-17.55-30.85q-5.85-21.43-5.85-57.25,0-36.15,5.85-57.61T1198.2,148q11.7-9.21,29.07-9.22,17,0,28.89,9.22t17.91,30.66q6,21.47,6,57.61,0,35.82-6,57.25t-17.91,30.85Q1244.28,333.76,1227.27,333.76Zm0-16.31q12,0,19.68-7.79t10.81-25.17q3.2-17.37,3.19-45v-6.38q0-28-3.19-45.2t-10.81-25q-7.64-7.8-19.68-7.8-11.7,0-19.32,7.8t-11,25q-3.37,17.2-3.37,45.2v6.38q0,27.66,3.37,45t11,25.17Q1215.57,317.46,1227.27,317.45ZM1218.76,120l20.92-46.8h18.08v1.42L1232.94,120Z" transform="translate(-12.05)"/><path d="M1343.9,333.76q-13.47,0-22.15-3.9a33.61,33.61,0,0,1-13.83-11,46.57,46.57,0,0,1-7.45-17.19,97.72,97.72,0,0,1-2.3-21.8,23.38,23.38,0,0,1,.35-4.08,20.51,20.51,0,0,0,.36-3.72h17.72a13,13,0,0,0-.7,4.08v4.07q0,12.42,3,20.74a26.89,26.89,0,0,0,8.86,12.76q5.85,4.44,15.07,4.43,10.64,0,17-4.61a25.51,25.51,0,0,0,9.22-13.11q2.84-8.51,2.84-20.92,0-12-4.43-19.32A35.34,35.34,0,0,0,1356,248.5a116.51,116.51,0,0,0-15.24-8q-7.8-3.9-14.71-8.16a48.3,48.3,0,0,1-12-10.46,47,47,0,0,1-8.16-15.06q-3-8.86-3-21.63a58.67,58.67,0,0,1,3-19.32,42.33,42.33,0,0,1,8.69-14.89,34.68,34.68,0,0,1,13.82-9.21,51.8,51.8,0,0,1,18.08-3,57.14,57.14,0,0,1,18.79,2.84,30.65,30.65,0,0,1,13.29,8.69,37.39,37.39,0,0,1,7.63,14,66.2,66.2,0,0,1,2.48,19.14q0,2.49-.18,5.67t-.53,6.74h-17.37v-11.7q0-11.34-3-17.72a19.39,19.39,0,0,0-8.34-9.22,26,26,0,0,0-12.4-2.84q-7.8,0-12.77,2.66a21.06,21.06,0,0,0-7.79,6.91,26.39,26.39,0,0,0-3.9,9.93,65.25,65.25,0,0,0-1.07,12.05q0,11,3.9,17.73a32.07,32.07,0,0,0,10.46,11q6.56,4.24,14,8.15,7.1,3.19,14.18,7.27a64.05,64.05,0,0,1,13.3,10.28,47.16,47.16,0,0,1,10.1,15.78q3.9,9.57,3.9,24.1,0,13.83-3.37,23.93a42.65,42.65,0,0,1-9.57,16.49,41.3,41.3,0,0,1-14.89,9.74A52.94,52.94,0,0,1,1343.9,333.76Z" transform="translate(-12.05)"/><path d="M1440.32,333.41q-11,0-16-5t-6-14.35a191.23,191.23,0,0,1-1.06-21.1V159.34h-12V143h12l2.84-52.11h15.24V143h20.56v16.3h-20.56V301.15q0,8.87,1.77,12.58t6.74,3.72h12.05v11.7a52.22,52.22,0,0,1-5,2.13,34.68,34.68,0,0,1-5.67,1.6A27.92,27.92,0,0,1,1440.32,333.41Z" transform="translate(-12.05)"/><path d="M1525.05,333.76q-17.37,0-29.07-9.39t-17.55-30.85q-5.85-21.43-5.85-57.25,0-36.15,5.85-57.61T1496,148q11.7-9.21,29.07-9.22,17,0,28.89,9.22t17.9,30.66q6,21.47,6,57.61,0,35.82-6,57.25t-17.9,30.85Q1542.06,333.76,1525.05,333.76Zm0-16.31q12,0,19.67-7.79t10.82-25.17q3.18-17.37,3.19-45v-6.38q0-28-3.19-45.2t-10.82-25q-7.62-7.8-19.67-7.8-11.7,0-19.32,7.8t-11,25q-3.37,17.2-3.37,45.2v6.38q0,27.66,3.37,45t11,25.17Q1513.35,317.46,1525.05,317.45Z" transform="translate(-12.05)"/><path d="M1609.06,329.51V73.2h18.08V329.51Z" transform="translate(-12.05)"/><path d="M1713.28,333.76q-20.21,0-32.26-9.93t-17-31.55q-5-21.61-5-56,0-35.79,5.5-57.07t17.9-30.84q12.4-9.57,32.26-9.58,15.6,0,26.59,7.63t16.66,25.7q5.67,18.07,5.67,50.34v17.37h-85.79q0,26.58,2.84,43.78t10.46,25.7q7.62,8.51,21.44,8.51a28.37,28.37,0,0,0,12.59-2.84,27,27,0,0,0,10.1-8.68q4.26-5.85,6.91-15.6a98.78,98.78,0,0,0,3-23.22h18.08a130.21,130.21,0,0,1-4.08,28.54,59.62,59.62,0,0,1-9.93,20.74,42.41,42.41,0,0,1-15.59,12.76A47.44,47.44,0,0,1,1713.28,333.76Zm-35.45-108.83h67a263.85,263.85,0,0,0-1.59-31.2,99.06,99.06,0,0,0-4.79-21.8q-3.18-8.69-9.39-12.94t-15.42-4.25q-14.55,0-22.16,9.21t-10.81,25A167.28,167.28,0,0,0,1677.83,224.93Z" transform="translate(-12.05)"/><path d="M1827.78,333.76q-13.47,0-22.15-3.9a33.61,33.61,0,0,1-13.83-11,46.4,46.4,0,0,1-7.44-17.19,97.71,97.71,0,0,1-2.31-21.8,22.44,22.44,0,0,1,.36-4.08,21.4,21.4,0,0,0,.35-3.72h17.73a12.71,12.71,0,0,0-.71,4.08v4.07q0,12.42,3,20.74a26.89,26.89,0,0,0,8.86,12.76q5.85,4.44,15.07,4.43,10.63,0,17-4.61a25.51,25.51,0,0,0,9.22-13.11q2.83-8.51,2.84-20.92,0-12-4.43-19.32a35.34,35.34,0,0,0-11.53-11.7,115.87,115.87,0,0,0-15.24-8q-7.8-3.9-14.71-8.16a48.3,48.3,0,0,1-12.05-10.46,47,47,0,0,1-8.16-15.06q-3-8.86-3-21.63a58.67,58.67,0,0,1,3-19.32,42.48,42.48,0,0,1,8.69-14.89,34.75,34.75,0,0,1,13.82-9.21,51.8,51.8,0,0,1,18.08-3,57.14,57.14,0,0,1,18.79,2.84,30.74,30.74,0,0,1,13.3,8.69,37.52,37.52,0,0,1,7.62,14,66.2,66.2,0,0,1,2.48,19.14q0,2.49-.18,5.67t-.53,6.74h-17.37v-11.7q0-11.34-3-17.72a19.37,19.37,0,0,0-8.33-9.22,26,26,0,0,0-12.41-2.84q-7.8,0-12.76,2.66a21.09,21.09,0,0,0-7.8,6.91,26.39,26.39,0,0,0-3.9,9.93,65.25,65.25,0,0,0-1.07,12.05q0,11,3.9,17.73a32.16,32.16,0,0,0,10.46,11q6.55,4.24,14,8.15,7.1,3.19,14.18,7.27a64.05,64.05,0,0,1,13.3,10.28,47.16,47.16,0,0,1,10.1,15.78q3.9,9.57,3.9,24.1,0,13.83-3.37,23.93a42.65,42.65,0,0,1-9.57,16.49,41.3,41.3,0,0,1-14.89,9.74A52.94,52.94,0,0,1,1827.78,333.76Z" transform="translate(-12.05)"/><rect x="134" y="441.54" width="804.45" height="30.88"/><rect x="134" width="804.45" height="30.88"/></g></g></svg>