<svg width="773" height="293" viewBox="0 0 773 293" fill="none" xmlns="http://www.w3.org/2000/svg">
<path d="M0 0H773V293H0V0Z" fill="url(#paint0_linear)"/>
<path d="M232.89 72.1386L226.973 119.693H214.549L220.524 72.0797L232.89 72.1386ZM241.054 72.0797L235.079 119.693H243.716L249.633 72.1386L241.054 72.0797ZM257.087 72.0797L251.112 119.693H256.022L261.939 72.1386L257.087 72.0797Z" fill="white"/>
<path d="M263.219 119.579H275.931C276.598 113.907 277.232 108.768 277.766 104.297L278.967 94.6882H279.868L283.538 105.031C285.273 109.936 287.175 115.141 288.743 119.579H297.785C299.153 115.108 300.654 110.07 302.156 104.998L305.225 94.6882H306.126L307.327 104.297C307.861 108.768 308.495 113.907 309.196 119.579H322.275C321.674 114.607 321.074 109.969 320.306 104.197L318.204 88.082C317.47 82.2431 316.836 77.2383 316.102 72H302.422C300.721 76.938 299.32 80.775 297.818 84.979L293.447 97.2907H292.58L287.909 84.979C286.307 80.775 284.839 76.7712 283.037 72H269.158C268.49 77.305 267.89 82.3432 267.156 88.082L265.154 104.197C264.42 109.936 263.819 114.807 263.219 119.579Z" fill="white"/>
<path d="M358.596 119.579H369.94C368.305 114.507 366.436 108.768 364.701 103.497L359.396 87.1144C357.495 81.3422 356.06 76.9714 354.458 72H340.312L335.374 87.1144L330.002 103.463L324.73 119.579H335.741L338.643 109.636H355.76C356.694 112.906 357.695 116.342 358.596 119.579ZM347.685 81.3089L353.424 101.428H341.012L346.885 81.3089H347.685Z" fill="white"/>
<path d="M375.262 119.579H390.743C408.994 119.579 415.667 109.035 415.667 95.6225C415.667 80.6749 407.359 72 392.778 72C386.739 72 381.1 72 375.262 72V119.579ZM383.102 113.172V78.4061H391.41C402.587 78.4061 407.492 85.1792 407.492 95.489C407.492 105.599 403.155 113.172 390.776 113.172H383.102Z" fill="white"/>
<path d="M445.885 105.966L440.247 98.9256C449.389 97.6577 452.592 91.7855 452.592 84.8789C452.592 75.5701 447.153 72 436.276 72C429.637 72 423.998 72 420.194 72V119.579H426.1V100.26H434.575L440.814 108.301C443.65 111.871 446.519 115.575 449.689 119.579H456.762C453.793 115.908 449.355 110.303 445.885 105.966ZM426.1 77.0048H436.076C440.58 77.0048 446.353 77.5386 446.353 85.4795C446.353 92.6196 442.449 95.2888 434.108 95.2888H426.1V77.0048Z" fill="white"/>
<path d="M461.061 119.579H464.431V72H461.061V119.579Z" fill="white"/>
<path d="M475.091 119.579H489.171C506.921 119.579 513.594 109.002 513.594 95.5557C513.594 80.8417 505.353 72 490.572 72C485.534 72 481.297 72 475.091 72V119.579ZM478.427 116.609V74.9695H490.038C503.918 74.9695 510.124 83.0438 510.124 95.489C510.124 107.534 504.686 116.609 489.204 116.609H478.427Z" fill="white"/>
<path d="M234.377 173.495C247.418 173.495 255.308 164.117 255.308 151.582C255.308 139.404 247.776 129.668 234.199 129.668C220.86 129.668 213 139.255 213 151.582C213 163.432 220.175 173.495 234.377 173.495ZM234.229 169.744C222.587 169.744 217.347 161.199 217.347 151.582C217.347 142.024 222.825 133.39 234.229 133.39C245.275 133.39 250.961 141.429 250.961 151.582C250.961 161.02 245.87 169.744 234.229 169.744Z" fill="white"/>
<path d="M278.823 130.413C272.511 130.413 267.538 130.413 264.353 130.413V172.87H268.491V155.393H277.274C289.124 155.393 292.816 149.825 292.816 142.233C292.816 134.194 288.32 130.413 278.823 130.413ZM276.59 151.88H268.491V133.986H278.555C282.872 133.986 288.559 134.641 288.559 142.263C288.559 149.14 284.896 151.88 276.59 151.88Z" fill="white"/>
<path d="M306.25 168.255V153.606H326.168V149.111H306.25V135.028H327.359V130.413H300.98V172.87H327.419V168.255H306.25Z" fill="white"/>
<path d="M336.278 172.87H341.399V139.583H341.816L351.075 152.683C356.643 160.544 361.169 166.885 365.367 172.87H370.16V130.413H365.039V163.521H364.593L355.393 150.54C350.807 144.079 346.222 137.558 341.131 130.413H336.278V172.87Z" fill="white"/>
<path d="M400.375 173.585C405.02 173.585 409.903 172.662 413.297 170.607L412.82 164.057C409.128 166.737 405.079 167.689 401.149 167.689C390.847 167.689 385.667 160.395 385.667 151.612C385.667 141.637 391.77 135.653 400.256 135.653C404.097 135.653 408.354 136.784 412.939 139.583L413.535 132.973C410.438 131.306 405.139 129.609 399.601 129.609C386.709 129.609 378.372 138.779 378.372 151.612C378.372 164.414 386.768 173.585 400.375 173.585Z" fill="white"/>
<path d="M421.578 172.87H428.694V130.413H421.578V172.87Z" fill="white"/>
<path d="M470.584 130.413H435.51V137.707H448.908V172.87H457.215V137.707H470.584V130.413Z" fill="white"/>
<path d="M511.585 130.413H500.777C498.604 135.266 497.502 137.707 495.686 141.697L492.977 147.681H492.173L489.434 141.548C487.766 137.677 486.754 135.325 484.551 130.413H473.415C475.708 134.641 477.226 137.648 479.132 141.221L487.677 157.507V172.87H497.502V157.388L505.958 141.221C507.744 137.737 509.68 134.045 511.585 130.413Z" fill="white"/>
<path d="M228.175 215.517C227.336 216.142 226.266 216.427 225.427 216.427C223.34 216.427 222.412 215.196 222.412 212.77V204.402H228.3V201.476H222.412V194.964L218.648 195.714V201.476H215.419V204.402H218.648V213.822C218.648 217.89 220.735 219.638 224.41 219.638C226.016 219.638 227.64 219.282 228.443 218.729L228.175 215.517Z" fill="white"/>
<path d="M232.156 219.21H235.974V207.667C237.08 205.954 238.578 204.563 240.666 204.563C243.003 204.563 243.752 205.901 243.752 208.452V219.21H247.57C247.57 216.623 247.57 214.286 247.57 211.432V207.346C247.57 203.207 245.84 201.03 242.147 201.03C239.31 201.03 237.401 202.725 236.33 204.242H235.974V192.681L232.156 193.091V219.21Z" fill="white"/>
<path d="M267.274 208.738C267.274 203.671 264.473 201.048 259.87 201.048C254.535 201.048 251.52 204.848 251.52 210.254C251.52 215.696 254.482 219.621 261.012 219.621C263.492 219.621 265.597 219.121 266.953 218.425L266.81 215.107C265.133 215.999 263.01 216.391 261.422 216.391C257.568 216.391 255.641 214.375 255.392 211.039H267.131C267.238 210.325 267.274 209.648 267.274 208.738ZM259.905 203.956C262.171 203.956 263.759 205.544 263.866 208.292L255.481 208.399C255.891 205.74 257.55 203.956 259.905 203.956Z" fill="white"/>
<path d="M294.312 201.423H289.049C286.908 201.423 286.069 201.048 284.267 201.048C279.7 201.048 277.095 203.457 277.095 206.864C277.095 210.343 279.682 211.913 280.895 212.413V212.716C279.397 213.376 278.755 214.375 278.755 215.589C278.755 217.248 280.003 217.997 280.556 218.176V218.479C279.45 218.836 277.327 219.924 277.327 222.332C277.327 224.384 278.915 226.472 284.232 226.472C288.585 226.472 293.598 224.563 293.598 220.174C293.598 216.98 291.225 215.945 286.444 215.945H285.695C283.268 215.945 282.287 215.696 282.287 214.839C282.287 214.036 283.357 213.733 285.659 213.198C289.049 212.449 291.439 210.682 291.439 207.096C291.439 205.99 291.19 205.009 290.672 204.17H294.312V201.423ZM284.107 210.54C282.323 210.254 280.628 209.112 280.628 207.185C280.628 205.223 282.412 204.17 284.214 204.17C285.909 204.17 287.907 205.152 287.907 207.382C287.907 209.612 285.605 210.325 284.107 210.54ZM284.838 219.032H285.463C289.174 219.032 289.994 219.656 289.994 220.798C289.994 221.762 288.228 223.492 284.624 223.492C281.859 223.492 280.806 222.475 280.806 221.423C280.806 220.067 282.947 219.103 284.838 219.032Z" fill="white"/>
<path d="M301.772 219.585C304.376 219.585 306.25 218.158 307.267 216.855H307.606L307.82 219.21H311.263V207.203C311.263 202.85 308.765 201.048 304.555 201.048C301.772 201.048 299.006 201.744 297.258 202.44L297.472 205.83C299.898 204.741 301.986 204.242 303.627 204.242C305.946 204.242 307.695 204.902 307.57 207.863L302.307 208.684C299.506 209.112 296.491 210.415 296.491 214.34C296.491 217.694 298.721 219.585 301.772 219.585ZM303.021 216.552C301.593 216.552 300.362 215.928 300.362 214.179C300.362 212.556 301.433 211.574 303.181 211.271C306.214 210.736 306.963 210.522 307.481 210.201V213.341C306.464 215.374 304.715 216.552 303.021 216.552Z" fill="white"/>
<path d="M327.137 215.517C326.298 216.142 325.228 216.427 324.389 216.427C322.302 216.427 321.374 215.196 321.374 212.77V204.402H327.262V201.476H321.374V194.964L317.61 195.714V201.476H314.381V204.402H317.61V213.822C317.61 217.89 319.697 219.638 323.372 219.638C324.978 219.638 326.602 219.282 327.404 218.729L327.137 215.517Z" fill="white"/>
<path d="M345.503 208.738C345.503 203.671 342.702 201.048 338.099 201.048C332.764 201.048 329.749 204.848 329.749 210.254C329.749 215.696 332.711 219.621 339.24 219.621C341.72 219.621 343.825 219.121 345.181 218.425L345.039 215.107C343.362 215.999 341.239 216.391 339.651 216.391C335.797 216.391 333.87 214.375 333.62 211.039H345.36C345.467 210.325 345.503 209.648 345.503 208.738ZM338.134 203.956C340.4 203.956 341.988 205.544 342.095 208.292L333.71 208.399C334.12 205.74 335.779 203.956 338.134 203.956Z" fill="white"/>
<path d="M367.349 215.517C366.51 216.142 365.44 216.427 364.601 216.427C362.514 216.427 361.586 215.196 361.586 212.77V204.402H367.474V201.476H361.586V194.964L357.822 195.714V201.476H354.593V204.402H357.822V213.822C357.822 217.89 359.909 219.638 363.584 219.638C365.19 219.638 366.814 219.282 367.616 218.729L367.349 215.517Z" fill="white"/>
<path d="M379.113 219.638C384.733 219.638 388.105 215.553 388.105 210.254C388.105 205.045 384.912 201.03 379.042 201.03C373.315 201.03 369.961 204.937 369.961 210.254C369.961 215.214 373.03 219.638 379.113 219.638ZM379.096 216.427C375.599 216.427 373.85 213.448 373.85 210.254C373.85 206.882 375.67 204.242 379.078 204.242C382.2 204.242 384.216 206.579 384.216 210.254C384.216 213.448 382.539 216.427 379.096 216.427Z" fill="white"/>
<path d="M403.629 215.678V208.042H415.065V204.634H403.629V197.302H415.725V193.769H399.526V219.21H415.815V215.678H403.629Z" fill="white"/>
<path d="M425.493 219.638C428.419 219.638 430.435 217.837 431.595 216.177H431.97L432.112 219.21H435.377V201.476H431.559V213.055C430.453 214.768 428.955 216.159 426.974 216.159C424.637 216.159 423.888 214.839 423.888 212.288V201.334L420.07 201.476C420.07 204.063 420.07 206.204 420.07 209.505V213.305C420.07 217.444 421.8 219.638 425.493 219.638Z" fill="white"/>
<path d="M440.568 219.21H444.386V208.934C445.528 205.384 447.544 204.902 448.882 204.902C449.721 204.902 450.309 204.973 451.148 205.116L451.487 201.334C450.88 201.119 450.185 201.03 449.578 201.03C447.954 201.03 445.76 201.637 444.333 204.759H443.976L443.833 201.262L440.568 201.476V219.21Z" fill="white"/>
<path d="M462.43 219.638C468.05 219.638 471.421 215.553 471.421 210.254C471.421 205.045 468.228 201.03 462.358 201.03C456.631 201.03 453.277 204.937 453.277 210.254C453.277 215.214 456.346 219.638 462.43 219.638ZM462.412 216.427C458.915 216.427 457.166 213.448 457.166 210.254C457.166 206.882 458.986 204.242 462.394 204.242C465.516 204.242 467.532 206.579 467.532 210.254C467.532 213.448 465.855 216.427 462.412 216.427Z" fill="white"/>
<path d="M475.762 226.186L479.58 226.061V217.087H479.866C481.115 218.693 482.81 219.638 485.111 219.638C490.107 219.638 492.515 215.25 492.515 210.29C492.515 205.027 489.857 201.03 485.04 201.03C482.596 201.03 480.687 202.119 479.652 203.617H479.295L479.188 201.262L475.762 201.476V226.186ZM483.809 216.302C481.864 216.302 480.508 215.321 479.58 213.751V206.543C480.544 205.134 482.114 204.402 483.755 204.402C487.056 204.402 488.608 207.078 488.608 210.325C488.608 213.43 487.145 216.302 483.809 216.302Z" fill="white"/>
<path d="M511.473 208.738C511.473 203.671 508.672 201.048 504.069 201.048C498.734 201.048 495.719 204.848 495.719 210.254C495.719 215.696 498.681 219.621 505.211 219.621C507.691 219.621 509.796 219.121 511.152 218.425L511.009 215.107C509.332 215.999 507.209 216.391 505.621 216.391C501.767 216.391 499.841 214.375 499.591 211.039H511.33C511.437 210.325 511.473 209.648 511.473 208.738ZM504.105 203.956C506.37 203.956 507.958 205.544 508.065 208.292L499.68 208.399C500.09 205.74 501.75 203.956 504.105 203.956Z" fill="white"/>
<defs>
<linearGradient id="paint0_linear" x1="0" y1="146.66" x2="773" y2="146.66" gradientUnits="userSpaceOnUse">
<stop stop-color="#9115CB"/>
<stop offset="1" stop-color="#3465FF"/>
</linearGradient>
</defs>
</svg>
