<svg xmlns="http://www.w3.org/2000/svg" viewBox="0 0 1708.67 486.71"><g id="Capa_2" data-name="Capa 2"><g id="Capa_2-2" data-name="Capa 2"><path d="M52.11,348a42.75,42.75,0,0,1-17-3.19,32.77,32.77,0,0,1-12.59-9.39A42,42,0,0,1,14.71,320a85.81,85.81,0,0,1,.71-45,45.72,45.72,0,0,1,12-19.5q8.69-8.5,24.46-13.65t40.6-5.14v-33q0-11.7-2.49-19.5t-8.5-11.52Q75.5,169,65.23,169q-12.77,0-19,5.85a28.07,28.07,0,0,0-8.15,15.07,99.59,99.59,0,0,0-2,20.56v2.48H18.79a17.74,17.74,0,0,1-.36-3.55v-4.25q0-20.55,6.92-31.73t17.72-15.77A59.57,59.57,0,0,1,66.65,153q13.11,0,22.86,4.43t15.42,15.06q5.67,10.65,5.68,29.78V318.57c0,4.49.76,7.68,2.3,9.57A6.86,6.86,0,0,0,118.4,331h12.06v11.7c-2.61.94-5.5,1.95-8.69,3a31.84,31.84,0,0,1-10.1,1.6q-7.1,0-11.17-3.73A18.6,18.6,0,0,1,95,333.64,61.07,61.07,0,0,1,93.59,320H91.46a69.17,69.17,0,0,1-9.21,14.53,37.22,37.22,0,0,1-12.77,9.93A40,40,0,0,1,52.11,348Zm3.9-16.3a28.28,28.28,0,0,0,12.05-3,36.19,36.19,0,0,0,11.88-9.39q5.49-6.37,9-17t3.55-25.17V251.57q-25.18.36-38.47,6.38T36,274.08A52.81,52.81,0,0,0,31.2,297,58,58,0,0,0,34,316.27q2.84,8,8.33,11.69T56,331.69Z" transform="translate(-12.05)"/><path d="M185.76,348q-12.76,0-19.32-5.14t-9.22-14.53a79,79,0,0,1-2.66-21.45V187.76H140.38V156.92h14.89L162,102.68h29.42v54.24H212v30.84H191.43V301.55c0,5.21.59,9,1.77,11.53s3.55,3.72,7.09,3.72H212v25.88q-4.61,1.41-9.39,2.66t-8.87,2A46.69,46.69,0,0,1,185.76,348Z" transform="translate(-12.05)"/><path d="M287.14,348q-22,0-35.27-9.74t-19.32-31.38q-6-21.62-6-56.36,0-36.16,6.39-57.61t20.2-30.84q13.83-9.39,35.81-9.4,19.84,0,32.61,8.16t19.14,27.82q6.39,19.68,6.38,54.42V258.3H264.46q0,20.57,1.77,33.51T273,311q5,6.21,14.54,6.2a19.11,19.11,0,0,0,9.22-2.12,17.53,17.53,0,0,0,6.55-6.56,36.59,36.59,0,0,0,4.08-11.88,119,119,0,0,0,1.77-17.72h37.23a121.41,121.41,0,0,1-4.08,30.48Q338.55,322.48,331.1,331a46,46,0,0,1-18.61,12.76A70.74,70.74,0,0,1,287.14,348ZM264.46,236h44q0-14.53-.88-24.28a72.58,72.58,0,0,0-3-16.13c-1.41-4.26-3.42-7.32-6-9.22s-6-2.84-10.28-2.84q-9.57,0-14.71,6.21t-7.09,17.72A174.11,174.11,0,0,0,264.46,236Z" transform="translate(-12.05)"/><path d="M406.61,348a46.43,46.43,0,0,1-17.73-3.19,33,33,0,0,1-13.11-9.57,42.05,42.05,0,0,1-8-16,82.41,82.41,0,0,1-2.66-22A75.51,75.51,0,0,1,369.21,272a51.58,51.58,0,0,1,13.11-20.2q9-8.69,24.46-13.47t37.76-4.79V208.32a35.44,35.44,0,0,0-2.13-13.12,18.21,18.21,0,0,0-6.38-8.33,17.37,17.37,0,0,0-10.28-3q-8.16,0-12.41,3.72a18.05,18.05,0,0,0-5.67,9.75,62.26,62.26,0,0,0-1.42,14.18V214H371.87a12.17,12.17,0,0,1-.36-3v-3.37q0-19.85,7.27-31.9a42.45,42.45,0,0,1,20-17.55q12.76-5.49,29.42-5.5,15.6,0,27.65,5.14t18.79,17.91q6.74,12.75,6.74,36.16V305.1c0,3.78.71,6.68,2.12,8.68s3.67,3,6.74,3h8.86V342A62.54,62.54,0,0,1,487.08,346a58,58,0,0,1-13.47,1.6q-8.5,0-13.83-3.19a22.38,22.38,0,0,1-8.33-8.86,33.63,33.63,0,0,1-3.72-12.41H446a56.75,56.75,0,0,1-8.87,12.41,39.77,39.77,0,0,1-12.76,9A42.8,42.8,0,0,1,406.61,348Zm14.18-31.19a14.87,14.87,0,0,0,8.68-2.84,30.91,30.91,0,0,0,7.62-8,39.7,39.7,0,0,0,5.5-12.77,67.88,67.88,0,0,0,2-16.84V256.53q-17.73,0-26.41,4.79T406.25,273.9a45.62,45.62,0,0,0-3.19,17.37A42.83,42.83,0,0,0,405,305.1a18,18,0,0,0,5.85,8.68A15.76,15.76,0,0,0,420.79,316.8Z" transform="translate(-12.05)"/><path d="M548.05,348q-12.76,0-19.32-5.14c-4.38-3.42-7.44-8.27-9.22-14.53a79,79,0,0,1-2.66-21.45V187.76H502.67V156.92h14.89l6.74-54.24h29.42v54.24h20.56v30.84H553.72V301.55c0,5.21.59,9,1.78,11.53s3.54,3.72,7.08,3.72h11.7v25.88q-4.6,1.41-9.39,2.66c-3.19.82-6.15,1.47-8.86,2A46.81,46.81,0,0,1,548.05,348Z" transform="translate(-12.05)"/><path d="M594.13,343.74V156.92H625l2.48,25.17h1.42a54.81,54.81,0,0,1,7.26-16.31A32.94,32.94,0,0,1,646.25,156a23.25,23.25,0,0,1,12-3.37,30.88,30.88,0,0,1,4.78.36,20,20,0,0,1,4.79,1.42v39.7H654.75a18.33,18.33,0,0,0-10.1,2.84,23.47,23.47,0,0,0-7.62,8.5,47.11,47.11,0,0,0-4.79,14.89,131.32,131.32,0,0,0-1.59,22V343.74Z" transform="translate(-12.05)"/><path d="M734.17,348q-20.2,0-33.68-9.74t-20-31.38q-6.57-21.62-6.56-56.36,0-35.1,6.56-56.55t20-31.37q13.47-9.93,33.68-9.93,20.55,0,34,9.93T788.41,194q6.72,21.45,6.73,56.55,0,34.74-6.73,56.36T768.2,338.25Q754.72,348,734.17,348Zm0-30.84q8.51,0,13.29-5.32t7.09-17.37q2.31-12,2.31-32.26V238.81q0-20.56-2.31-32.62t-7.09-17.37q-4.79-5.31-13.29-5.32a17.25,17.25,0,0,0-12.94,5.32q-5.15,5.33-7.27,17.37t-2.13,32.62V262.2q0,20.22,2.13,32.26t7.27,17.37A17.21,17.21,0,0,0,734.17,317.15Z" transform="translate(-12.05)"/><path d="M826.34,343.74V100.55h31.19l42.54,173c.47,2.13,1.07,5,1.77,8.51s1.36,7.15,1.95,10.81,1.25,7.15,2,10.46h1.07q1.07-4.6,2.13-10.11t2.12-10.81q1.07-5.31,1.77-8.51L955,100.55h31.2V343.74H966V180.67q0-3.9.18-12.23t.17-17.9V132.81H965q-.72,4.26-1.6,9.4t-2,9.92a43.32,43.32,0,0,1-2.13,7.27L913.19,343.74H898.65l-45.73-184q-.7-2.48-1.95-7.44t-2.12-10.1c-.6-3.43-1.24-6.56-2-9.4h-1.42v17.73q0,9.93.18,18.08t.17,12V343.74Z" transform="translate(-12.05)"/><path d="M1073.07,348q-17.37,0-29.07-9.39t-17.55-30.84q-5.85-21.45-5.85-57.25,0-36.16,5.85-57.61T1044,162.23q11.7-9.21,29.07-9.21,17,0,28.89,9.21t17.9,30.67q6,21.45,6,57.61,0,35.81-6,57.25T1102,338.6Q1090.08,348,1073.07,348Zm0-16.3q12,0,19.67-7.8t10.82-25.17q3.18-17.37,3.19-45v-6.38q0-28-3.19-45.2t-10.82-25q-7.62-7.78-19.67-7.8-11.7,0-19.32,7.8t-11,25q-3.37,17.19-3.37,45.2v6.38q0,27.65,3.37,45t11,25.17Q1061.37,331.69,1073.07,331.69Zm-8.51-197.46,20.92-46.8h18.08v1.42l-24.82,45.38Z" transform="translate(-12.05)"/><path d="M1189.7,348q-13.48,0-22.16-3.9a33.55,33.55,0,0,1-13.82-11,46.62,46.62,0,0,1-7.45-17.2,97.66,97.66,0,0,1-2.3-21.8,22.45,22.45,0,0,1,.35-4.08,21.26,21.26,0,0,0,.36-3.72h17.72a12.71,12.71,0,0,0-.71,4.08v4.07q0,12.42,3,20.74a26.89,26.89,0,0,0,8.86,12.76q5.85,4.44,15.06,4.44,10.63,0,17-4.61a25.69,25.69,0,0,0,9.22-13.12q2.84-8.51,2.83-20.92,0-12-4.43-19.32a35.19,35.19,0,0,0-11.52-11.69,115.34,115.34,0,0,0-15.24-8q-7.8-3.9-14.71-8.15a48.73,48.73,0,0,1-12.06-10.46,46.82,46.82,0,0,1-8.15-15.07q-3-8.85-3-21.62a58.62,58.62,0,0,1,3-19.32,42.22,42.22,0,0,1,8.68-14.89A34.8,34.8,0,0,1,1174.1,156a52,52,0,0,1,18.08-3,57.15,57.15,0,0,1,18.79,2.83,30.86,30.86,0,0,1,13.29,8.69,37.31,37.31,0,0,1,7.62,14,66.18,66.18,0,0,1,2.49,19.14c0,1.66-.07,3.55-.18,5.68s-.3,4.37-.53,6.73h-17.37v-11.7q0-11.34-3-17.72a19.37,19.37,0,0,0-8.33-9.22,26,26,0,0,0-12.41-2.83q-7.8,0-12.76,2.65a21.2,21.2,0,0,0-7.8,6.92,26.44,26.44,0,0,0-3.9,9.92,65.38,65.38,0,0,0-1.06,12.06q0,11,3.9,17.72a32.07,32.07,0,0,0,10.46,11q6.56,4.26,14,8.15,7.08,3.19,14.18,7.27a63.74,63.74,0,0,1,13.29,10.28A47.28,47.28,0,0,1,1233,270.36q3.88,9.57,3.9,24.1,0,13.83-3.37,23.93a42.65,42.65,0,0,1-9.57,16.49,41.45,41.45,0,0,1-14.89,9.75A53.19,53.19,0,0,1,1189.7,348Z" transform="translate(-12.05)"/><path d="M1286.12,347.64q-11,0-15.95-5t-6-14.36a188.62,188.62,0,0,1-1.06-21.09V173.58H1251V157.27h12.06l2.83-52.11h15.25v52.11h20.56v16.31h-20.56v141.8c0,5.91.58,10.1,1.77,12.58s3.42,3.73,6.74,3.73h12v11.7c-1.42.7-3.08,1.41-5,2.12a34.79,34.79,0,0,1-5.68,1.6A27.72,27.72,0,0,1,1286.12,347.64Z" transform="translate(-12.05)"/><path d="M1370.84,348q-17.37,0-29.06-9.39t-17.55-30.84q-5.85-21.45-5.85-57.25,0-36.16,5.85-57.61t17.55-30.67q11.7-9.21,29.06-9.21,17,0,28.9,9.21t17.9,30.67q6,21.45,6,57.61,0,35.81-6,57.25t-17.9,30.84Q1387.86,348,1370.84,348Zm0-16.3q12.06,0,19.68-7.8t10.81-25.17q3.2-17.37,3.19-45v-6.38q0-28-3.19-45.2t-10.81-25q-7.63-7.78-19.68-7.8-11.68,0-19.32,7.8t-11,25q-3.37,17.19-3.37,45.2v6.38q0,27.65,3.37,45t11,25.17Q1359.14,331.69,1370.84,331.69Z" transform="translate(-12.05)"/><path d="M1454.86,343.74V87.43h18.08V343.74Z" transform="translate(-12.05)"/><path d="M1559.08,348q-20.2,0-32.26-9.92t-17-31.55q-5-21.63-5-56,0-35.81,5.49-57.08t17.91-30.84q12.4-9.57,32.26-9.57,15.59,0,26.58,7.62t16.67,25.7q5.65,18.07,5.67,50.34v17.37h-85.79q0,26.59,2.83,43.78t10.46,25.7q7.62,8.52,21.45,8.51a28.49,28.49,0,0,0,12.59-2.83,27.19,27.19,0,0,0,10.1-8.69q4.25-5.85,6.91-15.6a98.75,98.75,0,0,0,3-23.22h18.08a129.47,129.47,0,0,1-4.07,28.54,59.53,59.53,0,0,1-9.93,20.74,42.36,42.36,0,0,1-15.6,12.76A47.21,47.21,0,0,1,1559.08,348Zm-35.45-108.83h67A263.85,263.85,0,0,0,1589,208a99.19,99.19,0,0,0-4.79-21.8q-3.2-8.67-9.4-12.94T1559.43,169q-14.54,0-22.15,9.22t-10.82,25A168,168,0,0,0,1523.63,239.16Z" transform="translate(-12.05)"/><path d="M1673.58,348q-13.49,0-22.16-3.9a33.55,33.55,0,0,1-13.82-11,46.62,46.62,0,0,1-7.45-17.2,97.66,97.66,0,0,1-2.3-21.8,22.45,22.45,0,0,1,.35-4.08,21.26,21.26,0,0,0,.36-3.72h17.72a13,13,0,0,0-.71,4.08v4.07q0,12.42,3,20.74a26.89,26.89,0,0,0,8.86,12.76q5.85,4.44,15.07,4.44,10.63,0,17-4.61a25.63,25.63,0,0,0,9.22-13.12q2.84-8.51,2.83-20.92,0-12-4.43-19.32a35.09,35.09,0,0,0-11.52-11.69,115.34,115.34,0,0,0-15.24-8q-7.8-3.9-14.71-8.15a48.73,48.73,0,0,1-12.06-10.46,46.82,46.82,0,0,1-8.15-15.07q-3-8.85-3-21.62a58.62,58.62,0,0,1,3-19.32,42.09,42.09,0,0,1,8.69-14.89A34.7,34.7,0,0,1,1658,156a52,52,0,0,1,18.08-3,57.15,57.15,0,0,1,18.79,2.83,30.86,30.86,0,0,1,13.29,8.69,37.31,37.31,0,0,1,7.62,14,65.84,65.84,0,0,1,2.49,19.14c0,1.66-.06,3.55-.18,5.68s-.3,4.37-.53,6.73h-17.37v-11.7q0-11.34-3-17.72a19.37,19.37,0,0,0-8.33-9.22,26,26,0,0,0-12.4-2.83q-7.82,0-12.77,2.65a21.2,21.2,0,0,0-7.8,6.92,26.44,26.44,0,0,0-3.9,9.92,66.26,66.26,0,0,0-1.06,12.06q0,11,3.9,17.72a32.07,32.07,0,0,0,10.46,11q6.55,4.26,14,8.15,7.1,3.19,14.18,7.27a63.74,63.74,0,0,1,13.29,10.28,47.28,47.28,0,0,1,10.11,15.78q3.9,9.57,3.9,24.1,0,13.83-3.37,23.93a42.65,42.65,0,0,1-9.57,16.49,41.45,41.45,0,0,1-14.89,9.75A53.15,53.15,0,0,1,1673.58,348Z" transform="translate(-12.05)"/><path d="M470.6,59.35c-82.48,0-124.4-7.33-164.94-14.41C264.61,37.77,225.85,31,146.05,31V0C228.53,0,270.45,7.32,311,14.4c41.05,7.17,79.82,14,159.61,14S589.16,21.57,630.2,14.4C670.74,7.32,712.66,0,795.14,0V31c-79.79,0-118.56,6.77-159.6,13.94C595,52,553.08,59.35,470.6,59.35Z" transform="translate(-12.05)"/><rect x="134" y="455.71" width="649.09" height="31"/></g></g></svg>