<?xml version="1.0" encoding="utf-8"?>
<!-- Generator: Adobe Illustrator 25.2.1, SVG Export Plug-In . SVG Version: 6.00 Build 0)  -->
<svg version="1.1" id="Capa_1" xmlns="http://www.w3.org/2000/svg" xmlns:xlink="http://www.w3.org/1999/xlink" x="0px" y="0px"
	 viewBox="0 0 495.6 188.4" style="enable-background:new 0 0 495.6 188.4;" xml:space="preserve">
<style type="text/css">
	.st0{fill:#E72858;}
</style>
<g>
	<path class="st0" d="M42.9,24.1c-2.3-2.3-5.3-3.6-8.5-3.6c-3.2,0-6.3,1.3-8.5,3.6c0,0,0,0,0,0c2.3-2.3,5.3-3.6,8.5-3.6
		C37.5,20.6,40.5,21.9,42.9,24.1c4.6,4.9,4.6,12.8-0.1,17.6c0,0,0,0,0.1-0.1C47.6,36.8,47.6,29,42.9,24.1"/>
	<path class="st0" d="M42.9,41.7C42.9,41.7,42.8,41.7,42.9,41.7c-2.3,2.4-5.3,3.6-8.5,3.6c-2,0-4-0.5-5.8-1.5
		c-0.2-0.1-0.5-0.2-0.7-0.2c-0.1,0-0.2,0-0.3,0l-4.7,1.1l1.1-4.9c0.1-0.4,0-0.8-0.1-1.1c-2.5-4.8-1.7-10.8,2-14.7c0,0,0,0,0,0
		c2.3-2.3,5.3-3.6,8.5-3.6c3.2,0,6.3,1.3,8.5,3.6C47.6,29,47.6,36.8,42.9,41.7 M45,22c-2.8-2.9-6.6-4.5-10.7-4.5
		c-4,0-7.8,1.6-10.7,4.5c-2.3,2.4-3.8,5.5-4.3,8.8c-0.4,3.1,0.1,6.2,1.4,9l-1.5,6.7c-0.1,0.5,0,1.1,0.4,1.4c0.3,0.3,0.7,0.5,1.1,0.5
		c0.1,0,0.2,0,0.3,0l6.5-1.6c2.1,1.1,4.4,1.6,6.7,1.6c4,0,7.8-1.6,10.7-4.5C50.9,37.8,50.9,28,45,22"/>
	<path class="st0" d="M25.6,31.3c0-0.9,0.7-1.6,1.6-1.6h14.4c0.9,0,1.6,0.7,1.6,1.6c0,0.9-0.7,1.6-1.6,1.6H27.2
		C26.3,32.9,25.6,32.2,25.6,31.3"/>
	<path class="st0" d="M25.7,35.5c0-0.9,0.7-1.6,1.6-1.6h14.4c0.9,0,1.6,0.7,1.6,1.6c0,0.9-0.7,1.6-1.6,1.6H27.2
		C26.4,37.1,25.7,36.4,25.7,35.5"/>
</g>
<g>
	<g>
		<path d="M13.3,68.8c-0.4,0-0.7,0-1.1-0.1c-0.3-0.1-0.6-0.2-0.9-0.3s-0.5-0.4-0.6-0.6c-0.2-0.3-0.2-0.6-0.2-1c0,0,0-0.1,0-0.1
			c0,0,0-0.1,0-0.1h0.6c0,0,0,0.1,0,0.1s0,0.1,0,0.1c0,0.3,0.1,0.6,0.3,0.8c0.2,0.2,0.4,0.4,0.8,0.5c0.3,0.1,0.7,0.2,1.1,0.2
			c0.1,0,0.2,0,0.4,0c0.2,0,0.4,0,0.6-0.1c0.2,0,0.4-0.1,0.6-0.2c0.2-0.1,0.3-0.2,0.4-0.4c0.1-0.2,0.2-0.4,0.2-0.6
			c0-0.3-0.1-0.5-0.2-0.6c-0.1-0.2-0.3-0.3-0.5-0.4c-0.2-0.1-0.5-0.2-0.8-0.3c-0.3-0.1-0.6-0.2-0.9-0.2c-0.3-0.1-0.6-0.2-0.9-0.2
			s-0.5-0.2-0.8-0.3c-0.2-0.1-0.4-0.3-0.5-0.5s-0.2-0.5-0.2-0.8c0-0.2,0.1-0.5,0.2-0.7c0.1-0.2,0.3-0.4,0.5-0.6s0.5-0.3,0.8-0.4
			c0.3-0.1,0.8-0.1,1.2-0.1c0.3,0,0.7,0,1,0.1c0.3,0.1,0.6,0.2,0.8,0.3s0.4,0.3,0.5,0.6c0.1,0.2,0.2,0.5,0.2,0.9v0.1h-0.7v-0.2
			c0-0.3-0.1-0.5-0.2-0.7c-0.2-0.2-0.4-0.3-0.6-0.4c-0.3-0.1-0.6-0.2-0.9-0.2c-0.5,0-0.9,0-1.2,0.1s-0.5,0.2-0.7,0.4
			c-0.1,0.2-0.2,0.4-0.2,0.6c0,0.2,0.1,0.4,0.2,0.6c0.1,0.2,0.3,0.3,0.5,0.4s0.5,0.2,0.8,0.3c0.3,0.1,0.6,0.2,0.9,0.2
			s0.6,0.2,0.9,0.2c0.3,0.1,0.5,0.2,0.8,0.4c0.2,0.1,0.4,0.3,0.5,0.5s0.2,0.5,0.2,0.8c0,0.5-0.1,0.8-0.4,1.1s-0.6,0.5-1,0.7
			C14.3,68.7,13.8,68.8,13.3,68.8z"/>
		<path d="M18.9,68.8c-0.5,0-0.9-0.1-1.2-0.4c-0.3-0.2-0.5-0.7-0.5-1.3v-3.7h0.6v3.7c0,0.2,0,0.4,0.1,0.6c0.1,0.2,0.2,0.3,0.3,0.4
			c0.1,0.1,0.2,0.1,0.4,0.2s0.3,0,0.5,0c0.3,0,0.5-0.1,0.8-0.2c0.3-0.1,0.5-0.3,0.6-0.6c0.2-0.3,0.2-0.6,0.2-0.9v-3.1h0.6v5.3h-0.4
			l-0.1-0.9h-0.1c-0.2,0.3-0.3,0.5-0.5,0.6c-0.2,0.1-0.4,0.2-0.6,0.3C19.4,68.8,19.2,68.8,18.9,68.8z"/>
		<path d="M25,68.8c-0.4,0-0.7-0.1-1-0.2c-0.3-0.1-0.5-0.4-0.7-0.7h-0.1l-0.1,0.8h-0.4v-7.2h0.6v2.7h0.1c0.1-0.2,0.3-0.4,0.4-0.5
			s0.4-0.2,0.6-0.3c0.2-0.1,0.4-0.1,0.6-0.1c0.4,0,0.8,0.1,1.1,0.3s0.5,0.5,0.7,0.9s0.3,0.9,0.3,1.5c0,0.7-0.1,1.2-0.2,1.6
			c-0.2,0.4-0.4,0.7-0.7,0.9S25.5,68.8,25,68.8z M25,68.3c0.3,0,0.6-0.1,0.8-0.2s0.4-0.3,0.5-0.7c0.1-0.3,0.2-0.7,0.2-1.2v-0.3
			c0-0.5-0.1-0.9-0.2-1.2c-0.1-0.3-0.3-0.5-0.5-0.7c-0.2-0.1-0.5-0.2-0.9-0.2c-0.2,0-0.4,0-0.5,0.1c-0.2,0.1-0.3,0.2-0.5,0.3
			c-0.2,0.1-0.3,0.4-0.4,0.6s-0.1,0.6-0.1,1.1v0.2c0,0.5,0.1,0.8,0.2,1.2c0.1,0.3,0.3,0.6,0.5,0.7C24.3,68.2,24.6,68.3,25,68.3z"/>
		<path d="M29.3,68.8c-0.2,0-0.4,0-0.5-0.1c-0.1-0.1-0.2-0.2-0.3-0.3c-0.1-0.1-0.1-0.3-0.1-0.5v-4h-0.7v-0.5h0.7l0.1-1.5H29v1.5h1.1
			v0.5H29v3.8c0,0.2,0,0.3,0.1,0.4c0,0.1,0.2,0.1,0.3,0.1h0.6v0.4c-0.1,0-0.1,0.1-0.2,0.1c-0.1,0-0.2,0-0.3,0
			C29.5,68.8,29.4,68.8,29.3,68.8z"/>
		<path d="M31,62.2v-0.8h0.6v0.8H31z M31,68.7v-5.3h0.6v5.3H31z"/>
		<path d="M34.2,68.8c-0.2,0-0.4,0-0.5-0.1c-0.1-0.1-0.2-0.2-0.3-0.3c-0.1-0.1-0.1-0.3-0.1-0.5v-4h-0.7v-0.5h0.7l0.1-1.5h0.5v1.5
			h1.1v0.5h-1.1v3.8c0,0.2,0,0.3,0.1,0.4c0,0.1,0.2,0.1,0.3,0.1h0.6v0.4c-0.1,0-0.1,0.1-0.2,0.1c-0.1,0-0.2,0-0.3,0
			C34.3,68.8,34.2,68.8,34.2,68.8z"/>
		<path d="M37.5,68.8c-0.5,0-0.9-0.1-1.2-0.4c-0.3-0.2-0.5-0.7-0.5-1.3v-3.7h0.6v3.7c0,0.2,0,0.4,0.1,0.6c0.1,0.2,0.2,0.3,0.3,0.4
			c0.1,0.1,0.2,0.1,0.4,0.2s0.3,0,0.5,0c0.3,0,0.5-0.1,0.8-0.2c0.3-0.1,0.5-0.3,0.6-0.6c0.2-0.3,0.2-0.6,0.2-0.9v-3.1h0.6v5.3h-0.4
			l-0.1-0.9h-0.1c-0.2,0.3-0.3,0.5-0.5,0.6c-0.2,0.1-0.4,0.2-0.6,0.3C38,68.8,37.7,68.8,37.5,68.8z"/>
		<path d="M41.3,68.7v-7.2h0.6v7.2H41.3z"/>
		<path d="M44.6,68.8c-0.2,0-0.4,0-0.6-0.1c-0.2-0.1-0.4-0.1-0.5-0.3c-0.2-0.1-0.3-0.3-0.4-0.4C43,67.8,43,67.6,43,67.3
			c0-0.4,0.1-0.7,0.3-0.9c0.2-0.2,0.4-0.4,0.8-0.5c0.3-0.1,0.7-0.2,1.2-0.3c0.4,0,0.9-0.1,1.5-0.1v-0.7c0-0.2,0-0.4-0.1-0.6
			c-0.1-0.2-0.2-0.3-0.4-0.4c-0.2-0.1-0.5-0.1-0.9-0.1c-0.4,0-0.6,0-0.8,0.1c-0.2,0.1-0.3,0.2-0.4,0.4c-0.1,0.2-0.1,0.3-0.1,0.5V65
			h-0.6c0,0,0-0.1,0-0.1s0-0.1,0-0.1c0-0.3,0.1-0.6,0.3-0.8c0.2-0.2,0.4-0.4,0.7-0.5c0.3-0.1,0.7-0.2,1.1-0.2c0.4,0,0.8,0.1,1,0.2
			c0.3,0.1,0.5,0.3,0.6,0.5c0.1,0.2,0.2,0.5,0.2,0.8v3.2c0,0.1,0,0.2,0.1,0.3s0.1,0.1,0.2,0.1h0.5v0.4c-0.1,0-0.2,0.1-0.3,0.1
			s-0.2,0-0.3,0c-0.2,0-0.3,0-0.4-0.1c-0.1-0.1-0.2-0.2-0.2-0.3c0-0.1,0-0.3,0-0.5h-0.1c-0.1,0.2-0.3,0.4-0.5,0.5
			c-0.2,0.1-0.4,0.2-0.7,0.3C45.2,68.8,44.9,68.8,44.6,68.8z M44.7,68.3c0.2,0,0.5,0,0.7-0.1s0.4-0.2,0.6-0.3
			c0.2-0.1,0.3-0.3,0.4-0.5c0.1-0.2,0.2-0.4,0.2-0.6v-0.6c-0.7,0-1.3,0-1.7,0.1c-0.4,0.1-0.8,0.2-1,0.4c-0.2,0.2-0.3,0.4-0.3,0.8
			c0,0.2,0,0.4,0.1,0.5c0.1,0.1,0.2,0.2,0.4,0.3C44.3,68.2,44.5,68.3,44.7,68.3z"/>
		<path d="M50.4,68.8c-0.4,0-0.8-0.1-1.1-0.3s-0.5-0.5-0.7-0.9c-0.2-0.4-0.2-1-0.2-1.6c0-0.6,0.1-1.1,0.2-1.5s0.4-0.7,0.7-0.9
			c0.3-0.2,0.7-0.3,1.1-0.3c0.2,0,0.4,0,0.6,0.1c0.2,0.1,0.4,0.1,0.5,0.3c0.2,0.1,0.3,0.3,0.4,0.5h0.1v-2.7h0.6v7.2h-0.4l-0.1-0.8
			h-0.1c-0.2,0.3-0.4,0.5-0.7,0.7S50.8,68.8,50.4,68.8z M50.5,68.3c0.4,0,0.7-0.1,0.9-0.2c0.2-0.2,0.4-0.4,0.5-0.7
			c0.1-0.3,0.2-0.7,0.2-1.2v-0.2c0-0.5,0-0.8-0.1-1.1s-0.2-0.5-0.4-0.6c-0.2-0.2-0.3-0.3-0.5-0.3c-0.2-0.1-0.4-0.1-0.5-0.1
			c-0.3,0-0.6,0.1-0.9,0.2c-0.2,0.1-0.4,0.4-0.5,0.7C49,65,49,65.4,49,65.9v0.3c0,0.5,0.1,0.9,0.2,1.2s0.3,0.5,0.5,0.7
			S50.2,68.3,50.5,68.3z"/>
		<path d="M56.1,68.8c-0.5,0-0.9-0.1-1.3-0.3s-0.6-0.5-0.8-0.9c-0.2-0.4-0.3-0.9-0.3-1.5c0-0.6,0.1-1.2,0.3-1.6
			c0.2-0.4,0.4-0.7,0.8-0.9s0.8-0.3,1.3-0.3c0.5,0,0.9,0.1,1.3,0.3s0.6,0.5,0.8,0.9c0.2,0.4,0.3,0.9,0.3,1.6c0,0.6-0.1,1.1-0.3,1.5
			c-0.2,0.4-0.4,0.7-0.8,0.9S56.6,68.8,56.1,68.8z M56.1,68.3c0.4,0,0.7-0.1,0.9-0.2c0.3-0.1,0.5-0.4,0.6-0.7
			c0.1-0.3,0.2-0.7,0.2-1.2v-0.3c0-0.5-0.1-0.9-0.2-1.2c-0.1-0.3-0.3-0.5-0.6-0.7c-0.3-0.1-0.6-0.2-0.9-0.2c-0.4,0-0.7,0.1-0.9,0.2
			c-0.3,0.1-0.4,0.4-0.6,0.7c-0.1,0.3-0.2,0.7-0.2,1.2v0.3c0,0.5,0.1,0.9,0.2,1.2c0.1,0.3,0.3,0.5,0.6,0.7
			C55.5,68.2,55.8,68.3,56.1,68.3z"/>
	</g>
</g>
<g>
	<path class="st0" d="M210.2,34c-0.5,1-1.2,1.8-1.8,2.7c-1.3,1.7-2.6,3.3-2.8,6c0,0.3,0,0.7,0,1.1c0,0.8,0.1,1.6-0.1,2.3
		c-0.4,1.1-1.3,2.2-2.4,2.6c-0.3,0.1-0.6,0.1-1,0.2c-0.8,0.1-1.2,0.2-1.2,0.5c-0.1,0.4,0.3,0.7,0.6,0.8c0.1,0,0.3,0.1,0.5,0.1
		c0.8,0,1.7-0.4,2.3-0.7c1-0.5,2.2-1.5,2.5-3.1c0.2-0.8,0.1-1.6,0.1-2.3c0-0.6,0-1.3,0.1-1.9c0.3-2.3,1.5-3.8,2.7-5.2
		c0.8-1.1,1.7-2.2,2.2-3.6c0.5-1.4,0.6-2.9,0.4-4.3l-1.2,1.1C211.1,31.4,210.8,32.8,210.2,34"/>
	<path class="st0" d="M206.3,23.4c-1.8-1.1-3.6-1.5-5.6-1.2c-2.6,0.4-5,2-6.2,4.3c-0.1,0.1-0.1,0.2-0.2,0.4c1-2,3.3-4.3,6.6-4.6
		c0.3,0,0.6,0,0.9,0c1.9,0,3.5,0.6,4.7,1.4l0,0C206.5,23.6,206.4,23.5,206.3,23.4"/>
	<path class="st0" d="M202,20c-0.2,0-0.5,0-0.7,0c-0.9,0.1-1.7,0.2-2.5,0.4c-3.6,1-6,3.4-7.1,7c-0.4,1.2-0.5,2.9-0.2,3.4
		c0.1,0.1,0.1,0.1,0.3,0.1c0.1,0,0.1,0,0.2,0c0.4-0.1,0.6-1.4,0.7-2l0-0.1c0.2-1.2,0.5-2.1,0.9-2.9c1.3-2.5,4.1-4.4,6.9-4.8
		c0.4-0.1,0.9-0.1,1.3-0.1c1.7,0,3.4,0.5,5,1.5c0.2,0.1,0.3,0.2,0.5,0.3l0.9-0.8C206.8,21,204.8,20,202,20"/>
	<path class="st0" d="M194.9,30.8v0.5V30.8c0.3,0,0.4-0.8,0.5-1.4c0-0.3,0.1-0.7,0.2-1c0.5-1.6,2-3.3,3.5-4c0.9-0.4,1.8-0.6,2.7-0.6
		c1.2,0,2.4,0.4,3.4,1l0.6-0.5c-1.1-0.7-2.5-1.1-4-1.1c-0.2,0-0.5,0-0.8,0c-2.9,0.2-4.9,2.4-5.8,4.1c-0.5,0.9-0.9,2.8-0.5,3.3
		C194.8,30.8,194.8,30.8,194.9,30.8"/>
	<path class="st0" d="M194.3,36.1l-4.4,4.9c-1.6,1.8-1.4,4.6,0.5,6.2c1.9,1.6,4.7,1.4,6.4-0.5l4.4-5"/>
	<path class="st0" d="M217.4,16c-1.9-1.6-4.7-1.4-6.4,0.5l-3.3,3.7c1,0.6,1.8,1.2,2.3,1.7c1.3,1.3,2.6,3.2,3.3,5.4l4.5-5.1
		C219.5,20.3,219.3,17.5,217.4,16"/>
	<path class="st0" d="M194.7,27.5c-0.5,1-1.3,4.2,0.2,4.2c1,0,0.9-1.8,1.2-2.7c0.4-1.4,1.9-3.1,3.2-3.7c2.6-1.2,5.2-0.3,6.8,1.3
		c0.8,0.9,1.1,1.8,1.5,3.2c0.2,0.8,0.4,1.8,1.3,1.8c1.2-0.1,0.5-2.7,0.2-3.5c-1.1-2.8-3.8-5.3-8.1-5C198,23.3,195.7,25.4,194.7,27.5
		 M198.5,20.4c-3.8,1.1-6.3,3.7-7.4,7.3c-0.4,1.2-1,4.5,0.9,4.1c0.7-0.1,0.9-1.4,1.1-2.4c0.2-1.1,0.5-2,0.9-2.7
		c1.2-2.3,3.8-4.2,6.6-4.5c2.5-0.4,4.5,0.4,5.9,1.3c1.1,0.7,2.1,1.8,2.8,2.8c1.4,2.2,1.7,5.5,0.4,7.9c-1.6,2.9-4.4,4.7-4.7,8.8
		c-0.1,1,0.2,2.3-0.1,3.2c-0.3,1-1.2,1.9-2.1,2.2c-0.7,0.3-2.4,0-2.5,1.1c-0.1,0.6,0.4,1.2,1,1.4c1,0.3,2.3-0.2,3.2-0.6
		c1.4-0.7,2.5-1.9,2.8-3.4c0.3-1.4,0-3,0.2-4.3c0.5-3.8,3.6-5.3,4.9-8.8c1.3-3.7-0.1-7.8-2-9.9c-1.9-2.2-5.1-4.2-9.2-3.9
		C200.2,20,199.3,20.1,198.5,20.4"/>
	<path class="st0" d="M210,40.8c0-0.9,0.2-1.1,1.2-1.1h8c0.9,0,1.2,0.3,1.2,1.1V41c0,0.9-0.3,1.1-1.2,1.1h-2.7v7.2
		c0,0.9-0.3,1.1-1.2,1.1h-0.4c-0.9,0-1.2-0.3-1.2-1.1v-7.2h-2.7c-0.9,0-1.2-0.2-1.2-1.1V40.8z"/>
</g>
<g>
	<g>
		<path d="M193.2,68.7v-6.9h3.4c0.4,0,0.8,0.1,1,0.2s0.5,0.3,0.6,0.6s0.2,0.5,0.2,0.9c0,0.3,0,0.5-0.1,0.7c-0.1,0.2-0.2,0.4-0.4,0.6
			c-0.2,0.2-0.4,0.3-0.6,0.3v0c0.2,0.1,0.4,0.1,0.6,0.3s0.3,0.3,0.5,0.5c0.1,0.2,0.2,0.5,0.2,0.9c0,0.5-0.1,0.8-0.3,1.1
			c-0.2,0.3-0.4,0.5-0.7,0.6c-0.3,0.1-0.7,0.2-1.1,0.2H193.2z M193.8,64.9h2.7c0.3,0,0.5-0.1,0.7-0.2c0.2-0.1,0.4-0.3,0.5-0.4
			c0.1-0.2,0.2-0.4,0.2-0.7c0-0.4-0.1-0.7-0.3-0.9c-0.2-0.2-0.5-0.3-0.9-0.3h-2.8V64.9z M193.8,68.1h2.8c0.4,0,0.7-0.1,1-0.3
			c0.2-0.2,0.4-0.5,0.4-1c0-0.3-0.1-0.6-0.2-0.8c-0.1-0.2-0.3-0.3-0.5-0.4c-0.2-0.1-0.5-0.1-0.8-0.1h-2.8V68.1z"/>
		<path d="M201.5,68.8c-0.5,0-0.9-0.1-1.2-0.4c-0.3-0.2-0.5-0.7-0.5-1.3v-3.7h0.6v3.7c0,0.2,0,0.4,0.1,0.6c0.1,0.2,0.2,0.3,0.3,0.4
			c0.1,0.1,0.2,0.1,0.4,0.2s0.3,0,0.5,0c0.3,0,0.5-0.1,0.8-0.2c0.3-0.1,0.5-0.3,0.6-0.6c0.2-0.3,0.2-0.6,0.2-0.9v-3.1h0.6v5.3h-0.4
			l-0.1-0.9h-0.1c-0.2,0.3-0.3,0.5-0.5,0.6c-0.2,0.1-0.4,0.2-0.6,0.3C201.9,68.8,201.7,68.8,201.5,68.8z"/>
		<path d="M207.1,68.8c-0.5,0-0.9-0.1-1.2-0.3c-0.3-0.2-0.6-0.5-0.8-0.9s-0.3-0.9-0.3-1.5c0-0.6,0.1-1.1,0.3-1.5
			c0.2-0.4,0.4-0.7,0.8-0.9c0.3-0.2,0.8-0.3,1.2-0.3c0.4,0,0.7,0,0.9,0.1s0.5,0.2,0.6,0.4c0.2,0.2,0.3,0.4,0.3,0.7
			c0.1,0.3,0.1,0.5,0.1,0.8h-0.6c0-0.4,0-0.7-0.1-0.9c-0.1-0.2-0.2-0.4-0.5-0.5c-0.2-0.1-0.5-0.2-0.8-0.2c-0.3,0-0.6,0.1-0.8,0.2
			c-0.2,0.1-0.4,0.3-0.6,0.7c-0.1,0.3-0.2,0.7-0.2,1.2v0.3c0,0.5,0.1,0.9,0.2,1.2c0.1,0.3,0.3,0.5,0.6,0.7c0.2,0.1,0.5,0.2,0.9,0.2
			c0.4,0,0.6-0.1,0.9-0.2c0.2-0.1,0.4-0.3,0.4-0.5c0.1-0.2,0.1-0.5,0.1-0.8h0.6c0,0.3,0,0.5-0.1,0.8c-0.1,0.2-0.2,0.5-0.3,0.7
			s-0.4,0.3-0.6,0.5S207.5,68.8,207.1,68.8z"/>
		<path d="M210.2,68.7v-7.2h0.6v7.2H210.2z"/>
		<path d="M214.2,68.8c-0.5,0-0.9-0.1-1.2-0.3s-0.6-0.5-0.8-0.9c-0.2-0.4-0.3-0.9-0.3-1.5c0-0.6,0.1-1.2,0.3-1.6
			c0.2-0.4,0.4-0.7,0.8-0.9s0.8-0.3,1.3-0.3c0.5,0,0.9,0.1,1.2,0.3c0.3,0.2,0.6,0.5,0.7,0.8c0.2,0.4,0.2,0.8,0.2,1.3v0.5h-4
			c0,0.5,0.1,0.9,0.2,1.2c0.1,0.3,0.3,0.5,0.6,0.7s0.6,0.2,0.9,0.2c0.3,0,0.5,0,0.7-0.1c0.2-0.1,0.4-0.2,0.5-0.3
			c0.1-0.1,0.2-0.3,0.3-0.4c0.1-0.2,0.1-0.3,0.1-0.5h0.6c0,0.2-0.1,0.5-0.1,0.7c-0.1,0.2-0.2,0.4-0.4,0.6c-0.2,0.2-0.4,0.3-0.7,0.4
			C214.9,68.7,214.6,68.8,214.2,68.8z M212.5,65.7h3.4c0-0.4,0-0.7-0.1-0.9c-0.1-0.2-0.2-0.4-0.3-0.6c-0.1-0.2-0.3-0.3-0.5-0.3
			c-0.2-0.1-0.4-0.1-0.7-0.1c-0.4,0-0.7,0.1-0.9,0.2c-0.2,0.1-0.4,0.3-0.6,0.6C212.6,64.9,212.6,65.3,212.5,65.7z"/>
		<path d="M182.7,80.7v-5.3h0.4l0.1,0.9h0.1c0.2-0.3,0.3-0.5,0.5-0.6c0.2-0.1,0.4-0.2,0.6-0.3c0.2-0.1,0.4-0.1,0.7-0.1
			c0.4,0,0.7,0.1,0.9,0.2c0.3,0.1,0.4,0.4,0.5,0.8h0.1c0.1-0.2,0.3-0.4,0.5-0.6c0.2-0.1,0.4-0.2,0.6-0.3c0.2-0.1,0.4-0.1,0.7-0.1
			c0.3,0,0.6,0.1,0.8,0.2c0.2,0.1,0.4,0.3,0.6,0.5c0.1,0.2,0.2,0.6,0.2,1v3.7h-0.6V77c0-0.2,0-0.4-0.1-0.6s-0.1-0.3-0.3-0.4
			c-0.1-0.1-0.2-0.1-0.4-0.2c-0.1,0-0.3-0.1-0.5-0.1c-0.3,0-0.5,0.1-0.8,0.2c-0.2,0.1-0.4,0.3-0.6,0.6c-0.1,0.3-0.2,0.6-0.2,1v3.1
			H186V77c0-0.2,0-0.4-0.1-0.6s-0.1-0.3-0.2-0.4c-0.1-0.1-0.2-0.1-0.4-0.2c-0.1,0-0.3-0.1-0.4-0.1c-0.3,0-0.5,0.1-0.8,0.2
			c-0.2,0.1-0.4,0.3-0.6,0.6c-0.1,0.3-0.2,0.6-0.2,1v3.1H182.7z"/>
		<path d="M192.6,80.8c-0.2,0-0.4,0-0.6-0.1c-0.2-0.1-0.4-0.1-0.5-0.3c-0.2-0.1-0.3-0.3-0.4-0.4c-0.1-0.2-0.1-0.4-0.1-0.7
			c0-0.4,0.1-0.7,0.3-0.9c0.2-0.2,0.4-0.4,0.8-0.5c0.3-0.1,0.7-0.2,1.2-0.3c0.4,0,0.9-0.1,1.5-0.1v-0.7c0-0.2,0-0.4-0.1-0.6
			s-0.2-0.3-0.4-0.4s-0.5-0.1-0.9-0.1c-0.4,0-0.6,0-0.8,0.1c-0.2,0.1-0.3,0.2-0.4,0.4c-0.1,0.2-0.1,0.3-0.1,0.5V77h-0.6
			c0,0,0-0.1,0-0.1s0-0.1,0-0.1c0-0.3,0.1-0.6,0.3-0.8c0.2-0.2,0.4-0.4,0.7-0.5c0.3-0.1,0.7-0.2,1.1-0.2c0.4,0,0.8,0.1,1,0.2
			c0.3,0.1,0.5,0.3,0.6,0.5c0.1,0.2,0.2,0.5,0.2,0.8v3.2c0,0.1,0,0.2,0.1,0.3s0.1,0.1,0.2,0.1h0.5v0.4c-0.1,0-0.2,0.1-0.3,0.1
			s-0.2,0-0.3,0c-0.2,0-0.3,0-0.4-0.1c-0.1-0.1-0.2-0.2-0.2-0.3c0-0.1,0-0.3,0-0.5h-0.1c-0.1,0.2-0.3,0.4-0.5,0.5
			c-0.2,0.1-0.4,0.2-0.7,0.3C193.1,80.8,192.8,80.8,192.6,80.8z M192.6,80.3c0.2,0,0.5,0,0.7-0.1s0.4-0.2,0.6-0.3
			c0.2-0.1,0.3-0.3,0.4-0.5c0.1-0.2,0.2-0.4,0.2-0.6v-0.6c-0.7,0-1.3,0-1.7,0.1c-0.4,0.1-0.8,0.2-1,0.4c-0.2,0.2-0.3,0.4-0.3,0.8
			c0,0.2,0,0.4,0.1,0.5c0.1,0.1,0.2,0.2,0.4,0.3C192.3,80.2,192.4,80.3,192.6,80.3z"/>
		<path d="M197.5,82.5c-0.3,0-0.5-0.1-0.7-0.2c-0.2-0.1-0.4-0.3-0.5-0.5c-0.1-0.2-0.2-0.4-0.2-0.7c0-0.3,0.1-0.5,0.2-0.8
			c0.2-0.2,0.4-0.4,0.6-0.5c-0.2-0.1-0.3-0.2-0.4-0.3c-0.1-0.2-0.1-0.3-0.1-0.5c0-0.2,0.1-0.4,0.2-0.6c0.2-0.2,0.4-0.3,0.6-0.3
			c-0.2-0.2-0.4-0.3-0.5-0.6s-0.2-0.5-0.2-0.7c0-0.3,0.1-0.6,0.2-0.8c0.1-0.2,0.4-0.4,0.7-0.6c0.3-0.1,0.7-0.2,1.2-0.2
			c0.2,0,0.4,0,0.6,0.1c0.2,0,0.4,0.1,0.5,0.2c0.2-0.1,0.4-0.2,0.6-0.3c0.1-0.2,0.2-0.4,0.3-0.6h0.6c0,0.2-0.1,0.4-0.1,0.5
			c-0.1,0.2-0.2,0.3-0.4,0.4s-0.3,0.2-0.6,0.2c0.2,0.2,0.3,0.3,0.4,0.5c0.1,0.2,0.1,0.4,0.1,0.6c0,0.3-0.1,0.6-0.2,0.8
			s-0.4,0.4-0.7,0.6c-0.3,0.1-0.7,0.2-1.1,0.2h-0.8c-0.2,0-0.4,0-0.5,0.1s-0.2,0.2-0.2,0.4c0,0.2,0.1,0.3,0.2,0.4
			c0.1,0.1,0.3,0.1,0.6,0.1h2c0.4,0,0.7,0.1,0.9,0.4c0.2,0.3,0.4,0.6,0.4,1c0,0.3-0.1,0.5-0.2,0.8s-0.3,0.4-0.6,0.5
			c-0.2,0.1-0.5,0.2-0.8,0.2H197.5z M197.6,82h1.9c0.2,0,0.4,0,0.5-0.1s0.3-0.2,0.4-0.3c0.1-0.1,0.1-0.3,0.1-0.5
			c0-0.3-0.1-0.5-0.2-0.7c-0.2-0.2-0.4-0.3-0.6-0.3h-2c-0.3,0-0.5,0.1-0.6,0.3s-0.3,0.4-0.3,0.7c0,0.3,0.1,0.5,0.3,0.7
			S197.3,82,197.6,82z M198.5,78.1c0.5,0,0.9-0.1,1.1-0.3c0.2-0.2,0.4-0.5,0.4-0.8c0-0.3-0.1-0.6-0.4-0.8c-0.2-0.2-0.6-0.3-1.1-0.3
			c-0.5,0-0.9,0.1-1.1,0.3c-0.2,0.2-0.4,0.5-0.4,0.8c0,0.2,0.1,0.4,0.2,0.6c0.1,0.2,0.3,0.3,0.5,0.4S198.2,78.1,198.5,78.1z"/>
		<path d="M201.9,80.7v-5.3h0.4l0.1,0.9h0.1c0.2-0.3,0.3-0.5,0.5-0.6s0.4-0.2,0.6-0.3c0.2-0.1,0.4-0.1,0.7-0.1
			c0.3,0,0.6,0.1,0.9,0.2s0.4,0.3,0.6,0.5c0.1,0.2,0.2,0.6,0.2,1v3.7h-0.6V77c0-0.2,0-0.4-0.1-0.6c-0.1-0.2-0.2-0.3-0.3-0.4
			c-0.1-0.1-0.2-0.1-0.4-0.2c-0.1,0-0.3-0.1-0.5-0.1c-0.3,0-0.5,0.1-0.8,0.2c-0.3,0.1-0.5,0.3-0.6,0.6c-0.2,0.3-0.2,0.6-0.2,1v3.1
			H201.9z"/>
		<path d="M209.3,80.8c-0.5,0-0.9-0.1-1.2-0.3s-0.6-0.5-0.8-0.9c-0.2-0.4-0.3-0.9-0.3-1.5c0-0.6,0.1-1.2,0.3-1.6s0.4-0.7,0.8-0.9
			s0.8-0.3,1.3-0.3c0.5,0,0.9,0.1,1.2,0.3c0.3,0.2,0.6,0.5,0.7,0.8c0.2,0.4,0.2,0.8,0.2,1.3v0.5h-4c0,0.5,0.1,0.9,0.2,1.2
			c0.1,0.3,0.3,0.5,0.6,0.7s0.6,0.2,0.9,0.2c0.3,0,0.5,0,0.7-0.1c0.2-0.1,0.4-0.2,0.5-0.3c0.1-0.1,0.2-0.3,0.3-0.4
			c0.1-0.2,0.1-0.3,0.1-0.5h0.6c0,0.2-0.1,0.5-0.1,0.7c-0.1,0.2-0.2,0.4-0.4,0.6c-0.2,0.2-0.4,0.3-0.7,0.4
			C210,80.7,209.7,80.8,209.3,80.8z M207.6,77.7h3.4c0-0.4,0-0.7-0.1-0.9c-0.1-0.2-0.2-0.4-0.3-0.6c-0.1-0.2-0.3-0.3-0.5-0.3
			c-0.2-0.1-0.4-0.1-0.7-0.1c-0.4,0-0.7,0.1-0.9,0.2s-0.4,0.3-0.6,0.6C207.7,76.9,207.6,77.3,207.6,77.7z M208.9,74.8l0.9-1.3h0.8
			l0,0l-1.1,1.3H208.9z"/>
		<path d="M213.8,80.8c-0.2,0-0.4,0-0.5-0.1c-0.1-0.1-0.2-0.2-0.3-0.3c-0.1-0.1-0.1-0.3-0.1-0.5v-4h-0.7v-0.5h0.7l0.1-1.5h0.5v1.5
			h1.1v0.5h-1.1v3.8c0,0.2,0,0.3,0.1,0.4c0,0.1,0.2,0.1,0.3,0.1h0.6v0.4c-0.1,0-0.1,0.1-0.2,0.1c-0.1,0-0.2,0-0.3,0
			C213.9,80.8,213.8,80.8,213.8,80.8z"/>
		<path d="M215.5,74.2v-0.8h0.6v0.8H215.5z M215.5,80.7v-5.3h0.6v5.3H215.5z"/>
		<path d="M219.3,80.8c-0.5,0-0.9-0.1-1.2-0.3c-0.3-0.2-0.6-0.5-0.8-0.9s-0.3-0.9-0.3-1.5c0-0.6,0.1-1.1,0.3-1.5
			c0.2-0.4,0.4-0.7,0.8-0.9c0.3-0.2,0.8-0.3,1.2-0.3c0.4,0,0.7,0,0.9,0.1s0.5,0.2,0.6,0.4c0.2,0.2,0.3,0.4,0.3,0.7
			c0.1,0.3,0.1,0.5,0.1,0.8h-0.6c0-0.4,0-0.7-0.1-0.9c-0.1-0.2-0.2-0.4-0.5-0.5s-0.5-0.2-0.8-0.2c-0.3,0-0.6,0.1-0.8,0.2
			s-0.4,0.3-0.6,0.7c-0.1,0.3-0.2,0.7-0.2,1.2v0.3c0,0.5,0.1,0.9,0.2,1.2c0.1,0.3,0.3,0.5,0.6,0.7c0.2,0.1,0.5,0.2,0.9,0.2
			c0.4,0,0.6-0.1,0.9-0.2c0.2-0.1,0.4-0.3,0.4-0.5c0.1-0.2,0.1-0.5,0.1-0.8h0.6c0,0.3,0,0.5-0.1,0.8c-0.1,0.2-0.2,0.5-0.3,0.7
			s-0.4,0.3-0.6,0.5S219.7,80.8,219.3,80.8z"/>
		<path d="M224.4,80.8c-0.5,0-0.9-0.1-1.3-0.3s-0.6-0.5-0.8-0.9c-0.2-0.4-0.3-0.9-0.3-1.5c0-0.6,0.1-1.2,0.3-1.6
			c0.2-0.4,0.4-0.7,0.8-0.9s0.8-0.3,1.3-0.3c0.5,0,0.9,0.1,1.3,0.3s0.6,0.5,0.8,0.9c0.2,0.4,0.3,0.9,0.3,1.6c0,0.6-0.1,1.1-0.3,1.5
			c-0.2,0.4-0.4,0.7-0.8,0.9S224.9,80.8,224.4,80.8z M224.4,80.3c0.4,0,0.7-0.1,0.9-0.2c0.3-0.1,0.5-0.4,0.6-0.7
			c0.1-0.3,0.2-0.7,0.2-1.2v-0.3c0-0.5-0.1-0.9-0.2-1.2c-0.1-0.3-0.3-0.5-0.6-0.7c-0.3-0.1-0.6-0.2-0.9-0.2c-0.4,0-0.7,0.1-0.9,0.2
			c-0.3,0.1-0.4,0.4-0.6,0.7c-0.1,0.3-0.2,0.7-0.2,1.2v0.3c0,0.5,0.1,0.9,0.2,1.2c0.1,0.3,0.3,0.5,0.6,0.7
			C223.8,80.2,224.1,80.3,224.4,80.3z"/>
	</g>
</g>
<g>
	<path class="st0" d="M270.1,28.5c-0.5,1-1.3,4.1,0.1,4.1c1,0,0.9-1.8,1.1-2.7c0.4-1.4,1.8-3,3.2-3.6c2.6-1.2,5.2-0.3,6.7,1.3
		c0.8,0.9,1.1,1.8,1.4,3.1c0.2,0.8,0.4,1.8,1.3,1.7c1.2-0.1,0.5-2.7,0.2-3.4c-1.1-2.8-3.8-5.3-8-4.9
		C273.4,24.4,271.2,26.5,270.1,28.5"/>
	<path class="st0" d="M273.9,21.4c-3.7,1.1-6.2,3.6-7.3,7.2c-0.4,1.2-1,4.4,0.9,4.1c0.7-0.1,0.9-1.4,1.1-2.4c0.2-1.1,0.5-2,0.8-2.7
		c1.2-2.3,3.8-4.1,6.5-4.5c2.5-0.3,4.4,0.4,5.8,1.3c1.1,0.7,2.1,1.7,2.8,2.7c1.4,2.1,1.7,5.4,0.4,7.8c-1.6,2.9-4.4,4.7-4.6,8.7
		c-0.1,0.9,0.2,2.3-0.1,3.2c-0.3,1-1.1,1.9-2.1,2.2c-0.7,0.3-2.3,0-2.5,1.1c-0.1,0.6,0.4,1.2,1,1.4c0.9,0.3,2.3-0.2,3.1-0.6
		c1.4-0.7,2.4-1.9,2.8-3.4c0.3-1.4,0-3,0.2-4.2c0.5-3.7,3.6-5.3,4.8-8.6c1.3-3.7-0.1-7.7-1.9-9.8c-1.9-2.2-5-4.1-9.1-3.9
		C275.6,21.1,274.7,21.2,273.9,21.4"/>
	<path class="st0" d="M291.1,29.1c0.5,0,0.9-0.6,0.8-1.3c-0.7-3.6-3-6.7-6.3-8.5c-0.6-0.3-1.3-0.1-1.5,0.3c-0.2,0.5,0.1,1.1,0.6,1.3
		c2.8,1.5,4.8,4.1,5.3,7.1C290.1,28.7,290.6,29.1,291.1,29.1"/>
	<path class="st0" d="M284.8,19.5c-0.2,0-0.4,0.1-0.5,0.3c-0.1,0.3,0.1,0.7,0.5,0.9c2.9,1.5,4.9,4.2,5.5,7.4
		c0.1,0.4,0.4,0.7,0.8,0.7l0.1,0.3l0-0.3c0.1,0,0.2-0.1,0.3-0.2c0.1-0.2,0.2-0.5,0.1-0.7c-0.7-3.5-3-6.6-6.2-8.3
		C285.2,19.5,285,19.5,284.8,19.5 M291.2,29.4L291.2,29.4L291.2,29.4c-0.8,0-1.4-0.5-1.5-1.2c-0.6-2.9-2.5-5.5-5.2-6.9
		c-0.7-0.4-1-1.1-0.8-1.7c0.3-0.7,1.2-0.9,2-0.5c3.4,1.8,5.8,5,6.5,8.7c0.1,0.4,0,0.9-0.3,1.2C291.8,29.2,291.5,29.4,291.2,29.4"/>
	<path class="st0" d="M295.2,31.7c0.5,0.1,1.1-0.6,1.1-1.5c0.3-7.2-4.5-13.7-11.7-15.6c-0.9-0.2-1.7,0.1-1.8,0.6
		c-0.1,0.5,0.5,1,1.3,1.2c6.3,1.6,10.5,7.3,10.2,13.7C294.3,30.9,294.6,31.6,295.2,31.7"/>
	<path class="st0" d="M283.8,14.8c-0.4,0-0.6,0.2-0.7,0.4c0,0.3,0.4,0.7,1.1,0.9c6.4,1.7,10.8,7.5,10.5,14c0,0.6,0.2,1.2,0.6,1.3
		c0.3,0,0.7-0.4,0.8-1.2c0.3-7-4.5-13.5-11.4-15.3C284.3,14.8,284,14.8,283.8,14.8 M295.4,32L295.4,32c-0.1,0-0.2,0-0.3,0
		c-0.7-0.1-1.1-0.9-1.1-1.9c0.3-6.1-3.9-11.8-10-13.4c-1-0.3-1.6-0.9-1.5-1.6c0.1-0.5,0.5-0.8,1.2-0.9c0.3,0,0.7,0,1,0.1
		c7.3,1.9,12.3,8.6,11.9,15.9C296.6,31.1,296,31.9,295.4,32"/>
</g>
<g>
	<g>
		<path d="M269.6,68.8c-0.4,0-0.7,0-1.1-0.1c-0.3-0.1-0.6-0.2-0.9-0.3s-0.5-0.4-0.6-0.6c-0.2-0.3-0.2-0.6-0.2-1c0,0,0-0.1,0-0.1
			c0,0,0-0.1,0-0.1h0.6c0,0,0,0.1,0,0.1s0,0.1,0,0.1c0,0.3,0.1,0.6,0.3,0.8c0.2,0.2,0.4,0.4,0.8,0.5c0.3,0.1,0.7,0.2,1.1,0.2
			c0.1,0,0.2,0,0.4,0c0.2,0,0.4,0,0.6-0.1c0.2,0,0.4-0.1,0.6-0.2c0.2-0.1,0.3-0.2,0.4-0.4c0.1-0.2,0.2-0.4,0.2-0.6
			c0-0.3-0.1-0.5-0.2-0.6c-0.1-0.2-0.3-0.3-0.5-0.4c-0.2-0.1-0.5-0.2-0.8-0.3c-0.3-0.1-0.6-0.2-0.9-0.2c-0.3-0.1-0.6-0.2-0.9-0.2
			s-0.5-0.2-0.8-0.3c-0.2-0.1-0.4-0.3-0.5-0.5s-0.2-0.5-0.2-0.8c0-0.2,0.1-0.5,0.2-0.7c0.1-0.2,0.3-0.4,0.5-0.6s0.5-0.3,0.8-0.4
			c0.3-0.1,0.8-0.1,1.2-0.1c0.3,0,0.7,0,1,0.1c0.3,0.1,0.6,0.2,0.8,0.3s0.4,0.3,0.5,0.6c0.1,0.2,0.2,0.5,0.2,0.9v0.1h-0.7v-0.2
			c0-0.3-0.1-0.5-0.2-0.7c-0.2-0.2-0.4-0.3-0.6-0.4c-0.3-0.1-0.6-0.2-0.9-0.2c-0.5,0-0.9,0-1.2,0.1s-0.5,0.2-0.7,0.4
			c-0.1,0.2-0.2,0.4-0.2,0.6c0,0.2,0.1,0.4,0.2,0.6c0.1,0.2,0.3,0.3,0.5,0.4s0.5,0.2,0.8,0.3c0.3,0.1,0.6,0.2,0.9,0.2
			s0.6,0.2,0.9,0.2c0.3,0.1,0.5,0.2,0.8,0.4c0.2,0.1,0.4,0.3,0.5,0.5s0.2,0.5,0.2,0.8c0,0.5-0.1,0.8-0.4,1.1s-0.6,0.5-1,0.7
			C270.6,68.7,270.1,68.8,269.6,68.8z"/>
		<path d="M275.6,68.8c-0.5,0-0.9-0.1-1.3-0.3s-0.6-0.5-0.8-0.9c-0.2-0.4-0.3-0.9-0.3-1.5c0-0.6,0.1-1.2,0.3-1.6
			c0.2-0.4,0.4-0.7,0.8-0.9s0.8-0.3,1.3-0.3c0.5,0,0.9,0.1,1.3,0.3s0.6,0.5,0.8,0.9c0.2,0.4,0.3,0.9,0.3,1.6c0,0.6-0.1,1.1-0.3,1.5
			c-0.2,0.4-0.4,0.7-0.8,0.9S276.1,68.8,275.6,68.8z M275.6,68.3c0.4,0,0.7-0.1,0.9-0.2c0.3-0.1,0.5-0.4,0.6-0.7
			c0.1-0.3,0.2-0.7,0.2-1.2v-0.3c0-0.5-0.1-0.9-0.2-1.2c-0.1-0.3-0.3-0.5-0.6-0.7c-0.3-0.1-0.6-0.2-0.9-0.2c-0.4,0-0.7,0.1-0.9,0.2
			c-0.3,0.1-0.4,0.4-0.6,0.7c-0.1,0.3-0.2,0.7-0.2,1.2v0.3c0,0.5,0.1,0.9,0.2,1.2c0.1,0.3,0.3,0.5,0.6,0.7
			C275,68.2,275.3,68.3,275.6,68.3z"/>
		<path d="M279.1,68.7v-5.3h0.4l0.1,0.9h0.1c0.2-0.3,0.3-0.5,0.5-0.6c0.2-0.1,0.4-0.2,0.6-0.3c0.2-0.1,0.4-0.1,0.7-0.1
			c0.3,0,0.6,0.1,0.9,0.2c0.2,0.1,0.4,0.3,0.6,0.5c0.1,0.2,0.2,0.6,0.2,1v3.7h-0.6V65c0-0.2,0-0.4-0.1-0.6c-0.1-0.2-0.2-0.3-0.3-0.4
			c-0.1-0.1-0.2-0.1-0.4-0.2c-0.1,0-0.3,0-0.5,0c-0.3,0-0.5,0.1-0.8,0.2c-0.3,0.1-0.5,0.3-0.6,0.6c-0.2,0.3-0.2,0.6-0.2,1v3.1H279.1
			z"/>
		<path d="M284.5,62.2v-0.8h0.6v0.8H284.5z M284.5,68.7v-5.3h0.6v5.3H284.5z"/>
		<path d="M288.3,68.8c-0.4,0-0.8-0.1-1.1-0.3s-0.5-0.5-0.7-0.9c-0.2-0.4-0.2-1-0.2-1.6c0-0.6,0.1-1.1,0.2-1.5s0.4-0.7,0.7-0.9
			c0.3-0.2,0.7-0.3,1.1-0.3c0.2,0,0.4,0,0.6,0.1c0.2,0.1,0.4,0.1,0.5,0.3c0.2,0.1,0.3,0.3,0.4,0.5h0.1v-2.7h0.6v7.2h-0.4l-0.1-0.8
			H290c-0.2,0.3-0.4,0.5-0.7,0.7S288.6,68.8,288.3,68.8z M288.4,68.3c0.4,0,0.7-0.1,0.9-0.2c0.2-0.2,0.4-0.4,0.5-0.7
			c0.1-0.3,0.2-0.7,0.2-1.2v-0.2c0-0.5,0-0.8-0.1-1.1s-0.2-0.5-0.4-0.6c-0.2-0.2-0.3-0.3-0.5-0.3c-0.2-0.1-0.4-0.1-0.5-0.1
			c-0.3,0-0.6,0.1-0.9,0.2c-0.2,0.1-0.4,0.4-0.5,0.7c-0.1,0.3-0.2,0.7-0.2,1.2v0.3c0,0.5,0.1,0.9,0.2,1.2s0.3,0.5,0.5,0.7
			S288.1,68.3,288.4,68.3z"/>
		<path d="M294,68.8c-0.5,0-0.9-0.1-1.3-0.3s-0.6-0.5-0.8-0.9c-0.2-0.4-0.3-0.9-0.3-1.5c0-0.6,0.1-1.2,0.3-1.6
			c0.2-0.4,0.4-0.7,0.8-0.9s0.8-0.3,1.3-0.3c0.5,0,0.9,0.1,1.3,0.3s0.6,0.5,0.8,0.9c0.2,0.4,0.3,0.9,0.3,1.6c0,0.6-0.1,1.1-0.3,1.5
			c-0.2,0.4-0.4,0.7-0.8,0.9S294.5,68.8,294,68.8z M294,68.3c0.4,0,0.7-0.1,0.9-0.2c0.3-0.1,0.5-0.4,0.6-0.7
			c0.1-0.3,0.2-0.7,0.2-1.2v-0.3c0-0.5-0.1-0.9-0.2-1.2c-0.1-0.3-0.3-0.5-0.6-0.7c-0.3-0.1-0.6-0.2-0.9-0.2c-0.4,0-0.7,0.1-0.9,0.2
			c-0.3,0.1-0.4,0.4-0.6,0.7c-0.1,0.3-0.2,0.7-0.2,1.2v0.3c0,0.5,0.1,0.9,0.2,1.2c0.1,0.3,0.3,0.5,0.6,0.7
			C293.3,68.2,293.6,68.3,294,68.3z"/>
		<path d="M258.9,80.8c-0.2,0-0.4,0-0.6-0.1c-0.2-0.1-0.4-0.1-0.5-0.3c-0.2-0.1-0.3-0.3-0.4-0.4c-0.1-0.2-0.1-0.4-0.1-0.7
			c0-0.4,0.1-0.7,0.3-0.9c0.2-0.2,0.4-0.4,0.8-0.5c0.3-0.1,0.7-0.2,1.2-0.3c0.4,0,0.9-0.1,1.5-0.1v-0.7c0-0.2,0-0.4-0.1-0.6
			s-0.2-0.3-0.4-0.4s-0.5-0.1-0.9-0.1c-0.4,0-0.6,0-0.8,0.1c-0.2,0.1-0.3,0.2-0.4,0.4c-0.1,0.2-0.1,0.3-0.1,0.5V77h-0.6
			c0,0,0-0.1,0-0.1s0-0.1,0-0.1c0-0.3,0.1-0.6,0.3-0.8c0.2-0.2,0.4-0.4,0.7-0.5c0.3-0.1,0.7-0.2,1.1-0.2c0.4,0,0.8,0.1,1,0.2
			c0.3,0.1,0.5,0.3,0.6,0.5c0.1,0.2,0.2,0.5,0.2,0.8v3.2c0,0.1,0,0.2,0.1,0.3s0.1,0.1,0.2,0.1h0.5v0.4c-0.1,0-0.2,0.1-0.3,0.1
			s-0.2,0-0.3,0c-0.2,0-0.3,0-0.4-0.1c-0.1-0.1-0.2-0.2-0.2-0.3c0-0.1,0-0.3,0-0.5h-0.1c-0.1,0.2-0.3,0.4-0.5,0.5
			c-0.2,0.1-0.4,0.2-0.7,0.3C259.4,80.8,259.1,80.8,258.9,80.8z M259,80.3c0.2,0,0.5,0,0.7-0.1s0.4-0.2,0.6-0.3
			c0.2-0.1,0.3-0.3,0.4-0.5c0.1-0.2,0.2-0.4,0.2-0.6v-0.6c-0.7,0-1.3,0-1.7,0.1c-0.4,0.1-0.8,0.2-1,0.4c-0.2,0.2-0.3,0.4-0.3,0.8
			c0,0.2,0,0.4,0.1,0.5c0.1,0.1,0.2,0.2,0.4,0.3C258.6,80.2,258.8,80.3,259,80.3z"/>
		<path d="M262.9,80.7v-5.3h0.4l0.1,0.9h0.1c0.2-0.3,0.3-0.5,0.5-0.6c0.2-0.1,0.4-0.2,0.6-0.3c0.2-0.1,0.4-0.1,0.7-0.1
			c0.4,0,0.7,0.1,0.9,0.2c0.3,0.1,0.4,0.4,0.5,0.8h0.1c0.1-0.2,0.3-0.4,0.5-0.6c0.2-0.1,0.4-0.2,0.6-0.3c0.2-0.1,0.4-0.1,0.7-0.1
			c0.3,0,0.6,0.1,0.8,0.2c0.2,0.1,0.4,0.3,0.6,0.5c0.1,0.2,0.2,0.6,0.2,1v3.7h-0.6V77c0-0.2,0-0.4-0.1-0.6s-0.1-0.3-0.3-0.4
			c-0.1-0.1-0.2-0.1-0.4-0.2c-0.1,0-0.3-0.1-0.5-0.1c-0.3,0-0.5,0.1-0.8,0.2c-0.2,0.1-0.4,0.3-0.6,0.6c-0.1,0.3-0.2,0.6-0.2,1v3.1
			h-0.6V77c0-0.2,0-0.4-0.1-0.6s-0.1-0.3-0.2-0.4c-0.1-0.1-0.2-0.1-0.4-0.2c-0.1,0-0.3-0.1-0.4-0.1c-0.3,0-0.5,0.1-0.8,0.2
			c-0.2,0.1-0.4,0.3-0.6,0.6c-0.1,0.3-0.2,0.6-0.2,1v3.1H262.9z"/>
		<path d="M271.5,82.4v-7h0.4l0.1,0.8h0.1c0.2-0.3,0.4-0.5,0.7-0.7c0.3-0.1,0.6-0.2,1-0.2c0.4,0,0.8,0.1,1.1,0.3s0.5,0.5,0.7,0.9
			c0.2,0.4,0.2,0.9,0.2,1.6c0,0.6-0.1,1.1-0.3,1.5s-0.4,0.7-0.7,0.9s-0.7,0.3-1.1,0.3c-0.2,0-0.4,0-0.6-0.1
			c-0.2-0.1-0.4-0.1-0.6-0.3s-0.3-0.3-0.4-0.5h-0.1v2.4H271.5z M273.6,80.3c0.3,0,0.6-0.1,0.9-0.2c0.2-0.1,0.4-0.4,0.5-0.7
			c0.1-0.3,0.2-0.7,0.2-1.2v-0.3c0-0.5-0.1-1-0.2-1.3c-0.1-0.3-0.3-0.5-0.5-0.6s-0.5-0.2-0.8-0.2c-0.4,0-0.7,0.1-0.9,0.2
			c-0.2,0.2-0.4,0.4-0.5,0.7c-0.1,0.3-0.2,0.7-0.2,1.2v0.2c0,0.5,0,0.8,0.1,1.1s0.2,0.5,0.4,0.6c0.2,0.2,0.3,0.3,0.5,0.3
			C273.3,80.3,273.5,80.3,273.6,80.3z"/>
		<path d="M276.9,80.7v-7.2h0.6v7.2H276.9z"/>
		<path d="M279,74.2v-0.8h0.6v0.8H279z M279,80.7v-5.3h0.6v5.3H279z"/>
		<path d="M281.2,80.7v-4.8h-0.8v-0.5h0.8v-1c0-0.2,0-0.3,0.1-0.5c0.1-0.2,0.1-0.3,0.3-0.4c0.1-0.1,0.3-0.2,0.6-0.2
			c0.1,0,0.2,0,0.2,0s0.2,0,0.2,0c0.1,0,0.1,0,0.2,0v0.4h-0.5c-0.2,0-0.3,0-0.4,0.1c-0.1,0.1-0.1,0.2-0.1,0.4v1h1.1v0.5h-1.1v4.8
			H281.2z M283.6,74.2v-0.8h0.6v0.8H283.6z M283.6,80.7v-5.3h0.6v5.3H283.6z"/>
		<path d="M287.4,80.8c-0.5,0-0.9-0.1-1.2-0.3c-0.3-0.2-0.6-0.5-0.8-0.9s-0.3-0.9-0.3-1.5c0-0.6,0.1-1.1,0.3-1.5
			c0.2-0.4,0.4-0.7,0.8-0.9c0.3-0.2,0.8-0.3,1.2-0.3c0.4,0,0.7,0,0.9,0.1s0.5,0.2,0.6,0.4c0.2,0.2,0.3,0.4,0.3,0.7
			c0.1,0.3,0.1,0.5,0.1,0.8h-0.6c0-0.4,0-0.7-0.1-0.9c-0.1-0.2-0.2-0.4-0.5-0.5s-0.5-0.2-0.8-0.2c-0.3,0-0.6,0.1-0.8,0.2
			s-0.4,0.3-0.6,0.7c-0.1,0.3-0.2,0.7-0.2,1.2v0.3c0,0.5,0.1,0.9,0.2,1.2c0.1,0.3,0.3,0.5,0.6,0.7c0.2,0.1,0.5,0.2,0.9,0.2
			c0.4,0,0.6-0.1,0.9-0.2c0.2-0.1,0.4-0.3,0.4-0.5c0.1-0.2,0.1-0.5,0.1-0.8h0.6c0,0.3,0,0.5-0.1,0.8c-0.1,0.2-0.2,0.5-0.3,0.7
			s-0.4,0.3-0.6,0.5S287.8,80.8,287.4,80.8z"/>
		<path d="M291.8,80.8c-0.2,0-0.4,0-0.6-0.1c-0.2-0.1-0.4-0.1-0.5-0.3c-0.2-0.1-0.3-0.3-0.4-0.4c-0.1-0.2-0.1-0.4-0.1-0.7
			c0-0.4,0.1-0.7,0.3-0.9c0.2-0.2,0.4-0.4,0.8-0.5c0.3-0.1,0.7-0.2,1.2-0.3c0.4,0,0.9-0.1,1.5-0.1v-0.7c0-0.2,0-0.4-0.1-0.6
			s-0.2-0.3-0.4-0.4s-0.5-0.1-0.9-0.1c-0.4,0-0.6,0-0.8,0.1c-0.2,0.1-0.3,0.2-0.4,0.4c-0.1,0.2-0.1,0.3-0.1,0.5V77h-0.6
			c0,0,0-0.1,0-0.1s0-0.1,0-0.1c0-0.3,0.1-0.6,0.3-0.8c0.2-0.2,0.4-0.4,0.7-0.5c0.3-0.1,0.7-0.2,1.1-0.2c0.4,0,0.8,0.1,1,0.2
			c0.3,0.1,0.5,0.3,0.6,0.5c0.1,0.2,0.2,0.5,0.2,0.8v3.2c0,0.1,0,0.2,0.1,0.3s0.1,0.1,0.2,0.1h0.5v0.4c-0.1,0-0.2,0.1-0.3,0.1
			s-0.2,0-0.3,0c-0.2,0-0.3,0-0.4-0.1c-0.1-0.1-0.2-0.2-0.2-0.3c0-0.1,0-0.3,0-0.5h-0.1c-0.1,0.2-0.3,0.4-0.5,0.5
			c-0.2,0.1-0.4,0.2-0.7,0.3C292.3,80.8,292.1,80.8,291.8,80.8z M291.9,80.3c0.2,0,0.5,0,0.7-0.1s0.4-0.2,0.6-0.3
			c0.2-0.1,0.3-0.3,0.4-0.5c0.1-0.2,0.2-0.4,0.2-0.6v-0.6c-0.7,0-1.3,0-1.7,0.1c-0.4,0.1-0.8,0.2-1,0.4c-0.2,0.2-0.3,0.4-0.3,0.8
			c0,0.2,0,0.4,0.1,0.5c0.1,0.1,0.2,0.2,0.4,0.3C291.5,80.2,291.7,80.3,291.9,80.3z"/>
		<path d="M297.6,80.8c-0.4,0-0.8-0.1-1.1-0.3s-0.5-0.5-0.7-0.9c-0.2-0.4-0.2-1-0.2-1.6c0-0.6,0.1-1.1,0.2-1.5s0.4-0.7,0.7-0.9
			c0.3-0.2,0.7-0.3,1.1-0.3c0.2,0,0.4,0,0.6,0.1s0.4,0.1,0.5,0.3c0.2,0.1,0.3,0.3,0.4,0.5h0.1v-2.7h0.6v7.2h-0.4l-0.1-0.8h-0.1
			c-0.2,0.3-0.4,0.5-0.7,0.7S297.9,80.8,297.6,80.8z M297.7,80.3c0.4,0,0.7-0.1,0.9-0.2c0.2-0.2,0.4-0.4,0.5-0.7
			c0.1-0.3,0.2-0.7,0.2-1.2v-0.2c0-0.5,0-0.8-0.1-1.1s-0.2-0.5-0.4-0.6c-0.2-0.1-0.3-0.3-0.5-0.3c-0.2-0.1-0.4-0.1-0.5-0.1
			c-0.3,0-0.6,0.1-0.9,0.2c-0.2,0.1-0.4,0.4-0.5,0.7c-0.1,0.3-0.2,0.7-0.2,1.2v0.3c0,0.5,0.1,0.9,0.2,1.2s0.3,0.5,0.5,0.7
			S297.4,80.3,297.7,80.3z"/>
		<path d="M303.3,80.8c-0.5,0-0.9-0.1-1.3-0.3s-0.6-0.5-0.8-0.9c-0.2-0.4-0.3-0.9-0.3-1.5c0-0.6,0.1-1.2,0.3-1.6
			c0.2-0.4,0.4-0.7,0.8-0.9s0.8-0.3,1.3-0.3c0.5,0,0.9,0.1,1.3,0.3s0.6,0.5,0.8,0.9c0.2,0.4,0.3,0.9,0.3,1.6c0,0.6-0.1,1.1-0.3,1.5
			c-0.2,0.4-0.4,0.7-0.8,0.9S303.8,80.8,303.3,80.8z M303.3,80.3c0.4,0,0.7-0.1,0.9-0.2c0.3-0.1,0.5-0.4,0.6-0.7
			c0.1-0.3,0.2-0.7,0.2-1.2v-0.3c0-0.5-0.1-0.9-0.2-1.2c-0.1-0.3-0.3-0.5-0.6-0.7c-0.3-0.1-0.6-0.2-0.9-0.2c-0.4,0-0.7,0.1-0.9,0.2
			c-0.3,0.1-0.4,0.4-0.6,0.7c-0.1,0.3-0.2,0.7-0.2,1.2v0.3c0,0.5,0.1,0.9,0.2,1.2c0.1,0.3,0.3,0.5,0.6,0.7
			C302.6,80.2,302.9,80.3,303.3,80.3z"/>
	</g>
</g>
<g>
	<path class="st0" d="M364.5,29.8c0.7,0.7,1.9,0.7,2.6,0l9.2-9.1c0.7-0.7,0.7-1.9,0-2.6c-0.7-0.7-1.9-0.7-2.6,0l-9.2,9.1
		C363.7,28,363.7,29.1,364.5,29.8"/>
	<path class="st0" d="M376.3,30.1l-5.2,5.2c-0.7,0.7-0.7,1.9,0,2.6c0.7,0.7,1.9,0.7,2.6,0l5.2-5.2c0.7-0.7,0.7-1.9,0-2.6
		C378.2,29.4,377,29.4,376.3,30.1"/>
	<path class="st0" d="M362.1,27.8l6.7-6.8c0.7-0.7,0.7-1.9,0-2.6c-0.7-0.7-1.9-0.7-2.6,0l-6.7,6.8c-0.7,0.7-0.7,1.9,0,2.6
		C360.2,28.5,361.3,28.5,362.1,27.8"/>
	<path class="st0" d="M380.1,21.7c-0.7-0.7-1.9-0.7-2.6,0l-9.2,9.1c-0.7,0.7-0.7,1.9,0,2.6c0.7,0.7,1.9,0.7,2.6,0l9.2-9.1
		C380.8,23.5,380.8,22.4,380.1,21.7"/>
	<path class="st0" d="M366.4,33.1c0,0-0.2-0.2-0.2-0.2c-0.1-0.1-0.3-0.3-0.4-0.4c-3.3-3.3-5.9-3.5-8.2-1.3c-1.5,1.5-1.9,3.3-1.4,5.4
		l1.1,4.1c0.6,2,0.6,2.7,0,3.2c-0.3,0.3-0.6,0.4-0.9,0.4c0,0,0,0,0,0c-0.7,0-1.3,0-1.9-0.2c-2.1-0.7-3.3-2.4-3.3-4.6
		c0-1.9,0-3.8,0-5.6c0,0,0,0,0,0v-9c0-1.1-0.9-2-2-2c-1.1,0-2,0.9-2,2v2.8c0,0,0,0,0,0c0,4,0,8.1,0,12.1c0,1.1,0.3,2.3,0.8,3.3
		c1.7,3.6,5,5.4,8.8,5.1c0,0,0,0,0,0c1.2,0,2.3-0.6,3.3-1.5c1.7-1.7,1.9-3.4,1.2-6l-1.1-4.2c-0.4-1.4-0.4-1.9,0.1-2.3
		c0.7-0.7,1.5-0.4,2.9,1c0.1,0.1,0.3,0.3,0.4,0.4l2.8,3.2c0.6,0.7,1.8,0.8,2.6,0.2c0.8-0.6,0.9-1.8,0.2-2.5L366.4,33.1z"/>
</g>
<g>
	<g>
		<path d="M348.9,68.7v-6.9h0.6v6.3h3.4v0.6H348.9z"/>
		<path d="M355.7,68.8c-0.5,0-0.9-0.1-1.2-0.3s-0.6-0.5-0.8-0.9c-0.2-0.4-0.3-0.9-0.3-1.5c0-0.6,0.1-1.2,0.3-1.6
			c0.2-0.4,0.4-0.7,0.8-0.9s0.8-0.3,1.3-0.3c0.5,0,0.9,0.1,1.2,0.3c0.3,0.2,0.6,0.5,0.7,0.8c0.2,0.4,0.2,0.8,0.2,1.3v0.5h-4
			c0,0.5,0.1,0.9,0.2,1.2c0.1,0.3,0.3,0.5,0.6,0.7s0.6,0.2,0.9,0.2c0.3,0,0.5,0,0.7-0.1c0.2-0.1,0.4-0.2,0.5-0.3
			c0.1-0.1,0.2-0.3,0.3-0.4c0.1-0.2,0.1-0.3,0.1-0.5h0.6c0,0.2-0.1,0.5-0.1,0.7c-0.1,0.2-0.2,0.4-0.4,0.6c-0.2,0.2-0.4,0.3-0.7,0.4
			C356.4,68.7,356.1,68.8,355.7,68.8z M354,65.7h3.4c0-0.4,0-0.7-0.1-0.9c-0.1-0.2-0.2-0.4-0.3-0.6c-0.1-0.2-0.3-0.3-0.5-0.3
			c-0.2-0.1-0.4-0.1-0.7-0.1c-0.4,0-0.7,0.1-0.9,0.2c-0.2,0.1-0.4,0.3-0.6,0.6C354.1,64.9,354,65.3,354,65.7z"/>
		<path d="M359.1,68.7v-5.3h0.4l0.1,0.9h0.1c0.2-0.3,0.3-0.5,0.5-0.6c0.2-0.1,0.4-0.2,0.6-0.3c0.2-0.1,0.4-0.1,0.7-0.1
			c0.3,0,0.6,0.1,0.9,0.2c0.2,0.1,0.4,0.3,0.6,0.5c0.1,0.2,0.2,0.6,0.2,1v3.7h-0.6V65c0-0.2,0-0.4-0.1-0.6c-0.1-0.2-0.2-0.3-0.3-0.4
			c-0.1-0.1-0.2-0.1-0.4-0.2c-0.1,0-0.3,0-0.5,0c-0.3,0-0.5,0.1-0.8,0.2c-0.3,0.1-0.5,0.3-0.6,0.6c-0.2,0.3-0.2,0.6-0.2,1v3.1H359.1
			z"/>
		<path d="M365.4,70.5c-0.3,0-0.5-0.1-0.7-0.2c-0.2-0.1-0.4-0.3-0.5-0.5c-0.1-0.2-0.2-0.4-0.2-0.7c0-0.3,0.1-0.5,0.2-0.8
			c0.2-0.2,0.4-0.4,0.6-0.5c-0.2-0.1-0.3-0.2-0.4-0.3c-0.1-0.2-0.1-0.3-0.1-0.5c0-0.2,0.1-0.4,0.2-0.6c0.2-0.2,0.4-0.3,0.6-0.3
			c-0.2-0.2-0.4-0.3-0.5-0.6s-0.2-0.5-0.2-0.7c0-0.3,0.1-0.6,0.2-0.8c0.1-0.2,0.4-0.4,0.7-0.6c0.3-0.1,0.7-0.2,1.2-0.2
			c0.2,0,0.4,0,0.6,0.1c0.2,0,0.4,0.1,0.5,0.2c0.2-0.1,0.4-0.2,0.6-0.3c0.1-0.2,0.2-0.4,0.3-0.6h0.6c0,0.2-0.1,0.4-0.1,0.5
			c-0.1,0.2-0.2,0.3-0.4,0.4c-0.1,0.1-0.3,0.2-0.6,0.2c0.2,0.2,0.3,0.3,0.4,0.5s0.1,0.4,0.1,0.6c0,0.3-0.1,0.6-0.2,0.8
			s-0.4,0.4-0.7,0.6c-0.3,0.1-0.7,0.2-1.1,0.2h-0.8c-0.2,0-0.4,0-0.5,0.1s-0.2,0.2-0.2,0.4c0,0.2,0.1,0.3,0.2,0.4
			c0.1,0.1,0.3,0.1,0.6,0.1h2c0.4,0,0.7,0.1,0.9,0.4c0.2,0.3,0.4,0.6,0.4,1c0,0.3-0.1,0.5-0.2,0.8c-0.1,0.2-0.3,0.4-0.6,0.5
			s-0.5,0.2-0.8,0.2H365.4z M365.5,70h1.9c0.2,0,0.4,0,0.5-0.1c0.1-0.1,0.3-0.2,0.4-0.3c0.1-0.1,0.1-0.3,0.1-0.5
			c0-0.3-0.1-0.5-0.2-0.7c-0.2-0.2-0.4-0.3-0.6-0.3h-2c-0.3,0-0.5,0.1-0.6,0.3c-0.2,0.2-0.3,0.4-0.3,0.7c0,0.3,0.1,0.5,0.3,0.7
			C365,69.9,365.3,70,365.5,70z M366.5,66.1c0.5,0,0.9-0.1,1.1-0.3c0.2-0.2,0.4-0.5,0.4-0.8c0-0.3-0.1-0.6-0.4-0.8
			c-0.2-0.2-0.6-0.3-1.1-0.3c-0.5,0-0.8,0.1-1.1,0.3c-0.2,0.2-0.4,0.5-0.4,0.8c0,0.2,0.1,0.4,0.2,0.6c0.1,0.2,0.3,0.3,0.5,0.4
			S366.1,66.1,366.5,66.1z"/>
		<path d="M371.4,68.8c-0.5,0-0.9-0.1-1.2-0.4c-0.3-0.2-0.5-0.7-0.5-1.3v-3.7h0.6v3.7c0,0.2,0,0.4,0.1,0.6c0.1,0.2,0.2,0.3,0.3,0.4
			c0.1,0.1,0.2,0.1,0.4,0.2c0.2,0,0.3,0,0.5,0c0.3,0,0.5-0.1,0.8-0.2c0.3-0.1,0.5-0.3,0.6-0.6c0.2-0.3,0.2-0.6,0.2-0.9v-3.1h0.6v5.3
			h-0.4l-0.1-0.9h-0.1c-0.2,0.3-0.3,0.5-0.5,0.6c-0.2,0.1-0.4,0.2-0.6,0.3C371.8,68.8,371.6,68.8,371.4,68.8z"/>
		<path d="M376.5,68.8c-0.2,0-0.4,0-0.6-0.1c-0.2-0.1-0.4-0.1-0.5-0.3c-0.2-0.1-0.3-0.3-0.4-0.4s-0.1-0.4-0.1-0.7
			c0-0.4,0.1-0.7,0.3-0.9c0.2-0.2,0.4-0.4,0.8-0.5c0.3-0.1,0.7-0.2,1.2-0.3c0.4,0,0.9-0.1,1.5-0.1v-0.7c0-0.2,0-0.4-0.1-0.6
			c-0.1-0.2-0.2-0.3-0.4-0.4c-0.2-0.1-0.5-0.1-0.9-0.1c-0.4,0-0.6,0-0.8,0.1c-0.2,0.1-0.3,0.2-0.4,0.4c-0.1,0.2-0.1,0.3-0.1,0.5V65
			h-0.6c0,0,0-0.1,0-0.1s0-0.1,0-0.1c0-0.3,0.1-0.6,0.3-0.8c0.2-0.2,0.4-0.4,0.7-0.5c0.3-0.1,0.7-0.2,1.1-0.2c0.4,0,0.8,0.1,1,0.2
			c0.3,0.1,0.5,0.3,0.6,0.5c0.2,0.2,0.2,0.5,0.2,0.8v3.2c0,0.1,0,0.2,0.1,0.3c0,0,0.1,0.1,0.2,0.1h0.5v0.4c-0.1,0-0.2,0.1-0.3,0.1
			s-0.2,0-0.3,0c-0.2,0-0.3,0-0.4-0.1s-0.2-0.2-0.2-0.3c0-0.1,0-0.3,0-0.5h-0.1c-0.1,0.2-0.3,0.4-0.5,0.5c-0.2,0.1-0.4,0.2-0.7,0.3
			C377,68.8,376.8,68.8,376.5,68.8z M376.6,68.3c0.2,0,0.5,0,0.7-0.1c0.2-0.1,0.4-0.2,0.6-0.3c0.2-0.1,0.3-0.3,0.4-0.5
			c0.1-0.2,0.2-0.4,0.2-0.6v-0.6c-0.7,0-1.3,0-1.7,0.1s-0.8,0.2-1,0.4c-0.2,0.2-0.3,0.4-0.3,0.8c0,0.2,0,0.4,0.2,0.5
			c0.1,0.1,0.2,0.2,0.4,0.3C376.2,68.2,376.4,68.3,376.6,68.3z"/>
		<path d="M346,80.8c-0.4,0-0.8-0.1-1.1-0.3s-0.5-0.5-0.7-0.9c-0.2-0.4-0.2-1-0.2-1.6c0-0.6,0.1-1.1,0.2-1.5s0.4-0.7,0.7-0.9
			c0.3-0.2,0.7-0.3,1.1-0.3c0.2,0,0.4,0,0.6,0.1s0.4,0.1,0.5,0.3c0.2,0.1,0.3,0.3,0.4,0.5h0.1v-2.7h0.6v7.2h-0.4l-0.1-0.8h-0.1
			c-0.2,0.3-0.4,0.5-0.7,0.7S346.3,80.8,346,80.8z M346,80.3c0.4,0,0.7-0.1,0.9-0.2c0.2-0.2,0.4-0.4,0.5-0.7
			c0.1-0.3,0.2-0.7,0.2-1.2v-0.2c0-0.5,0-0.8-0.1-1.1s-0.2-0.5-0.4-0.6c-0.2-0.1-0.3-0.3-0.5-0.3c-0.2-0.1-0.4-0.1-0.5-0.1
			c-0.3,0-0.6,0.1-0.9,0.2c-0.2,0.1-0.4,0.4-0.5,0.7c-0.1,0.3-0.2,0.7-0.2,1.2v0.3c0,0.5,0.1,0.9,0.2,1.2s0.3,0.5,0.5,0.7
			S345.7,80.3,346,80.3z"/>
		<path d="M351.6,80.8c-0.5,0-0.9-0.1-1.2-0.3s-0.6-0.5-0.8-0.9c-0.2-0.4-0.3-0.9-0.3-1.5c0-0.6,0.1-1.2,0.3-1.6s0.4-0.7,0.8-0.9
			s0.8-0.3,1.3-0.3c0.5,0,0.9,0.1,1.2,0.3c0.3,0.2,0.6,0.5,0.7,0.8c0.2,0.4,0.2,0.8,0.2,1.3v0.5h-4c0,0.5,0.1,0.9,0.2,1.2
			c0.1,0.3,0.3,0.5,0.6,0.7s0.6,0.2,0.9,0.2c0.3,0,0.5,0,0.7-0.1c0.2-0.1,0.4-0.2,0.5-0.3c0.1-0.1,0.2-0.3,0.3-0.4
			c0.1-0.2,0.1-0.3,0.1-0.5h0.6c0,0.2-0.1,0.5-0.1,0.7c-0.1,0.2-0.2,0.4-0.4,0.6c-0.2,0.2-0.4,0.3-0.7,0.4
			C352.3,80.7,352,80.8,351.6,80.8z M349.9,77.7h3.4c0-0.4,0-0.7-0.1-0.9c-0.1-0.2-0.2-0.4-0.3-0.6c-0.1-0.2-0.3-0.3-0.5-0.3
			c-0.2-0.1-0.4-0.1-0.7-0.1c-0.4,0-0.7,0.1-0.9,0.2s-0.4,0.3-0.6,0.6C350,76.9,350,77.3,349.9,77.7z"/>
		<path d="M358.8,80.8c-0.3,0-0.6,0-0.9-0.1c-0.3-0.1-0.5-0.2-0.6-0.3c-0.2-0.1-0.3-0.3-0.4-0.5c-0.1-0.2-0.1-0.4-0.1-0.7
			c0,0,0-0.1,0-0.1c0,0,0-0.1,0-0.1h0.6c0,0,0,0.1,0,0.1c0,0,0,0,0,0.1c0,0.3,0.1,0.5,0.2,0.7c0.1,0.2,0.3,0.3,0.5,0.3
			c0.2,0.1,0.5,0.1,0.8,0.1c0.3,0,0.5,0,0.7-0.1c0.2-0.1,0.4-0.2,0.5-0.3c0.1-0.1,0.2-0.3,0.2-0.5c0-0.3-0.1-0.5-0.2-0.6
			s-0.4-0.2-0.6-0.3s-0.5-0.2-0.8-0.2c-0.2-0.1-0.4-0.1-0.6-0.2s-0.4-0.2-0.6-0.3c-0.2-0.1-0.3-0.2-0.4-0.4s-0.1-0.4-0.1-0.6
			c0-0.2,0-0.4,0.1-0.6c0.1-0.2,0.2-0.3,0.4-0.4c0.2-0.1,0.4-0.2,0.6-0.3c0.2-0.1,0.5-0.1,0.8-0.1c0.4,0,0.7,0,0.9,0.1
			s0.4,0.2,0.6,0.3c0.1,0.1,0.2,0.3,0.3,0.5c0.1,0.2,0.1,0.3,0.1,0.5c0,0,0,0,0,0.1c0,0,0,0.1,0,0.1h-0.6v-0.2c0-0.1,0-0.3-0.1-0.4
			c-0.1-0.1-0.2-0.3-0.4-0.4s-0.5-0.2-0.9-0.2c-0.2,0-0.4,0-0.6,0.1s-0.3,0.1-0.4,0.2c-0.1,0.1-0.2,0.2-0.2,0.3s-0.1,0.2-0.1,0.4
			c0,0.2,0.1,0.4,0.2,0.5c0.1,0.1,0.3,0.2,0.5,0.3s0.4,0.1,0.7,0.2c0.2,0.1,0.5,0.1,0.7,0.2c0.2,0.1,0.4,0.2,0.6,0.3
			c0.2,0.1,0.3,0.2,0.5,0.4c0.1,0.2,0.2,0.4,0.2,0.7c0,0.3-0.1,0.5-0.2,0.7c-0.1,0.2-0.2,0.4-0.4,0.5c-0.2,0.1-0.4,0.2-0.6,0.3
			C359.4,80.8,359.1,80.8,358.8,80.8z"/>
		<path d="M362,74.2v-0.8h0.6v0.8H362z M362,80.7v-5.3h0.6v5.3H362z"/>
		<path d="M364.9,82.5c-0.3,0-0.5-0.1-0.7-0.2c-0.2-0.1-0.4-0.3-0.5-0.5c-0.1-0.2-0.2-0.4-0.2-0.7c0-0.3,0.1-0.5,0.2-0.8
			c0.2-0.2,0.4-0.4,0.6-0.5c-0.2-0.1-0.3-0.2-0.4-0.3c-0.1-0.2-0.1-0.3-0.1-0.5c0-0.2,0.1-0.4,0.2-0.6c0.2-0.2,0.4-0.3,0.6-0.3
			c-0.2-0.2-0.4-0.3-0.5-0.6s-0.2-0.5-0.2-0.7c0-0.3,0.1-0.6,0.2-0.8c0.1-0.2,0.4-0.4,0.7-0.6s0.7-0.2,1.2-0.2c0.2,0,0.4,0,0.6,0.1
			c0.2,0,0.4,0.1,0.5,0.2c0.2-0.1,0.4-0.2,0.6-0.3c0.1-0.2,0.2-0.4,0.3-0.6h0.6c0,0.2-0.1,0.4-0.1,0.5s-0.2,0.3-0.3,0.4
			c-0.2,0.1-0.3,0.2-0.6,0.2c0.2,0.2,0.3,0.3,0.4,0.5c0.1,0.2,0.1,0.4,0.1,0.6c0,0.3-0.1,0.6-0.2,0.8s-0.4,0.4-0.7,0.6
			s-0.7,0.2-1.1,0.2h-0.8c-0.2,0-0.4,0-0.5,0.1s-0.2,0.2-0.2,0.4c0,0.2,0.1,0.3,0.2,0.4s0.3,0.1,0.6,0.1h2c0.4,0,0.7,0.1,0.9,0.4
			c0.2,0.3,0.4,0.6,0.4,1c0,0.3-0.1,0.5-0.2,0.8c-0.1,0.2-0.3,0.4-0.6,0.5c-0.2,0.1-0.5,0.2-0.8,0.2H364.9z M365,82h1.8
			c0.2,0,0.4,0,0.5-0.1c0.2-0.1,0.3-0.2,0.4-0.3s0.1-0.3,0.1-0.5c0-0.3-0.1-0.5-0.2-0.7c-0.2-0.2-0.4-0.3-0.6-0.3h-2
			c-0.3,0-0.5,0.1-0.7,0.3c-0.2,0.2-0.3,0.4-0.3,0.7c0,0.3,0.1,0.5,0.3,0.7C364.5,81.9,364.8,82,365,82z M366,78.1
			c0.5,0,0.9-0.1,1.1-0.3c0.2-0.2,0.4-0.5,0.4-0.8c0-0.3-0.1-0.6-0.4-0.8c-0.2-0.2-0.6-0.3-1.1-0.3c-0.5,0-0.9,0.1-1.1,0.3
			c-0.2,0.2-0.4,0.5-0.4,0.8c0,0.2,0.1,0.4,0.2,0.6c0.1,0.2,0.3,0.3,0.5,0.4S365.6,78.1,366,78.1z"/>
		<path d="M369.3,80.7v-5.3h0.4l0.1,0.9h0.1c0.2-0.3,0.3-0.5,0.5-0.6c0.2-0.1,0.4-0.2,0.6-0.3s0.5-0.1,0.7-0.1
			c0.3,0,0.6,0.1,0.9,0.2s0.4,0.3,0.6,0.5c0.1,0.2,0.2,0.6,0.2,1v3.7h-0.6V77c0-0.2,0-0.4-0.1-0.6c-0.1-0.2-0.2-0.3-0.3-0.4
			c-0.1-0.1-0.2-0.1-0.4-0.2c-0.1,0-0.3-0.1-0.5-0.1c-0.3,0-0.5,0.1-0.8,0.2c-0.3,0.1-0.5,0.3-0.6,0.6c-0.2,0.3-0.2,0.6-0.2,1v3.1
			H369.3z"/>
		<path d="M376.7,80.8c-0.5,0-0.9-0.1-1.3-0.3s-0.6-0.5-0.8-0.9c-0.2-0.4-0.3-0.9-0.3-1.5c0-0.6,0.1-1.2,0.3-1.6
			c0.2-0.4,0.4-0.7,0.8-0.9s0.8-0.3,1.3-0.3c0.5,0,0.9,0.1,1.3,0.3c0.3,0.2,0.6,0.5,0.8,0.9s0.3,0.9,0.3,1.6c0,0.6-0.1,1.1-0.3,1.5
			c-0.2,0.4-0.4,0.7-0.8,0.9C377.6,80.7,377.2,80.8,376.7,80.8z M376.7,80.3c0.4,0,0.7-0.1,0.9-0.2c0.3-0.1,0.5-0.4,0.6-0.7
			c0.1-0.3,0.2-0.7,0.2-1.2v-0.3c0-0.5-0.1-0.9-0.2-1.2c-0.1-0.3-0.3-0.5-0.6-0.7c-0.3-0.1-0.6-0.2-0.9-0.2c-0.4,0-0.7,0.1-0.9,0.2
			c-0.3,0.1-0.4,0.4-0.6,0.7c-0.1,0.3-0.2,0.7-0.2,1.2v0.3c0,0.5,0.1,0.9,0.2,1.2c0.1,0.3,0.3,0.5,0.6,0.7
			C376.1,80.2,376.4,80.3,376.7,80.3z"/>
		<path d="M381.8,80.8c-0.3,0-0.6,0-0.9-0.1c-0.3-0.1-0.5-0.2-0.6-0.3c-0.2-0.1-0.3-0.3-0.4-0.5c-0.1-0.2-0.1-0.4-0.1-0.7
			c0,0,0-0.1,0-0.1c0,0,0-0.1,0-0.1h0.6c0,0,0,0.1,0,0.1c0,0,0,0,0,0.1c0,0.3,0.1,0.5,0.2,0.7c0.1,0.2,0.3,0.3,0.5,0.3
			c0.2,0.1,0.5,0.1,0.8,0.1c0.3,0,0.5,0,0.7-0.1c0.2-0.1,0.4-0.2,0.5-0.3s0.2-0.3,0.2-0.5c0-0.3-0.1-0.5-0.2-0.6
			c-0.2-0.1-0.4-0.2-0.6-0.3c-0.2-0.1-0.5-0.2-0.8-0.2c-0.2-0.1-0.4-0.1-0.6-0.2c-0.2-0.1-0.4-0.2-0.6-0.3c-0.2-0.1-0.3-0.2-0.4-0.4
			c-0.1-0.2-0.1-0.4-0.1-0.6c0-0.2,0-0.4,0.1-0.6c0.1-0.2,0.2-0.3,0.4-0.4c0.2-0.1,0.4-0.2,0.6-0.3s0.5-0.1,0.8-0.1
			c0.4,0,0.7,0,0.9,0.1s0.4,0.2,0.6,0.3s0.2,0.3,0.3,0.5c0.1,0.2,0.1,0.3,0.1,0.5c0,0,0,0,0,0.1c0,0,0,0.1,0,0.1h-0.6v-0.2
			c0-0.1,0-0.3-0.1-0.4c-0.1-0.1-0.2-0.3-0.4-0.4c-0.2-0.1-0.5-0.2-0.9-0.2c-0.2,0-0.4,0-0.6,0.1s-0.3,0.1-0.4,0.2
			c-0.1,0.1-0.2,0.2-0.2,0.3s-0.1,0.2-0.1,0.4c0,0.2,0.1,0.4,0.2,0.5c0.1,0.1,0.3,0.2,0.5,0.3c0.2,0.1,0.4,0.1,0.7,0.2
			c0.2,0.1,0.5,0.1,0.7,0.2s0.4,0.2,0.6,0.3c0.2,0.1,0.3,0.2,0.5,0.4c0.1,0.2,0.2,0.4,0.2,0.7c0,0.3-0.1,0.5-0.2,0.7
			c-0.1,0.2-0.2,0.4-0.4,0.5c-0.2,0.1-0.4,0.2-0.6,0.3C382.4,80.8,382.1,80.8,381.8,80.8z"/>
	</g>
</g>
<g>
	<path class="st0" d="M453.2,37.2l-5.3-1.3c-0.1,0-0.2,0-0.3,0l-3.9,0.9l0.9-3.8c0.1-0.3,0-0.6-0.1-0.8c-2.1-3.7-1.4-8.4,1.7-11.4
		c1.9-1.8,4.3-2.8,7-2.8c2.6,0,5.1,1,7,2.8c3.8,3.8,3.8,9.9,0,13.6C458.3,36.2,455.9,37.2,453.2,37.2 M452.5,42
		c0,0.1-0.1,0.1-0.2,0.1c-0.9,0-1.8,0-2.8,0c0,0,0,0,0,0c0.1-1,0.2-2,0.4-3c1,0.3,2.1,0.4,3.2,0.4c0,0.2-0.1,0.4-0.1,0.6
		C452.9,40.8,452.7,41.4,452.5,42 M447.2,47.6c0.3-0.5,0.5-0.9,0.8-1.3c0.4-0.7,0.8-1.5,1-2.3c0-0.1,0.1-0.2,0.2-0.2
		c0.7,0,1.5,0,2.2,0c0,0,0,0,0.1,0C450.5,45.4,449,46.7,447.2,47.6 M445.7,46.8c-0.6,0.7-1.2,1.3-2.1,1.6c-0.1,0-0.2,0.1-0.4,0.1
		v-0.2c0-1.4,0-2.9,0-4.3c0-0.2,0.1-0.2,0.2-0.2c1.2,0,2.4,0,3.6,0h0.2c-0.1,0.4-0.3,0.7-0.4,1C446.6,45.5,446.3,46.2,445.7,46.8
		 M441.6,48.4c0,0,0,0.1,0,0.1c-0.6-0.2-1.1-0.4-1.5-0.8c-0.9-0.7-1.5-1.7-2-2.7c-0.2-0.4-0.4-0.8-0.5-1.3c0.1,0,0.2,0,0.2,0
		c1.2,0,2.5,0,3.7,0c0.1,0,0.2,0,0.2,0.2C441.6,45.4,441.6,46.9,441.6,48.4 M437.6,47.6c-1.8-0.9-3.2-2.1-4.3-3.8c0.1,0,0.2,0,0.2,0
		c0.7,0,1.4,0,2.1,0c0.2,0,0.2,0,0.3,0.2c0.4,1.1,0.9,2.2,1.5,3.2c0,0.1,0.1,0.1,0.1,0.2C437.6,47.4,437.6,47.5,437.6,47.6
		C437.7,47.5,437.7,47.5,437.6,47.6 M432.3,41.9c-0.3-0.8-0.5-1.6-0.6-2.4c0-0.2,0-0.5-0.1-0.7h3.3c0.1,1.1,0.3,2.1,0.4,3.2
		c0,0-0.1,0-0.2,0c-0.9,0-1.7,0-2.6,0C432.4,42.1,432.4,42.1,432.3,41.9 M431.7,36.3c0.2-0.7,0.4-1.4,0.6-2.2c0-0.1,0.1-0.1,0.1-0.1
		c0.9,0,1.9,0,2.8,0c-0.1,1.1-0.3,2.1-0.4,3.2h-3.3C431.7,36.9,431.7,36.6,431.7,36.3 M437.6,28.5C437.7,28.6,437.7,28.6,437.6,28.5
		c-0.1,0.2-0.2,0.3-0.2,0.4c-0.7,1-1.2,2.1-1.6,3.2c0,0.1-0.1,0.2-0.2,0.2c-0.7,0-1.5,0-2.2,0c0,0-0.1,0-0.1,0
		C434.4,30.7,435.9,29.4,437.6,28.5 M439.6,28.8c0.4-0.4,0.8-0.7,1.3-0.9c0,1.3,0.3,2.5,0.7,3.7c0,0.2,0,0.4,0,0.6
		c0,0.2,0,0.2-0.2,0.2c-1.2,0-2.4,0-3.6,0h-0.2c0.1-0.3,0.2-0.6,0.4-0.9C438.3,30.4,438.9,29.5,439.6,28.8 M443.3,39.4l2.1-0.5h2.9
		c0,0.1,0,0.2,0,0.3c0,0.9-0.2,1.9-0.4,2.8c0,0.1-0.1,0.2-0.2,0.2c-1.4,0-2.9,0-4.3,0c0,0,0,0-0.1,0V39.4z M441.2,37.2h-4.6
		c0.1-0.6,0.1-1.2,0.2-1.8c0.1-0.4,0.2-0.9,0.2-1.3c0-0.1,0.1-0.1,0.1-0.1c1.5,0,2.9,0,4.4,0c0,0,0,0,0,0v1.4L441.2,37.2z M441,38.9
		c0.1,0.1,0.1,0.3,0.2,0.4c0.1,0.1,0.2,0.2,0.3,0.2v2.7h-0.2c-1.4,0-2.7,0-4.1,0c-0.2,0-0.2,0-0.3-0.2c-0.2-1-0.3-2-0.4-3
		c0,0,0,0,0,0H441z M461.9,19.1c-2.3-2.3-5.4-3.5-8.7-3.5c-3.3,0-6.4,1.3-8.7,3.5c-1.9,1.9-3.1,4.2-3.5,6.8c-0.1,0-0.2,0-0.2,0
		c-2,0.2-3.8,0.9-5.5,2.1c-1.2,0.8-2.2,1.8-3,2.9c-1.1,1.4-1.7,3-2.1,4.7c-0.1,0.5-0.1,1-0.2,1.5c0,0.1,0,0.1,0,0.2v1.6
		c0,0.3,0.1,0.5,0.1,0.8c0.3,2,1,3.8,2.1,5.4c0.8,1.1,1.8,2.1,2.9,2.9c1.9,1.3,4,2.1,6.3,2.3c0.1,0,0.2,0,0.2,0.1h1.7
		c0.3,0,0.5-0.1,0.8-0.1c1.7-0.2,3.3-0.7,4.7-1.6c1.2-0.7,2.2-1.5,3-2.5c0.9-1,1.6-2,2.1-3.2c0.5-1.1,0.8-2.2,0.9-3.4
		c2.7-0.3,5.1-1.5,7.1-3.4C466.7,31.4,466.7,23.8,461.9,19.1"/>
	<path class="st0" d="M447.4,27.6h11.7c0.7,0,1.3-0.6,1.3-1.2c0-0.7-0.6-1.2-1.3-1.2h-11.7c-0.7,0-1.3,0.6-1.3,1.2
		C446.1,27,446.7,27.6,447.4,27.6"/>
	<path class="st0" d="M459.1,28.3h-11.7c-0.7,0-1.3,0.6-1.3,1.2c0,0.7,0.6,1.2,1.3,1.2h11.7c0.7,0,1.3-0.6,1.3-1.2
		C460.4,28.9,459.8,28.3,459.1,28.3"/>
</g>
<g>
	<g>
		<g>
			<path d="M426.4,68.7v-6.3h-2.5v-0.6h5.7v0.6H427v6.3H426.4z"/>
			<path d="M430.4,68.7v-5.3h0.4l0.1,0.9h0.1c0-0.2,0.1-0.3,0.2-0.5c0.1-0.2,0.2-0.3,0.4-0.4c0.2-0.1,0.4-0.2,0.6-0.2
				c0.1,0,0.2,0,0.3,0s0.1,0,0.2,0v0.5h-0.3c-0.2,0-0.4,0-0.6,0.1c-0.2,0.1-0.3,0.2-0.4,0.4c-0.1,0.2-0.2,0.3-0.2,0.5
				c0,0.2-0.1,0.4-0.1,0.6v3.1H430.4z"/>
			<path d="M434.8,68.8c-0.2,0-0.4,0-0.6-0.1s-0.4-0.1-0.5-0.3c-0.2-0.1-0.3-0.3-0.4-0.4c-0.1-0.2-0.1-0.4-0.1-0.7
				c0-0.4,0.1-0.7,0.3-0.9s0.4-0.4,0.8-0.5c0.3-0.1,0.7-0.2,1.2-0.3c0.4,0,0.9-0.1,1.5-0.1v-0.7c0-0.2,0-0.4-0.1-0.6
				c-0.1-0.2-0.2-0.3-0.4-0.4c-0.2-0.1-0.5-0.1-0.9-0.1c-0.4,0-0.6,0-0.8,0.1c-0.2,0.1-0.3,0.2-0.4,0.4s-0.1,0.3-0.1,0.5V65h-0.6
				c0,0,0-0.1,0-0.1s0-0.1,0-0.1c0-0.3,0.1-0.6,0.3-0.8c0.2-0.2,0.4-0.4,0.7-0.5c0.3-0.1,0.7-0.2,1.1-0.2c0.4,0,0.8,0.1,1,0.2
				c0.3,0.1,0.5,0.3,0.6,0.5c0.1,0.2,0.2,0.5,0.2,0.8v3.2c0,0.1,0,0.2,0.1,0.3c0,0,0.1,0.1,0.2,0.1h0.5v0.4c-0.1,0-0.2,0.1-0.3,0.1
				s-0.2,0-0.3,0c-0.2,0-0.3,0-0.4-0.1c-0.1-0.1-0.2-0.2-0.2-0.3s0-0.3,0-0.5h-0.1c-0.1,0.2-0.3,0.4-0.5,0.5s-0.4,0.2-0.7,0.3
				C435.3,68.8,435,68.8,434.8,68.8z M434.8,68.3c0.2,0,0.5,0,0.7-0.1c0.2-0.1,0.4-0.2,0.6-0.3c0.2-0.1,0.3-0.3,0.4-0.5
				c0.1-0.2,0.2-0.4,0.2-0.6v-0.6c-0.7,0-1.3,0-1.7,0.1c-0.4,0.1-0.8,0.2-1,0.4c-0.2,0.2-0.3,0.4-0.3,0.8c0,0.2,0,0.4,0.1,0.5
				c0.1,0.1,0.2,0.2,0.4,0.3C434.4,68.2,434.6,68.3,434.8,68.3z"/>
			<path d="M440.6,68.8c-0.4,0-0.8-0.1-1.1-0.3c-0.3-0.2-0.5-0.5-0.7-0.9c-0.2-0.4-0.2-1-0.2-1.6c0-0.6,0.1-1.1,0.2-1.5
				c0.2-0.4,0.4-0.7,0.7-0.9s0.7-0.3,1.1-0.3c0.2,0,0.4,0,0.6,0.1c0.2,0.1,0.4,0.1,0.5,0.3c0.2,0.1,0.3,0.3,0.4,0.5h0.1v-2.7h0.6
				v7.2h-0.4l-0.1-0.8h-0.1c-0.2,0.3-0.4,0.5-0.7,0.7C441.2,68.7,440.9,68.8,440.6,68.8z M440.6,68.3c0.4,0,0.7-0.1,0.9-0.2
				c0.2-0.2,0.4-0.4,0.5-0.7s0.2-0.7,0.2-1.2v-0.2c0-0.5,0-0.8-0.1-1.1s-0.2-0.5-0.4-0.6c-0.2-0.2-0.3-0.3-0.5-0.3
				c-0.2-0.1-0.4-0.1-0.5-0.1c-0.3,0-0.6,0.1-0.9,0.2c-0.2,0.1-0.4,0.4-0.5,0.7c-0.1,0.3-0.2,0.7-0.2,1.2v0.3c0,0.5,0.1,0.9,0.2,1.2
				s0.3,0.5,0.5,0.7C440,68.2,440.3,68.3,440.6,68.3z"/>
			<path d="M445.8,68.8c-0.5,0-0.9-0.1-1.2-0.4c-0.3-0.2-0.5-0.7-0.5-1.3v-3.7h0.6v3.7c0,0.2,0,0.4,0.1,0.6c0.1,0.2,0.2,0.3,0.3,0.4
				s0.2,0.1,0.4,0.2c0.1,0,0.3,0,0.5,0c0.3,0,0.5-0.1,0.8-0.2c0.3-0.1,0.5-0.3,0.6-0.6c0.2-0.3,0.2-0.6,0.2-0.9v-3.1h0.6v5.3h-0.4
				l-0.1-0.9h-0.1c-0.2,0.3-0.3,0.5-0.5,0.6s-0.4,0.2-0.6,0.3S446.1,68.8,445.8,68.8z"/>
			<path d="M451.5,68.8c-0.5,0-0.9-0.1-1.2-0.3c-0.3-0.2-0.6-0.5-0.8-0.9c-0.2-0.4-0.3-0.9-0.3-1.5c0-0.6,0.1-1.1,0.3-1.5
				c0.2-0.4,0.4-0.7,0.8-0.9s0.8-0.3,1.2-0.3c0.4,0,0.7,0,0.9,0.1c0.3,0.1,0.5,0.2,0.6,0.4c0.2,0.2,0.3,0.4,0.3,0.7
				c0.1,0.3,0.1,0.5,0.1,0.8H453c0-0.4,0-0.7-0.1-0.9c-0.1-0.2-0.2-0.4-0.5-0.5c-0.2-0.1-0.5-0.2-0.8-0.2c-0.3,0-0.6,0.1-0.8,0.2
				c-0.2,0.1-0.4,0.3-0.6,0.7c-0.1,0.3-0.2,0.7-0.2,1.2v0.3c0,0.5,0.1,0.9,0.2,1.2c0.1,0.3,0.3,0.5,0.6,0.7c0.2,0.1,0.5,0.2,0.9,0.2
				c0.4,0,0.6-0.1,0.9-0.2c0.2-0.1,0.4-0.3,0.4-0.5c0.1-0.2,0.1-0.5,0.1-0.8h0.6c0,0.3,0,0.5-0.1,0.8s-0.2,0.5-0.3,0.7
				c-0.2,0.2-0.4,0.3-0.6,0.5S451.9,68.8,451.5,68.8z"/>
			<path d="M456.4,68.8c-0.5,0-0.9-0.1-1.2-0.3c-0.3-0.2-0.6-0.5-0.8-0.9c-0.2-0.4-0.3-0.9-0.3-1.5c0-0.6,0.1-1.1,0.3-1.5
				c0.2-0.4,0.4-0.7,0.8-0.9c0.3-0.2,0.8-0.3,1.2-0.3c0.4,0,0.7,0,0.9,0.1c0.3,0.1,0.5,0.2,0.6,0.4c0.2,0.2,0.3,0.4,0.3,0.7
				c0.1,0.3,0.1,0.5,0.1,0.8h-0.6c0-0.4,0-0.7-0.1-0.9c-0.1-0.2-0.2-0.4-0.5-0.5c-0.2-0.1-0.5-0.2-0.8-0.2c-0.3,0-0.6,0.1-0.8,0.2
				c-0.2,0.1-0.4,0.3-0.6,0.7s-0.2,0.7-0.2,1.2v0.3c0,0.5,0.1,0.9,0.2,1.2c0.1,0.3,0.3,0.5,0.6,0.7c0.2,0.1,0.5,0.2,0.9,0.2
				c0.4,0,0.6-0.1,0.9-0.2c0.2-0.1,0.4-0.3,0.5-0.5s0.1-0.5,0.1-0.8h0.6c0,0.3,0,0.5-0.1,0.8c-0.1,0.2-0.2,0.5-0.3,0.7
				c-0.2,0.2-0.4,0.3-0.6,0.5S456.8,68.8,456.4,68.8z"/>
			<path d="M459.5,62.2v-0.8h0.6v0.8H459.5z M459.5,68.7v-5.3h0.6v5.3H459.5z"/>
			<path d="M463.6,68.8c-0.5,0-0.9-0.1-1.3-0.3s-0.6-0.5-0.8-0.9c-0.2-0.4-0.3-0.9-0.3-1.5c0-0.6,0.1-1.2,0.3-1.6
				c0.2-0.4,0.4-0.7,0.8-0.9s0.8-0.3,1.3-0.3c0.5,0,0.9,0.1,1.3,0.3c0.3,0.2,0.6,0.5,0.8,0.9c0.2,0.4,0.3,0.9,0.3,1.6
				c0,0.6-0.1,1.1-0.3,1.5c-0.2,0.4-0.4,0.7-0.8,0.9C464.5,68.7,464.1,68.8,463.6,68.8z M463.6,68.3c0.4,0,0.7-0.1,0.9-0.2
				c0.3-0.1,0.5-0.4,0.6-0.7c0.1-0.3,0.2-0.7,0.2-1.2v-0.3c0-0.5-0.1-0.9-0.2-1.2c-0.1-0.3-0.3-0.5-0.6-0.7
				c-0.3-0.1-0.6-0.2-0.9-0.2s-0.7,0.1-0.9,0.2c-0.3,0.1-0.4,0.4-0.6,0.7c-0.1,0.3-0.2,0.7-0.2,1.2v0.3c0,0.5,0.1,0.9,0.2,1.2
				c0.1,0.3,0.3,0.5,0.6,0.7C462.9,68.2,463.2,68.3,463.6,68.3z M463.1,62.8l0.9-1.3h0.8l0,0l-1.1,1.3H463.1z"/>
			<path d="M467,68.7v-5.3h0.4l0.1,0.9h0.1c0.2-0.3,0.3-0.5,0.5-0.6c0.2-0.1,0.4-0.2,0.6-0.3c0.2-0.1,0.4-0.1,0.7-0.1
				c0.3,0,0.6,0.1,0.9,0.2c0.2,0.1,0.4,0.3,0.6,0.5c0.1,0.2,0.2,0.6,0.2,1v3.7h-0.6V65c0-0.2,0-0.4-0.1-0.6
				c-0.1-0.2-0.2-0.3-0.3-0.4c-0.1-0.1-0.2-0.1-0.4-0.2c-0.2,0-0.3,0-0.5,0c-0.3,0-0.5,0.1-0.8,0.2c-0.3,0.1-0.5,0.3-0.6,0.6
				c-0.2,0.3-0.2,0.6-0.2,1v3.1H467z"/>
		</g>
	</g>
</g>
<g>
	<path class="st0" d="M16.3,121.6v15.5c0,0.3-0.2,0.5-0.5,0.5H9.5c-0.3,0-0.5-0.2-0.5-0.5v-15.5c0-0.3,0.2-0.5,0.5-0.5h6.2
		C16,121.1,16.3,121.3,16.3,121.6 M43.9,121.5c0,0.1,0,0.2,0.1,0.2c-0.6-0.7-1.5-1.2-2.4-1.2H30.7c0.6-1.4,0.9-2.8,1-3.8H38
		c1.7,0,3.4,0.4,5,1.3l0.4,0.2l0.4-0.2c1.6-0.8,3.3-1.3,5-1.3h10.9V138H49c-1.8,0-3.2,0.4-4.8,1.2l-0.7,0.4l-0.7-0.4l0,0
		c-1.6-0.8-3-1.2-4.8-1.2h0c1.1-0.4,1.9-1.3,2-2.5c0.1-0.5,0-1-0.2-1.5c1-0.4,1.7-1.3,1.8-2.4c0.1-0.5,0-1-0.2-1.5
		c1-0.4,1.7-1.3,1.8-2.4c0.1-0.5,0-1-0.2-1.5c0.4-0.2,0.7-0.4,1-0.7c0.6-0.6,0.8-1.4,0.7-2.3c0-0.4-0.2-0.8-0.4-1.1 M27.1,115.7
		c0-0.1,0-0.2,0-0.3c0-0.4,0.2-0.7,0.4-0.9c0.3-0.2,0.6-0.4,0.9-0.3c0.4,0,0.7,0.2,0.9,0.4c0.2,0.3,0.4,0.6,0.3,0.9
		c0,0.6-0.2,3.4-1.6,5.6c-0.2,0.3-0.2,0.7,0,1c0.2,0.3,0.5,0.5,0.9,0.5h12.6c0.5,0,1,0.4,1,0.8c0,0.3-0.1,0.5-0.2,0.7
		c-0.2,0.2-0.4,0.3-0.7,0.3h-5c-0.6,0-1,0.5-1,1c0,0.6,0.5,1,1,1h3.5c0.3,0,0.5,0.1,0.7,0.3c0.2,0.2,0.3,0.5,0.2,0.7
		c0,0.5-0.5,0.8-1,0.8h-3.4c-0.6,0-1,0.5-1,1s0.5,1,1,1h1.9c0.3,0,0.5,0.1,0.7,0.3c0.2,0.2,0.3,0.5,0.2,0.7c0,0.5-0.5,0.8-1,0.8
		h-1.8c-0.6,0-1,0.5-1,1s0.5,1,1,1H37c0.3,0,0.5,0.1,0.7,0.3c0.2,0.2,0.3,0.5,0.2,0.7c0,0.5-0.5,0.8-1,0.8H20.1
		c-0.1,0-0.2,0-0.3-0.1l-1.5-1v-10.3c0.4-0.2,0.8-0.4,1.2-0.8c0.3-0.2,0.6-0.4,0.9-0.6l0.9-0.6c0.2-0.1,0.5-0.3,0.7-0.4
		c2-0.9,3.5-2.5,4.4-4.4C26.8,117.1,27,116.3,27.1,115.7 M49,114.9c-1.9,0-3.7,0.4-5.5,1.3c-1.7-0.8-3.6-1.3-5.5-1.3h-6.3
		c-0.2-1.5-1.6-2.7-3.1-2.8c-0.9-0.1-1.7,0.2-2.4,0.8c-0.7,0.6-1.1,1.4-1.1,2.3c0,0.1,0,0.2,0,0.2c0,0.3-0.1,0.8-0.5,1.6
		c-0.7,1.5-1.9,2.7-3.4,3.4c-0.3,0.1-0.6,0.3-0.9,0.5l-0.9,0.6c-0.4,0.2-0.7,0.5-1,0.7v-0.6c0-1.4-1.1-2.6-2.6-2.6H9.5
		c-1.4,0-2.6,1.1-2.6,2.6v15.5c0,1.4,1.1,2.6,2.6,2.6h6.2c1.3,0,2.4-1,2.5-2.2l0.4,0.3c0.4,0.3,0.9,0.4,1.4,0.4h5.2v1.7H38
		c1.5,0,2.6,0.3,3.9,0.9l1.7,1l1.6-0.9c1.3-0.7,2.4-1,3.9-1h12.7v-25H49z"/>
	<path class="st0" d="M13.4,133.8h-1.6c-0.6,0-1,0.5-1,1c0,0.6,0.5,1,1,1h1.6c0.6,0,1-0.5,1-1C14.4,134.2,13.9,133.8,13.4,133.8"/>
	<path class="st0" d="M46.8,122.7h10.3c0.6,0,1.1-0.5,1.1-1.1c0-0.6-0.5-1.1-1.1-1.1H46.8c-0.6,0-1.1,0.5-1.1,1.1
		C45.7,122.2,46.2,122.7,46.8,122.7"/>
	<path class="st0" d="M46.8,128.3h10.3c0.6,0,1.1-0.5,1.1-1.1c0-0.6-0.5-1.1-1.1-1.1H46.8c-0.6,0-1.1,0.5-1.1,1.1
		C45.7,127.8,46.2,128.3,46.8,128.3"/>
	<path class="st0" d="M46.6,133.9h10.3c0.6,0,1.1-0.5,1.1-1.1c0-0.6-0.5-1.1-1.1-1.1H46.6c-0.6,0-1.1,0.5-1.1,1.1
		C45.5,133.4,46,133.9,46.6,133.9"/>
</g>
<g>
	<g>
		<path d="M9.8,162.7v-6.9h0.6v6.3h3.4v0.6H9.8z"/>
		<path d="M16.6,162.8c-0.5,0-0.9-0.1-1.2-0.3s-0.6-0.5-0.8-0.9c-0.2-0.4-0.3-0.9-0.3-1.5c0-0.6,0.1-1.2,0.3-1.6
			c0.2-0.4,0.4-0.7,0.8-0.9c0.4-0.2,0.8-0.3,1.3-0.3c0.5,0,0.9,0.1,1.2,0.3c0.3,0.2,0.6,0.5,0.7,0.8c0.2,0.4,0.2,0.8,0.2,1.3v0.5h-4
			c0,0.5,0.1,0.9,0.2,1.2c0.1,0.3,0.3,0.5,0.6,0.7s0.6,0.2,0.9,0.2c0.3,0,0.5,0,0.7-0.1c0.2-0.1,0.4-0.2,0.5-0.3
			c0.1-0.1,0.2-0.3,0.3-0.4c0.1-0.2,0.1-0.3,0.1-0.5h0.6c0,0.2-0.1,0.5-0.1,0.7c-0.1,0.2-0.2,0.4-0.4,0.6c-0.2,0.2-0.4,0.3-0.7,0.4
			C17.3,162.7,17,162.8,16.6,162.8z M14.9,159.7h3.4c0-0.4,0-0.7-0.1-0.9c-0.1-0.2-0.2-0.4-0.3-0.6c-0.1-0.2-0.3-0.3-0.5-0.3
			c-0.2-0.1-0.4-0.1-0.7-0.1c-0.4,0-0.7,0.1-0.9,0.2s-0.4,0.3-0.6,0.6C15,158.9,14.9,159.3,14.9,159.7z"/>
		<path d="M21.8,162.8c-0.5,0-0.9-0.1-1.2-0.3c-0.3-0.2-0.6-0.5-0.8-0.9s-0.3-0.9-0.3-1.5c0-0.6,0.1-1.1,0.3-1.5
			c0.2-0.4,0.4-0.7,0.8-0.9c0.3-0.2,0.8-0.3,1.2-0.3c0.4,0,0.7,0,0.9,0.1s0.5,0.2,0.6,0.4s0.3,0.4,0.3,0.7c0.1,0.3,0.1,0.5,0.1,0.8
			h-0.6c0-0.4,0-0.7-0.1-0.9c-0.1-0.2-0.2-0.4-0.5-0.5s-0.5-0.2-0.8-0.2c-0.3,0-0.6,0.1-0.8,0.2s-0.4,0.3-0.6,0.7
			c-0.1,0.3-0.2,0.7-0.2,1.2v0.3c0,0.5,0.1,0.9,0.2,1.2c0.1,0.3,0.3,0.5,0.6,0.7c0.2,0.1,0.5,0.2,0.9,0.2c0.4,0,0.6-0.1,0.9-0.2
			c0.2-0.1,0.4-0.3,0.4-0.5c0.1-0.2,0.1-0.5,0.1-0.8h0.6c0,0.3,0,0.5-0.1,0.8c-0.1,0.2-0.2,0.5-0.3,0.7s-0.4,0.3-0.6,0.5
			S22.2,162.8,21.8,162.8z"/>
		<path d="M26,162.8c-0.2,0-0.4,0-0.5-0.1c-0.1-0.1-0.2-0.2-0.3-0.3c-0.1-0.1-0.1-0.3-0.1-0.5v-4h-0.7v-0.5h0.7l0.1-1.5h0.5v1.5h1.1
			v0.5h-1.1v3.8c0,0.2,0,0.3,0.1,0.4c0,0.1,0.2,0.1,0.3,0.1h0.6v0.4c-0.1,0-0.1,0.1-0.2,0.1c-0.1,0-0.2,0-0.3,0
			C26.2,162.8,26.1,162.8,26,162.8z"/>
		<path d="M29.3,162.8c-0.5,0-0.9-0.1-1.2-0.4c-0.3-0.2-0.5-0.7-0.5-1.3v-3.7h0.6v3.7c0,0.2,0,0.4,0.1,0.6c0.1,0.2,0.2,0.3,0.3,0.4
			c0.1,0.1,0.2,0.1,0.4,0.2s0.3,0,0.5,0c0.3,0,0.5-0.1,0.8-0.2c0.3-0.1,0.5-0.3,0.6-0.6c0.2-0.3,0.2-0.6,0.2-0.9v-3.1h0.6v5.3h-0.4
			l-0.1-0.9h-0.1c-0.2,0.3-0.3,0.5-0.5,0.6c-0.2,0.1-0.4,0.2-0.6,0.3C29.8,162.8,29.6,162.8,29.3,162.8z"/>
		<path d="M33.2,162.7v-5.3h0.4l0.1,0.9h0.1c0-0.2,0.1-0.3,0.2-0.5c0.1-0.2,0.2-0.3,0.4-0.4c0.2-0.1,0.4-0.2,0.6-0.2
			c0.1,0,0.2,0,0.3,0c0.1,0,0.1,0,0.2,0v0.5h-0.3c-0.2,0-0.4,0-0.6,0.1c-0.2,0.1-0.3,0.2-0.4,0.4c-0.1,0.2-0.2,0.3-0.2,0.5
			c0,0.2-0.1,0.4-0.1,0.6v3.1H33.2z"/>
		<path d="M37.5,162.8c-0.2,0-0.4,0-0.6-0.1c-0.2-0.1-0.4-0.1-0.5-0.3c-0.2-0.1-0.3-0.3-0.4-0.4c-0.1-0.2-0.1-0.4-0.1-0.7
			c0-0.4,0.1-0.7,0.3-0.9c0.2-0.2,0.4-0.4,0.8-0.5c0.3-0.1,0.7-0.2,1.2-0.3c0.4,0,0.9-0.1,1.5-0.1v-0.7c0-0.2,0-0.4-0.1-0.6
			c-0.1-0.2-0.2-0.3-0.4-0.4s-0.5-0.1-0.9-0.1c-0.4,0-0.6,0-0.8,0.1c-0.2,0.1-0.3,0.2-0.4,0.4c-0.1,0.2-0.1,0.3-0.1,0.5v0.2h-0.6
			c0,0,0-0.1,0-0.1s0-0.1,0-0.1c0-0.3,0.1-0.6,0.3-0.8c0.2-0.2,0.4-0.4,0.7-0.5c0.3-0.1,0.7-0.2,1.1-0.2c0.4,0,0.8,0.1,1,0.2
			c0.3,0.1,0.5,0.3,0.6,0.5c0.1,0.2,0.2,0.5,0.2,0.8v3.2c0,0.1,0,0.2,0.1,0.3s0.1,0.1,0.2,0.1h0.5v0.4c-0.1,0-0.2,0.1-0.3,0.1
			s-0.2,0-0.3,0c-0.2,0-0.3,0-0.4-0.1c-0.1-0.1-0.2-0.2-0.2-0.3c0-0.1,0-0.3,0-0.5h-0.1c-0.1,0.2-0.3,0.4-0.5,0.5
			c-0.2,0.1-0.4,0.2-0.7,0.3C38,162.8,37.8,162.8,37.5,162.8z M37.6,162.3c0.2,0,0.5,0,0.7-0.1s0.4-0.2,0.6-0.3
			c0.2-0.1,0.3-0.3,0.4-0.5c0.1-0.2,0.2-0.4,0.2-0.6v-0.6c-0.7,0-1.3,0-1.7,0.1c-0.4,0.1-0.8,0.2-1,0.4c-0.2,0.2-0.3,0.4-0.3,0.8
			c0,0.2,0,0.4,0.1,0.5c0.1,0.1,0.2,0.2,0.4,0.3C37.2,162.2,37.4,162.3,37.6,162.3z"/>
		<path d="M43.9,162.7v-4.8h-0.8v-0.5h0.8v-1c0-0.2,0-0.3,0.1-0.5c0.1-0.2,0.1-0.3,0.3-0.4c0.1-0.1,0.3-0.2,0.6-0.2
			c0.1,0,0.2,0,0.2,0s0.2,0,0.2,0c0.1,0,0.1,0,0.2,0v0.4H45c-0.2,0-0.3,0-0.4,0.1c-0.1,0.1-0.1,0.2-0.1,0.4v1h1.1v0.5h-1.1v4.8H43.9
			z"/>
		<path d="M47.6,162.8c-0.2,0-0.4,0-0.6-0.1c-0.2-0.1-0.4-0.1-0.5-0.3c-0.2-0.1-0.3-0.3-0.4-0.4c-0.1-0.2-0.1-0.4-0.1-0.7
			c0-0.4,0.1-0.7,0.3-0.9c0.2-0.2,0.4-0.4,0.8-0.5c0.3-0.1,0.7-0.2,1.2-0.3c0.4,0,0.9-0.1,1.5-0.1v-0.7c0-0.2,0-0.4-0.1-0.6
			c-0.1-0.2-0.2-0.3-0.4-0.4s-0.5-0.1-0.9-0.1c-0.4,0-0.6,0-0.8,0.1c-0.2,0.1-0.3,0.2-0.4,0.4c-0.1,0.2-0.1,0.3-0.1,0.5v0.2h-0.6
			c0,0,0-0.1,0-0.1s0-0.1,0-0.1c0-0.3,0.1-0.6,0.3-0.8c0.2-0.2,0.4-0.4,0.7-0.5c0.3-0.1,0.7-0.2,1.1-0.2c0.4,0,0.8,0.1,1,0.2
			c0.3,0.1,0.5,0.3,0.6,0.5c0.1,0.2,0.2,0.5,0.2,0.8v3.2c0,0.1,0,0.2,0.1,0.3s0.1,0.1,0.2,0.1h0.5v0.4c-0.1,0-0.2,0.1-0.3,0.1
			s-0.2,0-0.3,0c-0.2,0-0.3,0-0.4-0.1c-0.1-0.1-0.2-0.2-0.2-0.3c0-0.1,0-0.3,0-0.5h-0.1c-0.1,0.2-0.3,0.4-0.5,0.5
			c-0.2,0.1-0.4,0.2-0.7,0.3C48.1,162.8,47.8,162.8,47.6,162.8z M47.7,162.3c0.2,0,0.5,0,0.7-0.1s0.4-0.2,0.6-0.3
			c0.2-0.1,0.3-0.3,0.4-0.5c0.1-0.2,0.2-0.4,0.2-0.6v-0.6c-0.7,0-1.3,0-1.7,0.1c-0.4,0.1-0.8,0.2-1,0.4c-0.2,0.2-0.3,0.4-0.3,0.8
			c0,0.2,0,0.4,0.1,0.5c0.1,0.1,0.2,0.2,0.4,0.3C47.3,162.2,47.5,162.3,47.7,162.3z M47.8,156.8l0.9-1.3h0.8l0,0l-1.1,1.3H47.8z"/>
		<path d="M53.5,162.8c-0.5,0-0.9-0.1-1.2-0.3c-0.3-0.2-0.6-0.5-0.8-0.9s-0.3-0.9-0.3-1.5c0-0.6,0.1-1.1,0.3-1.5
			c0.2-0.4,0.4-0.7,0.8-0.9c0.3-0.2,0.8-0.3,1.2-0.3c0.4,0,0.7,0,0.9,0.1s0.5,0.2,0.6,0.4s0.3,0.4,0.3,0.7c0.1,0.3,0.1,0.5,0.1,0.8
			h-0.6c0-0.4,0-0.7-0.1-0.9c-0.1-0.2-0.2-0.4-0.5-0.5s-0.5-0.2-0.8-0.2c-0.3,0-0.6,0.1-0.8,0.2s-0.4,0.3-0.6,0.7
			c-0.1,0.3-0.2,0.7-0.2,1.2v0.3c0,0.5,0.1,0.9,0.2,1.2c0.1,0.3,0.3,0.5,0.6,0.7c0.2,0.1,0.5,0.2,0.9,0.2c0.4,0,0.6-0.1,0.9-0.2
			c0.2-0.1,0.4-0.3,0.4-0.5c0.1-0.2,0.1-0.5,0.1-0.8h0.6c0,0.3,0,0.5-0.1,0.8c-0.1,0.2-0.2,0.5-0.3,0.7s-0.4,0.3-0.6,0.5
			S53.9,162.8,53.5,162.8z"/>
		<path d="M56.6,156.2v-0.8h0.6v0.8H56.6z M56.6,162.7v-5.3h0.6v5.3H56.6z"/>
		<path d="M58.6,162.7v-7.2h0.6v7.2H58.6z"/>
	</g>
</g>
<g>
	<path class="st0" d="M135.7,119.9c-0.5,1-1.2,1.8-1.8,2.6c-1.3,1.7-2.6,3.3-2.7,5.9c0,0.3,0,0.7,0,1.1c0,0.8,0.1,1.6-0.1,2.2
		c-0.4,1.1-1.3,2.1-2.4,2.5c-0.3,0.1-0.6,0.1-0.9,0.2c-0.8,0.1-1.2,0.2-1.2,0.5c-0.1,0.4,0.3,0.7,0.6,0.8c0.1,0,0.3,0.1,0.5,0.1
		c0.8,0,1.7-0.3,2.3-0.6c1-0.5,2.2-1.5,2.5-3.1c0.2-0.7,0.1-1.5,0.1-2.3c0-0.6,0-1.3,0.1-1.9c0.3-2.2,1.5-3.7,2.6-5.2
		c0.8-1.1,1.7-2.2,2.2-3.6c0.5-1.4,0.6-2.8,0.4-4.2l-1.2,1.1C136.6,117.4,136.3,118.7,135.7,119.9"/>
	<path class="st0" d="M127.5,106.1c-0.2,0-0.5,0-0.7,0c-0.9,0.1-1.7,0.2-2.5,0.4c-3.5,1-5.9,3.4-7,6.9c-0.4,1.2-0.5,2.9-0.2,3.3
		c0.1,0.1,0.1,0.1,0.3,0.1c0.1,0,0.1,0,0.2,0c0.3-0.1,0.6-1.4,0.7-2l0-0.1c0.2-1.2,0.5-2.1,0.9-2.9c1.3-2.5,4-4.4,6.9-4.8
		c0.4-0.1,0.8-0.1,1.3-0.1c1.7,0,3.4,0.5,4.9,1.5c0.2,0.1,0.3,0.2,0.5,0.3l0.9-0.8C132.3,107,130.2,106.1,127.5,106.1"/>
	<path class="st0" d="M111.9,119.7c0.8,0.2,1.1,1,1,1.7c-0.4,1.9-0.9,3.7-1.4,5.6c1.8,0.6,3.6,1.1,5.4,1.7c0.4,0.1,0.6,0.3,0.8,0.6
		c0,0,0,0.1,0,0.1c0,0,0,0.1,0,0.1c0.1,0.3,0.2,0.6,0.1,0.9c-0.5,1.8-1,3.6-1.5,5.5c1.8,0.6,3.7,1.1,5.5,1.8c0.7,0.2,1.2,1,1,1.7
		c-0.7,1.8-1.4,3.6-2,5.5c-0.6,1.7-3.3,0.9-2.7-0.8c0.5-1.4,1-2.8,1.5-4.2c-1.8-0.6-3.5-1.1-5.3-1.6c-0.8-0.2-1.1-1-1-1.7
		c0.4-1.9,0.9-3.7,1.4-5.5c-1.8-0.5-3.6-1-5.4-1.7c-0.7-0.3-1.2-0.9-1-1.7c0.5-1.8,1-3.6,1.4-5.4c-1.5-0.3-2.9-0.6-4.4-0.9
		c-1.8-0.4-1-3.1,0.8-2.7C108.1,119,110,119.3,111.9,119.7"/>
	<path class="st0" d="M105.1,125.1c0.7,0.1,1,0.9,0.8,1.5c-0.3,1.6-0.8,3.3-1.2,4.9c1.6,0.5,3.2,1,4.8,1.5c0.3,0.1,0.5,0.3,0.7,0.5
		c0,0,0,0,0,0.1c0,0,0,0,0,0.1c0.1,0.2,0.2,0.5,0.1,0.8c-0.4,1.6-0.9,3.2-1.3,4.8c1.6,0.5,3.2,1,4.8,1.5c0.6,0.2,1.1,0.9,0.8,1.5
		c-0.6,1.6-1.2,3.2-1.7,4.8c-0.5,1.5-2.9,0.8-2.4-0.7c0.4-1.2,0.9-2.5,1.3-3.7c-1.5-0.5-3.1-1-4.6-1.4c-0.7-0.2-1-0.8-0.8-1.5
		c0.3-1.6,0.8-3.2,1.2-4.8c-1.6-0.5-3.2-0.9-4.7-1.5c-0.6-0.2-1-0.8-0.8-1.5c0.4-1.6,0.9-3.1,1.2-4.7c-1.3-0.3-2.6-0.5-3.8-0.8
		c-1.5-0.4-0.9-2.7,0.7-2.4C101.8,124.4,103.4,124.7,105.1,125.1"/>
	<path class="st0" d="M99.4,131.4c0.5,0.1,0.7,0.6,0.6,1.1c-0.2,1.2-0.6,2.3-0.9,3.4c1.1,0.4,2.2,0.7,3.3,1c0.2,0.1,0.4,0.2,0.5,0.3
		c0,0,0,0,0,0c0,0,0,0,0,0.1c0.1,0.2,0.1,0.4,0,0.6c-0.3,1.1-0.6,2.2-0.9,3.4c1.1,0.3,2.3,0.7,3.4,1.1c0.4,0.1,0.8,0.6,0.6,1.1
		c-0.4,1.1-0.8,2.2-1.2,3.4c-0.4,1-2,0.6-1.6-0.5c0.3-0.9,0.6-1.7,0.9-2.6c-1.1-0.4-2.2-0.7-3.3-1c-0.5-0.1-0.7-0.6-0.6-1.1
		c0.2-1.1,0.5-2.2,0.8-3.4c-1.1-0.3-2.2-0.6-3.3-1.1c-0.4-0.2-0.7-0.6-0.6-1.1c0.3-1.1,0.6-2.2,0.9-3.3c-0.9-0.2-1.8-0.4-2.7-0.6
		c-1.1-0.3-0.6-1.9,0.5-1.6C97.1,130.9,98.3,131.1,99.4,131.4"/>
	<path class="st0" d="M124,106.4c-3.8,1.1-6.3,3.6-7.3,7.3c-0.4,1.2-1,4.5,0.9,4.1c0.7-0.1,0.9-1.4,1.1-2.4c0.2-1.1,0.5-2,0.8-2.7
		c1.2-2.3,3.8-4.1,6.5-4.5c2.5-0.4,4.5,0.4,5.9,1.3c1.1,0.7,2.1,1.7,2.8,2.8c1.4,2.1,1.7,5.4,0.4,7.8c-1.6,2.9-4.4,4.7-4.6,8.8
		c-0.1,0.9,0.2,2.3-0.1,3.2c-0.3,1-1.2,1.9-2.1,2.2c-0.7,0.3-2.3,0-2.5,1.1c-0.1,0.6,0.4,1.2,1,1.4c0.9,0.3,2.3-0.2,3.1-0.6
		c1.4-0.7,2.5-1.9,2.8-3.4c0.3-1.4,0-3,0.2-4.3c0.5-3.8,3.6-5.3,4.8-8.7c1.3-3.7-0.1-7.7-1.9-9.8c-1.9-2.2-5-4.1-9.1-3.9
		C125.7,106,124.9,106.2,124,106.4 M120.2,113.5c-0.5,1-1.3,4.1,0.2,4.1c1,0,0.9-1.8,1.1-2.7c0.4-1.4,1.8-3,3.2-3.6
		c2.6-1.2,5.2-0.3,6.8,1.3c0.8,0.9,1.1,1.8,1.4,3.2c0.2,0.8,0.4,1.8,1.3,1.7c1.2-0.1,0.5-2.7,0.2-3.4c-1.1-2.8-3.8-5.3-8-4.9
		C123.5,109.3,121.2,111.4,120.2,113.5"/>
</g>
<g>
	<g>
		<path d="M98.2,162.7v-6.9h1l2,5c0,0.1,0.1,0.2,0.1,0.3s0.1,0.2,0.1,0.3s0.1,0.2,0.1,0.3h0c0-0.1,0.1-0.2,0.1-0.3
			c0-0.1,0.1-0.2,0.1-0.3c0-0.1,0.1-0.2,0.1-0.3l2-5h1v6.9h-0.6v-4.5c0-0.1,0-0.3,0-0.5s0-0.4,0-0.6c0-0.2,0-0.4,0-0.5h-0.1
			c0,0.1-0.1,0.2-0.1,0.4c0,0.1-0.1,0.2-0.1,0.3s-0.1,0.2-0.1,0.3l-2,5h-0.5l-2-5c0-0.1-0.1-0.2-0.1-0.3c0-0.1-0.1-0.2-0.1-0.3
			c0-0.1-0.1-0.2-0.1-0.4h-0.1c0,0.1,0,0.3,0,0.5s0,0.4,0,0.6c0,0.2,0,0.3,0,0.5v4.5H98.2z"/>
		<path d="M108.5,162.8c-0.5,0-0.9-0.1-1.3-0.3s-0.6-0.5-0.8-0.9c-0.2-0.4-0.3-0.9-0.3-1.5c0-0.6,0.1-1.2,0.3-1.6
			c0.2-0.4,0.4-0.7,0.8-0.9c0.3-0.2,0.8-0.3,1.3-0.3c0.5,0,0.9,0.1,1.3,0.3c0.3,0.2,0.6,0.5,0.8,0.9c0.2,0.4,0.3,0.9,0.3,1.6
			c0,0.6-0.1,1.1-0.3,1.5c-0.2,0.4-0.4,0.7-0.8,0.9S109,162.8,108.5,162.8z M108.5,162.3c0.4,0,0.7-0.1,0.9-0.2
			c0.3-0.1,0.5-0.4,0.6-0.7c0.1-0.3,0.2-0.7,0.2-1.2v-0.3c0-0.5-0.1-0.9-0.2-1.2c-0.1-0.3-0.3-0.5-0.6-0.7c-0.3-0.1-0.6-0.2-0.9-0.2
			c-0.4,0-0.7,0.1-0.9,0.2c-0.3,0.1-0.4,0.4-0.6,0.7c-0.1,0.3-0.2,0.7-0.2,1.2v0.3c0,0.5,0.1,0.9,0.2,1.2c0.1,0.3,0.3,0.5,0.6,0.7
			C107.8,162.2,108.1,162.3,108.5,162.3z"/>
		<path d="M113.8,162.8c-0.5,0-0.9-0.1-1.2-0.3c-0.3-0.2-0.6-0.5-0.8-0.9s-0.3-0.9-0.3-1.5c0-0.6,0.1-1.1,0.3-1.5
			c0.2-0.4,0.4-0.7,0.8-0.9c0.3-0.2,0.8-0.3,1.2-0.3c0.4,0,0.7,0,0.9,0.1s0.5,0.2,0.6,0.4s0.3,0.4,0.3,0.7c0.1,0.3,0.1,0.5,0.1,0.8
			h-0.6c0-0.4,0-0.7-0.1-0.9c-0.1-0.2-0.2-0.4-0.5-0.5s-0.5-0.2-0.8-0.2c-0.3,0-0.6,0.1-0.8,0.2s-0.4,0.3-0.6,0.7
			c-0.1,0.3-0.2,0.7-0.2,1.2v0.3c0,0.5,0.1,0.9,0.2,1.2c0.1,0.3,0.3,0.5,0.6,0.7c0.2,0.1,0.5,0.2,0.9,0.2c0.4,0,0.6-0.1,0.9-0.2
			c0.2-0.1,0.4-0.3,0.4-0.5c0.1-0.2,0.1-0.5,0.1-0.8h0.6c0,0.3,0,0.5-0.1,0.8c-0.1,0.2-0.2,0.5-0.3,0.7s-0.4,0.3-0.6,0.5
			S114.2,162.8,113.8,162.8z"/>
		<path d="M116.9,162.7v-7.2h0.6v2.7h0.1c0.2-0.2,0.3-0.4,0.5-0.5c0.2-0.1,0.4-0.2,0.6-0.3c0.2-0.1,0.4-0.1,0.7-0.1
			c0.3,0,0.6,0.1,0.9,0.2s0.4,0.3,0.6,0.5c0.1,0.2,0.2,0.6,0.2,1v3.7h-0.6V159c0-0.2,0-0.4-0.1-0.6c-0.1-0.2-0.2-0.3-0.3-0.4
			s-0.2-0.1-0.4-0.2c-0.1,0-0.3,0-0.5,0c-0.3,0-0.5,0.1-0.8,0.2c-0.3,0.1-0.5,0.3-0.6,0.6c-0.2,0.3-0.2,0.6-0.2,1v3.1H116.9z"/>
		<path d="M122.3,156.2v-0.8h0.6v0.8H122.3z M122.3,162.7v-5.3h0.6v5.3H122.3z"/>
		<path d="M124.3,162.7v-7.2h0.6v7.2H124.3z"/>
		<path d="M127.7,162.8c-0.2,0-0.4,0-0.6-0.1c-0.2-0.1-0.4-0.1-0.5-0.3c-0.2-0.1-0.3-0.3-0.4-0.4c-0.1-0.2-0.1-0.4-0.1-0.7
			c0-0.4,0.1-0.7,0.3-0.9c0.2-0.2,0.4-0.4,0.8-0.5c0.3-0.1,0.7-0.2,1.2-0.3c0.4,0,0.9-0.1,1.5-0.1v-0.7c0-0.2,0-0.4-0.1-0.6
			c-0.1-0.2-0.2-0.3-0.4-0.4s-0.5-0.1-0.9-0.1c-0.4,0-0.6,0-0.8,0.1c-0.2,0.1-0.3,0.2-0.4,0.4c-0.1,0.2-0.1,0.3-0.1,0.5v0.2h-0.6
			c0,0,0-0.1,0-0.1s0-0.1,0-0.1c0-0.3,0.1-0.6,0.3-0.8c0.2-0.2,0.4-0.4,0.7-0.5c0.3-0.1,0.7-0.2,1.1-0.2c0.4,0,0.8,0.1,1,0.2
			c0.3,0.1,0.5,0.3,0.6,0.5c0.1,0.2,0.2,0.5,0.2,0.8v3.2c0,0.1,0,0.2,0.1,0.3s0.1,0.1,0.2,0.1h0.5v0.4c-0.1,0-0.2,0.1-0.3,0.1
			s-0.2,0-0.3,0c-0.2,0-0.3,0-0.4-0.1c-0.1-0.1-0.2-0.2-0.2-0.3c0-0.1,0-0.3,0-0.5h-0.1c-0.1,0.2-0.3,0.4-0.5,0.5
			c-0.2,0.1-0.4,0.2-0.7,0.3C128.2,162.8,127.9,162.8,127.7,162.8z M127.7,162.3c0.2,0,0.5,0,0.7-0.1s0.4-0.2,0.6-0.3
			c0.2-0.1,0.3-0.3,0.4-0.5c0.1-0.2,0.2-0.4,0.2-0.6v-0.6c-0.7,0-1.3,0-1.7,0.1c-0.4,0.1-0.8,0.2-1,0.4c-0.2,0.2-0.3,0.4-0.3,0.8
			c0,0.2,0,0.4,0.1,0.5c0.1,0.1,0.2,0.2,0.4,0.3C127.3,162.2,127.5,162.3,127.7,162.3z"/>
		<path d="M133.4,162.8c-0.3,0-0.6,0-0.9-0.1c-0.3-0.1-0.5-0.2-0.6-0.3c-0.2-0.1-0.3-0.3-0.4-0.5c-0.1-0.2-0.1-0.4-0.1-0.7
			c0,0,0-0.1,0-0.1c0,0,0-0.1,0-0.1h0.6c0,0,0,0.1,0,0.1c0,0,0,0,0,0.1c0,0.3,0.1,0.5,0.2,0.7c0.1,0.2,0.3,0.3,0.5,0.3
			c0.2,0.1,0.5,0.1,0.8,0.1c0.3,0,0.5,0,0.7-0.1c0.2-0.1,0.4-0.2,0.5-0.3c0.1-0.1,0.2-0.3,0.2-0.5c0-0.3-0.1-0.5-0.2-0.6
			s-0.4-0.2-0.6-0.3s-0.5-0.2-0.8-0.2c-0.2-0.1-0.4-0.1-0.6-0.2s-0.4-0.2-0.6-0.3c-0.2-0.1-0.3-0.2-0.4-0.4s-0.1-0.4-0.1-0.6
			c0-0.2,0-0.4,0.1-0.6c0.1-0.2,0.2-0.3,0.4-0.4c0.2-0.1,0.4-0.2,0.6-0.3c0.2-0.1,0.5-0.1,0.8-0.1c0.4,0,0.7,0,0.9,0.1
			s0.4,0.2,0.6,0.3c0.1,0.1,0.2,0.3,0.3,0.5c0.1,0.2,0.1,0.3,0.1,0.5c0,0,0,0,0,0.1c0,0,0,0.1,0,0.1h-0.6v-0.2c0-0.1,0-0.3-0.1-0.4
			c-0.1-0.1-0.2-0.3-0.4-0.4s-0.5-0.2-0.9-0.2c-0.2,0-0.4,0-0.6,0.1s-0.3,0.1-0.4,0.2c-0.1,0.1-0.2,0.2-0.2,0.3
			c-0.1,0.1-0.1,0.2-0.1,0.4c0,0.2,0.1,0.4,0.2,0.5c0.1,0.1,0.3,0.2,0.5,0.3s0.4,0.1,0.7,0.2c0.2,0.1,0.5,0.1,0.7,0.2
			c0.2,0.1,0.4,0.2,0.6,0.3c0.2,0.1,0.3,0.2,0.5,0.4c0.1,0.2,0.2,0.4,0.2,0.7c0,0.3-0.1,0.5-0.2,0.7c-0.1,0.2-0.2,0.4-0.4,0.5
			c-0.2,0.1-0.4,0.2-0.6,0.3C133.9,162.8,133.6,162.8,133.4,162.8z"/>
		<path d="M96.6,174.7l-1.9-5.3h0.6l1,2.8c0.1,0.1,0.1,0.3,0.2,0.5c0.1,0.2,0.1,0.4,0.2,0.6c0.1,0.2,0.1,0.4,0.2,0.5h0
			c0.1-0.1,0.1-0.3,0.2-0.5c0.1-0.2,0.1-0.4,0.2-0.6s0.1-0.4,0.2-0.5l1-2.8h0.6l-2,5.3H96.6z"/>
		<path d="M100,168.2v-0.8h0.6v0.8H100z M100,174.7v-5.3h0.6v5.3H100z"/>
		<path d="M104.3,174.8c-0.4,0-0.7-0.1-1-0.2c-0.3-0.1-0.5-0.4-0.7-0.7h-0.1l-0.1,0.8H102v-7.2h0.6v2.7h0.1c0.1-0.2,0.3-0.4,0.4-0.5
			s0.4-0.2,0.6-0.3c0.2-0.1,0.4-0.1,0.6-0.1c0.4,0,0.8,0.1,1.1,0.3s0.5,0.5,0.7,0.9s0.3,0.9,0.3,1.5c0,0.7-0.1,1.2-0.2,1.6
			c-0.2,0.4-0.4,0.7-0.7,0.9S104.7,174.8,104.3,174.8z M104.2,174.3c0.3,0,0.6-0.1,0.8-0.2s0.4-0.3,0.5-0.7c0.1-0.3,0.2-0.7,0.2-1.2
			v-0.3c0-0.5-0.1-0.9-0.2-1.2c-0.1-0.3-0.3-0.5-0.5-0.7c-0.2-0.1-0.5-0.2-0.9-0.2c-0.2,0-0.4,0-0.5,0.1c-0.2,0.1-0.3,0.2-0.5,0.3
			c-0.2,0.2-0.3,0.4-0.4,0.6s-0.1,0.6-0.1,1.1v0.2c0,0.5,0.1,0.8,0.2,1.2c0.1,0.3,0.3,0.6,0.5,0.7
			C103.5,174.2,103.8,174.3,104.2,174.3z"/>
		<path d="M107.5,174.7v-5.3h0.4l0.1,0.9h0.1c0-0.2,0.1-0.3,0.2-0.5c0.1-0.2,0.2-0.3,0.4-0.4c0.2-0.1,0.4-0.2,0.6-0.2
			c0.1,0,0.2,0,0.3,0c0.1,0,0.1,0,0.2,0v0.5h-0.3c-0.2,0-0.4,0-0.6,0.1s-0.3,0.2-0.4,0.4c-0.1,0.2-0.2,0.3-0.2,0.5
			c0,0.2-0.1,0.4-0.1,0.6v3.1H107.5z"/>
		<path d="M111.8,174.8c-0.2,0-0.4,0-0.6-0.1c-0.2-0.1-0.4-0.1-0.5-0.3c-0.2-0.1-0.3-0.3-0.4-0.4c-0.1-0.2-0.1-0.4-0.1-0.7
			c0-0.4,0.1-0.7,0.3-0.9c0.2-0.2,0.4-0.4,0.8-0.5c0.3-0.1,0.7-0.2,1.2-0.3c0.4,0,0.9-0.1,1.5-0.1v-0.7c0-0.2,0-0.4-0.1-0.6
			s-0.2-0.3-0.4-0.4s-0.5-0.1-0.9-0.1c-0.4,0-0.6,0-0.8,0.1c-0.2,0.1-0.3,0.2-0.4,0.4c-0.1,0.2-0.1,0.3-0.1,0.5v0.2h-0.6
			c0,0,0-0.1,0-0.1s0-0.1,0-0.1c0-0.3,0.1-0.6,0.3-0.8c0.2-0.2,0.4-0.4,0.7-0.5c0.3-0.1,0.7-0.2,1.1-0.2c0.4,0,0.8,0.1,1,0.2
			c0.3,0.1,0.5,0.3,0.6,0.5c0.1,0.2,0.2,0.5,0.2,0.8v3.2c0,0.1,0,0.2,0.1,0.3s0.1,0.1,0.2,0.1h0.5v0.4c-0.1,0-0.2,0.1-0.3,0.1
			s-0.2,0-0.3,0c-0.2,0-0.3,0-0.4-0.1c-0.1-0.1-0.2-0.2-0.2-0.3c0-0.1,0-0.3,0-0.5h-0.1c-0.1,0.2-0.3,0.4-0.5,0.5
			c-0.2,0.1-0.4,0.2-0.7,0.3C112.3,174.8,112.1,174.8,111.8,174.8z M111.9,174.3c0.2,0,0.5,0,0.7-0.1s0.4-0.2,0.6-0.3
			c0.2-0.1,0.3-0.3,0.4-0.5c0.1-0.2,0.2-0.4,0.2-0.6v-0.6c-0.7,0-1.3,0-1.7,0.1c-0.4,0.1-0.8,0.2-1,0.4c-0.2,0.2-0.3,0.4-0.3,0.8
			c0,0.2,0,0.4,0.1,0.5c0.1,0.1,0.2,0.2,0.4,0.3C111.5,174.2,111.7,174.3,111.9,174.3z"/>
		<path d="M116.9,174.8c-0.2,0-0.4,0-0.5-0.1c-0.1-0.1-0.2-0.2-0.3-0.3c-0.1-0.1-0.1-0.3-0.1-0.5v-4h-0.7v-0.5h0.7l0.1-1.5h0.5v1.5
			h1.1v0.5h-1.1v3.8c0,0.2,0,0.3,0.1,0.4c0,0.1,0.2,0.1,0.3,0.1h0.6v0.4c-0.1,0-0.1,0.1-0.2,0.1c-0.1,0-0.2,0-0.3,0
			C117.1,174.8,117,174.8,116.9,174.8z"/>
		<path d="M120.7,174.8c-0.5,0-0.9-0.1-1.3-0.3s-0.6-0.5-0.8-0.9c-0.2-0.4-0.3-0.9-0.3-1.5c0-0.6,0.1-1.2,0.3-1.6
			c0.2-0.4,0.4-0.7,0.8-0.9s0.8-0.3,1.3-0.3c0.5,0,0.9,0.1,1.3,0.3s0.6,0.5,0.8,0.9c0.2,0.4,0.3,0.9,0.3,1.6c0,0.6-0.1,1.1-0.3,1.5
			c-0.2,0.4-0.4,0.7-0.8,0.9S121.2,174.8,120.7,174.8z M120.7,174.3c0.4,0,0.7-0.1,0.9-0.2c0.3-0.1,0.5-0.4,0.6-0.7
			c0.1-0.3,0.2-0.7,0.2-1.2v-0.3c0-0.5-0.1-0.9-0.2-1.2c-0.1-0.3-0.3-0.5-0.6-0.7c-0.3-0.1-0.6-0.2-0.9-0.2c-0.4,0-0.7,0.1-0.9,0.2
			c-0.3,0.1-0.4,0.4-0.6,0.7c-0.1,0.3-0.2,0.7-0.2,1.2v0.3c0,0.5,0.1,0.9,0.2,1.2c0.1,0.3,0.3,0.5,0.6,0.7
			C120,174.2,120.3,174.3,120.7,174.3z"/>
		<path d="M124.1,174.7v-5.3h0.4l0.1,0.9h0.1c0-0.2,0.1-0.3,0.2-0.5c0.1-0.2,0.2-0.3,0.4-0.4c0.2-0.1,0.4-0.2,0.6-0.2
			c0.1,0,0.2,0,0.3,0c0.1,0,0.1,0,0.2,0v0.5H126c-0.2,0-0.4,0-0.6,0.1s-0.3,0.2-0.4,0.4c-0.1,0.2-0.2,0.3-0.2,0.5
			c0,0.2-0.1,0.4-0.1,0.6v3.1H124.1z"/>
		<path d="M127.2,168.2v-0.8h0.6v0.8H127.2z M127.2,174.7v-5.3h0.6v5.3H127.2z"/>
		<path d="M130.5,174.8c-0.2,0-0.4,0-0.6-0.1c-0.2-0.1-0.4-0.1-0.5-0.3c-0.2-0.1-0.3-0.3-0.4-0.4c-0.1-0.2-0.1-0.4-0.1-0.7
			c0-0.4,0.1-0.7,0.3-0.9c0.2-0.2,0.4-0.4,0.8-0.5c0.3-0.1,0.7-0.2,1.2-0.3c0.4,0,0.9-0.1,1.5-0.1v-0.7c0-0.2,0-0.4-0.1-0.6
			s-0.2-0.3-0.4-0.4s-0.5-0.1-0.9-0.1c-0.4,0-0.6,0-0.8,0.1c-0.2,0.1-0.3,0.2-0.4,0.4c-0.1,0.2-0.1,0.3-0.1,0.5v0.2H129
			c0,0,0-0.1,0-0.1s0-0.1,0-0.1c0-0.3,0.1-0.6,0.3-0.8c0.2-0.2,0.4-0.4,0.7-0.5c0.3-0.1,0.7-0.2,1.1-0.2c0.4,0,0.8,0.1,1,0.2
			c0.3,0.1,0.5,0.3,0.6,0.5c0.1,0.2,0.2,0.5,0.2,0.8v3.2c0,0.1,0,0.2,0.1,0.3s0.1,0.1,0.2,0.1h0.5v0.4c-0.1,0-0.2,0.1-0.3,0.1
			s-0.2,0-0.3,0c-0.2,0-0.3,0-0.4-0.1c-0.1-0.1-0.2-0.2-0.2-0.3c0-0.1,0-0.3,0-0.5h-0.1c-0.1,0.2-0.3,0.4-0.5,0.5
			c-0.2,0.1-0.4,0.2-0.7,0.3C131,174.8,130.7,174.8,130.5,174.8z M130.6,174.3c0.2,0,0.5,0,0.7-0.1s0.4-0.2,0.6-0.3
			c0.2-0.1,0.3-0.3,0.4-0.5c0.1-0.2,0.2-0.4,0.2-0.6v-0.6c-0.7,0-1.3,0-1.7,0.1c-0.4,0.1-0.8,0.2-1,0.4c-0.2,0.2-0.3,0.4-0.3,0.8
			c0,0.2,0,0.4,0.1,0.5c0.1,0.1,0.2,0.2,0.4,0.3C130.2,174.2,130.4,174.3,130.6,174.3z"/>
		<path d="M136.2,174.8c-0.3,0-0.6,0-0.9-0.1c-0.3-0.1-0.5-0.2-0.6-0.3c-0.2-0.1-0.3-0.3-0.4-0.5c-0.1-0.2-0.1-0.4-0.1-0.7
			c0,0,0-0.1,0-0.1c0,0,0-0.1,0-0.1h0.6c0,0,0,0.1,0,0.1c0,0,0,0,0,0.1c0,0.3,0.1,0.5,0.2,0.7c0.1,0.2,0.3,0.3,0.5,0.3
			c0.2,0.1,0.5,0.1,0.8,0.1c0.3,0,0.5,0,0.7-0.1c0.2-0.1,0.4-0.2,0.5-0.3c0.1-0.1,0.2-0.3,0.2-0.5c0-0.3-0.1-0.5-0.2-0.6
			s-0.4-0.2-0.6-0.3s-0.5-0.2-0.8-0.2c-0.2-0.1-0.4-0.1-0.6-0.2s-0.4-0.2-0.6-0.3c-0.2-0.1-0.3-0.2-0.4-0.4s-0.1-0.4-0.1-0.6
			c0-0.2,0-0.4,0.1-0.6c0.1-0.2,0.2-0.3,0.4-0.4c0.2-0.1,0.4-0.2,0.6-0.3c0.2-0.1,0.5-0.1,0.8-0.1c0.4,0,0.7,0,0.9,0.1
			s0.4,0.2,0.6,0.3c0.1,0.1,0.2,0.3,0.3,0.5c0.1,0.2,0.1,0.3,0.1,0.5c0,0,0,0,0,0.1c0,0,0,0.1,0,0.1h-0.6v-0.2c0-0.1,0-0.3-0.1-0.4
			c-0.1-0.1-0.2-0.3-0.4-0.4s-0.5-0.2-0.9-0.2c-0.2,0-0.4,0-0.6,0.1s-0.3,0.1-0.4,0.2c-0.1,0.1-0.2,0.2-0.2,0.3s-0.1,0.2-0.1,0.4
			c0,0.2,0.1,0.4,0.2,0.5c0.1,0.1,0.3,0.2,0.5,0.3s0.4,0.1,0.7,0.2c0.2,0.1,0.5,0.1,0.7,0.2c0.2,0.1,0.4,0.2,0.6,0.3
			c0.2,0.1,0.3,0.2,0.5,0.4c0.1,0.2,0.2,0.4,0.2,0.7c0,0.3-0.1,0.5-0.2,0.7c-0.1,0.2-0.2,0.4-0.4,0.5c-0.2,0.1-0.4,0.2-0.6,0.3
			C136.7,174.8,136.5,174.8,136.2,174.8z"/>
	</g>
</g>
<g>
	<path class="st0" d="M204.1,140.8l-2-2.1h2.9C204.8,139.4,204.5,140.1,204.1,140.8 M200.8,143v-3l2,2.1
		C202.2,142.5,201.6,142.8,200.8,143 M200.8,132.4c0.7,0.1,1.4,0.4,2,0.9l-2,2.1V132.4z M205,136.8h-2.9l2-2.1
		C204.5,135.3,204.8,136,205,136.8 M199,135.4l-2-2.1c0.6-0.4,1.3-0.7,2-0.9V135.4z M199,143c-0.7-0.1-1.4-0.4-2-0.9l2-2.1V143z
		 M194.9,138.6h2.9l-2,2.1C195.3,140.1,195,139.4,194.9,138.6 M195.7,134.6l2,2.1h-2.9C195,136,195.3,135.3,195.7,134.6 M205,132.8
		c0-0.1-0.1-0.2-0.2-0.3c-0.1-0.1-0.2-0.1-0.3-0.2c-1.2-1.1-2.7-1.8-4.4-1.9c-0.1,0-0.2-0.1-0.3-0.1c-0.1,0-0.2,0-0.3,0.1
		c-1.7,0.1-3.2,0.8-4.4,1.9c-0.1,0-0.2,0.1-0.3,0.2c-0.1,0.1-0.1,0.2-0.2,0.3c-1.1,1.2-1.7,2.8-1.8,4.6c0,0.1,0,0.2,0,0.3
		c0,0.1,0,0.2,0,0.3c0.1,1.8,0.7,3.4,1.8,4.6c0,0.1,0.1,0.2,0.2,0.3c0.1,0.1,0.2,0.1,0.3,0.2c1.2,1.1,2.7,1.8,4.4,1.9
		c0.1,0,0.2,0.1,0.3,0.1c0.1,0,0.2,0,0.3-0.1c1.7-0.1,3.2-0.8,4.4-1.9c0.1,0,0.2-0.1,0.2-0.2c0.1-0.1,0.1-0.2,0.2-0.3
		c1.1-1.2,1.7-2.8,1.8-4.6c0-0.1,0-0.2,0-0.3c0-0.1,0-0.2,0-0.3C206.7,135.6,206.1,134,205,132.8 M208.6,132.2
		c-0.7-1.3-1.7-2.3-2.8-3.2l8.1,0l3.7,10.9c-0.1,0.5-0.6,1-1.1,1h-0.4c-0.6,0-1.1-1.1-1.2-1.4l-2.1-6.7c-0.1-0.4-0.5-0.6-0.8-0.6
		H208.6z M199.9,146.5c-4.6,0-8.4-3.9-8.4-8.8s3.8-8.8,8.4-8.8c0.6,0,1.1,0.1,1.7,0.2c0.1,0,0.2,0.1,0.3,0.1c0.5,0.1,1,0.3,1.5,0.5
		c1.9,0.9,3.5,2.5,4.3,4.6c0.4,1.1,0.7,2.2,0.7,3.4C208.3,142.5,204.5,146.5,199.9,146.5 M198.1,117.3l0.4,0c0.7,0,1.2,0.3,1.2,0.6
		c0,0,0,0,0,0.1l1.1,9.2c-0.3,0-0.6,0-0.9,0c-0.6,0-1.2,0.1-1.8,0.2l-1.1-9.2C196.9,117.8,197.4,117.4,198.1,117.3 M213.2,140.1
		c0.3,1,1.3,2.7,2.9,2.7h0.4c1.6,0,2.9-1.3,2.9-3c0-0.1,0-0.2-0.1-0.3l-4-11.7c-0.1-0.4-0.5-0.6-0.8-0.6h0l-11.9,0l-1.2-9.4
		c-0.1-1.4-1.5-2.4-3.1-2.3l-0.4,0c-1.7,0.1-2.9,1.3-2.8,2.7c0,0,0,0,0,0.1l1.2,9.5c-0.3,0.1-0.7,0.3-1,0.5l-1.3-11.9
		c-0.1-0.5-0.5-0.9-1-0.8c-0.5,0.1-0.8,0.5-0.8,1l1.4,12.8c-2.4,1.9-3.9,5-3.9,8.4c0,5.9,4.6,10.6,10.2,10.6
		c5.6,0,10.2-4.8,10.2-10.6c0-1.2-0.2-2.5-0.6-3.6h1.8L213.2,140.1z M197.6,107.4c1.5,0,2.7,1.3,2.7,2.8s-1.2,2.8-2.7,2.8
		c-1.5,0-2.7-1.3-2.7-2.8S196.1,107.4,197.6,107.4 M197.6,114.8c2.5,0,4.5-2.1,4.5-4.7c0-2.6-2-4.7-4.5-4.7c-2.5,0-4.5,2.1-4.5,4.7
		C193.1,112.7,195.1,114.8,197.6,114.8"/>
</g>
<g>
	<g>
		<path d="M185,162.7v-6.9h1l2,5c0,0.1,0.1,0.2,0.1,0.3s0.1,0.2,0.1,0.3s0.1,0.2,0.1,0.3h0c0-0.1,0.1-0.2,0.1-0.3
			c0-0.1,0.1-0.2,0.1-0.3c0-0.1,0.1-0.2,0.1-0.3l2-5h1v6.9h-0.6v-4.5c0-0.1,0-0.3,0-0.5s0-0.4,0-0.6c0-0.2,0-0.4,0-0.5h-0.1
			c0,0.1-0.1,0.2-0.1,0.4c0,0.1-0.1,0.2-0.1,0.3s-0.1,0.2-0.1,0.3l-2,5H188l-2-5c0-0.1-0.1-0.2-0.1-0.3c0-0.1-0.1-0.2-0.1-0.3
			c0-0.1-0.1-0.2-0.1-0.4h-0.1c0,0.1,0,0.3,0,0.5s0,0.4,0,0.6c0,0.2,0,0.3,0,0.5v4.5H185z"/>
		<path d="M195.3,162.8c-0.5,0-0.9-0.1-1.3-0.3s-0.6-0.5-0.8-0.9c-0.2-0.4-0.3-0.9-0.3-1.5c0-0.6,0.1-1.2,0.3-1.6
			c0.2-0.4,0.4-0.7,0.8-0.9c0.3-0.2,0.8-0.3,1.3-0.3c0.5,0,0.9,0.1,1.3,0.3c0.3,0.2,0.6,0.5,0.8,0.9c0.2,0.4,0.3,0.9,0.3,1.6
			c0,0.6-0.1,1.1-0.3,1.5c-0.2,0.4-0.4,0.7-0.8,0.9S195.8,162.8,195.3,162.8z M195.3,162.3c0.4,0,0.7-0.1,0.9-0.2
			c0.3-0.1,0.5-0.4,0.6-0.7c0.1-0.3,0.2-0.7,0.2-1.2v-0.3c0-0.5-0.1-0.9-0.2-1.2c-0.1-0.3-0.3-0.5-0.6-0.7c-0.3-0.1-0.6-0.2-0.9-0.2
			c-0.4,0-0.7,0.1-0.9,0.2c-0.3,0.1-0.4,0.4-0.6,0.7c-0.1,0.3-0.2,0.7-0.2,1.2v0.3c0,0.5,0.1,0.9,0.2,1.2c0.1,0.3,0.3,0.5,0.6,0.7
			C194.6,162.2,194.9,162.3,195.3,162.3z"/>
		<path d="M200.1,162.7l-1.9-5.3h0.6l1,2.8c0.1,0.1,0.1,0.3,0.2,0.5c0.1,0.2,0.1,0.4,0.2,0.6c0.1,0.2,0.1,0.4,0.2,0.5h0
			c0.1-0.1,0.1-0.3,0.2-0.5c0.1-0.2,0.1-0.4,0.2-0.6s0.1-0.4,0.2-0.5l1-2.8h0.6l-2,5.3H200.1z"/>
		<path d="M203.5,156.2v-0.8h0.6v0.8H203.5z M203.5,162.7v-5.3h0.6v5.3H203.5z"/>
		<path d="M205.5,162.7v-7.2h0.6v7.2H205.5z"/>
		<path d="M207.6,156.2v-0.8h0.6v0.8H207.6z M207.6,162.7v-5.3h0.6v5.3H207.6z"/>
		<path d="M211.3,162.8c-0.4,0-0.8-0.1-1.1-0.3s-0.5-0.5-0.7-0.9c-0.2-0.4-0.2-1-0.2-1.6c0-0.6,0.1-1.1,0.2-1.5s0.4-0.7,0.7-0.9
			c0.3-0.2,0.7-0.3,1.1-0.3c0.2,0,0.4,0,0.6,0.1s0.4,0.1,0.5,0.3c0.2,0.1,0.3,0.3,0.4,0.5h0.1v-2.7h0.6v7.2h-0.4l-0.1-0.8H213
			c-0.2,0.3-0.4,0.5-0.7,0.7S211.7,162.8,211.3,162.8z M211.4,162.3c0.4,0,0.7-0.1,0.9-0.2c0.2-0.2,0.4-0.4,0.5-0.7
			c0.1-0.3,0.2-0.7,0.2-1.2v-0.2c0-0.5,0-0.8-0.1-1.1s-0.2-0.5-0.4-0.6c-0.2-0.2-0.3-0.3-0.5-0.3c-0.2-0.1-0.4-0.1-0.5-0.1
			c-0.3,0-0.6,0.1-0.9,0.2c-0.2,0.1-0.4,0.4-0.5,0.7c-0.1,0.3-0.2,0.7-0.2,1.2v0.3c0,0.5,0.1,0.9,0.2,1.2s0.3,0.5,0.5,0.7
			S211.1,162.3,211.4,162.3z"/>
		<path d="M216.3,162.8c-0.2,0-0.4,0-0.6-0.1c-0.2-0.1-0.4-0.1-0.5-0.3c-0.2-0.1-0.3-0.3-0.4-0.4c-0.1-0.2-0.1-0.4-0.1-0.7
			c0-0.4,0.1-0.7,0.3-0.9c0.2-0.2,0.4-0.4,0.8-0.5c0.3-0.1,0.7-0.2,1.2-0.3c0.4,0,0.9-0.1,1.5-0.1v-0.7c0-0.2,0-0.4-0.1-0.6
			c-0.1-0.2-0.2-0.3-0.4-0.4s-0.5-0.1-0.9-0.1c-0.4,0-0.6,0-0.8,0.1c-0.2,0.1-0.3,0.2-0.4,0.4c-0.1,0.2-0.1,0.3-0.1,0.5v0.2h-0.6
			c0,0,0-0.1,0-0.1s0-0.1,0-0.1c0-0.3,0.1-0.6,0.3-0.8c0.2-0.2,0.4-0.4,0.7-0.5c0.3-0.1,0.7-0.2,1.1-0.2c0.4,0,0.8,0.1,1,0.2
			c0.3,0.1,0.5,0.3,0.6,0.5c0.1,0.2,0.2,0.5,0.2,0.8v3.2c0,0.1,0,0.2,0.1,0.3s0.1,0.1,0.2,0.1h0.5v0.4c-0.1,0-0.2,0.1-0.3,0.1
			s-0.2,0-0.3,0c-0.2,0-0.3,0-0.4-0.1c-0.1-0.1-0.2-0.2-0.2-0.3c0-0.1,0-0.3,0-0.5h-0.1c-0.1,0.2-0.3,0.4-0.5,0.5
			c-0.2,0.1-0.4,0.2-0.7,0.3C216.8,162.8,216.6,162.8,216.3,162.8z M216.4,162.3c0.2,0,0.5,0,0.7-0.1s0.4-0.2,0.6-0.3
			c0.2-0.1,0.3-0.3,0.4-0.5c0.1-0.2,0.2-0.4,0.2-0.6v-0.6c-0.7,0-1.3,0-1.7,0.1c-0.4,0.1-0.8,0.2-1,0.4c-0.2,0.2-0.3,0.4-0.3,0.8
			c0,0.2,0,0.4,0.1,0.5c0.1,0.1,0.2,0.2,0.4,0.3C216,162.2,216.2,162.3,216.4,162.3z"/>
		<path d="M222.1,162.8c-0.4,0-0.8-0.1-1.1-0.3s-0.5-0.5-0.7-0.9c-0.2-0.4-0.2-1-0.2-1.6c0-0.6,0.1-1.1,0.2-1.5s0.4-0.7,0.7-0.9
			c0.3-0.2,0.7-0.3,1.1-0.3c0.2,0,0.4,0,0.6,0.1s0.4,0.1,0.5,0.3c0.2,0.1,0.3,0.3,0.4,0.5h0.1v-2.7h0.6v7.2h-0.4l-0.1-0.8h-0.1
			c-0.2,0.3-0.4,0.5-0.7,0.7S222.4,162.8,222.1,162.8z M222.2,162.3c0.4,0,0.7-0.1,0.9-0.2c0.2-0.2,0.4-0.4,0.5-0.7
			c0.1-0.3,0.2-0.7,0.2-1.2v-0.2c0-0.5,0-0.8-0.1-1.1s-0.2-0.5-0.4-0.6c-0.2-0.2-0.3-0.3-0.5-0.3c-0.2-0.1-0.4-0.1-0.5-0.1
			c-0.3,0-0.6,0.1-0.9,0.2c-0.2,0.1-0.4,0.4-0.5,0.7c-0.1,0.3-0.2,0.7-0.2,1.2v0.3c0,0.5,0.1,0.9,0.2,1.2s0.3,0.5,0.5,0.7
			S221.9,162.3,222.2,162.3z"/>
		<path d="M186.8,174.7v-5.3h0.4l0.1,0.9h0.1c0-0.2,0.1-0.3,0.2-0.5c0.1-0.2,0.2-0.3,0.4-0.4c0.2-0.1,0.4-0.2,0.6-0.2
			c0.1,0,0.2,0,0.3,0c0.1,0,0.1,0,0.2,0v0.5h-0.3c-0.2,0-0.4,0-0.6,0.1s-0.3,0.2-0.4,0.4c-0.1,0.2-0.2,0.3-0.2,0.5
			c0,0.2-0.1,0.4-0.1,0.6v3.1H186.8z"/>
		<path d="M191.8,174.8c-0.5,0-0.9-0.1-1.2-0.3s-0.6-0.5-0.8-0.9c-0.2-0.4-0.3-0.9-0.3-1.5c0-0.6,0.1-1.2,0.3-1.6s0.4-0.7,0.8-0.9
			s0.8-0.3,1.3-0.3c0.5,0,0.9,0.1,1.2,0.3c0.3,0.2,0.6,0.5,0.7,0.8c0.2,0.4,0.2,0.8,0.2,1.3v0.5h-4c0,0.5,0.1,0.9,0.2,1.2
			c0.1,0.3,0.3,0.5,0.6,0.7s0.6,0.2,0.9,0.2c0.3,0,0.5,0,0.7-0.1c0.2-0.1,0.4-0.2,0.5-0.3c0.1-0.1,0.2-0.3,0.3-0.4
			c0.1-0.2,0.1-0.3,0.1-0.5h0.6c0,0.2-0.1,0.5-0.1,0.7c-0.1,0.2-0.2,0.4-0.4,0.6c-0.2,0.2-0.4,0.3-0.7,0.4
			C192.5,174.7,192.2,174.8,191.8,174.8z M190.1,171.7h3.4c0-0.4,0-0.7-0.1-0.9c-0.1-0.2-0.2-0.4-0.3-0.6c-0.1-0.2-0.3-0.3-0.5-0.3
			c-0.2-0.1-0.4-0.1-0.7-0.1c-0.4,0-0.7,0.1-0.9,0.2s-0.4,0.3-0.6,0.6C190.2,170.9,190.1,171.3,190.1,171.7z"/>
		<path d="M196.9,174.8c-0.4,0-0.8-0.1-1.1-0.3s-0.5-0.5-0.7-0.9c-0.2-0.4-0.2-1-0.2-1.6c0-0.6,0.1-1.1,0.2-1.5s0.4-0.7,0.7-0.9
			c0.3-0.2,0.7-0.3,1.1-0.3c0.2,0,0.4,0,0.6,0.1s0.4,0.1,0.5,0.3c0.2,0.1,0.3,0.3,0.4,0.5h0.1v-2.7h0.6v7.2h-0.4l-0.1-0.8h-0.1
			c-0.2,0.3-0.4,0.5-0.7,0.7S197.3,174.8,196.9,174.8z M197,174.3c0.4,0,0.7-0.1,0.9-0.2c0.2-0.2,0.4-0.4,0.5-0.7
			c0.1-0.3,0.2-0.7,0.2-1.2v-0.2c0-0.5,0-0.8-0.1-1.1s-0.2-0.5-0.4-0.6c-0.2-0.1-0.3-0.3-0.5-0.3c-0.2-0.1-0.4-0.1-0.5-0.1
			c-0.3,0-0.6,0.1-0.9,0.2c-0.2,0.1-0.4,0.4-0.5,0.7c-0.1,0.3-0.2,0.7-0.2,1.2v0.3c0,0.5,0.1,0.9,0.2,1.2s0.3,0.5,0.5,0.7
			S196.7,174.3,197,174.3z"/>
		<path d="M202.2,174.8c-0.5,0-0.9-0.1-1.2-0.4c-0.3-0.2-0.5-0.7-0.5-1.3v-3.7h0.6v3.7c0,0.2,0,0.4,0.1,0.6c0.1,0.2,0.2,0.3,0.3,0.4
			c0.1,0.1,0.2,0.1,0.4,0.2s0.3,0,0.5,0c0.3,0,0.5-0.1,0.8-0.2c0.3-0.1,0.5-0.3,0.6-0.6c0.2-0.3,0.2-0.6,0.2-0.9v-3.1h0.6v5.3h-0.4
			l-0.1-0.9H204c-0.2,0.3-0.3,0.5-0.5,0.6c-0.2,0.1-0.4,0.2-0.6,0.3C202.7,174.8,202.5,174.8,202.2,174.8z"/>
		<path d="M207.9,174.8c-0.5,0-0.9-0.1-1.2-0.3c-0.3-0.2-0.6-0.5-0.8-0.9s-0.3-0.9-0.3-1.5c0-0.6,0.1-1.1,0.3-1.5
			c0.2-0.4,0.4-0.7,0.8-0.9c0.3-0.2,0.8-0.3,1.2-0.3c0.4,0,0.7,0,0.9,0.1s0.5,0.2,0.6,0.4c0.2,0.2,0.3,0.4,0.3,0.7
			c0.1,0.3,0.1,0.5,0.1,0.8h-0.6c0-0.4,0-0.7-0.1-0.9c-0.1-0.2-0.2-0.4-0.5-0.5s-0.5-0.2-0.8-0.2c-0.3,0-0.6,0.1-0.8,0.2
			s-0.4,0.3-0.6,0.7c-0.1,0.3-0.2,0.7-0.2,1.2v0.3c0,0.5,0.1,0.9,0.2,1.2c0.1,0.3,0.3,0.5,0.6,0.7c0.2,0.1,0.5,0.2,0.9,0.2
			c0.4,0,0.6-0.1,0.9-0.2c0.2-0.1,0.4-0.3,0.4-0.5c0.1-0.2,0.1-0.5,0.1-0.8h0.6c0,0.3,0,0.5-0.1,0.8c-0.1,0.2-0.2,0.5-0.3,0.7
			s-0.4,0.3-0.6,0.5S208.3,174.8,207.9,174.8z"/>
		<path d="M211,168.2v-0.8h0.6v0.8H211z M211,174.7v-5.3h0.6v5.3H211z"/>
		<path d="M214.8,174.8c-0.4,0-0.8-0.1-1.1-0.3s-0.5-0.5-0.7-0.9c-0.2-0.4-0.2-1-0.2-1.6c0-0.6,0.1-1.1,0.2-1.5s0.4-0.7,0.7-0.9
			c0.3-0.2,0.7-0.3,1.1-0.3c0.2,0,0.4,0,0.6,0.1s0.4,0.1,0.5,0.3c0.2,0.1,0.3,0.3,0.4,0.5h0.1v-2.7h0.6v7.2h-0.4l-0.1-0.8h-0.1
			c-0.2,0.3-0.4,0.5-0.7,0.7S215.1,174.8,214.8,174.8z M214.8,174.3c0.4,0,0.7-0.1,0.9-0.2c0.2-0.2,0.4-0.4,0.5-0.7
			c0.1-0.3,0.2-0.7,0.2-1.2v-0.2c0-0.5,0-0.8-0.1-1.1s-0.2-0.5-0.4-0.6c-0.2-0.1-0.3-0.3-0.5-0.3c-0.2-0.1-0.4-0.1-0.5-0.1
			c-0.3,0-0.6,0.1-0.9,0.2c-0.2,0.1-0.4,0.4-0.5,0.7c-0.1,0.3-0.2,0.7-0.2,1.2v0.3c0,0.5,0.1,0.9,0.2,1.2s0.3,0.5,0.5,0.7
			S214.5,174.3,214.8,174.3z"/>
		<path d="M219.7,174.8c-0.2,0-0.4,0-0.6-0.1c-0.2-0.1-0.4-0.1-0.5-0.3c-0.2-0.1-0.3-0.3-0.4-0.4c-0.1-0.2-0.1-0.4-0.1-0.7
			c0-0.4,0.1-0.7,0.3-0.9c0.2-0.2,0.4-0.4,0.8-0.5c0.3-0.1,0.7-0.2,1.2-0.3c0.4,0,0.9-0.1,1.5-0.1v-0.7c0-0.2,0-0.4-0.1-0.6
			s-0.2-0.3-0.4-0.4s-0.5-0.1-0.9-0.1c-0.4,0-0.6,0-0.8,0.1c-0.2,0.1-0.3,0.2-0.4,0.4c-0.1,0.2-0.1,0.3-0.1,0.5v0.2h-0.6
			c0,0,0-0.1,0-0.1s0-0.1,0-0.1c0-0.3,0.1-0.6,0.3-0.8c0.2-0.2,0.4-0.4,0.7-0.5c0.3-0.1,0.7-0.2,1.1-0.2c0.4,0,0.8,0.1,1,0.2
			c0.3,0.1,0.5,0.3,0.6,0.5c0.1,0.2,0.2,0.5,0.2,0.8v3.2c0,0.1,0,0.2,0.1,0.3s0.1,0.1,0.2,0.1h0.5v0.4c-0.1,0-0.2,0.1-0.3,0.1
			s-0.2,0-0.3,0c-0.2,0-0.3,0-0.4-0.1c-0.1-0.1-0.2-0.2-0.2-0.3c0-0.1,0-0.3,0-0.5h-0.1c-0.1,0.2-0.3,0.4-0.5,0.5
			c-0.2,0.1-0.4,0.2-0.7,0.3C220.3,174.8,220,174.8,219.7,174.8z M219.8,174.3c0.2,0,0.5,0,0.7-0.1s0.4-0.2,0.6-0.3
			c0.2-0.1,0.3-0.3,0.4-0.5c0.1-0.2,0.2-0.4,0.2-0.6v-0.6c-0.7,0-1.3,0-1.7,0.1c-0.4,0.1-0.8,0.2-1,0.4c-0.2,0.2-0.3,0.4-0.3,0.8
			c0,0.2,0,0.4,0.1,0.5c0.1,0.1,0.2,0.2,0.4,0.3C219.4,174.2,219.6,174.3,219.8,174.3z"/>
	</g>
</g>
<g>
	<path class="st0" d="M294.3,121.1c1.7,0,3-1.3,3-2.8s-1.3-2.8-3-2.8c-1.7,0-3,1.3-3,2.8S292.7,121.1,294.3,121.1"/>
	<path class="st0" d="M294.3,128.3c1.7,0,3-1.3,3-2.8c0-1.6-1.3-2.8-3-2.8c-1.7,0-3,1.3-3,2.8C291.3,127,292.7,128.3,294.3,128.3"/>
	<g>
		<path class="st0" d="M286.7,128.3c1.7,0,3-1.3,3-2.8c0-1.6-1.3-2.8-3-2.8c-1.7,0-3,1.3-3,2.8C283.7,127,285.1,128.3,286.7,128.3"
			/>
		<path class="st0" d="M286.7,135.5c1.7,0,3-1.3,3-2.8s-1.3-2.8-3-2.8c-1.7,0-3,1.3-3,2.8S285.1,135.5,286.7,135.5"/>
		<path class="st0" d="M266,135.9c0.7,0.7,1.8,0.7,2.5,0l8.6-8.5c0.7-0.7,0.7-1.7,0-2.4c-0.7-0.7-1.8-0.7-2.5,0l-8.6,8.5
			C265.3,134.1,265.3,135.2,266,135.9"/>
		<path class="st0" d="M277.1,136.1l-4.9,4.9c-0.7,0.7-0.7,1.7,0,2.4c0.7,0.7,1.8,0.7,2.5,0l4.9-4.9c0.7-0.7,0.7-1.7,0-2.4
			C278.9,135.4,277.8,135.4,277.1,136.1"/>
		<path class="st0" d="M263.8,133.9l6.3-6.4c0.7-0.7,0.7-1.7,0-2.4c-0.7-0.7-1.8-0.7-2.5,0l-6.3,6.4c-0.7,0.7-0.7,1.7,0,2.4
			C262,134.6,263.1,134.6,263.8,133.9"/>
		<path class="st0" d="M280.6,128.2c-0.7-0.7-1.8-0.7-2.5,0l-8.6,8.5c-0.7,0.7-0.7,1.7,0,2.4c0.7,0.7,1.8,0.7,2.5,0l8.6-8.5
			C281.3,129.9,281.3,128.9,280.6,128.2"/>
		<g>
			<path class="st0" d="M295.4,141H281v-3h14.4c0.6,0,3.6-0.2,3.6-3.6v-17.8c0-0.6-0.2-3.6-3.6-3.6h-17.8c-0.6,0-3.6,0.2-3.6,3.6
				v6.8h-3v-6.8c0-4.9,4-6.6,6.6-6.6h17.8c4.9,0,6.6,4,6.6,6.6v17.8C302.1,139.3,298.1,141,295.4,141z"/>
		</g>
	</g>
</g>
<g>
	<g>
		<path d="M270,162.7v-6.9h3.4c0.4,0,0.8,0.1,1,0.2s0.5,0.3,0.6,0.6c0.1,0.2,0.2,0.5,0.2,0.9c0,0.3,0,0.5-0.1,0.7
			c-0.1,0.2-0.2,0.4-0.4,0.6c-0.2,0.2-0.4,0.3-0.6,0.3v0c0.2,0.1,0.4,0.1,0.6,0.3s0.3,0.3,0.5,0.5c0.1,0.2,0.2,0.5,0.2,0.9
			c0,0.5-0.1,0.8-0.3,1.1c-0.2,0.3-0.4,0.5-0.7,0.6c-0.3,0.1-0.7,0.2-1.1,0.2H270z M270.7,158.9h2.7c0.3,0,0.5-0.1,0.7-0.2
			c0.2-0.1,0.4-0.3,0.5-0.4c0.1-0.2,0.2-0.4,0.2-0.7c0-0.4-0.1-0.7-0.3-0.9c-0.2-0.2-0.5-0.3-0.9-0.3h-2.8V158.9z M270.7,162.1h2.8
			c0.4,0,0.7-0.1,1-0.3c0.2-0.2,0.4-0.5,0.4-1c0-0.3-0.1-0.6-0.2-0.8c-0.1-0.2-0.3-0.3-0.5-0.4c-0.2-0.1-0.5-0.1-0.8-0.1h-2.8V162.1
			z"/>
		<path d="M276.7,162.7v-5.3h0.4l0.1,0.9h0.1c0-0.2,0.1-0.3,0.2-0.5c0.1-0.2,0.2-0.3,0.4-0.4c0.2-0.1,0.4-0.2,0.6-0.2
			c0.1,0,0.2,0,0.3,0c0.1,0,0.1,0,0.2,0v0.5h-0.3c-0.2,0-0.4,0-0.6,0.1c-0.2,0.1-0.3,0.2-0.4,0.4c-0.1,0.2-0.2,0.3-0.2,0.5
			c0,0.2-0.1,0.4-0.1,0.6v3.1H276.7z"/>
		<path d="M281.1,162.8c-0.2,0-0.4,0-0.6-0.1c-0.2-0.1-0.4-0.1-0.5-0.3c-0.2-0.1-0.3-0.3-0.4-0.4c-0.1-0.2-0.1-0.4-0.1-0.7
			c0-0.4,0.1-0.7,0.3-0.9c0.2-0.2,0.4-0.4,0.8-0.5c0.3-0.1,0.7-0.2,1.2-0.3c0.4,0,0.9-0.1,1.5-0.1v-0.7c0-0.2,0-0.4-0.1-0.6
			c-0.1-0.2-0.2-0.3-0.4-0.4s-0.5-0.1-0.9-0.1c-0.4,0-0.6,0-0.8,0.1c-0.2,0.1-0.3,0.2-0.4,0.4c-0.1,0.2-0.1,0.3-0.1,0.5v0.2h-0.6
			c0,0,0-0.1,0-0.1s0-0.1,0-0.1c0-0.3,0.1-0.6,0.3-0.8c0.2-0.2,0.4-0.4,0.7-0.5c0.3-0.1,0.7-0.2,1.1-0.2c0.4,0,0.8,0.1,1,0.2
			c0.3,0.1,0.5,0.3,0.6,0.5c0.1,0.2,0.2,0.5,0.2,0.8v3.2c0,0.1,0,0.2,0.1,0.3s0.1,0.1,0.2,0.1h0.5v0.4c-0.1,0-0.2,0.1-0.3,0.1
			s-0.2,0-0.3,0c-0.2,0-0.3,0-0.4-0.1c-0.1-0.1-0.2-0.2-0.2-0.3c0-0.1,0-0.3,0-0.5H283c-0.1,0.2-0.3,0.4-0.5,0.5
			c-0.2,0.1-0.4,0.2-0.7,0.3C281.6,162.8,281.3,162.8,281.1,162.8z M281.1,162.3c0.2,0,0.5,0,0.7-0.1s0.4-0.2,0.6-0.3
			c0.2-0.1,0.3-0.3,0.4-0.5c0.1-0.2,0.2-0.4,0.2-0.6v-0.6c-0.7,0-1.3,0-1.7,0.1c-0.4,0.1-0.8,0.2-1,0.4c-0.2,0.2-0.3,0.4-0.3,0.8
			c0,0.2,0,0.4,0.1,0.5c0.1,0.1,0.2,0.2,0.4,0.3C280.7,162.2,280.9,162.3,281.1,162.3z"/>
		<path d="M285.1,156.2v-0.8h0.6v0.8H285.1z M285.1,162.7v-5.3h0.6v5.3H285.1z"/>
		<path d="M287.1,162.7v-7.2h0.6v7.2H287.1z"/>
		<path d="M291.1,162.8c-0.5,0-0.9-0.1-1.2-0.3s-0.6-0.5-0.8-0.9c-0.2-0.4-0.3-0.9-0.3-1.5c0-0.6,0.1-1.2,0.3-1.6
			c0.2-0.4,0.4-0.7,0.8-0.9c0.4-0.2,0.8-0.3,1.3-0.3c0.5,0,0.9,0.1,1.2,0.3c0.3,0.2,0.6,0.5,0.7,0.8c0.2,0.4,0.2,0.8,0.2,1.3v0.5h-4
			c0,0.5,0.1,0.9,0.2,1.2c0.1,0.3,0.3,0.5,0.6,0.7s0.6,0.2,0.9,0.2c0.3,0,0.5,0,0.7-0.1c0.2-0.1,0.4-0.2,0.5-0.3
			c0.1-0.1,0.2-0.3,0.3-0.4c0.1-0.2,0.1-0.3,0.1-0.5h0.6c0,0.2-0.1,0.5-0.1,0.7c-0.1,0.2-0.2,0.4-0.4,0.6c-0.2,0.2-0.4,0.3-0.7,0.4
			C291.8,162.7,291.5,162.8,291.1,162.8z M289.4,159.7h3.4c0-0.4,0-0.7-0.1-0.9c-0.1-0.2-0.2-0.4-0.3-0.6c-0.1-0.2-0.3-0.3-0.5-0.3
			c-0.2-0.1-0.4-0.1-0.7-0.1c-0.4,0-0.7,0.1-0.9,0.2s-0.4,0.3-0.6,0.6C289.5,158.9,289.5,159.3,289.4,159.7z"/>
	</g>
</g>
<g>
	<g>
		<path class="st0" d="M367,138.3v-2.7c7.2,0,13.1-5.8,13.1-12.8c0-7.1-5.9-12.8-13.1-12.8s-13.1,5.8-13.1,12.8h-2.7
			c0-8.5,7.1-15.5,15.7-15.5c8.7,0,15.7,7,15.7,15.5S375.7,138.3,367,138.3z"/>
	</g>
	<path class="st0" d="M350.3,138.5c0.7,0.7,1.8,0.7,2.5,0l8.6-8.5c0.7-0.7,0.7-1.7,0-2.4c-0.7-0.7-1.8-0.7-2.5,0l-8.6,8.6
		C349.6,136.8,349.6,137.8,350.3,138.5"/>
	<path class="st0" d="M361.4,138.7l-4.9,4.9c-0.7,0.7-0.7,1.7,0,2.4c0.7,0.7,1.8,0.7,2.5,0l4.9-4.9c0.7-0.7,0.7-1.7,0-2.4
		C363.1,138.1,362,138.1,361.4,138.7"/>
	<path class="st0" d="M348,136.6l6.3-6.4c0.7-0.7,0.7-1.7,0-2.4c-0.7-0.7-1.8-0.7-2.5,0l-6.3,6.4c-0.7,0.7-0.7,1.7,0,2.4
		C346.2,137.2,347.3,137.2,348,136.6"/>
	<path class="st0" d="M364.9,130.8c-0.7-0.7-1.8-0.7-2.5,0l-8.6,8.5c-0.7,0.7-0.7,1.7,0,2.4c0.7,0.7,1.8,0.7,2.5,0l8.6-8.6
		C365.6,132.6,365.6,131.5,364.9,130.8"/>
	<path class="st0" d="M357.8,118.4c0-0.8,0.2-1,1-1h7.2c0.8,0,1,0.2,1,1v0.2c0,0.8-0.2,1-1,1h-2.4v6.4c0,0.8-0.2,1-1,1h-0.3
		c-0.8,0-1-0.2-1-1v-6.4h-2.4c-0.8,0-1-0.2-1-1V118.4z"/>
	<path class="st0" d="M367.5,118.4c0-0.8,0.2-1,1-1h7.2c0.8,0,1,0.2,1,1v0.2c0,0.8-0.2,1-1,1h-2.4v6.4c0,0.8-0.2,1-1,1h-0.3
		c-0.8,0-1-0.2-1-1v-6.4h-2.4c-0.8,0-1-0.2-1-1V118.4z"/>
</g>
<g>
	<g>
		<path d="M343.5,162.7v-6.3H341v-0.6h5.6v0.6h-2.5v6.3H343.5z"/>
		<path d="M349.5,162.8c-0.5,0-0.9-0.1-1.3-0.3s-0.6-0.5-0.8-0.9c-0.2-0.4-0.3-0.9-0.3-1.5c0-0.6,0.1-1.2,0.3-1.6
			c0.2-0.4,0.4-0.7,0.8-0.9c0.3-0.2,0.8-0.3,1.3-0.3c0.5,0,0.9,0.1,1.3,0.3c0.3,0.2,0.6,0.5,0.8,0.9c0.2,0.4,0.3,0.9,0.3,1.6
			c0,0.6-0.1,1.1-0.3,1.5c-0.2,0.4-0.4,0.7-0.8,0.9S350,162.8,349.5,162.8z M349.5,162.3c0.4,0,0.7-0.1,0.9-0.2
			c0.3-0.1,0.5-0.4,0.6-0.7c0.1-0.3,0.2-0.7,0.2-1.2v-0.3c0-0.5-0.1-0.9-0.2-1.2c-0.1-0.3-0.3-0.5-0.6-0.7c-0.3-0.1-0.6-0.2-0.9-0.2
			c-0.4,0-0.7,0.1-0.9,0.2c-0.3,0.1-0.4,0.4-0.6,0.7c-0.1,0.3-0.2,0.7-0.2,1.2v0.3c0,0.5,0.1,0.9,0.2,1.2c0.1,0.3,0.3,0.5,0.6,0.7
			C348.8,162.2,349.1,162.3,349.5,162.3z"/>
		<path d="M354.5,162.8c-0.5,0-0.9-0.1-1.2-0.4c-0.3-0.2-0.5-0.7-0.5-1.3v-3.7h0.6v3.7c0,0.2,0,0.4,0.1,0.6c0.1,0.2,0.2,0.3,0.3,0.4
			c0.1,0.1,0.2,0.1,0.4,0.2s0.3,0,0.5,0c0.3,0,0.5-0.1,0.8-0.2c0.3-0.1,0.5-0.3,0.6-0.6c0.2-0.3,0.2-0.6,0.2-0.9v-3.1h0.6v5.3h-0.4
			l-0.1-0.9h-0.1c-0.2,0.3-0.3,0.5-0.5,0.6c-0.2,0.1-0.4,0.2-0.6,0.3C355,162.8,354.8,162.8,354.5,162.8z"/>
		<path d="M360.2,162.8c-0.5,0-0.9-0.1-1.2-0.3c-0.3-0.2-0.6-0.5-0.8-0.9s-0.3-0.9-0.3-1.5c0-0.6,0.1-1.1,0.3-1.5
			c0.2-0.4,0.4-0.7,0.8-0.9c0.3-0.2,0.8-0.3,1.2-0.3c0.4,0,0.7,0,0.9,0.1s0.5,0.2,0.6,0.4s0.3,0.4,0.3,0.7c0.1,0.3,0.1,0.5,0.1,0.8
			h-0.6c0-0.4,0-0.7-0.1-0.9c-0.1-0.2-0.2-0.4-0.5-0.5s-0.5-0.2-0.8-0.2c-0.3,0-0.6,0.1-0.8,0.2s-0.4,0.3-0.6,0.7
			c-0.1,0.3-0.2,0.7-0.2,1.2v0.3c0,0.5,0.1,0.9,0.2,1.2c0.1,0.3,0.3,0.5,0.6,0.7c0.2,0.1,0.5,0.2,0.9,0.2c0.4,0,0.6-0.1,0.9-0.2
			c0.2-0.1,0.4-0.3,0.4-0.5c0.1-0.2,0.1-0.5,0.1-0.8h0.6c0,0.3,0,0.5-0.1,0.8c-0.1,0.2-0.2,0.5-0.3,0.7s-0.4,0.3-0.6,0.5
			S360.6,162.8,360.2,162.8z"/>
		<path d="M363.3,162.7v-7.2h0.6v2.7h0.1c0.2-0.2,0.3-0.4,0.5-0.5c0.2-0.1,0.4-0.2,0.6-0.3c0.2-0.1,0.4-0.1,0.7-0.1
			c0.3,0,0.6,0.1,0.9,0.2s0.4,0.3,0.6,0.5c0.1,0.2,0.2,0.6,0.2,1v3.7h-0.6V159c0-0.2,0-0.4-0.1-0.6c-0.1-0.2-0.2-0.3-0.3-0.4
			s-0.2-0.1-0.4-0.2c-0.1,0-0.3,0-0.5,0c-0.3,0-0.5,0.1-0.8,0.2c-0.3,0.1-0.5,0.3-0.6,0.6c-0.2,0.3-0.2,0.6-0.2,1v3.1H363.3z"/>
		<path d="M372,162.8c-0.2,0-0.4,0-0.5-0.1s-0.2-0.2-0.3-0.3c-0.1-0.1-0.1-0.3-0.1-0.5v-4h-0.7v-0.5h0.7l0.1-1.5h0.5v1.5h1.1v0.5
			h-1.1v3.8c0,0.2,0,0.3,0.1,0.4c0,0.1,0.2,0.1,0.3,0.1h0.6v0.4c-0.1,0-0.1,0.1-0.2,0.1c-0.1,0-0.2,0-0.3,0
			C372.2,162.8,372.1,162.8,372,162.8z"/>
		<path d="M375.7,162.8c-0.5,0-0.9-0.1-1.3-0.3s-0.6-0.5-0.8-0.9c-0.2-0.4-0.3-0.9-0.3-1.5c0-0.6,0.1-1.2,0.3-1.6
			c0.2-0.4,0.4-0.7,0.8-0.9c0.3-0.2,0.8-0.3,1.3-0.3c0.5,0,0.9,0.1,1.3,0.3c0.3,0.2,0.6,0.5,0.8,0.9c0.2,0.4,0.3,0.9,0.3,1.6
			c0,0.6-0.1,1.1-0.3,1.5c-0.2,0.4-0.4,0.7-0.8,0.9C376.6,162.7,376.2,162.8,375.7,162.8z M375.7,162.3c0.4,0,0.7-0.1,0.9-0.2
			c0.3-0.1,0.5-0.4,0.6-0.7c0.1-0.3,0.2-0.7,0.2-1.2v-0.3c0-0.5-0.1-0.9-0.2-1.2c-0.1-0.3-0.3-0.5-0.6-0.7c-0.3-0.1-0.6-0.2-0.9-0.2
			s-0.7,0.1-0.9,0.2c-0.3,0.1-0.4,0.4-0.6,0.7c-0.1,0.3-0.2,0.7-0.2,1.2v0.3c0,0.5,0.1,0.9,0.2,1.2c0.1,0.3,0.3,0.5,0.6,0.7
			C375.1,162.2,375.4,162.3,375.7,162.3z"/>
		<path d="M380.8,162.8c-0.5,0-0.9-0.1-1.2-0.4c-0.3-0.2-0.5-0.7-0.5-1.3v-3.7h0.6v3.7c0,0.2,0,0.4,0.1,0.6c0.1,0.2,0.2,0.3,0.3,0.4
			c0.1,0.1,0.2,0.1,0.4,0.2c0.2,0,0.3,0,0.5,0c0.3,0,0.5-0.1,0.8-0.2c0.3-0.1,0.5-0.3,0.6-0.6c0.2-0.3,0.2-0.6,0.2-0.9v-3.1h0.6v5.3
			h-0.4l-0.1-0.9h-0.1c-0.2,0.3-0.3,0.5-0.5,0.6c-0.2,0.1-0.4,0.2-0.6,0.3C381.2,162.8,381,162.8,380.8,162.8z"/>
		<path d="M384.6,162.7v-5.3h0.5l0.1,0.9h0.1c0-0.2,0.1-0.3,0.2-0.5c0.1-0.2,0.2-0.3,0.4-0.4c0.2-0.1,0.4-0.2,0.6-0.2
			c0.1,0,0.2,0,0.3,0c0.1,0,0.1,0,0.2,0v0.5h-0.3c-0.2,0-0.4,0-0.6,0.1c-0.2,0.1-0.3,0.2-0.4,0.4s-0.2,0.3-0.2,0.5
			c0,0.2-0.1,0.4-0.1,0.6v3.1H384.6z"/>
	</g>
</g>
<g>
	<path class="st0" d="M118.8,44.8c1.8,0,3.1-0.3,3.8-0.8c0.6-0.6,1-1.5,1-2.9v-5.6c0-1.4-0.3-2.4-1-3c-0.7-0.6-1.9-0.8-3.8-0.8h-1.1
		c-0.6,0-0.8,0.3-0.8,0.9v11.4c0,0.6,0.3,0.9,0.8,0.9H118.8z M113,31.5c0-2.4,1-3.5,3.4-3.5h2.3c3,0,5.2,0.5,6.6,1.6
		c1.4,1.1,2,3,2,5.8V41c0,5.2-2.7,7.4-8.6,7.4h-2.3c-2.4,0-3.4-1-3.4-3.5V31.5z"/>
	<path class="st0" d="M102.7,39.6l5.4,0.1l0.1-5.7c0-1,0-1.6-0.1-1.9c-0.1-0.3-0.3-0.4-0.7-0.4c-0.4,0-0.7,0.1-0.9,0.4
		c-0.2,0.3-0.5,0.9-1,1.9L102.7,39.6z M111.7,46.6c0,1.4-0.3,1.7-1.6,1.7l-0.5,0c-1.3,0-1.6-0.4-1.6-1.7l0-3.1l-7.1-0.2l-1.4,3.1
		c-0.6,1.4-1.1,1.7-2.4,1.6l-0.5,0c-1.3,0-1.4-0.4-0.8-1.7l6-12.4c1.1-2.3,1.6-3.2,2.6-4.3c1-1.1,2-1.4,3.7-1.4c1.6,0,2.5,0.4,3,1.5
		c0.5,1.1,0.5,2,0.5,4.3L111.7,46.6z"/>
	<path class="st0" d="M131.5,34.7c0.6,0,1-0.7,0.9-1.5c-0.8-4.2-3.3-7.8-7-9.8c-0.7-0.4-1.5-0.2-1.7,0.4c-0.2,0.6,0.1,1.2,0.7,1.5
		c3.1,1.7,5.2,4.7,5.9,8.3C130.4,34.2,130.9,34.7,131.5,34.7"/>
	<path class="st0" d="M124.5,23.5c-0.3,0-0.4,0.2-0.5,0.4c-0.1,0.4,0.1,0.9,0.5,1.1c3.1,1.7,5.4,4.9,6,8.5c0.1,0.5,0.5,0.9,0.9,0.8
		l0.1,0.4l0-0.4c0.1,0,0.3-0.1,0.4-0.2c0.2-0.2,0.2-0.5,0.2-0.9c-0.7-4-3.3-7.6-6.8-9.5C125,23.5,124.8,23.5,124.5,23.5 M131.6,35
		L131.6,35L131.6,35c-0.8,0.1-1.5-0.6-1.7-1.4c-0.6-3.4-2.7-6.4-5.7-8c-0.7-0.4-1.1-1.3-0.8-2c0.3-0.8,1.3-1,2.2-0.6
		c3.7,2,6.4,5.8,7.1,10c0.1,0.5,0,1-0.3,1.4C132.2,34.8,131.9,35,131.6,35"/>
	<path class="st0" d="M135.9,37.6c0.6,0.1,1.2-0.7,1.2-1.7c0.4-8.3-5-15.9-12.8-18c-1-0.3-1.9,0.1-2,0.7c-0.1,0.6,0.6,1.2,1.4,1.4
		c6.9,1.9,11.6,8.5,11.2,15.8C135,36.7,135.3,37.5,135.9,37.6"/>
	<path class="st0" d="M123.4,18.1c-0.4,0.1-0.7,0.2-0.7,0.5c0,0.4,0.5,0.8,1.2,1c7,1.9,11.8,8.7,11.5,16.2c0,0.7,0.2,1.4,0.6,1.5
		c0.3,0.1,0.8-0.5,0.8-1.4c0.4-8.1-4.9-15.6-12.6-17.7C123.9,18.1,123.7,18.1,123.4,18.1 M136.1,38L136.1,38c-0.1,0-0.2,0-0.3,0
		c-0.7-0.1-1.2-1.1-1.2-2.2c0.3-7.1-4.3-13.6-11-15.4c-1.1-0.3-1.8-1.1-1.7-1.8c0.1-0.6,0.6-1,1.3-1.1c0.3,0,0.7,0,1.1,0.1
		c8,2.2,13.5,9.9,13.1,18.4C137.4,37,136.9,37.9,136.1,38"/>
</g>
<g>
	<g>
		<path d="M82,68.7l2.8-6.9h0.9l2.8,6.9h-0.7L87,66.8h-3.5l-0.8,1.9H82z M83.7,66.2h3.1l-1-2.4c0-0.1,0-0.1-0.1-0.2
			c0-0.1-0.1-0.2-0.1-0.4c-0.1-0.1-0.1-0.3-0.2-0.4c-0.1-0.1-0.1-0.3-0.1-0.4h-0.1c0,0.1-0.1,0.3-0.2,0.5c-0.1,0.2-0.1,0.3-0.2,0.5
			c-0.1,0.2-0.1,0.3-0.2,0.5L83.7,66.2z"/>
		<path d="M90.9,68.8c-0.5,0-0.9-0.1-1.2-0.4c-0.3-0.2-0.5-0.7-0.5-1.3v-3.7h0.6v3.7c0,0.2,0,0.4,0.1,0.6c0.1,0.2,0.2,0.3,0.3,0.4
			c0.1,0.1,0.2,0.1,0.4,0.2s0.3,0,0.5,0c0.3,0,0.5-0.1,0.8-0.2c0.3-0.1,0.5-0.3,0.6-0.6c0.2-0.3,0.2-0.6,0.2-0.9v-3.1h0.6v5.3h-0.4
			l-0.1-0.9h-0.1c-0.2,0.3-0.3,0.5-0.5,0.6c-0.2,0.1-0.4,0.2-0.6,0.3C91.3,68.8,91.1,68.8,90.9,68.8z"/>
		<path d="M95.8,68.8c-0.2,0-0.4,0-0.5-0.1c-0.1-0.1-0.2-0.2-0.3-0.3c-0.1-0.1-0.1-0.3-0.1-0.5v-4h-0.7v-0.5h0.7l0.1-1.5h0.5v1.5
			h1.1v0.5h-1.1v3.8c0,0.2,0,0.3,0.1,0.4c0,0.1,0.2,0.1,0.3,0.1h0.6v0.4c-0.1,0-0.1,0.1-0.2,0.1c-0.1,0-0.2,0-0.3,0
			C96,68.8,95.9,68.8,95.8,68.8z"/>
		<path d="M99.5,68.8c-0.5,0-0.9-0.1-1.3-0.3s-0.6-0.5-0.8-0.9c-0.2-0.4-0.3-0.9-0.3-1.5c0-0.6,0.1-1.2,0.3-1.6
			c0.2-0.4,0.4-0.7,0.8-0.9s0.8-0.3,1.3-0.3c0.5,0,0.9,0.1,1.3,0.3s0.6,0.5,0.8,0.9c0.2,0.4,0.3,0.9,0.3,1.6c0,0.6-0.1,1.1-0.3,1.5
			c-0.2,0.4-0.4,0.7-0.8,0.9S100,68.8,99.5,68.8z M99.5,68.3c0.4,0,0.7-0.1,0.9-0.2c0.3-0.1,0.5-0.4,0.6-0.7
			c0.1-0.3,0.2-0.7,0.2-1.2v-0.3c0-0.5-0.1-0.9-0.2-1.2c-0.1-0.3-0.3-0.5-0.6-0.7c-0.3-0.1-0.6-0.2-0.9-0.2c-0.4,0-0.7,0.1-0.9,0.2
			c-0.3,0.1-0.4,0.4-0.6,0.7c-0.1,0.3-0.2,0.7-0.2,1.2v0.3c0,0.5,0.1,0.9,0.2,1.2c0.1,0.3,0.3,0.5,0.6,0.7
			C98.8,68.2,99.2,68.3,99.5,68.3z"/>
		<path d="M104.7,68.8c-0.4,0-0.8-0.1-1.1-0.3s-0.5-0.5-0.7-0.9c-0.2-0.4-0.2-1-0.2-1.6c0-0.6,0.1-1.1,0.2-1.5s0.4-0.7,0.7-0.9
			c0.3-0.2,0.7-0.3,1.1-0.3c0.2,0,0.4,0,0.6,0.1c0.2,0.1,0.4,0.1,0.5,0.3c0.2,0.1,0.3,0.3,0.4,0.5h0.1v-2.7h0.6v7.2h-0.4l-0.1-0.8
			h-0.1c-0.2,0.3-0.4,0.5-0.7,0.7S105,68.8,104.7,68.8z M104.8,68.3c0.4,0,0.7-0.1,0.9-0.2c0.2-0.2,0.4-0.4,0.5-0.7
			c0.1-0.3,0.2-0.7,0.2-1.2v-0.2c0-0.5,0-0.8-0.1-1.1s-0.2-0.5-0.4-0.6c-0.2-0.2-0.3-0.3-0.5-0.3c-0.2-0.1-0.4-0.1-0.5-0.1
			c-0.3,0-0.6,0.1-0.9,0.2c-0.2,0.1-0.4,0.4-0.5,0.7c-0.1,0.3-0.2,0.7-0.2,1.2v0.3c0,0.5,0.1,0.9,0.2,1.2s0.3,0.5,0.5,0.7
			S104.5,68.3,104.8,68.3z"/>
		<path d="M110.4,68.8c-0.5,0-0.9-0.1-1.2-0.3s-0.6-0.5-0.8-0.9c-0.2-0.4-0.3-0.9-0.3-1.5c0-0.6,0.1-1.2,0.3-1.6
			c0.2-0.4,0.4-0.7,0.8-0.9s0.8-0.3,1.3-0.3c0.5,0,0.9,0.1,1.2,0.3c0.3,0.2,0.6,0.5,0.7,0.8c0.2,0.4,0.2,0.8,0.2,1.3v0.5h-4
			c0,0.5,0.1,0.9,0.2,1.2c0.1,0.3,0.3,0.5,0.6,0.7s0.6,0.2,0.9,0.2c0.3,0,0.5,0,0.7-0.1c0.2-0.1,0.4-0.2,0.5-0.3
			c0.1-0.1,0.2-0.3,0.3-0.4c0.1-0.2,0.1-0.3,0.1-0.5h0.6c0,0.2-0.1,0.5-0.1,0.7c-0.1,0.2-0.2,0.4-0.4,0.6c-0.2,0.2-0.4,0.3-0.7,0.4
			C111.1,68.7,110.8,68.8,110.4,68.8z M108.7,65.7h3.4c0-0.4,0-0.7-0.1-0.9c-0.1-0.2-0.2-0.4-0.3-0.6c-0.1-0.2-0.3-0.3-0.5-0.3
			c-0.2-0.1-0.4-0.1-0.7-0.1c-0.4,0-0.7,0.1-0.9,0.2c-0.2,0.1-0.4,0.3-0.6,0.6C108.8,64.9,108.7,65.3,108.7,65.7z"/>
		<path d="M115.4,68.8c-0.3,0-0.6,0-0.9-0.1c-0.3-0.1-0.5-0.2-0.6-0.3c-0.2-0.1-0.3-0.3-0.4-0.5c-0.1-0.2-0.1-0.4-0.1-0.7
			c0,0,0-0.1,0-0.1c0,0,0-0.1,0-0.1h0.6c0,0,0,0.1,0,0.1c0,0,0,0,0,0.1c0,0.3,0.1,0.5,0.2,0.7c0.1,0.2,0.3,0.3,0.5,0.3
			c0.2,0.1,0.5,0.1,0.8,0.1c0.3,0,0.5,0,0.7-0.1c0.2-0.1,0.4-0.2,0.5-0.3c0.1-0.1,0.2-0.3,0.2-0.5c0-0.3-0.1-0.5-0.2-0.6
			s-0.4-0.2-0.6-0.3s-0.5-0.2-0.8-0.2c-0.2-0.1-0.4-0.1-0.6-0.2s-0.4-0.2-0.6-0.3c-0.2-0.1-0.3-0.2-0.4-0.4s-0.1-0.4-0.1-0.6
			c0-0.2,0-0.4,0.1-0.6c0.1-0.2,0.2-0.3,0.4-0.4c0.2-0.1,0.4-0.2,0.6-0.3c0.2-0.1,0.5-0.1,0.8-0.1c0.4,0,0.7,0,0.9,0.1
			c0.2,0.1,0.4,0.2,0.6,0.3c0.1,0.1,0.2,0.3,0.3,0.5c0.1,0.2,0.1,0.3,0.1,0.5c0,0,0,0,0,0.1c0,0,0,0.1,0,0.1h-0.6v-0.2
			c0-0.1,0-0.3-0.1-0.4c-0.1-0.1-0.2-0.3-0.4-0.4c-0.2-0.1-0.5-0.2-0.9-0.2c-0.2,0-0.4,0-0.6,0.1s-0.3,0.1-0.4,0.2
			c-0.1,0.1-0.2,0.2-0.2,0.3c-0.1,0.1-0.1,0.2-0.1,0.4c0,0.2,0.1,0.4,0.2,0.5c0.1,0.1,0.3,0.2,0.5,0.3s0.4,0.1,0.7,0.2
			c0.2,0.1,0.5,0.1,0.7,0.2c0.2,0.1,0.4,0.2,0.6,0.3c0.2,0.1,0.3,0.2,0.5,0.4c0.1,0.2,0.2,0.4,0.2,0.7c0,0.3-0.1,0.5-0.2,0.7
			c-0.1,0.2-0.2,0.4-0.4,0.5c-0.2,0.1-0.4,0.2-0.6,0.3C116,68.8,115.7,68.8,115.4,68.8z"/>
		<path d="M120.4,68.8c-0.5,0-0.9-0.1-1.2-0.3c-0.3-0.2-0.6-0.5-0.8-0.9s-0.3-0.9-0.3-1.5c0-0.6,0.1-1.1,0.3-1.5
			c0.2-0.4,0.4-0.7,0.8-0.9c0.3-0.2,0.8-0.3,1.2-0.3c0.4,0,0.7,0,0.9,0.1s0.5,0.2,0.6,0.4c0.2,0.2,0.3,0.4,0.3,0.7
			c0.1,0.3,0.1,0.5,0.1,0.8h-0.6c0-0.4,0-0.7-0.1-0.9c-0.1-0.2-0.2-0.4-0.5-0.5c-0.2-0.1-0.5-0.2-0.8-0.2c-0.3,0-0.6,0.1-0.8,0.2
			c-0.2,0.1-0.4,0.3-0.6,0.7c-0.1,0.3-0.2,0.7-0.2,1.2v0.3c0,0.5,0.1,0.9,0.2,1.2c0.1,0.3,0.3,0.5,0.6,0.7c0.2,0.1,0.5,0.2,0.9,0.2
			c0.4,0,0.6-0.1,0.9-0.2c0.2-0.1,0.4-0.3,0.4-0.5c0.1-0.2,0.1-0.5,0.1-0.8h0.6c0,0.3,0,0.5-0.1,0.8c-0.1,0.2-0.2,0.5-0.3,0.7
			s-0.4,0.3-0.6,0.5S120.8,68.8,120.4,68.8z"/>
		<path d="M123.5,68.7v-5.3h0.4l0.1,0.9h0.1c0-0.2,0.1-0.3,0.2-0.5c0.1-0.2,0.2-0.3,0.4-0.4c0.2-0.1,0.4-0.2,0.6-0.2
			c0.1,0,0.2,0,0.3,0s0.1,0,0.2,0v0.5h-0.3c-0.2,0-0.4,0-0.6,0.1c-0.2,0.1-0.3,0.2-0.4,0.4c-0.1,0.2-0.2,0.3-0.2,0.5
			c0,0.2-0.1,0.4-0.1,0.6v3.1H123.5z"/>
		<path d="M126.6,62.2v-0.8h0.6v0.8H126.6z M126.6,68.7v-5.3h0.6v5.3H126.6z"/>
		<path d="M128.6,70.4v-7h0.4l0.1,0.8h0.1c0.2-0.3,0.4-0.5,0.7-0.7c0.3-0.1,0.6-0.2,1-0.2c0.4,0,0.8,0.1,1.1,0.3s0.5,0.5,0.7,0.9
			c0.2,0.4,0.2,0.9,0.2,1.6c0,0.6-0.1,1.1-0.3,1.5s-0.4,0.7-0.7,0.9s-0.7,0.3-1.1,0.3c-0.2,0-0.4,0-0.6-0.1
			c-0.2-0.1-0.4-0.1-0.6-0.3s-0.3-0.3-0.4-0.5h-0.1v2.4H128.6z M130.7,68.3c0.3,0,0.6-0.1,0.9-0.2c0.2-0.1,0.4-0.4,0.5-0.7
			c0.1-0.3,0.2-0.7,0.2-1.2v-0.3c0-0.5-0.1-1-0.2-1.3c-0.1-0.3-0.3-0.5-0.5-0.6c-0.2-0.1-0.5-0.2-0.8-0.2c-0.4,0-0.7,0.1-0.9,0.2
			c-0.2,0.2-0.4,0.4-0.5,0.7c-0.1,0.3-0.2,0.7-0.2,1.2v0.2c0,0.5,0,0.8,0.1,1.1s0.2,0.5,0.4,0.6c0.2,0.2,0.3,0.3,0.5,0.3
			C130.4,68.3,130.5,68.3,130.7,68.3z"/>
		<path d="M135.9,68.8c-0.5,0-0.9-0.1-1.2-0.3c-0.3-0.2-0.6-0.5-0.8-0.9s-0.3-0.9-0.3-1.5c0-0.6,0.1-1.1,0.3-1.5
			c0.2-0.4,0.4-0.7,0.8-0.9c0.3-0.2,0.8-0.3,1.2-0.3c0.4,0,0.7,0,0.9,0.1s0.5,0.2,0.6,0.4c0.2,0.2,0.3,0.4,0.3,0.7
			c0.1,0.3,0.1,0.5,0.1,0.8h-0.6c0-0.4,0-0.7-0.1-0.9c-0.1-0.2-0.2-0.4-0.5-0.5c-0.2-0.1-0.5-0.2-0.8-0.2c-0.3,0-0.6,0.1-0.8,0.2
			c-0.2,0.1-0.4,0.3-0.6,0.7c-0.1,0.3-0.2,0.7-0.2,1.2v0.3c0,0.5,0.1,0.9,0.2,1.2c0.1,0.3,0.3,0.5,0.6,0.7c0.2,0.1,0.5,0.2,0.9,0.2
			c0.4,0,0.6-0.1,0.9-0.2c0.2-0.1,0.4-0.3,0.4-0.5c0.1-0.2,0.1-0.5,0.1-0.8h0.6c0,0.3,0,0.5-0.1,0.8c-0.1,0.2-0.2,0.5-0.3,0.7
			s-0.4,0.3-0.6,0.5S136.2,68.8,135.9,68.8z"/>
		<path d="M138.9,62.2v-0.8h0.6v0.8H138.9z M138.9,68.7v-5.3h0.6v5.3H138.9z"/>
		<path d="M143,68.8c-0.5,0-0.9-0.1-1.3-0.3s-0.6-0.5-0.8-0.9c-0.2-0.4-0.3-0.9-0.3-1.5c0-0.6,0.1-1.2,0.3-1.6
			c0.2-0.4,0.4-0.7,0.8-0.9s0.8-0.3,1.3-0.3c0.5,0,0.9,0.1,1.3,0.3s0.6,0.5,0.8,0.9c0.2,0.4,0.3,0.9,0.3,1.6c0,0.6-0.1,1.1-0.3,1.5
			c-0.2,0.4-0.4,0.7-0.8,0.9S143.5,68.8,143,68.8z M143,68.3c0.4,0,0.7-0.1,0.9-0.2c0.3-0.1,0.5-0.4,0.6-0.7
			c0.1-0.3,0.2-0.7,0.2-1.2v-0.3c0-0.5-0.1-0.9-0.2-1.2c-0.1-0.3-0.3-0.5-0.6-0.7c-0.3-0.1-0.6-0.2-0.9-0.2c-0.4,0-0.7,0.1-0.9,0.2
			c-0.3,0.1-0.4,0.4-0.6,0.7c-0.1,0.3-0.2,0.7-0.2,1.2v0.3c0,0.5,0.1,0.9,0.2,1.2c0.1,0.3,0.3,0.5,0.6,0.7
			C142.3,68.2,142.6,68.3,143,68.3z M142.6,62.8l0.9-1.3h0.8l0,0l-1.1,1.3H142.6z"/>
		<path d="M146.4,68.7v-5.3h0.4l0.1,0.9h0.1c0.2-0.3,0.3-0.5,0.5-0.6c0.2-0.1,0.4-0.2,0.6-0.3c0.2-0.1,0.4-0.1,0.7-0.1
			c0.3,0,0.6,0.1,0.9,0.2c0.2,0.1,0.4,0.3,0.6,0.5c0.1,0.2,0.2,0.6,0.2,1v3.7h-0.6V65c0-0.2,0-0.4-0.1-0.6c-0.1-0.2-0.2-0.3-0.3-0.4
			c-0.1-0.1-0.2-0.1-0.4-0.2c-0.1,0-0.3,0-0.5,0c-0.3,0-0.5,0.1-0.8,0.2c-0.3,0.1-0.5,0.3-0.6,0.6c-0.2,0.3-0.2,0.6-0.2,1v3.1H146.4
			z"/>
	</g>
</g>
</svg>
