<svg width="432" height="167" viewBox="0 0 432 167" fill="none" xmlns="http://www.w3.org/2000/svg">
<rect width="432" height="167" fill="white"/>
<path d="M395.561 25.332L396.1 23.7305H398.084L398.623 25.332H399.342L397.444 20H396.748L394.85 25.332H395.561ZM397.104 20.8047L397.901 23.1797H396.284L397.084 20.8047H397.104Z" fill="#E72557"/>
<path d="M402.85 21.2266H402.174V23.7695C402.174 24.4219 401.76 24.793 401.17 24.793C400.631 24.793 400.19 24.5469 400.19 23.7812V21.2266H399.514V23.9727C399.514 24.9141 400.12 25.3984 400.967 25.3984C401.623 25.3984 402.01 25.1172 402.155 24.793H402.182V25.332H402.85V21.2266Z" fill="#E72557"/>
<path d="M405.108 26.2734C404.545 26.2734 404.198 25.9688 404.123 25.6367H403.436C403.53 26.3203 404.061 26.8359 405.104 26.8359C406.034 26.8359 406.85 26.3086 406.85 25.2578V21.2266H406.202V21.8047H406.182C405.991 21.457 405.545 21.1641 404.987 21.1641C404.022 21.1641 403.346 21.8438 403.346 23.0508V23.3906C403.346 24.6211 404.03 25.293 404.987 25.293C405.545 25.293 405.995 25 406.159 24.6445H406.178V25.25C406.178 25.8945 405.756 26.2734 405.108 26.2734ZM405.116 21.7422C405.764 21.7422 406.178 22.2695 406.178 23.1016V23.3555C406.178 24.2031 405.787 24.7188 405.116 24.7188C404.424 24.7188 404.018 24.207 404.018 23.3555V23.1016C404.018 22.2344 404.424 21.7422 405.116 21.7422Z" fill="#E72557"/>
<path d="M396.5 14C396.776 14 397 14.2239 397 14.5V15H405V14.5C405 14.2239 405.224 14 405.5 14C405.776 14 406 14.2239 406 14.5V15H407C408.105 15 409 15.8954 409 17V28C409 29.1046 408.105 30 407 30H395C393.895 30 393 29.1046 393 28V17C393 15.8954 393.895 15 395 15H396V14.5C396 14.2239 396.224 14 396.5 14ZM394 18V28C394 28.5523 394.448 29 395 29H407C407.552 29 408 28.5523 408 28V18H394Z" fill="#E72557"/>
<path d="M367.684 25.5234V23.2227H369.945V22.6133H367.684V20.8008H370.148V20.1914H367V25.5234H367.684Z" fill="#E72557"/>
<path d="M370.98 25.5234H371.656V22.9805C371.656 22.4258 371.883 21.9727 372.609 21.9727C372.734 21.9727 372.867 21.9766 372.938 21.9883V21.375C372.855 21.3633 372.77 21.3555 372.684 21.3555C372.102 21.3555 371.793 21.6758 371.672 21.9219H371.652V21.418H370.98V25.5234Z" fill="#E72557"/>
<path d="M373.785 20.4297C373.785 20.668 373.977 20.8555 374.215 20.8555C374.453 20.8555 374.648 20.668 374.648 20.4297C374.648 20.1875 374.453 20 374.215 20C373.977 20 373.785 20.1875 373.785 20.4297ZM373.879 25.5234H374.551V21.418H373.879V25.5234Z" fill="#E72557"/>
<path d="M366.5 14C366.776 14 367 14.2239 367 14.5V15H375V14.5C375 14.2239 375.224 14 375.5 14C375.776 14 376 14.2239 376 14.5V15H377C378.105 15 379 15.8954 379 17V28C379 29.1046 378.105 30 377 30H365C363.895 30 363 29.1046 363 28V17C363 15.8954 363.895 15 365 15H366V14.5C366 14.2239 366.224 14 366.5 14ZM364 18V28C364 28.5523 364.448 29 365 29H377C377.552 29 378 28.5523 378 28V18H364Z" fill="#E72557"/>
<path d="M339.146 21.1464C339.342 20.9512 339.658 20.9512 339.854 21.1464L341 22.2929L342.146 21.1464C342.342 20.9512 342.658 20.9512 342.854 21.1464C343.049 21.3417 343.049 21.6583 342.854 21.8536L341.707 23L342.854 24.1464C343.049 24.3417 343.049 24.6583 342.854 24.8536C342.658 25.0488 342.342 25.0488 342.146 24.8536L341 23.7071L339.854 24.8536C339.658 25.0488 339.342 25.0488 339.146 24.8536C338.951 24.6583 338.951 24.3417 339.146 24.1464L340.293 23L339.146 21.8536C338.951 21.6583 338.951 21.3417 339.146 21.1464Z" fill="#E72557"/>
<path d="M336.5 14C336.776 14 337 14.2239 337 14.5V15H345V14.5C345 14.2239 345.224 14 345.5 14C345.776 14 346 14.2239 346 14.5V15H347C348.105 15 349 15.8954 349 17V28C349 29.1046 348.105 30 347 30H335C333.895 30 333 29.1046 333 28V17C333 15.8954 333.895 15 335 15H336V14.5C336 14.2239 336.224 14 336.5 14ZM334 18V28C334 28.5523 334.448 29 335 29H347C347.552 29 348 28.5523 348 28V18H334Z" fill="#E72557"/>
<path d="M313.854 21.1464C314.049 21.3417 314.049 21.6583 313.854 21.8536L310.854 24.8536C310.76 24.9473 310.633 25 310.5 25C310.367 25 310.24 24.9473 310.146 24.8536L308.646 23.3536C308.451 23.1583 308.451 22.8417 308.646 22.6464C308.842 22.4512 309.158 22.4512 309.354 22.6464L310.5 23.7929L313.146 21.1464C313.342 20.9512 313.658 20.9512 313.854 21.1464Z" fill="#E72557"/>
<path d="M306.5 14C306.776 14 307 14.2239 307 14.5V15H315V14.5C315 14.2239 315.224 14 315.5 14C315.776 14 316 14.2239 316 14.5V15H317C318.105 15 319 15.8954 319 17V28C319 29.1046 318.105 30 317 30H305C303.895 30 303 29.1046 303 28V17C303 15.8954 303.895 15 305 15H306V14.5C306 14.2239 306.224 14 306.5 14ZM304 18V28C304 28.5523 304.448 29 305 29H317C317.552 29 318 28.5523 318 28V18H304Z" fill="#E72557"/>
<path d="M278.5 23.5C278.5 23.2239 278.724 23 279 23H283C283.276 23 283.5 23.2239 283.5 23.5C283.5 23.7761 283.276 24 283 24H279C278.724 24 278.5 23.7761 278.5 23.5Z" fill="#E72557"/>
<path d="M276.5 14C276.776 14 277 14.2239 277 14.5V15H285V14.5C285 14.2239 285.224 14 285.5 14C285.776 14 286 14.2239 286 14.5V15H287C288.105 15 289 15.8954 289 17V28C289 29.1046 288.105 30 287 30H275C273.895 30 273 29.1046 273 28V17C273 15.8954 273.895 15 275 15H276V14.5C276 14.2239 276.224 14 276.5 14ZM274 18V28C274 28.5523 274.448 29 275 29H287C287.552 29 288 28.5523 288 28V18H274Z" fill="#E72557"/>
<path d="M251 21C251.276 21 251.5 21.2239 251.5 21.5V23H253C253.276 23 253.5 23.2239 253.5 23.5C253.5 23.7761 253.276 24 253 24H251.5V25.5C251.5 25.7761 251.276 26 251 26C250.724 26 250.5 25.7761 250.5 25.5V24H249C248.724 24 248.5 23.7761 248.5 23.5C248.5 23.2239 248.724 23 249 23H250.5V21.5C250.5 21.2239 250.724 21 251 21Z" fill="#E72557"/>
<path d="M246.5 14C246.776 14 247 14.2239 247 14.5V15H255V14.5C255 14.2239 255.224 14 255.5 14C255.776 14 256 14.2239 256 14.5V15H257C258.105 15 259 15.8954 259 17V28C259 29.1046 258.105 30 257 30H245C243.895 30 243 29.1046 243 28V17C243 15.8954 243.895 15 245 15H246V14.5C246 14.2239 246.224 14 246.5 14ZM244 18V28C244 28.5523 244.448 29 245 29H257C257.552 29 258 28.5523 258 28V18H244Z" fill="#E72557"/>
<path d="M216.5 14C216.776 14 217 14.2239 217 14.5V15H225V14.5C225 14.2239 225.224 14 225.5 14C225.776 14 226 14.2239 226 14.5V15H227C228.105 15 229 15.8954 229 17V28C229 29.1046 228.105 30 227 30H215C213.895 30 213 29.1046 213 28V17C213 15.8954 213.895 15 215 15H216V14.5C216 14.2239 216.224 14 216.5 14ZM214 18V28C214 28.5523 214.448 29 215 29H227C227.552 29 228 28.5523 228 28V18H214Z" fill="#E72557"/>
<path fill-rule="evenodd" clip-rule="evenodd" d="M183 16.5C183 16.2239 183.224 16 183.5 16H189.5C189.776 16 190 16.2239 190 16.5C190 16.7761 189.776 17 189.5 17H184.707L194.854 27.1464C195.049 27.3417 195.049 27.6583 194.854 27.8536C194.658 28.0488 194.342 28.0488 194.146 27.8536L184 17.7071V22.5C184 22.7761 183.776 23 183.5 23C183.224 23 183 22.7761 183 22.5V16.5Z" fill="#E72557"/>
<path fill-rule="evenodd" clip-rule="evenodd" d="M152 25.5C152 25.7761 152.224 26 152.5 26H164.293L161.146 29.1464C160.951 29.3417 160.951 29.6583 161.146 29.8536C161.342 30.0488 161.658 30.0488 161.854 29.8536L165.854 25.8536C166.049 25.6583 166.049 25.3417 165.854 25.1464L161.854 21.1464C161.658 20.9512 161.342 20.9512 161.146 21.1464C160.951 21.3417 160.951 21.6583 161.146 21.8536L164.293 25H152.5C152.224 25 152 25.2239 152 25.5Z" fill="#E72557"/>
<path fill-rule="evenodd" clip-rule="evenodd" d="M166 18.5C166 18.7761 165.776 19 165.5 19H153.707L156.854 22.1464C157.049 22.3417 157.049 22.6583 156.854 22.8536C156.658 23.0488 156.342 23.0488 156.146 22.8536L152.146 18.8536C151.951 18.6583 151.951 18.3417 152.146 18.1464L156.146 14.1464C156.342 13.9512 156.658 13.9512 156.854 14.1464C157.049 14.3417 157.049 14.6583 156.854 14.8536L153.707 18H165.5C165.776 18 166 18.2239 166 18.5Z" fill="#E72557"/>
<path fill-rule="evenodd" clip-rule="evenodd" d="M132.5 29C132.776 29 133 28.7761 133 28.5V16.7071L136.146 19.8536C136.342 20.0488 136.658 20.0488 136.854 19.8536C137.049 19.6583 137.049 19.3417 136.854 19.1464L132.854 15.1464C132.658 14.9512 132.342 14.9512 132.146 15.1464L128.146 19.1464C127.951 19.3417 127.951 19.6583 128.146 19.8536C128.342 20.0488 128.658 20.0488 128.854 19.8536L132 16.7071V28.5C132 28.7761 132.224 29 132.5 29Z" fill="#E72557"/>
<path fill-rule="evenodd" clip-rule="evenodd" d="M125.5 15C125.776 15 126 15.2239 126 15.5V27.2929L129.146 24.1464C129.342 23.9512 129.658 23.9512 129.854 24.1464C130.049 24.3417 130.049 24.6583 129.854 24.8536L125.854 28.8536C125.658 29.0488 125.342 29.0488 125.146 28.8536L121.146 24.8536C120.951 24.6583 120.951 24.3417 121.146 24.1464C121.342 23.9512 121.658 23.9512 121.854 24.1464L125 27.2929V15.5C125 15.2239 125.224 15 125.5 15Z" fill="#E72557"/>
<path fill-rule="evenodd" clip-rule="evenodd" d="M92 22C92 21.7239 92.2239 21.5 92.5 21.5H104.293L101.146 18.3536C100.951 18.1583 100.951 17.8417 101.146 17.6464C101.342 17.4512 101.658 17.4512 101.854 17.6464L105.854 21.6464C106.049 21.8417 106.049 22.1583 105.854 22.3536L101.854 26.3536C101.658 26.5488 101.342 26.5488 101.146 26.3536C100.951 26.1583 100.951 25.8417 101.146 25.6464L104.293 22.5H92.5C92.2239 22.5 92 22.2761 92 22Z" fill="#E72557"/>
<path fill-rule="evenodd" clip-rule="evenodd" d="M76 22C76 21.7239 75.7761 21.5 75.5 21.5H63.7071L66.8536 18.3536C67.0488 18.1583 67.0488 17.8417 66.8536 17.6464C66.6583 17.4512 66.3417 17.4512 66.1464 17.6464L62.1464 21.6464C61.9512 21.8417 61.9512 22.1583 62.1464 22.3536L66.1464 26.3536C66.3417 26.5488 66.6583 26.5488 66.8536 26.3536C67.0488 26.1583 67.0488 25.8417 66.8536 25.6464L63.7071 22.5H75.5C75.7761 22.5 76 22.2761 76 22Z" fill="#E72557"/>
<path fill-rule="evenodd" clip-rule="evenodd" d="M39 29C39.2761 29 39.5 28.7761 39.5 28.5V16.7071L42.6464 19.8536C42.8417 20.0488 43.1583 20.0488 43.3536 19.8536C43.5488 19.6583 43.5488 19.3417 43.3536 19.1464L39.3536 15.1464C39.1583 14.9512 38.8417 14.9512 38.6464 15.1464L34.6464 19.1464C34.4512 19.3417 34.4512 19.6583 34.6464 19.8536C34.8417 20.0488 35.1583 20.0488 35.3536 19.8536L38.5 16.7071V28.5C38.5 28.7761 38.7239 29 39 29Z" fill="#E72557"/>
<path fill-rule="evenodd" clip-rule="evenodd" d="M9 15C9.27614 15 9.5 15.2239 9.5 15.5V27.2929L12.6464 24.1464C12.8417 23.9512 13.1583 23.9512 13.3536 24.1464C13.5488 24.3417 13.5488 24.6583 13.3536 24.8536L9.35355 28.8536C9.15829 29.0488 8.84171 29.0488 8.64645 28.8536L4.64645 24.8536C4.45118 24.6583 4.45118 24.3417 4.64645 24.1464C4.84171 23.9512 5.15829 23.9512 5.35355 24.1464L8.5 27.2929V15.5C8.5 15.2239 8.72386 15 9 15Z" fill="#E72557"/>
<path fill-rule="evenodd" clip-rule="evenodd" d="M186.828 65.1716C186.633 64.9763 186.317 64.9763 186.121 65.1716L182.025 69.2678L182.025 66.5C182.025 66.2239 181.801 66 181.525 66C181.249 66 181.025 66.2239 181.025 66.5L181.025 70.4749C181.025 70.751 181.249 70.9749 181.525 70.9749L185.5 70.9749C185.776 70.9749 186 70.751 186 70.4749C186 70.1987 185.776 69.9749 185.5 69.9749L182.732 69.9749L186.828 65.8787C187.024 65.6834 187.024 65.3669 186.828 65.1716Z" fill="#E72557"/>
<path fill-rule="evenodd" clip-rule="evenodd" d="M191.172 65.1716C191.367 64.9763 191.683 64.9763 191.879 65.1716L195.975 69.2678L195.975 66.5C195.975 66.2239 196.199 66 196.475 66C196.751 66 196.975 66.2239 196.975 66.5L196.975 70.4749C196.975 70.751 196.751 70.9749 196.475 70.9749L192.5 70.9749C192.224 70.9749 192 70.751 192 70.4749C192 70.1987 192.224 69.9749 192.5 69.9749L195.268 69.9749L191.172 65.8787C190.976 65.6834 190.976 65.3669 191.172 65.1716Z" fill="#E72557"/>
<path fill-rule="evenodd" clip-rule="evenodd" d="M191.172 60.8284C191.367 61.0237 191.683 61.0237 191.879 60.8284L195.975 56.7322L195.975 59.5C195.975 59.7761 196.199 60 196.475 60C196.751 60 196.975 59.7761 196.975 59.5L196.975 55.5251C196.975 55.249 196.751 55.0251 196.475 55.0251L192.5 55.0251C192.224 55.0251 192 55.249 192 55.5251C192 55.8013 192.224 56.0251 192.5 56.0251L195.268 56.0251L191.172 60.1213C190.976 60.3166 190.976 60.6331 191.172 60.8284Z" fill="#E72557"/>
<path fill-rule="evenodd" clip-rule="evenodd" d="M186.828 60.8284C186.633 61.0237 186.317 61.0237 186.121 60.8284L182.025 56.7322L182.025 59.5C182.025 59.7761 181.801 60 181.525 60C181.249 60 181.025 59.7761 181.025 59.5L181.025 55.5251C181.025 55.249 181.249 55.0251 181.525 55.0251L185.5 55.0251C185.776 55.0251 186 55.249 186 55.5251C186 55.8013 185.776 56.0251 185.5 56.0251L182.732 56.0251L186.828 60.1213C187.024 60.3166 187.024 60.6331 186.828 60.8284Z" fill="#E72557"/>
<path fill-rule="evenodd" clip-rule="evenodd" d="M151.172 70.8284C151.367 71.0237 151.683 71.0237 151.879 70.8284L155.975 66.7322L155.975 69.5C155.975 69.7761 156.199 70 156.475 70C156.751 70 156.975 69.7761 156.975 69.5L156.975 65.5251C156.975 65.249 156.751 65.0251 156.475 65.0251L152.5 65.0251C152.224 65.0251 152 65.249 152 65.5251C152 65.8013 152.224 66.0251 152.5 66.0251L155.268 66.0251L151.172 70.1213C150.976 70.3166 150.976 70.6331 151.172 70.8284Z" fill="#E72557"/>
<path fill-rule="evenodd" clip-rule="evenodd" d="M166.828 55.1716C166.633 54.9763 166.317 54.9763 166.121 55.1716L162.025 59.2678L162.025 56.5C162.025 56.2239 161.801 56 161.525 56C161.249 56 161.025 56.2239 161.025 56.5L161.025 60.4749C161.025 60.751 161.249 60.9749 161.525 60.9749L165.5 60.9749C165.776 60.9749 166 60.751 166 60.4749C166 60.1987 165.776 59.9749 165.5 59.9749L162.732 59.9749L166.828 55.8787C167.024 55.6834 167.024 55.3669 166.828 55.1716Z" fill="#E72557"/>
<path fill-rule="evenodd" clip-rule="evenodd" d="M126.828 65.1716C126.633 64.9763 126.317 64.9763 126.121 65.1716L122.025 69.2678L122.025 66.5C122.025 66.2239 121.801 66 121.525 66C121.249 66 121.025 66.2239 121.025 66.5L121.025 70.4749C121.025 70.751 121.249 70.9749 121.525 70.9749L125.5 70.9749C125.776 70.9749 126 70.751 126 70.4749C126 70.1987 125.776 69.9749 125.5 69.9749L122.732 69.9749L126.828 65.8787C127.024 65.6834 127.024 65.3669 126.828 65.1716Z" fill="#E72557"/>
<path fill-rule="evenodd" clip-rule="evenodd" d="M131.172 60.8284C131.367 61.0237 131.683 61.0237 131.879 60.8284L135.975 56.7322L135.975 59.5C135.975 59.7761 136.199 60 136.475 60C136.751 60 136.975 59.7761 136.975 59.5L136.975 55.5251C136.975 55.249 136.751 55.0251 136.475 55.0251L132.5 55.0251C132.224 55.0251 132 55.249 132 55.5251C132 55.8013 132.224 56.0251 132.5 56.0251L135.268 56.0251L131.172 60.1213C130.976 60.3166 130.976 60.6331 131.172 60.8284Z" fill="#E72557"/>
<path fill-rule="evenodd" clip-rule="evenodd" d="M95 63C95 62.7239 95.2239 62.5 95.5 62.5H101.293L99.1464 60.3536C98.9512 60.1583 98.9512 59.8417 99.1464 59.6464C99.3417 59.4512 99.6583 59.4512 99.8536 59.6464L102.854 62.6464C103.049 62.8417 103.049 63.1583 102.854 63.3536L99.8536 66.3536C99.6583 66.5488 99.3417 66.5488 99.1464 66.3536C98.9512 66.1583 98.9512 65.8417 99.1464 65.6464L101.293 63.5H95.5C95.2239 63.5 95 63.2761 95 63Z" fill="#E72557"/>
<path fill-rule="evenodd" clip-rule="evenodd" d="M73 63C73 63.2761 72.7761 63.5 72.5 63.5H66.7071L68.8536 65.6464C69.0488 65.8417 69.0488 66.1583 68.8536 66.3536C68.6583 66.5488 68.3417 66.5488 68.1464 66.3536L65.1464 63.3536C64.9512 63.1583 64.9512 62.8417 65.1464 62.6464L68.1464 59.6464C68.3417 59.4512 68.6583 59.4512 68.8536 59.6464C69.0488 59.8417 69.0488 60.1583 68.8536 60.3536L66.7071 62.5H72.5C72.7761 62.5 73 62.7239 73 63Z" fill="#E72557"/>
<path fill-rule="evenodd" clip-rule="evenodd" d="M39 67C39.2761 67 39.5 66.7761 39.5 66.5V60.7071L41.6464 62.8536C41.8417 63.0488 42.1583 63.0488 42.3536 62.8536C42.5488 62.6583 42.5488 62.3417 42.3536 62.1464L39.3536 59.1464C39.1583 58.9512 38.8417 58.9512 38.6464 59.1464L35.6464 62.1464C35.4512 62.3417 35.4512 62.6583 35.6464 62.8536C35.8417 63.0488 36.1583 63.0488 36.3536 62.8536L38.5 60.7071V66.5C38.5 66.7761 38.7239 67 39 67Z" fill="#E72557"/>
<path fill-rule="evenodd" clip-rule="evenodd" d="M9 59C9.27614 59 9.5 59.2239 9.5 59.5V65.2929L11.6464 63.1464C11.8417 62.9512 12.1583 62.9512 12.3536 63.1464C12.5488 63.3417 12.5488 63.6583 12.3536 63.8536L9.35355 66.8536C9.15829 67.0488 8.84171 67.0488 8.64645 66.8536L5.64645 63.8536C5.45118 63.6583 5.45118 63.3417 5.64645 63.1464C5.84171 62.9512 6.15829 62.9512 6.35355 63.1464L8.5 65.2929V59.5C8.5 59.2239 8.72386 59 9 59Z" fill="#E72557"/>
<path d="M364 56C363.448 56 363 56.4477 363 57V65C363 65.5523 363.448 66 364 66H373.586C374.116 66 374.625 66.2107 375 66.5858L377 68.5858V57C377 56.4477 376.552 56 376 56H364ZM376 55C377.105 55 378 55.8954 378 57V69.7929C378 70.2383 377.461 70.4614 377.146 70.1464L374.293 67.2929C374.105 67.1054 373.851 67 373.586 67H364C362.895 67 362 66.1046 362 65V57C362 55.8954 362.895 55 364 55H376Z" fill="#E72557"/>
<path d="M369.066 59.7606C368.769 59.3028 368.253 59 367.667 59C366.746 59 366 59.7462 366 60.6667C366 61.5871 366.746 62.3333 367.667 62.3333C367.996 62.3333 368.303 62.2378 368.561 62.0731C368.43 62.4619 368.186 62.8767 367.784 63.2939C367.624 63.4595 367.628 63.7232 367.794 63.8831C367.959 64.0429 368.223 64.0383 368.383 63.8727C369.87 62.3324 369.677 60.6585 369.066 59.7606Z" fill="#E72557"/>
<path d="M373.066 59.7606C372.769 59.3028 372.253 59 371.667 59C370.746 59 370 59.7462 370 60.6667C370 61.5871 370.746 62.3333 371.667 62.3333C371.996 62.3333 372.303 62.2378 372.561 62.0731C372.43 62.4619 372.186 62.8767 371.784 63.2939C371.624 63.4595 371.628 63.7232 371.794 63.8831C371.959 64.0429 372.223 64.0383 372.383 63.8727C373.87 62.3324 373.677 60.6585 373.066 59.7606Z" fill="#E72557"/>
<path d="M334 56C333.448 56 333 56.4477 333 57V65C333 65.5523 333.448 66 334 66H343.586C344.116 66 344.625 66.2107 345 66.5858L347 68.5858V57C347 56.4477 346.552 56 346 56H334ZM346 55C347.105 55 348 55.8954 348 57V69.7929C348 70.2383 347.461 70.4614 347.146 70.1464L344.293 67.2929C344.105 67.1054 343.851 67 343.586 67H334C332.895 67 332 66.1046 332 65V57C332 55.8954 332.895 55 334 55H346Z" fill="#E72557"/>
<path d="M335 58.5C335 58.2239 335.224 58 335.5 58H344.5C344.776 58 345 58.2239 345 58.5C345 58.7761 344.776 59 344.5 59H335.5C335.224 59 335 58.7761 335 58.5ZM335 61C335 60.7239 335.224 60.5 335.5 60.5H344.5C344.776 60.5 345 60.7239 345 61C345 61.2761 344.776 61.5 344.5 61.5H335.5C335.224 61.5 335 61.2761 335 61ZM335 63.5C335 63.2239 335.224 63 335.5 63H340.5C340.776 63 341 63.2239 341 63.5C341 63.7761 340.776 64 340.5 64H335.5C335.224 64 335 63.7761 335 63.5Z" fill="#E72557"/>
<path d="M304 56C303.448 56 303 56.4477 303 57V65C303 65.5523 303.448 66 304 66H313.586C314.116 66 314.625 66.2107 315 66.5858L317 68.5858V57C317 56.4477 316.552 56 316 56H304ZM316 55C317.105 55 318 55.8954 318 57V69.7929C318 70.2383 317.461 70.4614 317.146 70.1464L314.293 67.2929C314.105 67.1054 313.851 67 313.586 67H304C302.895 67 302 66.1046 302 65V57C302 55.8954 302.895 55 304 55H316Z" fill="#E72557"/>
<path d="M307 61C307 61.5523 306.552 62 306 62C305.448 62 305 61.5523 305 61C305 60.4477 305.448 60 306 60C306.552 60 307 60.4477 307 61Z" fill="#E72557"/>
<path d="M311 61C311 61.5523 310.552 62 310 62C309.448 62 309 61.5523 309 61C309 60.4477 309.448 60 310 60C310.552 60 311 60.4477 311 61Z" fill="#E72557"/>
<path d="M315 61C315 61.5523 314.552 62 314 62C313.448 62 313 61.5523 313 61C313 60.4477 313.448 60 314 60C314.552 60 315 60.4477 315 61Z" fill="#E72557"/>
<path d="M274 56C273.448 56 273 56.4477 273 57V65C273 65.5523 273.448 66 274 66H283.586C284.116 66 284.625 66.2107 285 66.5858L287 68.5858V57C287 56.4477 286.552 56 286 56H274ZM286 55C287.105 55 288 55.8954 288 57V69.7929C288 70.2383 287.461 70.4614 287.146 70.1464L284.293 67.2929C284.105 67.1054 283.851 67 283.586 67H274C272.895 67 272 66.1046 272 65V57C272 55.8954 272.895 55 274 55H286Z" fill="#E72557"/>
<path d="M256 56C256.552 56 257 56.4477 257 57V65C257 65.5523 256.552 66 256 66H246.414C245.884 66 245.375 66.2107 245 66.5858L243 68.5858V57C243 56.4477 243.448 56 244 56H256ZM244 55C242.895 55 242 55.8954 242 57V69.7929C242 70.2383 242.539 70.4614 242.854 70.1464L245.707 67.2929C245.895 67.1054 246.149 67 246.414 67H256C257.105 67 258 66.1046 258 65V57C258 55.8954 257.105 55 256 55H244Z" fill="#E72557"/>
<path d="M249.066 59.7606C248.769 59.3028 248.253 59 247.667 59C246.746 59 246 59.7462 246 60.6667C246 61.5871 246.746 62.3333 247.667 62.3333C247.996 62.3333 248.303 62.2378 248.561 62.0731C248.43 62.4619 248.186 62.8767 247.784 63.2939C247.624 63.4595 247.628 63.7232 247.794 63.8831C247.959 64.0429 248.223 64.0383 248.383 63.8727C249.87 62.3324 249.677 60.6585 249.066 59.7606Z" fill="#E72557"/>
<path d="M253.066 59.7606C252.769 59.3028 252.253 59 251.667 59C250.746 59 250 59.7462 250 60.6667C250 61.5871 250.746 62.3333 251.667 62.3333C251.996 62.3333 252.303 62.2378 252.561 62.0731C252.43 62.4619 252.186 62.8767 251.784 63.2939C251.624 63.4595 251.628 63.7232 251.794 63.8831C251.959 64.0429 252.223 64.0383 252.383 63.8727C253.87 62.3324 253.677 60.6585 253.066 59.7606Z" fill="#E72557"/>
<path d="M226 56C226.552 56 227 56.4477 227 57V65C227 65.5523 226.552 66 226 66H216.414C215.884 66 215.375 66.2107 215 66.5858L213 68.5858V57C213 56.4477 213.448 56 214 56H226ZM214 55C212.895 55 212 55.8954 212 57V69.7929C212 70.2383 212.539 70.4614 212.854 70.1464L215.707 67.2929C215.895 67.1054 216.149 67 216.414 67H226C227.105 67 228 66.1046 228 65V57C228 55.8954 227.105 55 226 55H214Z" fill="#E72557"/>
<path d="M215 58.5C215 58.2239 215.224 58 215.5 58H224.5C224.776 58 225 58.2239 225 58.5C225 58.7761 224.776 59 224.5 59H215.5C215.224 59 215 58.7761 215 58.5ZM215 61C215 60.7239 215.224 60.5 215.5 60.5H224.5C224.776 60.5 225 60.7239 225 61C225 61.2761 224.776 61.5 224.5 61.5H215.5C215.224 61.5 215 61.2761 215 61ZM215 63.5C215 63.2239 215.224 63 215.5 63H220.5C220.776 63 221 63.2239 221 63.5C221 63.7761 220.776 64 220.5 64H215.5C215.224 64 215 63.7761 215 63.5Z" fill="#E72557"/>
<path d="M406 56C406.552 56 407 56.4477 407 57V65C407 65.5523 406.552 66 406 66H396.414C395.884 66 395.375 66.2107 395 66.5858L393 68.5858V57C393 56.4477 393.448 56 394 56H406ZM394 55C392.895 55 392 55.8954 392 57V69.7929C392 70.2383 392.539 70.4614 392.854 70.1464L395.707 67.2929C395.895 67.1054 396.149 67 396.414 67H406C407.105 67 408 66.1046 408 65V57C408 55.8954 407.105 55 406 55H394Z" fill="#E72557"/>
<path d="M397 61C397 61.5523 396.552 62 396 62C395.448 62 395 61.5523 395 61C395 60.4477 395.448 60 396 60C396.552 60 397 60.4477 397 61Z" fill="#E72557"/>
<path d="M401 61C401 61.5523 400.552 62 400 62C399.448 62 399 61.5523 399 61C399 60.4477 399.448 60 400 60C400.552 60 401 60.4477 401 61Z" fill="#E72557"/>
<path d="M405 61C405 61.5523 404.552 62 404 62C403.448 62 403 61.5523 403 61C403 60.4477 403.448 60 404 60C404.552 60 405 60.4477 405 61Z" fill="#E72557"/>
<path fill-rule="evenodd" clip-rule="evenodd" d="M105.854 100.854C106.049 100.658 106.049 100.342 105.854 100.146L101.854 96.1464C101.658 95.9512 101.342 95.9512 101.146 96.1464C100.951 96.3417 100.951 96.6583 101.146 96.8536L104.293 100H94.5C93.1193 100 92 101.119 92 102.5V110.5C92 110.776 92.2239 111 92.5 111C92.7761 111 93 110.776 93 110.5V102.5C93 101.672 93.6716 101 94.5 101H104.293L101.146 104.146C100.951 104.342 100.951 104.658 101.146 104.854C101.342 105.049 101.658 105.049 101.854 104.854L105.854 100.854Z" fill="#E72557"/>
<path fill-rule="evenodd" clip-rule="evenodd" d="M62.1464 100.854C61.9512 100.658 61.9512 100.342 62.1464 100.146L66.1464 96.1464C66.3417 95.9512 66.6583 95.9512 66.8536 96.1464C67.0488 96.3417 67.0488 96.6583 66.8536 96.8536L63.7071 100H73.5C74.8807 100 76 101.119 76 102.5V110.5C76 110.776 75.7761 111 75.5 111C75.2239 111 75 110.776 75 110.5V102.5C75 101.672 74.3284 101 73.5 101H63.7071L66.8536 104.146C67.0488 104.342 67.0488 104.658 66.8536 104.854C66.6583 105.049 66.3417 105.049 66.1464 104.854L62.1464 100.854Z" fill="#E72557"/>
<path fill-rule="evenodd" clip-rule="evenodd" d="M35.8536 97.1464C35.6583 96.9512 35.3417 96.9512 35.1464 97.1464L31.1464 101.146C30.9512 101.342 30.9512 101.658 31.1464 101.854C31.3417 102.049 31.6583 102.049 31.8536 101.854L35 98.7071V108.5C35 109.881 36.1193 111 37.5 111H45.5C45.7761 111 46 110.776 46 110.5C46 110.224 45.7761 110 45.5 110H37.5C36.6716 110 36 109.328 36 108.5V98.7071L39.1464 101.854C39.3417 102.049 39.6583 102.049 39.8536 101.854C40.0488 101.658 40.0488 101.342 39.8536 101.146L35.8536 97.1464Z" fill="#E72557"/>
<path fill-rule="evenodd" clip-rule="evenodd" d="M5.85355 110.854C5.65829 111.049 5.34171 111.049 5.14645 110.854L1.14645 106.854C0.951184 106.658 0.951184 106.342 1.14645 106.146C1.34171 105.951 1.65829 105.951 1.85355 106.146L5 109.293V99.5C5 98.1193 6.11929 97 7.5 97H15.5C15.7761 97 16 97.2239 16 97.5C16 97.7761 15.7761 98 15.5 98H7.5C6.67157 98 6 98.6716 6 99.5V109.293L9.14645 106.146C9.34171 105.951 9.65829 105.951 9.85355 106.146C10.0488 106.342 10.0488 106.658 9.85355 106.854L5.85355 110.854Z" fill="#E72557"/>
<path fill-rule="evenodd" clip-rule="evenodd" d="M134.5 111C134.224 111 134 110.776 134 110.5L134 97.5C134 97.2239 134.224 97 134.5 97C134.776 97 135 97.2239 135 97.5V110.5C135 110.776 134.776 111 134.5 111Z" fill="#E72557"/>
<path fill-rule="evenodd" clip-rule="evenodd" d="M132 104C132 104.276 131.776 104.5 131.5 104.5H125.707L127.854 106.646C128.049 106.842 128.049 107.158 127.854 107.354C127.658 107.549 127.342 107.549 127.146 107.354L124.146 104.354C123.951 104.158 123.951 103.842 124.146 103.646L127.146 100.646C127.342 100.451 127.658 100.451 127.854 100.646C128.049 100.842 128.049 101.158 127.854 101.354L125.707 103.5H131.5C131.776 103.5 132 103.724 132 104Z" fill="#E72557"/>
<path fill-rule="evenodd" clip-rule="evenodd" d="M162 98.5C162 98.2239 161.776 98 161.5 98H155.5C155.224 98 155 98.2239 155 98.5C155 98.7761 155.224 99 155.5 99H160.293L150.146 109.146C149.951 109.342 149.951 109.658 150.146 109.854C150.342 110.049 150.658 110.049 150.854 109.854L161 99.7071V104.5C161 104.776 161.224 105 161.5 105C161.776 105 162 104.776 162 104.5V98.5Z" fill="#E72557"/>
<path fill-rule="evenodd" clip-rule="evenodd" d="M195 109.5C195 109.776 194.776 110 194.5 110H188.5C188.224 110 188 109.776 188 109.5C188 109.224 188.224 109 188.5 109H193.293L183.146 98.8536C182.951 98.6583 182.951 98.3417 183.146 98.1464C183.342 97.9512 183.658 97.9512 183.854 98.1464L194 108.293V103.5C194 103.224 194.224 103 194.5 103C194.776 103 195 103.224 195 103.5V109.5Z" fill="#E72557"/>
<path d="M377.854 96.1464C378.049 96.3417 378.049 96.6583 377.854 96.8536L373.707 101H376.5C376.776 101 377 101.224 377 101.5C377 101.776 376.776 102 376.5 102H372.5C372.224 102 372 101.776 372 101.5V97.5C372 97.2239 372.224 97 372.5 97C372.776 97 373 97.2239 373 97.5V100.293L377.146 96.1464C377.342 95.9512 377.658 95.9512 377.854 96.1464Z" fill="#E72557"/>
<path d="M365.654 97.3285C365.403 97.0065 364.927 96.9769 364.639 97.2653L363.605 98.2992C363.122 98.7827 362.944 99.4677 363.155 100.068C364.003 102.481 365.392 104.747 367.323 106.677C369.253 108.608 371.519 109.997 373.932 110.845C374.532 111.056 375.217 110.878 375.701 110.395L376.735 109.361C377.023 109.073 376.994 108.597 376.672 108.346L374.365 106.552C374.201 106.424 373.987 106.379 373.784 106.43L371.595 106.977C371.001 107.126 370.372 106.952 369.938 106.518L367.482 104.062C367.048 103.628 366.874 102.999 367.023 102.405L367.57 100.216C367.621 100.013 367.576 99.7992 367.448 99.6347L365.654 97.3285ZM363.885 96.5111C364.627 95.769 365.851 95.8452 366.496 96.6736L368.29 98.9798C368.619 99.403 368.735 99.9541 368.605 100.474L368.058 102.663C368 102.894 368.068 103.139 368.236 103.307L370.693 105.764C370.861 105.932 371.106 106 371.337 105.942L373.526 105.395C374.046 105.265 374.597 105.381 375.02 105.71L377.326 107.504C378.155 108.149 378.231 109.373 377.489 110.115L376.455 111.149C375.715 111.889 374.609 112.214 373.578 111.851C371.018 110.951 368.614 109.477 366.568 107.432C364.523 105.386 363.049 102.982 362.149 100.422C361.786 99.3911 362.111 98.2847 362.851 97.545L363.885 96.5111Z" fill="#E72557"/>
<path d="M335.654 97.3285C335.403 97.0065 334.927 96.9769 334.639 97.2653L333.605 98.2992C333.122 98.7827 332.944 99.4677 333.155 100.068C334.003 102.481 335.392 104.747 337.323 106.677C339.253 108.608 341.519 109.997 343.932 110.845C344.532 111.056 345.217 110.878 345.701 110.395L346.735 109.361C347.023 109.073 346.994 108.597 346.672 108.346L344.365 106.552C344.201 106.424 343.987 106.379 343.784 106.43L341.595 106.977C341.001 107.126 340.372 106.952 339.938 106.518L337.482 104.062C337.048 103.628 336.874 102.999 337.023 102.405L337.57 100.216C337.621 100.013 337.576 99.7992 337.448 99.6347L335.654 97.3285ZM333.885 96.5111C334.627 95.769 335.851 95.8452 336.496 96.6736L338.29 98.9798C338.619 99.403 338.735 99.9541 338.605 100.474L338.058 102.663C338 102.894 338.068 103.139 338.236 103.307L340.693 105.764C340.861 105.932 341.106 106 341.337 105.942L343.526 105.395C344.046 105.265 344.597 105.381 345.02 105.71L347.326 107.504C348.155 108.149 348.231 109.373 347.489 110.115L346.455 111.149C345.715 111.889 344.609 112.214 343.578 111.851C341.018 110.951 338.614 109.477 336.568 107.432C334.523 105.386 333.049 102.982 332.149 100.422C331.786 99.3911 332.111 98.2847 332.851 97.545L333.885 96.5111Z" fill="#E72557"/>
<path d="M343 96.5C343 96.2239 343.224 96 343.5 96H347.5C347.776 96 348 96.2239 348 96.5V100.5C348 100.776 347.776 101 347.5 101C347.224 101 347 100.776 347 100.5V97.7071L342.854 101.854C342.658 102.049 342.342 102.049 342.146 101.854C341.951 101.658 341.951 101.342 342.146 101.146L346.293 97H343.5C343.224 97 343 96.7761 343 96.5Z" fill="#E72557"/>
<path d="M305.654 97.3285C305.403 97.0065 304.927 96.9769 304.639 97.2653L303.605 98.2992C303.122 98.7827 302.944 99.4677 303.155 100.068C304.003 102.481 305.392 104.747 307.323 106.677C309.253 108.608 311.519 109.997 313.932 110.845C314.532 111.056 315.217 110.878 315.701 110.395L316.735 109.361C317.023 109.073 316.994 108.597 316.672 108.346L314.365 106.552C314.201 106.424 313.987 106.379 313.784 106.43L311.595 106.977C311.001 107.126 310.372 106.952 309.938 106.518L307.482 104.062C307.048 103.628 306.874 102.999 307.023 102.405L307.57 100.216C307.621 100.013 307.576 99.7992 307.448 99.6347L305.654 97.3285ZM303.885 96.5111C304.627 95.769 305.851 95.8452 306.496 96.6736L308.29 98.9798C308.619 99.403 308.735 99.9541 308.605 100.474L308.058 102.663C308 102.894 308.068 103.139 308.236 103.307L310.693 105.764C310.861 105.932 311.106 106 311.337 105.942L313.526 105.395C314.046 105.265 314.597 105.381 315.02 105.71L317.326 107.504C318.155 108.149 318.231 109.373 317.489 110.115L316.455 111.149C315.715 111.889 314.609 112.214 313.578 111.851C311.018 110.951 308.614 109.477 306.568 107.432C304.523 105.386 303.049 102.982 302.149 100.422C301.786 99.3911 302.111 98.2847 302.851 97.545L303.885 96.5111Z" fill="#E72557"/>
<path fill-rule="evenodd" clip-rule="evenodd" d="M313.146 97.6464C313.342 97.4512 313.658 97.4512 313.854 97.6464L315 98.7929L316.146 97.6464C316.342 97.4512 316.658 97.4512 316.854 97.6464C317.049 97.8417 317.049 98.1583 316.854 98.3536L315.707 99.5L316.854 100.646C317.049 100.842 317.049 101.158 316.854 101.354C316.658 101.549 316.342 101.549 316.146 101.354L315 100.207L313.854 101.354C313.658 101.549 313.342 101.549 313.146 101.354C312.951 101.158 312.951 100.842 313.146 100.646L314.293 99.5L313.146 98.3536C312.951 98.1583 312.951 97.8417 313.146 97.6464Z" fill="#E72557"/>
<path fill-rule="evenodd" clip-rule="evenodd" d="M282 99.5C282 99.2239 282.224 99 282.5 99H286.5C286.776 99 287 99.2239 287 99.5C287 99.7761 286.776 100 286.5 100H282.5C282.224 100 282 99.7761 282 99.5Z" fill="#E72557"/>
<path d="M275.654 97.3285C275.403 97.0065 274.927 96.9769 274.639 97.2653L273.605 98.2992C273.122 98.7827 272.944 99.4677 273.155 100.068C274.003 102.481 275.392 104.747 277.323 106.677C279.253 108.608 281.519 109.997 283.932 110.845C284.532 111.056 285.217 110.878 285.701 110.395L286.735 109.361C287.023 109.073 286.994 108.597 286.672 108.346L284.365 106.552C284.201 106.424 283.987 106.379 283.784 106.43L281.595 106.977C281.001 107.126 280.372 106.952 279.938 106.518L277.482 104.062C277.048 103.628 276.874 102.999 277.023 102.405L277.57 100.216C277.621 100.013 277.576 99.7992 277.448 99.6347L275.654 97.3285ZM273.885 96.5111C274.627 95.769 275.851 95.8452 276.496 96.6736L278.29 98.9798C278.619 99.403 278.735 99.9541 278.605 100.474L278.058 102.663C278 102.894 278.068 103.139 278.236 103.307L280.693 105.764C280.861 105.932 281.106 106 281.337 105.942L283.526 105.395C284.046 105.265 284.597 105.381 285.02 105.71L287.326 107.504C288.155 108.149 288.231 109.373 287.489 110.115L286.455 111.149C285.715 111.889 284.609 112.214 283.578 111.851C281.018 110.951 278.614 109.477 276.568 107.432C274.523 105.386 273.049 102.982 272.149 100.422C271.786 99.3911 272.111 98.2847 272.851 97.545L273.885 96.5111Z" fill="#E72557"/>
<path d="M245.654 97.3285C245.403 97.0065 244.927 96.9769 244.639 97.2653L243.605 98.2992C243.122 98.7827 242.944 99.4677 243.155 100.068C244.003 102.481 245.392 104.747 247.323 106.677C249.253 108.608 251.519 109.997 253.932 110.845C254.532 111.056 255.217 110.878 255.701 110.395L256.735 109.361C257.023 109.073 256.994 108.597 256.672 108.346L254.365 106.552C254.201 106.424 253.987 106.379 253.784 106.43L251.595 106.977C251.001 107.126 250.372 106.952 249.938 106.518L247.482 104.062C247.048 103.628 246.874 102.999 247.023 102.405L247.57 100.216C247.621 100.013 247.576 99.7992 247.448 99.6347L245.654 97.3285ZM243.885 96.5111C244.627 95.769 245.851 95.8452 246.496 96.6736L248.29 98.9798C248.619 99.403 248.735 99.9541 248.605 100.474L248.058 102.663C248 102.894 248.068 103.139 248.236 103.307L250.693 105.764C250.861 105.932 251.106 106 251.337 105.942L253.526 105.395C254.046 105.265 254.597 105.381 255.02 105.71L257.326 107.504C258.155 108.149 258.231 109.373 257.489 110.115L256.455 111.149C255.715 111.889 254.609 112.214 253.578 111.851C251.018 110.951 248.614 109.477 246.568 107.432C244.523 105.386 243.049 102.982 242.149 100.422C241.786 99.3911 242.111 98.2847 242.851 97.545L243.885 96.5111Z" fill="#E72557"/>
<path fill-rule="evenodd" clip-rule="evenodd" d="M254.5 97C254.776 97 255 97.2239 255 97.5V99H256.5C256.776 99 257 99.2239 257 99.5C257 99.7761 256.776 100 256.5 100H255V101.5C255 101.776 254.776 102 254.5 102C254.224 102 254 101.776 254 101.5V100H252.5C252.224 100 252 99.7761 252 99.5C252 99.2239 252.224 99 252.5 99H254V97.5C254 97.2239 254.224 97 254.5 97Z" fill="#E72557"/>
<path d="M215.654 97.3285C215.403 97.0065 214.927 96.9769 214.639 97.2653L213.605 98.2992C213.122 98.7827 212.944 99.4677 213.155 100.068C214.003 102.481 215.392 104.747 217.323 106.677C219.253 108.608 221.519 109.997 223.932 110.845C224.532 111.056 225.217 110.878 225.701 110.395L226.735 109.361C227.023 109.073 226.994 108.597 226.672 108.346L224.365 106.552C224.201 106.424 223.987 106.379 223.784 106.43L221.595 106.977C221.001 107.126 220.372 106.952 219.938 106.518L217.482 104.062C217.048 103.628 216.874 102.999 217.023 102.405L217.57 100.216C217.621 100.013 217.576 99.7992 217.448 99.6347L215.654 97.3285ZM213.885 96.5111C214.627 95.769 215.851 95.8452 216.496 96.6736L218.29 98.9798C218.619 99.403 218.735 99.9541 218.605 100.474L218.058 102.663C218 102.894 218.068 103.139 218.236 103.307L220.693 105.764C220.861 105.932 221.106 106 221.337 105.942L223.526 105.395C224.046 105.265 224.597 105.381 225.02 105.71L227.326 107.504C228.155 108.149 228.231 109.373 227.489 110.115L226.455 111.149C225.715 111.889 224.609 112.214 223.578 111.851C221.018 110.951 218.614 109.477 216.568 107.432C214.523 105.386 213.049 102.982 212.149 100.422C211.786 99.3911 212.111 98.2847 212.851 97.545L213.885 96.5111Z" fill="#E72557"/>
<path d="M396.654 97.3285C396.403 97.0065 395.927 96.9769 395.639 97.2653L394.605 98.2992C394.122 98.7827 393.944 99.4677 394.155 100.068C395.003 102.481 396.392 104.747 398.323 106.677C400.253 108.608 402.519 109.997 404.932 110.845C405.532 111.056 406.217 110.878 406.701 110.395L407.735 109.361C408.023 109.073 407.994 108.597 407.672 108.346L405.365 106.552C405.201 106.424 404.987 106.379 404.784 106.43L402.595 106.977C402.001 107.126 401.372 106.952 400.938 106.518L398.482 104.062C398.048 103.628 397.874 102.999 398.023 102.405L398.57 100.216C398.621 100.013 398.576 99.7992 398.448 99.6347L396.654 97.3285ZM394.885 96.5111C395.627 95.769 396.851 95.8452 397.496 96.6736L399.29 98.9798C399.619 99.403 399.735 99.9541 399.605 100.474L399.058 102.663C399 102.894 399.068 103.139 399.236 103.307L401.693 105.764C401.861 105.932 402.106 106 402.337 105.942L404.526 105.395C405.046 105.265 405.597 105.381 406.02 105.71L408.326 107.504C409.155 108.149 409.231 109.373 408.489 110.115L407.455 111.149C406.715 111.889 405.609 112.214 404.578 111.851C402.018 110.951 399.614 109.477 397.568 107.432C395.523 105.386 394.049 102.982 393.149 100.422C392.786 99.3911 393.111 98.2847 393.851 97.545L394.885 96.5111Z" fill="#E72557"/>
<path d="M405.646 96.6464C405.842 96.4512 406.158 96.4512 406.354 96.6464L408.854 99.1464C409.049 99.3417 409.049 99.6583 408.854 99.8536L406.354 102.354C406.158 102.549 405.842 102.549 405.646 102.354C405.451 102.158 405.451 101.842 405.646 101.646L407.293 100H402.5C402.224 100 402 99.7761 402 99.5C402 99.2239 402.224 99 402.5 99H407.293L405.646 97.3536C405.451 97.1583 405.451 96.8417 405.646 96.6464Z" fill="#E72557"/>
<path d="M100.5 142.5C100.5 142.224 100.276 142 100 142C99.7239 142 99.5 142.224 99.5 142.5V145.862L98.0713 148.243C97.9292 148.48 98.006 148.787 98.2428 148.929C98.4795 149.071 98.7867 148.994 98.9287 148.757L100.429 146.257C100.475 146.18 100.5 146.091 100.5 146V142.5Z" fill="#E72557"/>
<path d="M98.5 137C98.2239 137 98 137.224 98 137.5C98 137.776 98.2239 138 98.5 138H99V139.071C95.6075 139.556 93 142.473 93 146C93 148.258 94.069 150.265 95.7265 151.545L95.1246 152.146C94.9294 152.342 94.9294 152.658 95.1246 152.854C95.3199 153.049 95.6365 153.049 95.8317 152.854L96.5776 152.108C97.5898 152.676 98.7577 153 100 153C101.242 153 102.41 152.676 103.422 152.108L104.168 152.854C104.364 153.049 104.68 153.049 104.875 152.854C105.071 152.658 105.071 152.342 104.875 152.146L104.273 151.545C105.931 150.265 107 148.258 107 146C107 142.473 104.393 139.556 101 139.071V138H101.5C101.776 138 102 137.776 102 137.5C102 137.224 101.776 137 101.5 137H98.5ZM99.5379 140.018C99.6903 140.006 99.8444 140 100 140C100.156 140 100.31 140.006 100.462 140.018C103.56 140.253 106 142.842 106 146C106 148.124 104.897 149.99 103.23 151.057C102.298 151.654 101.19 152 100 152C98.8097 152 97.7018 151.654 96.7696 151.057C95.1029 149.99 94 148.124 94 146C94 142.842 96.4404 140.253 99.5379 140.018Z" fill="#E72557"/>
<path d="M92 140.5C92 141.253 92.3332 141.929 92.8603 142.387C93.6299 140.869 94.8693 139.63 96.3872 138.86C95.9289 138.333 95.2533 138 94.5 138C93.1193 138 92 139.119 92 140.5Z" fill="#E72557"/>
<path d="M105.5 138C104.747 138 104.071 138.333 103.613 138.86C105.131 139.63 106.37 140.869 107.14 142.387C107.667 141.929 108 141.253 108 140.5C108 139.119 106.881 138 105.5 138Z" fill="#E72557"/>
<path d="M73.5 142.6C73.5 142.324 73.2761 142.1 73 142.1C72.7238 142.1 72.5 142.324 72.5 142.6L72.5 145.5H69.5C69.2239 145.5 69 145.724 69 146C69 146.276 69.2239 146.5 69.5 146.5H73C73.1326 146.5 73.2598 146.447 73.3536 146.354C73.4473 146.26 73.5 146.133 73.5 146L73.5 142.6Z" fill="#E72557"/>
<path d="M71.5 138C71.5 137.724 71.7239 137.5 72 137.5H74C74.2761 137.5 74.5 137.724 74.5 138C74.5 138.276 74.2761 138.5 74 138.5V139.071C75.3599 139.266 76.5936 139.851 77.5838 140.709C77.5879 140.705 77.592 140.701 77.5962 140.697L77.9498 140.343L77.5962 139.99C77.401 139.794 77.401 139.478 77.5962 139.282C77.7915 139.087 78.1081 139.087 78.3033 139.282L79.7175 140.697C79.9128 140.892 79.9128 141.208 79.7175 141.404C79.5223 141.599 79.2057 141.599 79.0104 141.404L78.6569 141.05L78.3033 141.404C78.2991 141.408 78.2948 141.412 78.2905 141.416C79.3555 142.644 80 144.247 80 146C80 149.866 76.866 153 73 153C69.134 153 66 149.866 66 146C66 142.473 68.6075 139.556 72 139.071V138.5C71.7239 138.5 71.5 138.276 71.5 138ZM73 140C72.8444 140 72.6903 140.006 72.5379 140.018C69.4404 140.253 67 142.842 67 146C67 149.314 69.6863 152 73 152C76.3137 152 79 149.314 79 146C79 142.842 76.5596 140.253 73.4621 140.018C73.3097 140.006 73.1556 140 73 140Z" fill="#E72557"/>
<path d="M43.515 138.019C43.344 138.006 43.1723 138 43 138V137C43.1968 137 43.3931 137.007 43.5885 137.022L43.515 138.019ZM45.5193 138.469C45.1985 138.345 44.8691 138.245 44.5337 138.17L44.7528 137.194C45.1361 137.28 45.5126 137.395 45.8792 137.536L45.5193 138.469ZM46.889 139.18C46.7458 139.084 46.5994 138.994 46.4503 138.909L46.9432 138.039C47.1136 138.136 47.2809 138.239 47.4446 138.348C47.6082 138.458 47.7674 138.573 47.9219 138.693L47.3066 139.482C47.1715 139.376 47.0322 139.275 46.889 139.18ZM48.7231 140.969C48.5252 140.688 48.3068 140.422 48.0697 140.173L48.794 139.484C49.0649 139.768 49.3145 140.072 49.5407 140.394L48.7231 140.969ZM49.4672 142.321C49.4012 142.162 49.3296 142.006 49.2526 141.853L50.1458 141.403C50.2339 141.578 50.3157 141.757 50.391 141.939C50.4664 142.12 50.5348 142.305 50.5962 142.491L49.6467 142.804C49.5929 142.641 49.5331 142.48 49.4672 142.321ZM49.9979 144.828C49.9895 144.485 49.9557 144.142 49.8969 143.803L50.8822 143.632C50.9494 144.019 50.988 144.411 50.9976 144.804L49.9979 144.828ZM49.8655 146.366C49.8991 146.197 49.9264 146.027 49.9474 145.857L50.9398 145.979C50.9159 146.174 50.8847 146.368 50.8463 146.561C50.8079 146.754 50.7625 146.945 50.7102 147.134L49.7464 146.867C49.7922 146.702 49.8319 146.535 49.8655 146.366ZM48.914 148.745C49.0979 148.455 49.2602 148.151 49.3995 147.837L50.3137 148.242C50.1545 148.601 49.969 148.948 49.7588 149.28L48.914 148.745ZM47.9497 149.95C48.0715 149.828 48.1885 149.702 48.3005 149.572L49.0577 150.225C48.9297 150.374 48.796 150.518 48.6569 150.657L47.9497 149.95Z" fill="#E72557"/>
<path d="M43 138C41.8488 138 40.7155 138.284 39.7002 138.827C38.685 139.369 37.8193 140.154 37.1797 141.111C36.5402 142.068 36.1465 143.168 36.0337 144.314C35.9209 145.459 36.0923 146.615 36.5328 147.679C36.9734 148.742 37.6694 149.681 38.5592 150.411C39.4491 151.141 40.5053 151.641 41.6344 151.865C42.7634 152.09 43.9304 152.033 45.032 151.699C46.1336 151.364 47.1358 150.764 47.9497 149.95L48.6569 150.657C47.7266 151.587 46.5812 152.274 45.3223 152.656C44.0633 153.037 42.7296 153.103 41.4393 152.846C40.149 152.59 38.9418 152.019 37.9249 151.184C36.9079 150.349 36.1124 149.277 35.609 148.061C35.1055 146.846 34.9096 145.525 35.0385 144.216C35.1675 142.907 35.6173 141.649 36.3482 140.555C37.0792 139.462 38.0686 138.565 39.2288 137.945C40.3891 137.324 41.6844 137 43 137V138Z" fill="#E72557"/>
<path d="M42.5 140C42.7761 140 43 140.224 43 140.5V145.71L46.2481 147.566C46.4878 147.703 46.5711 148.008 46.4341 148.248C46.2971 148.488 45.9917 148.571 45.7519 148.434L42.2519 146.434C42.0961 146.345 42 146.179 42 146V140.5C42 140.224 42.2239 140 42.5 140Z" fill="#E72557"/>
<path d="M9 140.5C9 140.224 8.77614 140 8.5 140C8.22386 140 8 140.224 8 140.5V146C8 146.179 8.09614 146.345 8.25193 146.434L11.7519 148.434C11.9917 148.571 12.2971 148.488 12.4341 148.248C12.5711 148.008 12.4878 147.703 12.2481 147.566L9 145.71V140.5Z" fill="#E72557"/>
<path d="M9 153C13.4183 153 17 149.418 17 145C17 140.582 13.4183 137 9 137C4.58172 137 1 140.582 1 145C1 149.418 4.58172 153 9 153ZM16 145C16 148.866 12.866 152 9 152C5.13401 152 2 148.866 2 145C2 141.134 5.13401 138 9 138C12.866 138 16 141.134 16 145Z" fill="#E72557"/>
<path d="M187.5 144C187.224 144 187 144.224 187 144.5C187 144.776 187.224 145 187.5 145H191.5C191.776 145 192 144.776 192 144.5C192 144.224 191.776 144 191.5 144H187.5Z" fill="#E72557"/>
<path d="M181.5 138C181.224 138 181 138.224 181 138.5C181 138.776 181.224 139 181.5 139H182.61L183.011 140.607L184.509 148.592C184.553 148.829 184.759 149 185 149H186C184.895 149 184 149.895 184 151C184 152.105 184.895 153 186 153C187.105 153 188 152.105 188 151C188 149.895 187.105 149 186 149H193C191.895 149 191 149.895 191 151C191 152.105 191.895 153 193 153C194.105 153 195 152.105 195 151C195 149.895 194.105 149 193 149H194C194.241 149 194.447 148.829 194.491 148.592L195.991 140.592C196.019 140.446 195.98 140.295 195.885 140.181C195.79 140.066 195.649 140 195.5 140H183.89L183.485 138.379C183.429 138.156 183.229 138 183 138H181.5ZM185.415 148L184.102 141H194.898L193.585 148H185.415ZM187 151C187 151.552 186.552 152 186 152C185.448 152 185 151.552 185 151C185 150.448 185.448 150 186 150C186.552 150 187 150.448 187 151ZM194 151C194 151.552 193.552 152 193 152C192.448 152 192 151.552 192 151C192 150.448 192.448 150 193 150C193.552 150 194 150.448 194 151Z" fill="#E72557"/>
<path d="M160 142.5C160 142.224 159.776 142 159.5 142C159.224 142 159 142.224 159 142.5V144H157.5C157.224 144 157 144.224 157 144.5C157 144.776 157.224 145 157.5 145H159V146.5C159 146.776 159.224 147 159.5 147C159.776 147 160 146.776 160 146.5V145H161.5C161.776 145 162 144.776 162 144.5C162 144.224 161.776 144 161.5 144H160V142.5Z" fill="#E72557"/>
<path d="M151.5 138C151.224 138 151 138.224 151 138.5C151 138.776 151.224 139 151.5 139H152.61L153.011 140.607L154.509 148.592C154.553 148.829 154.759 149 155 149H156C154.895 149 154 149.895 154 151C154 152.105 154.895 153 156 153C157.105 153 158 152.105 158 151C158 149.895 157.105 149 156 149H163C161.895 149 161 149.895 161 151C161 152.105 161.895 153 163 153C164.105 153 165 152.105 165 151C165 149.895 164.105 149 163 149H164C164.241 149 164.447 148.829 164.491 148.592L165.991 140.592C166.019 140.446 165.98 140.295 165.885 140.181C165.79 140.066 165.649 140 165.5 140H153.89L153.485 138.379C153.429 138.156 153.229 138 153 138H151.5ZM155.415 148L154.102 141H164.898L163.585 148H155.415ZM157 151C157 151.552 156.552 152 156 152C155.448 152 155 151.552 155 151C155 150.448 155.448 150 156 150C156.552 150 157 150.448 157 151ZM164 151C164 151.552 163.552 152 163 152C162.448 152 162 151.552 162 151C162 150.448 162.448 150 163 150C163.552 150 164 150.448 164 151Z" fill="#E72557"/>
<path d="M121 138.5C121 138.224 121.224 138 121.5 138H123C123.229 138 123.429 138.156 123.485 138.379L123.89 140H135.5C135.649 140 135.79 140.066 135.885 140.181C135.98 140.295 136.019 140.446 135.991 140.592L134.491 148.592C134.447 148.829 134.241 149 134 149H133H126H125C124.759 149 124.553 148.829 124.509 148.592L123.011 140.607L122.61 139H121.5C121.224 139 121 138.776 121 138.5ZM124.102 141L125.415 148H133.585L134.898 141H124.102ZM126 149C124.895 149 124 149.895 124 151C124 152.105 124.895 153 126 153C127.105 153 128 152.105 128 151C128 149.895 127.105 149 126 149ZM133 149C131.895 149 131 149.895 131 151C131 152.105 131.895 153 133 153C134.105 153 135 152.105 135 151C135 149.895 134.105 149 133 149ZM126 150C126.552 150 127 150.448 127 151C127 151.552 126.552 152 126 152C125.448 152 125 151.552 125 151C125 150.448 125.448 150 126 150ZM133 150C133.552 150 134 150.448 134 151C134 151.552 133.552 152 133 152C132.448 152 132 151.552 132 151C132 150.448 132.448 150 133 150Z" fill="#E72557"/>
<path d="M395.981 141C395.829 141 395.685 141.069 395.59 141.188L392.54 145H397C397.276 145 397.5 145.224 397.5 145.5C397.5 146.328 398.172 147 399 147C399.828 147 400.5 146.328 400.5 145.5C400.5 145.224 400.724 145 401 145H405.46L402.41 141.188C402.315 141.069 402.171 141 402.019 141H395.981ZM405.934 146H401.45C401.218 147.141 400.209 148 399 148C397.791 148 396.782 147.141 396.55 146H392.066L392.387 148.562C392.418 148.812 392.631 149 392.883 149H405.117C405.369 149 405.582 148.812 405.613 148.562L405.934 146ZM394.809 140.563C395.094 140.207 395.525 140 395.981 140H402.019C402.475 140 402.906 140.207 403.191 140.563L406.89 145.188C406.975 145.293 407.013 145.428 406.996 145.562L406.606 148.686C406.512 149.437 405.874 150 405.117 150H392.883C392.126 150 391.488 149.437 391.394 148.686L391.004 145.562C390.987 145.428 391.025 145.293 391.11 145.188L394.809 140.563Z" fill="#E72557"/>
<path d="M370.502 142.513C370.409 142.471 370.3 142.539 370.3 142.647V143.65C370.3 143.926 370.076 144.15 369.8 144.15H363.5V147.05H369.8C370.076 147.05 370.3 147.274 370.3 147.55V148.553C370.3 148.661 370.409 148.729 370.502 148.687L374.486 145.754C374.499 145.744 374.514 145.735 374.528 145.726C374.624 145.67 374.624 145.53 374.528 145.474C374.514 145.465 374.499 145.456 374.486 145.446L370.502 142.513ZM369.3 142.647C369.3 141.751 370.269 141.214 371.025 141.659C371.039 141.668 371.054 141.677 371.067 141.687L375.061 144.627C375.78 145.074 375.78 146.126 375.061 146.573L371.067 149.513C371.054 149.523 371.039 149.532 371.025 149.541C370.269 149.986 369.3 149.449 369.3 148.553V148.05H363C362.724 148.05 362.5 147.826 362.5 147.55V143.65C362.5 143.374 362.724 143.15 363 143.15H369.3V142.647Z" fill="#E72557"/>
<path d="M339.098 142.013C339.191 141.971 339.3 142.039 339.3 142.147V143.3C339.3 143.576 339.524 143.8 339.8 143.8C340.467 143.8 341.813 143.805 343.101 144.622C344.084 145.246 345.091 146.382 345.695 148.498C344.674 147.515 343.51 146.982 342.49 146.699C341.737 146.49 341.059 146.416 340.569 146.393C340.323 146.382 340.123 146.384 339.983 146.389C339.912 146.391 339.857 146.394 339.818 146.397C339.798 146.398 339.782 146.4 339.771 146.401L339.758 146.402L339.753 146.402L339.752 146.402C339.752 146.402 339.751 146.402 339.8 146.9L339.751 146.402C339.495 146.428 339.3 146.643 339.3 146.9V148.053C339.3 148.161 339.191 148.229 339.098 148.187L335.114 145.254C335.1 145.244 335.086 145.235 335.072 145.226C334.976 145.17 334.976 145.03 335.072 144.974C335.086 144.965 335.1 144.956 335.114 144.946L339.098 142.013ZM340.3 147.386C340.368 147.387 340.443 147.389 340.523 147.392C340.956 147.412 341.557 147.478 342.222 147.663C343.549 148.031 345.119 148.865 346.163 150.743C346.279 150.952 346.528 151.05 346.755 150.975C346.983 150.901 347.126 150.676 347.096 150.438C346.632 146.728 345.21 144.776 343.637 143.778C342.39 142.987 341.109 142.836 340.3 142.807V142.147C340.3 141.251 339.331 140.714 338.575 141.159C338.561 141.168 338.546 141.177 338.533 141.187L334.539 144.127C333.82 144.574 333.82 145.626 334.539 146.073L338.533 149.013C338.546 149.023 338.561 149.032 338.575 149.041C339.331 149.486 340.3 148.949 340.3 148.053V147.386Z" fill="#E72557"/>
<path d="M336.232 141.293C336.068 141.071 335.755 141.023 335.533 141.187L331.539 144.127C330.82 144.574 330.82 145.626 331.539 146.073L335.533 149.013C335.755 149.177 336.068 149.129 336.232 148.907C336.395 148.684 336.348 148.371 336.126 148.208L332.114 145.254C332.1 145.244 332.086 145.235 332.072 145.226C331.976 145.17 331.976 145.03 332.072 144.974C332.086 144.965 332.1 144.956 332.114 144.946L336.126 141.992C336.348 141.829 336.395 141.516 336.232 141.293Z" fill="#E72557"/>
<path d="M307.598 142.013C307.691 141.971 307.8 142.039 307.8 142.147V143.3C307.8 143.576 308.024 143.8 308.3 143.8C308.967 143.8 310.313 143.805 311.601 144.622C312.584 145.246 313.591 146.382 314.195 148.498C313.174 147.515 312.01 146.982 310.99 146.699C310.237 146.49 309.559 146.416 309.069 146.393C308.823 146.382 308.623 146.384 308.483 146.389C308.413 146.391 308.357 146.394 308.318 146.397C308.298 146.398 308.283 146.4 308.271 146.401L308.258 146.402L308.253 146.402L308.252 146.402C308.252 146.402 308.251 146.402 308.3 146.9L308.251 146.402C307.995 146.428 307.8 146.643 307.8 146.9V148.053C307.8 148.161 307.691 148.229 307.598 148.187L303.614 145.254C303.601 145.244 303.586 145.235 303.572 145.226C303.476 145.17 303.476 145.03 303.572 144.974C303.586 144.965 303.601 144.956 303.614 144.946L307.598 142.013ZM308.8 147.386C308.868 147.387 308.943 147.389 309.023 147.392C309.457 147.412 310.057 147.478 310.723 147.663C312.049 148.031 313.619 148.865 314.663 150.743C314.779 150.952 315.028 151.05 315.255 150.975C315.483 150.901 315.626 150.676 315.596 150.438C315.132 146.728 313.71 144.776 312.137 143.778C310.891 142.987 309.609 142.836 308.8 142.807V142.147C308.8 141.251 307.831 140.714 307.075 141.159C307.061 141.168 307.046 141.177 307.033 141.187L303.039 144.127C302.32 144.574 302.32 145.626 303.039 146.073L307.033 149.013C307.046 149.023 307.061 149.032 307.075 149.041C307.831 149.486 308.8 148.949 308.8 148.053V147.386Z" fill="#E72557"/>
<path d="M285.778 137.085C285.917 137.178 286 137.333 286 137.5V145C286 145.204 285.876 145.388 285.686 145.464L285.5 145C285.686 145.464 285.686 145.464 285.686 145.464L285.683 145.465L285.677 145.468L285.654 145.477C285.634 145.484 285.606 145.496 285.569 145.51C285.495 145.538 285.389 145.578 285.257 145.626C284.993 145.722 284.626 145.85 284.21 145.978C283.394 146.229 282.331 146.5 281.5 146.5C280.653 146.5 279.952 146.219 279.342 145.975L279.314 145.964C278.68 145.711 278.14 145.5 277.5 145.5C276.8 145.5 275.862 145.729 275.063 145.977C274.671 146.099 274.326 146.221 274.079 146.313C274.051 146.323 274.025 146.333 274 146.342V152.5C274 152.776 273.776 153 273.5 153C273.224 153 273 152.776 273 152.5V137.5C273 137.224 273.224 137 273.5 137C273.776 137 274 137.224 274 137.5V137.782C274.226 137.703 274.496 137.613 274.79 137.522C275.606 137.271 276.669 137 277.5 137C278.341 137 279.024 137.277 279.621 137.519C279.636 137.525 279.65 137.531 279.664 137.537C280.286 137.788 280.828 138 281.5 138C282.2 138 283.138 137.771 283.937 137.523C284.329 137.401 284.674 137.279 284.921 137.187C285.044 137.142 285.143 137.104 285.21 137.077C285.243 137.064 285.269 137.054 285.286 137.047L285.305 137.04L285.309 137.038L285.31 137.037M285 138.222C284.78 138.3 284.519 138.389 284.234 138.477C283.424 138.729 282.362 139 281.5 139C280.614 139 279.908 138.714 279.297 138.466L279.289 138.463C278.662 138.209 278.139 138 277.5 138C276.831 138 275.894 138.229 275.085 138.478C274.688 138.6 274.337 138.722 274.085 138.814C274.055 138.824 274.027 138.835 274 138.845V145.278C274.22 145.2 274.481 145.111 274.766 145.023C275.576 144.771 276.638 144.5 277.5 144.5C278.347 144.5 279.048 144.781 279.658 145.025L279.686 145.036C280.32 145.289 280.86 145.5 281.5 145.5C282.169 145.5 283.106 145.271 283.915 145.022C284.312 144.9 284.663 144.778 284.915 144.686C284.945 144.676 284.973 144.665 285 144.655V138.222Z" fill="#E72557"/>
<path d="M246.164 150H256C255.701 149.801 255.443 149.447 255.219 149C254.321 147.199 254 143.879 254 143C254 142.736 253.98 142.477 253.94 142.224L253.002 143.162C253.022 143.87 253.159 145.316 253.459 146.742C253.62 147.509 253.835 148.308 254.122 149H247.164L246.164 150Z" fill="#E72557"/>
<path d="M251.745 140.091C251.213 139.588 250.543 139.23 249.797 139.079L249 138.918L248.203 139.079C246.376 139.448 245 141.065 245 143C245 143.628 244.866 145.197 244.541 146.742C244.491 146.98 244.436 147.221 244.375 147.461L242.722 149.113C242.742 149.076 242.762 149.039 242.781 149C243.679 147.199 244 143.879 244 143C244 140.579 245.72 138.561 248.005 138.099C248.002 138.067 248 138.033 248 138C248 137.448 248.448 137 249 137C249.552 137 250 137.448 250 138C250 138.033 249.998 138.067 249.995 138.099C250.937 138.289 251.783 138.744 252.452 139.383L251.745 140.091Z" fill="#E72557"/>
<path d="M251 151C251 152.105 250.105 153 249 153C247.895 153 247 152.105 247 151H251Z" fill="#E72557"/>
<path d="M241.625 151.625C241.418 151.832 241.418 152.168 241.625 152.375C241.832 152.582 242.168 152.582 242.375 152.375L257.125 137.625C257.332 137.418 257.332 137.082 257.125 136.875C256.918 136.668 256.582 136.668 256.375 136.875L241.625 151.625Z" fill="#E72557"/>
<path d="M219 153C220.105 153 221 152.105 221 151H217C217 152.105 217.895 153 219 153Z" fill="#E72557"/>
<path d="M219 138.918L218.203 139.079C216.376 139.448 215 141.065 215 143C215 143.628 214.866 145.197 214.541 146.742C214.38 147.509 214.165 148.308 213.878 149H224.122C223.835 148.308 223.62 147.509 223.459 146.742C223.134 145.197 223 143.628 223 143C223 141.065 221.625 139.448 219.797 139.079L219 138.918ZM225.219 149C225.443 149.447 225.701 149.801 226 150H212C212.299 149.801 212.557 149.447 212.781 149C213.679 147.199 214 143.879 214 143C214 140.579 215.72 138.56 218.005 138.099C218.002 138.066 218 138.033 218 138C218 137.448 218.448 137 219 137C219.552 137 220 137.448 220 138C220 138.033 219.998 138.066 219.995 138.099C222.28 138.56 224 140.579 224 143C224 143.879 224.321 147.199 225.219 149Z" fill="#E72557"/>
</svg>
